<svg width="212" height="50" viewBox="0 0 212 50" fill="none" xmlns="http://www.w3.org/2000/svg">
<path d="M112.473 26.4921C112.473 25.1444 112.473 23.8159 112.454 22.4682C112.435 21.3323 112.377 20.1771 112.262 19.0412C112.204 18.5021 112.128 17.963 111.974 17.4239C111.898 17.0966 111.764 16.7886 111.591 16.519C111.169 15.8452 110.556 15.4794 109.751 15.4023C108.964 15.3253 108.217 15.4986 107.507 15.8644C106.971 16.134 106.511 16.4998 106.07 16.9233C105.571 17.4047 105.149 17.9245 104.766 18.4828C103.884 19.7535 103.194 21.1205 102.676 22.5837C102.216 23.8159 101.89 25.0673 101.66 26.3573C101.488 27.2622 101.372 28.1863 101.296 29.1105C101.219 30.0924 101.162 31.0935 101.181 32.0947C101.181 32.2487 101.181 32.3835 101.162 32.5375C101.162 32.5568 101.123 32.5953 101.104 32.6145C101.008 32.653 100.912 32.6723 100.817 32.6915C99.8963 32.807 98.976 32.9226 98.075 33.0188C97.7299 33.0573 97.3848 33.0958 97.0397 33.1536C96.9822 33.1536 96.9055 33.1151 96.9055 33.0381C96.9055 32.8841 96.8863 32.7493 96.8863 32.5953C96.8672 27.782 96.848 22.9495 96.8096 18.1363C96.8096 17.2506 96.8096 16.3457 96.8096 15.4601C96.8096 15.3446 96.8096 15.2291 96.8096 15.1135C96.8096 15.0173 96.7713 14.9595 96.7138 14.9018C96.6371 14.8248 96.5412 14.7477 96.4454 14.6707C95.5635 13.9006 94.6624 13.1305 93.7805 12.3604C93.6463 12.2449 93.4929 12.1293 93.4163 11.9561C93.3971 11.8983 93.3779 11.8405 93.3587 11.7635C93.3396 11.6865 93.3971 11.5903 93.4546 11.5517C93.5888 11.4747 93.723 11.4362 93.8764 11.4362C94.1448 11.417 94.394 11.3785 94.6624 11.3592C95.2376 11.3207 95.8127 11.263 96.3879 11.2244C96.963 11.1859 97.5382 11.1282 98.1133 11.0704C98.6118 11.0319 99.0911 10.9934 99.5895 10.9549C100.165 10.9164 100.74 10.8586 101.315 10.8201C101.507 10.8009 101.718 10.7816 101.909 10.7624C101.986 10.7624 102.082 10.7624 102.159 10.7624C102.197 10.7624 102.254 10.8201 102.254 10.8586C102.254 10.9549 102.254 11.0512 102.235 11.1474C102.139 12.1678 102.044 13.1883 101.948 14.2087C101.871 15.0558 101.775 15.8837 101.698 16.7308C101.641 17.3854 101.583 18.0593 101.545 18.7139C101.545 18.7524 101.564 18.7716 101.603 18.7716C101.622 18.7716 101.641 18.7716 101.641 18.7524C101.679 18.7139 101.698 18.6754 101.737 18.6368C101.813 18.5021 101.89 18.3866 101.967 18.2518C102.676 17.0966 103.443 15.9799 104.325 14.9403C105.13 13.9969 105.993 13.1497 106.99 12.4181C107.661 11.9176 108.37 11.5132 109.137 11.2052C110.019 10.8586 110.939 10.6854 111.898 10.7431C112.78 10.8009 113.623 11.0512 114.352 11.5517C114.812 11.879 115.214 12.2834 115.54 12.7262C115.981 13.3423 116.288 14.0161 116.518 14.7285C116.729 15.3638 116.844 15.9992 116.94 16.673C116.997 17.0966 117.017 17.5202 117.055 17.963C117.074 18.1748 117.093 18.3866 117.093 18.5983C117.093 18.6368 117.112 18.6561 117.151 18.6561C117.17 18.6561 117.189 18.6561 117.189 18.6368C117.266 18.5213 117.323 18.4058 117.4 18.2903C118.033 17.1544 118.742 16.0569 119.566 15.0365C120.372 14.0161 121.273 13.1112 122.308 12.3411C122.864 11.9176 123.458 11.571 124.091 11.2822C125.222 10.7816 126.392 10.6276 127.619 10.8201C127.944 10.8779 128.27 10.9357 128.577 11.0319C129.689 11.3785 130.571 12.0331 131.223 13.015C131.645 13.6311 131.932 14.3242 132.124 15.0365C132.354 15.8452 132.488 16.6923 132.546 17.5394C132.603 18.4636 132.622 19.3877 132.565 20.3119C132.546 20.5236 132.546 20.7354 132.546 20.9665C132.526 22.0254 132.45 23.0843 132.373 24.1432C132.316 24.7785 132.277 25.4331 132.239 26.0685C132.181 26.7423 132.143 27.4162 132.086 28.1093C132.086 28.1478 132.086 28.1671 132.086 28.2056C132.047 29.3223 131.951 30.4197 131.951 31.5363C131.951 32.1332 132.047 32.73 132.258 33.2884C132.296 33.3654 132.316 33.4424 132.335 33.5194C132.392 33.6927 132.258 33.9045 132.086 33.943C131.99 33.9622 131.894 33.9815 131.798 33.9815C131.606 33.9622 131.415 33.943 131.223 33.8852C130.398 33.6349 129.689 33.2114 129.056 32.6338C128.673 32.2872 128.424 31.8636 128.232 31.4016C128.098 31.055 127.983 30.6892 127.925 30.3042C127.81 29.5918 127.734 28.8602 127.734 28.1286C127.734 27.4162 127.734 26.7038 127.734 25.9915C127.734 25.0288 127.753 24.0662 127.772 23.1035C127.791 22.1601 127.772 21.2167 127.714 20.2733C127.676 19.5032 127.599 18.7139 127.427 17.963C127.35 17.6357 127.273 17.3276 127.139 17.0196C127.043 16.8078 126.948 16.596 126.813 16.4035C126.392 15.8067 125.816 15.4986 125.107 15.4409C124.436 15.3831 123.803 15.5179 123.19 15.8067C122.653 16.0569 122.174 16.4228 121.733 16.8271C121.311 17.2314 120.947 17.6742 120.602 18.1363C119.892 19.0989 119.317 20.1386 118.819 21.236C118.205 22.5837 117.764 23.9699 117.438 25.4139C117.247 26.2995 117.093 27.2044 116.978 28.1093C116.921 28.6099 116.882 29.1297 116.844 29.6496C116.767 30.5544 116.748 31.4786 116.767 32.3835C116.767 32.4412 116.767 32.5182 116.748 32.576C116.748 32.6338 116.691 32.653 116.652 32.6723C116.595 32.6915 116.518 32.7108 116.461 32.7108C115.809 32.7878 115.157 32.8648 114.505 32.9418C113.911 33.0188 113.336 33.0958 112.741 33.1536C112.684 33.1536 112.645 33.1728 112.588 33.1728C112.55 33.1728 112.492 33.1151 112.492 33.0766C112.492 32.9226 112.473 32.7878 112.473 32.6338C112.473 31.7481 112.492 30.8432 112.492 29.9576C112.492 28.8217 112.492 27.6665 112.492 26.5306C112.454 26.4921 112.454 26.4921 112.473 26.4921Z" fill="white"/>
<path d="M16.3656 20.1387C17.0558 20.1579 17.746 20.1772 18.4362 20.1964C19.3756 20.2157 20.315 20.2542 21.2544 20.2734C21.4269 20.2734 21.5803 20.2734 21.7528 20.2734C21.7912 20.2734 21.8295 20.2157 21.8295 20.1772C21.772 20.0039 21.6953 19.8306 21.6378 19.6766C20.9476 18.0016 20.2575 16.3073 19.5673 14.6323C19.5289 14.536 19.4906 14.4398 19.4522 14.3628C19.4139 14.2858 19.4522 14.228 19.4906 14.1895C19.5098 14.1702 19.5289 14.151 19.5673 14.1125C20.2958 13.4579 21.0627 12.861 21.9062 12.3797C22.4622 12.0524 23.0565 11.8021 23.67 11.6096C23.7659 11.5711 23.8234 11.6096 23.8617 11.7059C23.9001 11.7829 23.9192 11.8599 23.9576 11.9369C24.111 12.3412 24.2643 12.7455 24.4177 13.1498C26.7183 19.3108 29.0189 25.491 31.3195 31.652C31.3578 31.7482 31.3962 31.8445 31.4154 31.9215C31.4729 32.0755 31.4729 32.1333 31.2812 32.2103C30.6101 32.4798 29.9391 32.7686 29.2681 33.0382C28.7505 33.25 28.2329 33.481 27.7152 33.6928C27.6385 33.7313 27.5619 33.6928 27.5235 33.5965C27.4852 33.5002 27.4468 33.4232 27.4085 33.327C27.2168 32.8841 27.025 32.4413 26.8333 31.9985C25.6639 29.2646 24.5136 26.5114 23.3441 23.7775C23.0949 23.1806 23.2291 23.2769 22.5964 23.2769C20.4683 23.2962 18.3403 23.3347 16.2122 23.3539C15.7329 23.3539 15.2537 23.3732 14.7744 23.3539C13.9116 23.3539 13.0681 23.4117 12.2054 23.5657C11.4002 23.7005 10.6333 23.9123 9.8856 24.2588C8.6011 24.8557 7.60417 25.7605 6.95234 27.0312C6.18547 28.4945 5.41861 29.9577 4.63257 31.4209C4.53671 31.6135 4.44085 31.806 4.32582 31.9793C4.09576 32.3643 3.82736 32.7109 3.50144 33.0189C2.98381 33.5002 2.38949 33.7698 1.69931 33.8853C1.31588 33.9431 0.951615 33.9623 0.568182 33.9046C0.395637 33.8853 0.242264 33.8275 0.108063 33.7313C0.0313763 33.6735 -0.0261386 33.558 0.0122047 33.4617C0.127235 33.2114 0.223093 32.9804 0.338123 32.7494C1.18167 31.0936 2.0444 29.4186 2.88795 27.7629C5.53364 22.6993 8.14098 17.6165 10.7292 12.553C11.4385 11.1475 12.1479 9.74205 12.7997 8.31733C13.2023 7.45095 13.5857 6.56531 13.8733 5.64117C14.0458 5.10208 14.1992 4.563 14.2951 4.00466C14.3718 3.63886 14.3909 3.2538 14.4293 2.86874C14.4293 2.77247 14.4293 2.67621 14.4293 2.57994C14.4293 2.50293 14.4676 2.44517 14.5443 2.42592C14.621 2.38741 14.6977 2.36816 14.7744 2.34891C16.3464 1.80982 17.9377 1.28999 19.5098 0.750908C19.5673 0.731655 19.644 0.712402 19.7015 0.712402C19.7206 0.712402 19.7782 0.731655 19.7782 0.750908C19.8357 0.847173 19.874 0.962691 19.9124 1.07821C20.7559 3.35006 21.6186 5.64117 22.4622 7.91302C22.5772 8.20182 22.6731 8.50986 22.7881 8.79866C22.8265 8.87567 22.7881 8.95268 22.7114 9.01044C22.6731 9.04895 22.6347 9.0682 22.5964 9.08745C21.3311 9.99234 20.1808 11.0513 19.1263 12.1872C19.0305 12.3027 18.9154 12.399 18.8196 12.5145C18.7812 12.553 18.7237 12.5337 18.7046 12.476C18.647 12.3412 18.5895 12.2064 18.532 12.0717C18.0719 10.9357 17.5926 9.79981 17.1325 8.68314C17.0941 8.56762 17.0366 8.47136 16.9791 8.37509C16.9599 8.33659 16.8832 8.35584 16.8641 8.37509C16.7874 8.50986 16.7107 8.62538 16.6532 8.76015C14.7935 12.3412 12.9339 15.9223 11.0551 19.5033C10.9976 19.5996 10.9592 19.7151 10.9017 19.8114C10.8634 19.8884 10.9017 19.9846 10.9976 19.9846C11.0551 19.9846 11.1318 19.9846 11.1893 19.9846C12.7613 20.0232 14.3142 20.0617 15.8863 20.1194C16.0589 20.1194 16.2122 20.1194 16.3848 20.1194C16.3656 20.1194 16.3656 20.1194 16.3656 20.1387Z" fill="white"/>
<path d="M16.4233 16.4806C16.4617 16.4036 16.5 16.3266 16.5384 16.2688C17.2094 15.3061 17.9379 14.382 18.6856 13.4771C19.4333 12.5915 20.2385 11.7636 21.1012 10.9742C21.8681 10.2619 22.6925 9.62652 23.5744 9.06818C24.4179 8.5291 25.2998 8.10553 26.2584 7.81674C26.8719 7.64346 27.4662 7.52794 28.0989 7.52794C28.1947 7.52794 28.2906 7.52794 28.3864 7.52794C29.23 7.50869 30.0544 7.62421 30.8788 7.79749C32.3358 8.08628 33.7353 8.56761 35.1157 9.10669C37.0329 9.87681 38.8925 10.7817 40.6946 11.7829C41.5574 12.2449 42.3817 12.7455 43.2253 13.2461C43.2828 13.2846 43.3403 13.3038 43.3978 13.3231C43.4362 13.3423 43.4937 13.2846 43.5129 13.2461C43.5129 13.2076 43.532 13.1691 43.5129 13.1498C43.417 13.0536 43.3211 12.9573 43.2253 12.8803C42.8802 12.6107 42.5159 12.3412 42.1517 12.0716C40.1578 10.6084 38.0873 9.29922 35.8826 8.18255C34.7514 7.60496 33.582 7.10438 32.3741 6.70007C31.5306 6.41127 30.6679 6.19949 29.786 6.06472C29.1725 5.96845 28.5398 5.91069 27.9072 5.9492C27.4854 5.98771 27.0636 6.04546 26.6418 6.12248C26.6227 6.12248 26.6035 6.12248 26.6035 6.10322C26.6227 6.08397 26.6227 6.04546 26.6418 6.04546C26.7185 6.00696 26.7952 5.96845 26.8719 5.9492C27.1211 5.87219 27.3703 5.77592 27.6196 5.69891C28.559 5.41012 29.5367 5.19833 30.5145 5.02506C31.128 4.90954 31.7607 4.83253 32.3741 4.77477C32.9301 4.71701 33.4861 4.69776 34.0612 4.6785C34.4639 4.65925 34.8856 4.65925 35.3074 4.6785C35.9976 4.71701 36.6878 4.73626 37.3779 4.83253C37.9914 4.90954 38.5858 5.0058 39.1801 5.14057C40.177 5.37161 41.0972 5.71816 41.9791 6.21874C42.9569 6.75782 43.8196 7.45093 44.6248 8.22105C45.6409 9.22221 46.5228 10.3389 47.2897 11.5326C47.8265 12.3604 48.2674 13.2076 48.7084 14.0932C49.0726 14.8248 49.4369 15.5372 49.8203 16.2495C50.0696 16.7116 50.3571 17.1544 50.6447 17.5973C50.6831 17.655 50.7406 17.732 50.8173 17.7898C50.8364 17.809 50.8939 17.809 50.9131 17.7898C50.9706 17.7513 51.009 17.7128 51.0665 17.655C51.2965 17.424 51.5074 17.2122 51.7375 16.9812C51.8334 16.8849 51.91 16.7886 51.9292 16.6539C52.0059 16.3073 52.0826 15.9415 52.1976 15.5949C52.4852 14.5938 52.8686 13.6311 53.4246 12.7262C53.808 12.1102 54.2873 11.5518 54.8433 11.0897C55.1692 10.8202 55.5527 10.5892 55.9361 10.4159C56.6071 10.0886 57.3164 9.89606 58.045 9.72278C59.2528 9.45324 60.4606 9.37623 61.6876 9.45324C61.7834 9.45324 61.8793 9.4725 61.9752 9.49175C62.0135 9.511 62.071 9.53025 62.071 9.58801C61.3808 9.60727 60.7482 9.8383 60.1347 10.1271C59.4828 10.4544 58.8693 10.8587 58.2942 11.3015C57.4315 11.9754 56.6454 12.7262 55.8977 13.5156C55.8402 13.5734 55.8019 13.6504 55.7635 13.7274C55.7444 13.7467 55.7635 13.7852 55.7827 13.8044C55.8019 13.8237 55.8402 13.8429 55.8594 13.8237C55.9553 13.7659 56.0511 13.7082 56.147 13.6311C56.6263 13.2076 57.1439 12.8033 57.6615 12.4375C58.3901 11.8984 59.1569 11.3978 59.9621 10.9935C60.3839 10.7817 60.844 10.6084 61.3041 10.4737C61.9943 10.2811 62.6653 10.2811 63.3555 10.4351C63.7965 10.5507 64.2182 10.6854 64.6208 10.8587C65.6178 11.3015 66.5188 11.9176 67.3815 12.5915C67.4007 12.6107 67.4199 12.6492 67.4391 12.6685C67.4007 12.707 67.3624 12.7262 67.324 12.7648C67.2282 12.7262 67.1515 12.6877 67.0556 12.63C66.653 12.3797 66.2504 12.1679 65.8286 11.9946C65.2535 11.7443 64.64 11.6096 64.0073 11.6096C63.1638 11.6096 62.4353 11.9176 61.8026 12.476C61.6492 12.6107 61.4959 12.784 61.3425 12.938C61.0933 13.1883 60.8632 13.4386 60.614 13.6889C59.5404 14.7671 58.3325 15.6335 56.9905 16.3266C56.0511 16.8079 55.0542 17.1737 54.0189 17.3662C53.6355 17.4432 53.2329 17.501 52.8494 17.501C52.6386 17.501 52.4277 17.501 52.2168 17.4432C52.0634 17.4047 51.9676 17.4625 51.8909 17.5973C51.7375 17.8861 51.5841 18.1748 51.4116 18.4636C51.3349 18.5984 51.3541 18.7139 51.4116 18.8487C51.5074 19.0412 51.5841 19.2338 51.6608 19.4455C52.0442 20.4082 52.3126 21.3901 52.5044 22.3912C52.6194 22.9688 52.6769 23.5657 52.7536 24.1625C52.7536 24.2203 52.7536 24.2588 52.7728 24.3165C52.8303 25.2214 52.907 26.1263 52.8878 27.0505C52.8878 27.8206 52.907 28.5715 52.8686 29.3416C52.8303 30.3235 52.7344 31.2861 52.4852 32.2488C52.3893 32.6146 52.2743 32.9804 52.1018 33.3269C51.9867 33.558 51.8525 33.7505 51.6608 33.9238C51.4307 34.1548 51.1432 34.2703 50.8173 34.3088C50.6064 34.3281 50.3955 34.2703 50.1846 34.1741C49.9162 34.0586 49.667 33.866 49.4944 33.6157C49.341 33.404 49.2452 33.1922 49.1493 32.9611C48.9193 32.3258 48.7467 31.6712 48.6125 30.9973C48.3249 29.5149 48.2483 28.0131 48.3441 26.4921C48.3825 25.6643 48.4591 24.8364 48.5933 24.0278C48.6892 23.3346 48.8042 22.6608 48.9768 21.9869C49.2644 20.8125 49.6861 19.6766 50.3188 18.6369C50.3763 18.5407 50.3763 18.4636 50.3188 18.3674C50.0887 17.9823 49.8587 17.5973 49.6286 17.2314C49.5519 17.1159 49.4752 17.0967 49.3219 17.1352C49.2644 17.1544 49.1877 17.1737 49.1302 17.1929C48.9193 17.2507 48.7275 17.3085 48.5167 17.3662C47.9799 17.5202 47.4239 17.5973 46.8679 17.655C45.9477 17.7705 45.0274 17.7513 44.1072 17.7128C43.5895 17.6935 43.0527 17.6358 42.5351 17.5588C41.6532 17.4432 40.7713 17.27 39.9086 17.0582C38.4516 16.6924 37.0328 16.211 35.6525 15.6142C34.0421 14.9211 32.5083 14.074 31.0513 13.1113C30.5912 12.8033 30.1311 12.476 29.6709 12.1487C29.1341 11.7636 28.559 11.4363 27.9455 11.186C27.447 10.9742 26.9102 10.8395 26.3734 10.7624C25.9708 10.7047 25.549 10.6662 25.1464 10.7047C24.3412 10.7817 23.5552 10.955 22.8075 11.263C21.9064 11.6288 21.1012 12.1294 20.3344 12.707C19.3566 13.4386 18.4747 14.305 17.6695 15.2291C17.3244 15.6334 16.9793 16.0378 16.6534 16.4613C16.6151 16.4998 16.5767 16.5191 16.5384 16.5576C16.5 16.5576 16.4617 16.5191 16.4233 16.4806ZM54.8433 14.8248C54.805 14.8633 54.7666 14.8826 54.7474 14.9211L54.7283 14.9403L54.7474 14.9211C54.7666 14.8826 54.805 14.8441 54.8433 14.8248C54.8816 14.7863 54.9008 14.7478 54.9392 14.7093C54.9775 14.6901 54.9967 14.6708 54.9583 14.6708C54.9583 14.6708 54.9583 14.7093 54.9392 14.7093C54.92 14.7478 54.8816 14.7863 54.8433 14.8248ZM55.1309 14.4013C55.2267 14.4013 55.2267 14.4013 55.2267 14.305C55.2842 14.3435 55.3418 14.3242 55.3993 14.2665C55.4376 14.228 55.4568 14.1895 55.476 14.151C55.4951 14.1317 55.5143 14.1125 55.5335 14.0932C55.5335 14.074 55.5335 14.0547 55.5335 14.0547C55.5143 14.0355 55.476 14.0355 55.4568 14.0355C55.4376 14.0355 55.4184 14.074 55.3993 14.0932C55.3034 14.1317 55.2267 14.1895 55.2267 14.305C55.1884 14.3242 55.15 14.3628 55.1309 14.4013C55.1117 14.4205 55.0925 14.4398 55.0734 14.459C55.0925 14.459 55.1117 14.4783 55.1117 14.4783C55.15 14.459 55.15 14.4398 55.1309 14.4013ZM49.9545 27.9746C49.9737 27.9746 49.9737 27.9746 49.9545 27.9746C49.9737 28.4752 49.9737 28.9758 49.9737 29.4571C49.9737 30.1695 50.0504 30.8818 50.1846 31.5749C50.2421 31.8637 50.3188 32.1525 50.3763 32.4413C50.4147 32.5761 50.4722 32.7301 50.5297 32.8649C50.6255 33.0574 50.7789 33.0767 50.9131 32.9034C50.9706 32.8456 51.009 32.7686 51.0473 32.6916C51.1048 32.5953 51.1432 32.4798 51.1815 32.3643C51.3541 31.9022 51.4691 31.4209 51.5649 30.9203C51.6992 30.2465 51.7758 29.5534 51.8334 28.8603C51.8909 28.2249 51.9292 27.5703 51.9484 26.935C51.9676 26.2226 51.9676 25.5102 51.9676 24.7979C51.9676 23.7775 51.8525 22.7571 51.6608 21.7366C51.5458 21.1591 51.3924 20.5815 51.1815 20.0231C51.1432 19.9076 51.0857 19.8113 51.0281 19.7151C51.009 19.6958 50.9706 19.6958 50.9515 19.6766C50.9515 19.6766 50.9323 19.6958 50.9131 19.6958C50.8939 19.7536 50.8556 19.8113 50.8364 19.8691C50.6639 20.4467 50.5105 21.0435 50.4146 21.6596C50.2613 22.449 50.2038 23.2576 50.1271 24.0663C50.0696 24.7401 50.0504 25.414 50.012 26.0878C49.9737 26.7617 49.9737 27.3585 49.9545 27.9746Z" fill="white"/>
<path d="M154.286 27.1852C154.325 26.8001 154.363 26.2803 154.402 25.7412C154.44 25.2984 154.497 24.8556 154.536 24.4128C154.555 24.1432 154.593 23.8929 154.632 23.6234C154.632 23.6041 154.612 23.5464 154.612 23.5464C154.555 23.5271 154.536 23.5849 154.497 23.6234C154.44 23.7196 154.382 23.8159 154.325 23.9314C153.846 24.7978 153.347 25.6642 152.791 26.4921C152.216 27.3585 151.602 28.2056 150.912 28.9757C150.069 29.9384 149.148 30.824 148.094 31.5364C147.289 32.0947 146.426 32.5375 145.487 32.8263C144.509 33.1151 143.531 33.2306 142.515 33.1344C141.787 33.0573 141.077 32.9226 140.406 32.653C138.527 31.9022 137.032 30.2849 136.399 28.3211C136.15 27.551 136.035 26.7809 136.016 25.9722C135.978 24.1625 136.342 22.4489 137.051 20.8124C137.799 19.0604 138.872 17.5202 140.176 16.134C141.576 14.6515 143.148 13.4193 144.95 12.4759C146.119 11.8598 147.346 11.3977 148.65 11.0897C149.819 10.8201 151.027 10.6854 152.235 10.7624C152.638 10.7816 153.059 10.8394 153.462 10.8972C153.903 10.9549 154.344 11.0512 154.766 11.1282C154.862 11.1474 154.957 11.1474 155.053 11.1474C155.073 11.1474 155.111 11.1089 155.13 11.0897C155.149 11.0319 155.168 10.9742 155.188 10.8972C155.226 10.5506 155.264 10.204 155.322 9.85749C155.341 9.68422 155.379 9.53019 155.418 9.37617C155.456 9.2414 155.59 9.14513 155.724 9.20289C155.859 9.26065 156.012 9.29916 156.127 9.37617C156.664 9.64571 157.181 9.896 157.718 10.1655C158.178 10.3966 158.638 10.6276 159.099 10.8586C159.194 10.8972 159.271 10.9549 159.367 10.9934C159.424 11.0319 159.463 11.0897 159.463 11.1474C159.463 11.2052 159.463 11.2437 159.463 11.3015C159.444 11.648 159.405 11.9946 159.386 12.3411C159.329 12.9765 159.29 13.5926 159.233 14.2279C159.233 14.2857 159.214 14.3627 159.214 14.4205C159.137 15.7104 159.06 17.0004 158.984 18.2903C158.888 19.6765 158.849 21.0627 158.773 22.4489C158.696 24.0469 158.677 25.6257 158.638 27.2237C158.619 28.2248 158.658 29.2067 158.715 30.2079C158.753 30.9588 158.83 31.6904 158.945 32.422C158.964 32.4798 158.964 32.5568 158.964 32.6145C158.964 32.8071 158.849 33.0188 158.658 33.0766C158.447 33.1536 158.236 33.1729 158.025 33.1729C157.239 33.1344 156.549 32.8648 155.974 32.3065C155.571 31.9214 155.264 31.4786 155.015 30.9973C154.747 30.4582 154.574 29.8999 154.44 29.303C154.325 28.6677 154.286 27.9938 154.286 27.1852ZM150.28 14.69C148.995 14.6707 147.787 14.844 146.618 15.2098C144.777 15.7874 143.224 16.7886 141.94 18.2518C141.096 19.2337 140.521 20.3504 140.234 21.6211C140.042 22.4875 140.004 23.3538 140.099 24.2395C140.138 24.7593 140.272 25.2599 140.483 25.722C141.058 27.0312 142.036 27.8783 143.416 28.2248C144.298 28.4559 145.18 28.4366 146.062 28.2826C147.04 28.1093 147.922 27.705 148.727 27.1467C149.264 26.7616 149.762 26.3188 150.203 25.8182C150.836 25.1059 151.372 24.3357 151.852 23.5271C152.408 22.5645 152.868 21.5633 153.251 20.5236C153.788 19.1182 154.191 17.6742 154.536 16.1917C154.593 15.9607 154.632 15.7297 154.689 15.5179C154.708 15.4216 154.67 15.3446 154.593 15.3253C154.459 15.2868 154.306 15.2483 154.171 15.2098C153.769 15.1136 153.366 15.0173 152.964 14.9595C152.043 14.7863 151.142 14.6707 150.28 14.69Z" fill="white"/>
<path d="M80.8974 10.7431C81.7409 10.7239 82.6228 10.8009 83.5047 10.9549C85.9012 11.3592 87.9909 12.3796 89.6972 14.1317C90.8091 15.2676 91.5568 16.596 91.9211 18.1555C92.1703 19.2145 92.2278 20.2926 92.1128 21.3708C92.0553 21.9676 91.9594 22.5452 91.8252 23.1228C91.5376 24.278 91.0583 25.3369 90.4257 26.3381C89.678 27.5125 88.7769 28.5329 87.7608 29.457C86.7447 30.3812 85.6328 31.1898 84.4058 31.8059C83.1788 32.422 81.8751 32.8263 80.4948 33.0188C79.7471 33.1151 78.9802 33.1921 78.2325 33.1729C77.1014 33.1536 76.0086 32.9803 74.935 32.6338C72.5386 31.8444 69.9504 29.6688 69.1452 26.2803C69.011 25.7412 68.9343 25.2021 68.8959 24.663C68.8576 24.0855 68.8576 23.5079 68.8959 22.9303C68.9726 21.7558 69.2794 20.6392 69.7587 19.5803C70.2188 18.5984 70.8131 17.7127 71.5416 16.9041C72.3468 15.9992 73.2479 15.1906 74.2065 14.4782C74.264 14.4205 74.3407 14.382 74.3982 14.3242C74.7433 14.0739 74.7433 14.0932 74.4749 13.7659C74.2257 13.4578 73.9573 13.1498 73.708 12.8417C73.6313 12.7455 73.5738 12.6492 73.5163 12.5529C73.478 12.4952 73.4971 12.4182 73.5547 12.3604C73.6313 12.2834 73.6889 12.2256 73.7847 12.1679C73.9956 12.0716 74.2065 11.9561 74.4174 11.8791C75.4143 11.494 76.4304 11.2245 77.4657 11.0319C78.5584 10.8394 79.6896 10.7239 80.8974 10.7431ZM87.1473 21.8521C87.1473 21.313 87.1282 20.7932 87.0323 20.2734C86.9173 19.6188 86.7447 18.9834 86.4763 18.3673C85.7095 16.6731 84.4441 15.4601 82.7379 14.7093C81.5109 14.1702 80.2072 13.9776 78.8844 13.9969C78.7693 13.9969 78.6543 14.0547 78.5776 14.1124C77.389 14.9595 76.3537 15.98 75.5485 17.2121C74.6666 18.5406 74.1106 19.9846 73.9381 21.5826C73.8422 22.526 73.8614 23.4694 74.0531 24.3935C74.3599 25.953 75.0884 27.2815 76.2387 28.3596C77.8108 29.8421 79.6512 30.2657 81.7218 29.8421C82.7954 29.6111 83.7156 29.072 84.5208 28.3211C85.5753 27.32 86.323 26.1455 86.7447 24.7401C87.0131 23.8352 87.1473 22.8533 87.1473 21.8521Z" fill="white"/>
<path d="M169.988 19.9461C169.93 21.0628 169.873 22.1602 169.815 23.2768C169.777 24.1817 169.777 25.1059 169.892 26.0108C169.969 26.5306 170.084 27.0504 170.275 27.551C170.39 27.8591 170.544 28.1479 170.735 28.4174C171.234 29.1105 171.905 29.4956 172.748 29.6496C173.458 29.7651 174.167 29.6688 174.857 29.4956C175.375 29.3608 175.893 29.149 176.372 28.918C176.525 28.841 176.679 28.7832 176.832 28.7062C176.89 28.6869 176.966 28.6677 177.024 28.6677C177.1 28.6484 177.196 28.7254 177.215 28.7832C177.215 28.841 177.235 28.918 177.235 28.9757C177.215 29.38 177.196 29.8036 177.158 30.2079C177.139 30.516 177.081 30.824 177.043 31.1513C177.024 31.2668 176.966 31.3631 176.87 31.4401C176.161 32.0177 175.356 32.4413 174.493 32.7493C173.592 33.0574 172.672 33.2114 171.732 33.1921C171.023 33.1921 170.314 33.0959 169.643 32.8841C168.301 32.4798 167.265 31.6712 166.537 30.4967C166.134 29.8421 165.847 29.149 165.655 28.3981C165.482 27.6858 165.367 26.9734 165.329 26.2418C165.271 24.8941 165.271 23.5656 165.252 22.2179C165.214 19.7343 165.195 17.2507 165.156 14.767C165.156 14.69 165.156 14.5938 165.156 14.5167C165.156 14.4205 165.099 14.3627 165.003 14.3627C164.926 14.3627 164.831 14.3627 164.754 14.3627C163.757 14.4012 162.741 14.4397 161.744 14.4782C161.725 14.4782 161.706 14.4782 161.686 14.4782C161.629 14.4782 161.552 14.4012 161.571 14.3435C161.571 14.2857 161.591 14.2472 161.591 14.1894C161.801 13.3038 162.031 12.4182 162.262 11.5325C162.281 11.4748 162.281 11.4363 162.3 11.3785C162.319 11.3207 162.377 11.263 162.434 11.263C162.53 11.263 162.626 11.2437 162.722 11.2437C163.412 11.2437 164.102 11.2437 164.792 11.2437C164.888 11.2437 164.984 11.2245 165.08 11.2245C165.137 11.2245 165.176 11.1667 165.176 11.1282C165.195 10.9934 165.195 10.8587 165.195 10.7239C165.195 9.27993 165.214 7.83595 165.214 6.39198C165.214 6.23795 165.214 6.10318 165.214 5.94916C165.214 5.87215 165.271 5.83364 165.329 5.79514C165.367 5.77588 165.425 5.75663 165.463 5.73738C167.074 5.27531 168.703 4.81323 170.314 4.35116C170.371 4.33191 170.448 4.33191 170.505 4.33191C170.525 4.33191 170.563 4.37042 170.582 4.38967C170.601 4.42817 170.601 4.48593 170.601 4.52444C170.544 6.12244 170.486 7.70118 170.429 9.29918C170.41 9.83826 170.39 10.3966 170.352 10.9357C170.352 10.9934 170.352 11.0705 170.371 11.1282C170.371 11.1475 170.41 11.186 170.448 11.186C170.505 11.2052 170.582 11.2052 170.64 11.2052C170.946 11.2052 171.272 11.2052 171.579 11.2052C173.63 11.2052 175.663 11.2052 177.714 11.2052C177.848 11.2052 177.982 11.2052 178.117 11.2052C178.174 11.2052 178.251 11.2245 178.308 11.2437C178.404 11.263 178.481 11.3592 178.481 11.4555C178.519 11.9368 178.347 12.3604 178.04 12.7455C177.829 12.9958 177.561 13.1883 177.273 13.3616C176.87 13.5926 176.429 13.7466 175.988 13.8429C175.317 14.0162 174.627 14.1124 173.937 14.1702C172.768 14.2664 171.598 14.2665 170.429 14.2279C170.41 14.2279 170.39 14.2279 170.371 14.2279C170.314 14.2279 170.237 14.2857 170.237 14.3435C170.218 14.613 170.179 14.8633 170.179 15.1328C170.122 16.1917 170.084 17.2507 170.045 18.3096C170.026 18.8872 169.988 19.4263 169.988 19.9461C169.969 19.9461 169.969 19.9461 169.988 19.9461Z" fill="white"/>
<path d="M202.426 33.1921C201.084 33.1536 199.762 33.0188 198.477 32.6145C196.771 32.0947 195.275 31.2283 194.01 29.9576C192.764 28.6869 191.959 27.1852 191.614 25.4139C191.403 24.355 191.384 23.2768 191.499 22.1987C191.767 19.6765 192.879 17.5587 194.624 15.7682C196.445 13.9006 198.611 12.5722 201.065 11.7443C202.235 11.34 203.443 11.0897 204.67 10.9164C205.724 10.7816 206.778 10.7239 207.833 10.7239C208.964 10.7431 210.057 10.9164 211.15 11.2245C211.245 11.2437 211.341 11.3015 211.437 11.3207C211.495 11.34 211.514 11.3977 211.514 11.4362C211.514 11.5903 211.495 11.725 211.495 11.8791C211.437 12.5914 211.38 13.3038 211.341 14.0161C211.284 14.844 211.207 15.6719 211.15 16.4998C211.15 16.6153 211.111 16.7308 211.054 16.8271C210.996 16.9426 210.881 17.0003 210.766 16.9618C210.632 16.9233 210.536 16.8463 210.421 16.7693C209.942 16.4035 209.443 16.0184 208.964 15.6526C208.274 15.1136 207.564 14.5937 206.874 14.0546C206.74 13.9584 206.587 13.9006 206.414 13.8814C205.647 13.8429 204.9 13.8429 204.133 13.9199C202.714 14.0546 201.353 14.4397 200.107 15.1906C199.225 15.7297 198.458 16.4035 197.825 17.2314C197.097 18.194 196.637 19.2915 196.445 20.4851C196.311 21.3323 196.292 22.1794 196.387 23.0073C196.637 25.3176 197.768 27.0697 199.742 28.3018C200.548 28.8024 201.43 29.1297 202.35 29.3223C203.002 29.457 203.653 29.534 204.305 29.5533C205.475 29.5725 206.644 29.4763 207.795 29.2645C209.117 29.0142 210.383 28.6484 211.648 28.1863C211.725 28.1671 211.801 28.1478 211.878 28.1286C211.897 28.1286 211.916 28.1671 211.936 28.1863V28.2248C211.763 28.995 211.571 29.7651 211.399 30.5544C211.38 30.6507 211.341 30.7085 211.265 30.747C211.188 30.8047 211.092 30.8432 210.996 30.8817C209.386 31.7096 207.718 32.345 205.954 32.7493C204.842 33.0381 203.634 33.1729 202.426 33.1921Z" fill="white"/>
<path d="M187.473 21.6403C187.415 22.9688 187.358 24.278 187.281 25.6064C187.223 26.9349 187.147 28.2441 187.089 29.5725C187.051 30.4967 186.993 31.4208 186.936 32.345C186.936 32.4027 186.917 32.4797 186.917 32.5375C186.917 32.5568 186.878 32.5953 186.859 32.6145C186.763 32.6338 186.667 32.6723 186.572 32.6723C185.632 32.7878 184.712 32.9033 183.773 33.0188C183.447 33.0573 183.121 33.0958 182.795 33.1343C182.718 33.1343 182.661 33.0958 182.661 33.0381C182.661 32.9611 182.641 32.8648 182.641 32.7878C182.641 31.9022 182.622 31.0358 182.622 30.1501C182.603 25.2406 182.584 20.3504 182.565 15.4409C182.565 15.3446 182.565 15.2483 182.565 15.1521C182.584 14.998 182.507 14.9018 182.392 14.8055C182.315 14.7478 182.239 14.6707 182.162 14.613C181.28 13.8621 180.417 13.092 179.536 12.3411C179.401 12.2256 179.248 12.1101 179.171 11.9368C179.152 11.8791 179.114 11.8213 179.095 11.7635C179.075 11.7058 179.133 11.571 179.171 11.5518C179.306 11.4747 179.44 11.4362 179.593 11.417C179.862 11.3977 180.111 11.3592 180.379 11.34C180.935 11.3015 181.491 11.263 182.047 11.2052C182.641 11.1474 183.236 11.1089 183.83 11.0512C184.252 11.0127 184.693 10.9742 185.115 10.9357C185.671 10.8972 186.227 10.8394 186.782 10.8009C187.013 10.7816 187.243 10.7624 187.473 10.7431C187.607 10.7239 187.741 10.7239 187.875 10.7239C187.933 10.7239 187.99 10.7816 187.99 10.8586C187.99 10.8972 187.99 10.9164 187.99 10.9549C187.99 11.0319 187.99 11.1282 187.99 11.2052C187.933 12.2064 187.894 13.2268 187.837 14.2279C187.837 14.2857 187.837 14.3627 187.818 14.4204C187.779 15.3831 187.741 16.3457 187.684 17.2891C187.626 18.2903 187.569 19.2722 187.53 20.2734C187.511 20.7547 187.492 21.1975 187.473 21.6403Z" fill="white"/>
<path d="M94.0681 47.2853C94.0681 47.6897 94.0681 48.0747 94.0681 48.479C94.0681 48.5753 94.0681 48.6716 94.0681 48.7678C94.0873 48.9411 94.164 49.0759 94.2982 49.1914C94.3557 49.2299 94.4324 49.2877 94.4899 49.3454C94.5091 49.3647 94.5091 49.4032 94.4899 49.4417C94.4899 49.4609 94.4515 49.4994 94.4324 49.4994C94.3749 49.5187 94.2982 49.5187 94.2407 49.5187C93.5888 49.5187 92.9562 49.5187 92.3043 49.5187C92.266 49.5187 92.2468 49.5187 92.2085 49.5187C92.1318 49.5187 92.0551 49.4609 92.0743 49.4032C92.0743 49.3647 92.0934 49.2877 92.1318 49.2684C92.5152 49.0566 92.496 48.8833 92.496 48.5175C92.496 47.2468 92.496 45.9761 92.496 44.6862C92.496 43.377 92.496 42.0678 92.496 40.7586C92.496 40.6238 92.496 40.489 92.496 40.3543C92.496 40.2003 92.4194 40.0655 92.2852 39.9885C92.2276 39.95 92.1318 39.9115 92.0934 39.8344C92.0743 39.7959 92.0934 39.6804 92.151 39.6612C92.2085 39.6612 92.2468 39.6419 92.3043 39.6419C92.9753 39.6419 93.6655 39.6419 94.3365 39.6419C94.394 39.6419 94.4324 39.6612 94.4707 39.6612C94.4899 39.6804 94.5091 39.6997 94.5282 39.7382C94.5282 39.7767 94.5282 39.8152 94.5282 39.8344C94.4899 39.873 94.4324 39.9307 94.3749 39.95C94.1831 40.0462 94.1065 40.2195 94.0873 40.4313C94.0873 40.4891 94.0873 40.5276 94.0873 40.5853C94.0873 41.6827 94.0873 42.7802 94.0873 43.8583C94.0873 43.9161 94.0873 43.9546 94.1065 44.0123C94.1065 44.0316 94.164 44.0508 94.1831 44.0508C94.2598 44.0123 94.3365 43.9738 94.394 43.9353C94.7966 43.608 95.1801 43.2807 95.5827 42.9727C96.5029 42.2218 97.4423 41.4902 98.3626 40.7393C98.5351 40.5853 98.7077 40.4505 98.8802 40.2773C98.9185 40.2388 98.9569 40.181 98.9761 40.104C98.9952 40.0847 98.9761 40.0462 98.9761 40.0077C98.9569 39.9885 98.9377 39.95 98.9185 39.9307C98.8419 39.873 98.7268 39.8344 98.7843 39.6997C98.8227 39.6034 98.9185 39.6227 98.9952 39.6227C99.8388 39.6227 100.682 39.6227 101.526 39.6227C101.583 39.6227 101.66 39.6419 101.718 39.6612C101.737 39.6612 101.756 39.7189 101.756 39.7382C101.756 39.7767 101.756 39.7959 101.737 39.8344C101.718 39.8537 101.698 39.8922 101.66 39.8922C101.181 40.0655 100.759 40.3735 100.356 40.6816C99.5704 41.2977 98.7843 41.933 97.9791 42.5684C97.8449 42.6646 97.7107 42.7802 97.5957 42.8764C97.3848 43.0497 97.3848 43.0882 97.5382 43.2807C97.8641 43.7043 98.19 44.1279 98.4968 44.5322C99.4362 45.7644 100.395 46.9966 101.334 48.2287C101.449 48.3635 101.564 48.5175 101.679 48.6523C101.852 48.8833 102.044 49.0759 102.312 49.1914C102.35 49.2106 102.389 49.2492 102.427 49.2877C102.446 49.3069 102.446 49.3454 102.427 49.3839C102.408 49.4032 102.389 49.4417 102.369 49.4417C102.331 49.4609 102.274 49.4609 102.216 49.4609C101.449 49.4609 100.702 49.4609 99.9346 49.4609C99.8771 49.4609 99.8388 49.4609 99.7813 49.4417C99.7621 49.4417 99.7237 49.4032 99.7046 49.3839C99.6662 49.3454 99.6854 49.2877 99.7237 49.2492C99.7621 49.1914 99.8196 49.1721 99.8771 49.1144C99.9155 49.0759 99.9346 48.9796 99.9155 48.9411C99.8196 48.8063 99.7429 48.6523 99.6471 48.5368C99.0144 47.7089 98.3817 46.881 97.7491 46.0532C97.3081 45.4563 96.848 44.8595 96.3879 44.2819C96.3495 44.2241 96.3112 44.1856 96.2537 44.1279C96.2153 44.0701 96.1195 44.0509 96.0811 44.0894C96.0045 44.1279 95.9469 44.1664 95.8703 44.2241C95.3526 44.6284 94.835 45.052 94.3173 45.4563C94.2982 45.4756 94.2982 45.4756 94.279 45.4948C94.1065 45.6103 94.0489 45.7451 94.0489 45.9569C94.0681 46.419 94.0681 46.8425 94.0681 47.2853Z" fill="white"/>
<path d="M189.562 45.4755C189.562 44.5129 189.562 43.5502 189.562 42.5876C189.562 42.4721 189.562 42.3566 189.562 42.241C189.562 42.0293 189.485 41.856 189.294 41.7405C189.236 41.7019 189.179 41.6634 189.14 41.6249C189.121 41.6057 189.121 41.5672 189.14 41.5287C189.159 41.5094 189.179 41.4709 189.198 41.4709C189.217 41.4517 189.255 41.4517 189.294 41.4517C189.389 41.4517 189.485 41.4517 189.581 41.4517C190.885 41.4517 192.189 41.4517 193.492 41.4517C193.818 41.4517 194.144 41.4517 194.489 41.4709C194.853 41.4902 195.198 41.5672 195.563 41.6634C196.023 41.7982 196.406 42.0293 196.751 42.3566C197.365 42.9149 197.767 43.608 197.94 44.4359C198.055 44.9942 198.113 45.5525 198.017 46.1109C197.959 46.4382 197.902 46.7655 197.787 47.0735C197.461 47.9399 196.924 48.6138 196.119 49.0951C195.87 49.2299 195.62 49.3454 195.333 49.4031C195.026 49.4802 194.719 49.5379 194.412 49.5379C194.202 49.5379 193.991 49.5572 193.761 49.5572C192.342 49.5572 190.923 49.5572 189.505 49.5572C189.409 49.5572 189.313 49.5572 189.217 49.5572C189.179 49.5572 189.121 49.4994 189.121 49.4609C189.121 49.4224 189.121 49.3839 189.159 49.3646C189.217 49.3069 189.294 49.2684 189.351 49.2106C189.485 49.0951 189.562 48.9603 189.562 48.787C189.562 48.6523 189.562 48.5175 189.562 48.3827C189.562 47.3816 189.562 46.4189 189.562 45.4755ZM191.038 45.4563C191.038 46.2842 191.038 47.112 191.038 47.9399C191.038 48.0362 191.057 48.1324 191.057 48.2287C191.057 48.248 191.096 48.2865 191.134 48.2865C191.23 48.3057 191.326 48.3057 191.422 48.3057C192.093 48.3057 192.783 48.3057 193.454 48.3057C193.626 48.3057 193.78 48.3057 193.952 48.2865C194.432 48.2287 194.892 48.1517 195.333 47.9207C195.582 47.7859 195.793 47.6126 195.965 47.3816C196.176 47.0928 196.31 46.7847 196.406 46.4574C196.521 46.0339 196.521 45.6103 196.521 45.1675C196.502 44.7054 196.387 44.2818 196.176 43.8775C195.908 43.3577 195.505 43.0112 194.968 42.8379C194.604 42.7224 194.24 42.6261 193.856 42.6261C192.994 42.6261 192.15 42.6261 191.287 42.6261C191.23 42.6261 191.192 42.6261 191.134 42.6453C191.115 42.6646 191.077 42.6839 191.077 42.7224C191.057 42.8379 191.057 42.9534 191.057 43.0689C191.038 43.8775 191.038 44.6669 191.038 45.4563Z" fill="white"/>
<path d="M119.202 45.437C119.202 44.4744 119.202 43.5117 119.202 42.5491C119.202 42.4913 119.202 42.4528 119.202 42.3951C119.241 42.0678 119.145 41.7982 118.838 41.6442C118.819 41.6249 118.8 41.5864 118.8 41.5672C118.8 41.5287 118.819 41.4902 118.838 41.4902C118.915 41.4709 118.992 41.4517 119.087 41.4517C119.873 41.4517 120.679 41.4517 121.465 41.4517C121.522 41.4517 121.561 41.4517 121.618 41.4517C121.656 41.4517 121.714 41.5094 121.714 41.5479C121.714 41.5864 121.714 41.6249 121.695 41.6442C121.637 41.7019 121.561 41.7405 121.503 41.7982C121.369 41.9137 121.35 42.1063 121.426 42.241C121.503 42.3566 121.58 42.4528 121.656 42.5683C121.714 42.6261 121.771 42.6839 121.829 42.7416C123.094 44.0508 124.36 45.36 125.625 46.6692C125.721 46.7655 125.817 46.8617 125.912 46.9388C125.932 46.958 125.97 46.9388 126.008 46.9388C126.028 46.9388 126.027 46.9195 126.027 46.9003C126.027 46.8425 126.027 46.7655 126.027 46.7077C126.027 45.3023 126.027 43.8968 126.027 42.4913C126.027 42.4143 126.027 42.318 126.027 42.241C126.008 42.0293 125.932 41.856 125.74 41.7405C125.682 41.7019 125.625 41.6634 125.587 41.6249C125.567 41.6057 125.567 41.5672 125.587 41.5287C125.606 41.5094 125.625 41.4902 125.644 41.4709C125.663 41.4709 125.682 41.4517 125.682 41.4517C126.315 41.4517 126.929 41.4517 127.561 41.4517C127.6 41.4517 127.619 41.4709 127.657 41.4709C127.695 41.4709 127.715 41.5864 127.695 41.6057C127.638 41.6634 127.58 41.7212 127.504 41.7597C127.37 41.856 127.312 41.9907 127.293 42.1448C127.293 42.2603 127.293 42.3758 127.293 42.4913C127.293 44.4936 127.293 46.4959 127.293 48.4983C127.293 48.5945 127.293 48.6908 127.293 48.787C127.293 48.9603 127.37 49.0951 127.504 49.2106C127.561 49.2491 127.657 49.2876 127.676 49.3839C127.676 49.4031 127.676 49.4609 127.657 49.4802C127.638 49.4994 127.6 49.5187 127.561 49.5187C127.408 49.5187 127.274 49.5187 127.12 49.5187C126.583 49.5187 126.066 49.5187 125.529 49.5187C125.452 49.5187 125.376 49.4994 125.28 49.4802C125.261 49.4802 125.241 49.4224 125.261 49.4031C125.28 49.3646 125.318 49.3261 125.356 49.3069C125.414 49.2491 125.491 49.2106 125.548 49.1529C125.587 49.0951 125.606 49.0373 125.587 48.9603C125.548 48.8833 125.529 48.8063 125.472 48.7485C125.376 48.633 125.28 48.5175 125.184 48.4212C124.13 47.3238 123.075 46.2264 122.021 45.129C121.599 44.7054 121.196 44.2626 120.794 43.839C120.736 43.7813 120.679 43.7428 120.602 43.685C120.583 43.6658 120.525 43.7043 120.525 43.7043C120.506 43.762 120.487 43.839 120.487 43.8968C120.487 44.3396 120.487 44.7824 120.487 45.2445C120.487 46.2842 120.487 47.3238 120.487 48.3827C120.487 48.4212 120.487 48.4405 120.487 48.479C120.449 48.8448 120.525 49.1721 120.89 49.3646C120.909 49.3646 120.909 49.4224 120.909 49.4609C120.909 49.4802 120.87 49.5187 120.851 49.5187C120.832 49.5379 120.794 49.5379 120.755 49.5379C120.161 49.5379 119.567 49.5379 118.972 49.5379C118.934 49.5379 118.896 49.5379 118.876 49.5187C118.857 49.4994 118.819 49.4802 118.819 49.4609C118.8 49.4416 118.8 49.3839 118.819 49.3646C118.896 49.2876 118.972 49.2299 119.049 49.1721C119.145 49.0951 119.183 48.9796 119.202 48.8641C119.202 48.7293 119.222 48.5945 119.222 48.4597C119.202 47.4586 119.202 46.4382 119.202 45.437Z" fill="white"/>
<path d="M36.611 41.4324C37.3779 41.4324 38.1256 41.4517 38.8924 41.4517C39.2759 41.4517 39.6401 41.5094 40.0236 41.5672C40.4262 41.6442 40.7904 41.779 41.078 42.0678C41.4423 42.4143 41.634 42.8571 41.6723 43.3385C41.6915 43.5888 41.6915 43.839 41.6723 44.0893C41.6148 44.7824 41.2889 45.3023 40.6754 45.6296C40.4837 45.7258 40.292 45.8029 40.0811 45.8606C40.0427 45.8799 39.9852 45.8991 39.9469 45.9184C39.9277 45.9376 39.9085 45.9761 39.9085 45.9954C39.9277 46.0531 39.9469 46.1109 39.9852 46.1687C40.4645 46.958 40.963 47.7474 41.4423 48.5368C41.6531 48.8641 41.8832 49.1529 42.2475 49.3261C42.2666 49.3454 42.305 49.3839 42.2858 49.4032C42.2666 49.4417 42.2283 49.4802 42.1899 49.4994C42.1708 49.4994 42.1516 49.4994 42.1324 49.4994C42.1133 49.4994 42.0941 49.4994 42.0749 49.4994C41.4231 49.4994 40.7521 49.4994 40.1002 49.4994C40.0427 49.4994 40.0044 49.4802 39.9469 49.4802C39.9085 49.4802 39.8702 49.4032 39.8893 49.3647C39.8893 49.3454 39.8893 49.3261 39.9085 49.3261C40.1002 49.1914 40.0811 49.0181 39.966 48.8448C39.851 48.6715 39.736 48.479 39.6209 48.3057C39.2183 47.6704 38.7966 47.0158 38.394 46.3804C38.3364 46.3034 38.2981 46.2072 38.2214 46.1302C38.1831 46.0916 38.1064 46.0531 38.0489 46.0339C38.0105 46.0146 37.953 46.0339 37.8955 46.0339C37.2437 46.0339 36.5727 46.0339 35.9208 46.0339C35.8633 46.0339 35.7866 46.0531 35.7291 46.0531C35.6716 46.0531 35.6141 46.1302 35.5949 46.1879C35.5949 46.2649 35.5757 46.3612 35.5757 46.4382C35.5757 46.9965 35.5757 47.5549 35.5757 48.1325C35.5757 48.3057 35.5757 48.4983 35.5757 48.6715C35.5566 48.9026 35.6332 49.0951 35.8441 49.2299C35.8825 49.2491 35.9208 49.2876 35.9592 49.3261C35.9783 49.3454 35.9783 49.3839 35.9592 49.4224C35.9592 49.4417 35.9208 49.4802 35.9016 49.4802C35.8633 49.4994 35.8058 49.4994 35.7483 49.4994C35.1156 49.4994 34.5021 49.4994 33.8695 49.4994C33.8311 49.4994 33.7736 49.4994 33.7352 49.4802C33.7161 49.4609 33.6969 49.4417 33.6777 49.4032C33.6777 49.3839 33.6777 49.3647 33.6777 49.3647C33.7544 49.3069 33.8311 49.2299 33.9078 49.1721C34.0228 49.0759 34.0995 48.9411 34.0995 48.7871C34.0995 48.6523 34.0995 48.5175 34.0995 48.3828C34.0995 46.4189 34.0995 44.4359 34.0995 42.4721C34.0995 42.3373 34.0995 42.2025 34.0995 42.0678C34.0995 41.933 34.042 41.8175 33.927 41.7212C33.8694 41.6635 33.7928 41.625 33.7352 41.5672C33.7161 41.5479 33.7161 41.5094 33.7352 41.4709C33.7352 41.4324 33.7544 41.4132 33.7928 41.4132C33.9461 41.4132 34.0803 41.3939 34.2337 41.3939C35.0581 41.4324 35.8441 41.4324 36.611 41.4324ZM37.5696 42.6454C37.0903 42.6261 36.611 42.6261 36.1317 42.6261C36.0167 42.6261 35.9016 42.6261 35.7866 42.6261C35.6908 42.6261 35.6332 42.6839 35.6332 42.7801C35.6332 43.0497 35.6332 43.3 35.6332 43.5695C35.6332 43.9353 35.6332 44.3011 35.6332 44.6669C35.6332 44.7632 35.6908 44.821 35.7866 44.8402C35.8633 44.8402 35.9592 44.8595 36.0358 44.8595C36.9177 44.8595 37.7805 44.8595 38.6624 44.8595C38.8541 44.8595 39.065 44.8402 39.2567 44.8402C39.4676 44.821 39.6785 44.7632 39.8702 44.6862C40.1769 44.5514 40.3495 44.2819 40.3878 43.9546C40.407 43.839 40.407 43.7235 40.3878 43.608C40.3686 43.2037 40.1194 42.8957 39.736 42.7609C39.5443 42.6839 39.3525 42.6646 39.1608 42.6646C38.624 42.6454 38.1064 42.6454 37.5696 42.6454Z" fill="white"/>
<path d="M63.1827 49.7112C61.8215 49.7305 60.6328 49.4224 59.5209 48.8256C59.425 48.7678 59.31 48.7101 59.2141 48.6523C59.0416 48.556 58.8499 48.479 58.6582 48.6138C58.639 48.6138 58.6198 48.633 58.6198 48.6138C58.5815 48.6138 58.5623 48.5945 58.524 48.5753C58.4856 48.5368 58.4856 48.4983 58.5048 48.4405C58.524 48.402 58.5239 48.3827 58.5431 48.3442C58.8499 47.8629 59.1566 47.4008 59.4634 46.9195C59.4825 46.881 59.5401 46.8425 59.5784 46.8233C59.5976 46.804 59.6551 46.8233 59.6551 46.8425C59.6743 46.881 59.6934 46.9388 59.6934 46.9773C59.6742 47.3046 59.8276 47.5164 60.0769 47.6704C60.3261 47.8437 60.5945 47.9592 60.8821 48.0554C61.8023 48.3442 62.7417 48.479 63.7195 48.3827C64.1412 48.3442 64.5247 48.2287 64.8889 48.0169C65.0615 47.9207 65.2149 47.8052 65.3491 47.6319C65.4833 47.4586 65.5599 47.2661 65.5408 47.035C65.5408 46.881 65.4833 46.7462 65.3874 46.6307C65.2915 46.5152 65.1765 46.4189 65.0231 46.3804C64.8314 46.3227 64.6589 46.2457 64.4672 46.2072C64.1796 46.1494 63.892 46.1109 63.5853 46.0724C62.9526 45.9954 62.3008 45.9376 61.6681 45.8606C61.2463 45.8028 60.8246 45.7066 60.4219 45.5526C60.0769 45.4178 59.7701 45.2253 59.5209 44.9557C59.2908 44.7054 59.1566 44.4166 59.0991 44.0701C59.0416 43.762 59.0608 43.4347 59.1374 43.1267C59.2141 42.7994 59.3483 42.5106 59.5784 42.241C59.8851 41.8945 60.2494 41.6442 60.6712 41.4902C61.1313 41.3169 61.6106 41.2206 62.1091 41.1821C63.1443 41.1244 64.1412 41.2976 65.119 41.6249C65.3107 41.6827 65.5024 41.7405 65.675 41.8175C65.905 41.9137 66.1159 41.933 66.346 41.7982C66.3652 41.779 66.4035 41.7982 66.4418 41.7982C66.4802 41.7982 66.5377 41.8752 66.5185 41.9137C66.5185 41.9522 66.5185 41.9715 66.4994 42.01C66.2501 42.5298 65.9817 43.0497 65.7325 43.5695C65.7133 43.5888 65.6942 43.6273 65.6558 43.6273C65.6366 43.6273 65.5983 43.6273 65.5599 43.608C65.5408 43.5888 65.5024 43.5502 65.5024 43.531C65.4833 43.2229 65.2915 43.0689 65.0423 42.9342C64.7356 42.7801 64.4097 42.6646 64.0646 42.5876C63.3936 42.4336 62.7225 42.4143 62.0515 42.4721C61.8023 42.4913 61.5531 42.5298 61.323 42.6068C61.0546 42.7031 60.8054 42.8186 60.5945 43.0112C60.4411 43.1652 60.3644 43.3577 60.3644 43.5888C60.3644 43.8005 60.4603 43.9738 60.652 44.0893C60.767 44.1663 60.8821 44.2241 61.0163 44.2626C61.1888 44.3204 61.3614 44.3589 61.5531 44.3781C61.9173 44.4359 62.2816 44.4551 62.6267 44.4936C63.336 44.5707 64.0454 44.6284 64.7356 44.7824C65.119 44.8787 65.5024 44.9942 65.8475 45.1675C66.0776 45.283 66.2693 45.437 66.4418 45.6103C66.6911 45.8606 66.8444 46.1879 66.902 46.5345C66.9595 46.9003 66.9595 47.2661 66.8828 47.6126C66.7294 48.2672 66.346 48.7293 65.79 49.0759C65.3682 49.3261 64.9081 49.4609 64.448 49.5379C63.9687 49.692 63.5278 49.7112 63.1827 49.7112Z" fill="white"/>
<path d="M21.1584 44.5898C21.1584 43.3384 21.1584 42.1062 21.1584 40.8548C21.1584 40.7007 21.1584 40.5467 21.1392 40.4119C21.12 40.2194 21.0433 40.0654 20.8708 39.9691C20.8133 39.9306 20.7558 39.8921 20.7174 39.8536C20.6982 39.8344 20.6982 39.7959 20.6982 39.7573C20.6982 39.7381 20.7366 39.6996 20.7558 39.6803C20.7941 39.6611 20.8516 39.6611 20.89 39.6611C21.0433 39.6611 21.1775 39.6611 21.3309 39.6611C23.5932 39.6611 25.8554 39.6611 28.1177 39.6611C28.2519 39.6611 28.3861 39.6611 28.5203 39.6611C28.7312 39.6611 28.9037 39.5841 29.0187 39.3915C29.0571 39.3338 29.0954 39.276 29.1338 39.2375C29.1529 39.2183 29.1913 39.2183 29.2296 39.2183C29.2871 39.2183 29.3255 39.2568 29.3447 39.2953C29.3638 39.3338 29.3638 39.353 29.3638 39.3915C29.3638 40.0076 29.3638 40.6237 29.3638 41.2206C29.3638 41.2591 29.3255 41.3168 29.3063 41.3553C29.2871 41.3938 29.1913 41.3938 29.1721 41.3746C29.1146 41.3168 29.0763 41.2398 29.0187 41.1821C28.9229 41.028 28.7887 40.951 28.6161 40.951C28.5394 40.951 28.4436 40.951 28.3669 40.951C26.6414 40.951 24.8968 40.951 23.1714 40.951C23.0755 40.951 22.9797 40.951 22.8838 40.9703C22.8263 40.9703 22.7688 41.028 22.7496 41.1051C22.7496 41.1436 22.7304 41.1628 22.7304 41.2013C22.7304 41.9714 22.7304 42.7608 22.7304 43.5309C22.7304 43.5694 22.7304 43.5887 22.7496 43.6272C22.7496 43.685 22.8263 43.762 22.8838 43.762C22.9605 43.762 23.0564 43.7812 23.133 43.7812C24.2258 43.7812 25.3186 43.7812 26.3922 43.7812C26.4497 43.7812 26.5264 43.7812 26.5839 43.7812C26.7565 43.7812 26.8907 43.7042 27.0057 43.5502C27.0441 43.4924 27.1016 43.4154 27.1591 43.3769C27.1783 43.3577 27.2166 43.3769 27.2549 43.3769C27.2933 43.3769 27.3125 43.3962 27.3125 43.4347C27.3125 43.4924 27.3316 43.5309 27.3316 43.5887C27.3316 44.147 27.3316 44.7054 27.3316 45.283C27.3316 45.3407 27.3125 45.4177 27.2933 45.4755C27.2933 45.4947 27.1974 45.514 27.1591 45.514C27.0632 45.4755 27.0249 45.3792 26.9674 45.3022C26.8715 45.1867 26.7565 45.1289 26.6223 45.1289C26.5456 45.1289 26.4497 45.1289 26.373 45.1289C25.2803 45.1289 24.1875 45.1289 23.1139 45.1289C23.0372 45.1289 22.9413 45.1482 22.8646 45.1482C22.8071 45.1482 22.7496 45.2252 22.7496 45.283C22.7496 45.437 22.7304 45.5717 22.7304 45.7258C22.7304 46.5151 22.7304 47.3238 22.7304 48.1131C22.7304 48.3057 22.7304 48.5175 22.7304 48.71C22.7304 48.941 22.788 49.1335 23.018 49.2491C23.0564 49.2683 23.0755 49.2876 23.0947 49.3068C23.1139 49.3261 23.1139 49.3261 23.133 49.3453C23.1522 49.3838 23.1522 49.4031 23.1522 49.4416C23.1522 49.4801 23.0947 49.5379 23.0564 49.5379C22.9988 49.5379 22.9605 49.5571 22.903 49.5571C22.2511 49.5571 21.5801 49.5571 20.9283 49.5571C20.8708 49.5571 20.8324 49.5379 20.7749 49.5379C20.7366 49.5379 20.7174 49.5186 20.7174 49.4801C20.7174 49.4416 20.6982 49.4031 20.7174 49.3838C20.7558 49.3453 20.8133 49.2876 20.8708 49.2683C21.0433 49.1721 21.12 48.9988 21.1392 48.8255C21.1584 48.71 21.1584 48.5945 21.1584 48.4789C21.1584 48.0746 21.1584 47.6896 21.1584 47.2853C21.1584 46.3611 21.1584 45.4755 21.1584 44.5898Z" fill="white"/>
<path d="M71.714 45.437C71.714 44.4744 71.714 43.5117 71.714 42.5491C71.714 42.3951 71.714 42.2603 71.6949 42.1063C71.6949 41.9715 71.6182 41.856 71.5031 41.779C71.4456 41.7212 71.3689 41.6827 71.3114 41.6249C71.2922 41.6057 71.2922 41.5672 71.2922 41.5287C71.2922 41.4902 71.3114 41.4709 71.3498 41.4709C71.3881 41.4709 71.4073 41.4517 71.4456 41.4517C72.0975 41.4517 72.7685 41.4517 73.4203 41.4517C73.4778 41.4517 73.5162 41.4709 73.5545 41.4902C73.5737 41.4902 73.5737 41.5094 73.5737 41.5287C73.5737 41.5672 73.5928 41.6057 73.5737 41.6249C73.5162 41.6827 73.4586 41.7212 73.382 41.779C73.2286 41.8752 73.1711 42.0293 73.1519 42.2025C73.1519 42.2603 73.1519 42.3373 73.1519 42.3951C73.1519 43.0689 73.1519 43.762 73.1519 44.4359C73.1519 44.4936 73.1519 44.5706 73.1711 44.6284C73.1711 44.6862 73.2478 44.7439 73.3053 44.7439C73.4586 44.7439 73.5928 44.7632 73.7462 44.7632C74.7815 44.7632 75.8168 44.7632 76.8712 44.7632C77.1779 44.7632 77.5039 44.7632 77.8106 44.7632C77.9065 44.7632 78.0023 44.7632 78.0982 44.7632C78.2132 44.7632 78.2707 44.6862 78.2707 44.5706C78.2707 44.5129 78.2707 44.4744 78.2707 44.4166C78.2707 43.7235 78.2707 43.0304 78.2707 42.3373C78.2707 42.0678 78.1749 41.856 77.9448 41.7212C77.9256 41.702 77.8873 41.6827 77.8681 41.6634C77.8489 41.6442 77.8489 41.6057 77.8489 41.5672C77.8489 41.5479 77.8873 41.5094 77.9065 41.4902C77.9448 41.4709 78.0023 41.4709 78.0598 41.4709C78.6925 41.4709 79.306 41.4709 79.9387 41.4709C79.9962 41.4709 80.0729 41.4902 80.1304 41.5094C80.1495 41.5094 80.1495 41.5672 80.1495 41.6057C80.1495 41.6249 80.1495 41.6442 80.1304 41.6442C80.092 41.6827 80.0537 41.7212 80.0153 41.7405C79.8045 41.856 79.7278 42.0485 79.7469 42.2795C79.7469 42.3373 79.7469 42.4143 79.7469 42.4721C79.7469 44.4936 79.7469 46.5152 79.7469 48.5368C79.7469 48.556 79.7469 48.5753 79.7469 48.5945C79.7086 48.9218 79.8045 49.1914 80.1112 49.3454C80.1304 49.3454 80.1304 49.3646 80.1304 49.3839C80.1304 49.4224 80.1304 49.4416 80.1304 49.4802C80.1304 49.4994 80.1112 49.5187 80.1112 49.5187C80.0729 49.5379 80.0153 49.5379 79.9578 49.5379C79.306 49.5379 78.6733 49.5379 78.0215 49.5379C77.9831 49.5379 77.9256 49.5187 77.8873 49.4994C77.8681 49.4994 77.8681 49.4802 77.8681 49.4609C77.8681 49.4224 77.8489 49.3839 77.8681 49.3646C77.9448 49.3069 78.0215 49.2491 78.0982 49.1721C78.2132 49.0758 78.2899 48.9411 78.2899 48.787C78.2899 48.6908 78.2899 48.5945 78.2899 48.4983C78.2899 47.8244 78.2899 47.1313 78.2899 46.4574C78.2899 46.3612 78.2899 46.2649 78.2899 46.1686C78.2899 45.9954 78.2324 45.9569 78.0407 45.9376C77.9065 45.9376 77.7723 45.9376 77.6381 45.9376C76.6795 45.9376 75.7209 45.9376 74.7623 45.9376C74.3405 45.9376 73.9379 45.9376 73.5162 45.9376C73.4395 45.9376 73.3436 45.9376 73.2669 45.9569C73.2094 45.9569 73.1519 46.0339 73.1519 46.0916C73.1519 46.1494 73.1327 46.1879 73.1327 46.2457C73.1327 47.035 73.1327 47.8436 73.1327 48.633C73.1327 48.6908 73.1327 48.7678 73.1327 48.8256C73.1519 48.9796 73.2094 49.1143 73.3436 49.2106C73.4011 49.2684 73.4778 49.3069 73.5353 49.3646C73.5545 49.3839 73.5545 49.4224 73.5545 49.4609C73.5545 49.4802 73.5162 49.5187 73.497 49.5187C73.4586 49.5379 73.4011 49.5379 73.3436 49.5379C72.7109 49.5379 72.0975 49.5379 71.4648 49.5379C71.4073 49.5379 71.3306 49.5187 71.2731 49.4994C71.2539 49.4994 71.2539 49.4416 71.2539 49.4031C71.2539 49.3646 71.2731 49.3454 71.3114 49.3261C71.3689 49.2684 71.4456 49.2299 71.5031 49.1721C71.5798 49.1143 71.6373 49.0181 71.6373 48.9218C71.6565 48.7678 71.6565 48.633 71.6565 48.479C71.714 47.4586 71.714 46.4382 71.714 45.437Z" fill="white"/>
<path d="M51.1238 48.325C51.7948 48.325 52.4849 48.325 53.156 48.325C53.2326 48.325 53.3285 48.325 53.4052 48.325C53.6544 48.3443 53.8461 48.248 53.9803 48.017C53.9995 47.9977 54.0187 47.9592 54.0378 47.94C54.057 47.9207 54.0954 47.9207 54.1337 47.9207C54.172 47.9207 54.2296 47.9785 54.2296 48.017C54.2296 48.0747 54.2487 48.1132 54.2487 48.171C54.2487 48.7101 54.2487 49.2299 54.2487 49.769C54.2487 49.8268 54.2487 49.8653 54.2296 49.923C54.2296 49.9423 54.1912 49.9808 54.1529 49.9808C54.1337 49.9808 54.0762 49.9808 54.057 49.9615C54.0187 49.923 53.9995 49.8845 53.9612 49.846C53.8461 49.6342 53.6544 49.5572 53.4244 49.5572C53.2902 49.5572 53.156 49.5572 53.0217 49.5572C51.0471 49.5572 49.0724 49.5572 47.0785 49.5572C46.9252 49.5572 46.791 49.538 46.6376 49.538C46.6184 49.538 46.5801 49.4995 46.5801 49.461C46.5801 49.4417 46.5801 49.3839 46.5993 49.3647C46.6759 49.3069 46.7718 49.2492 46.8293 49.1914C46.9252 49.0952 47.0019 48.9796 47.0019 48.8449C47.0019 48.7293 47.0019 48.6138 47.0019 48.4983C47.0019 46.5152 47.0019 44.5322 47.0019 42.5299C47.0019 42.4144 47.0019 42.2988 47.0019 42.1833C47.0019 42.0486 46.9443 41.933 46.8293 41.8368C46.7526 41.779 46.6759 41.7213 46.5993 41.6635C46.5801 41.6442 46.5801 41.6057 46.5801 41.5672C46.5801 41.5287 46.6376 41.471 46.6759 41.471C46.7718 41.471 46.8677 41.471 46.9635 41.471C47.6153 41.471 48.2864 41.471 48.9382 41.471C50.1652 41.471 51.4113 41.471 52.6383 41.471C52.7725 41.471 52.9067 41.471 53.0409 41.471C53.2518 41.471 53.4244 41.394 53.5394 41.2014C53.5777 41.1437 53.6161 41.0859 53.6544 41.0474C53.6736 41.0281 53.7119 41.0281 53.7503 41.0474C53.7694 41.0667 53.7886 41.0859 53.8078 41.1052C53.8078 41.1244 53.827 41.1437 53.827 41.1437C53.827 41.7598 53.827 42.3759 53.827 42.9727C53.827 43.0112 53.8078 43.0497 53.7886 43.0497C53.7694 43.069 53.7311 43.069 53.6928 43.069C53.5777 43.0112 53.5586 42.8957 53.4819 42.8187C53.386 42.7224 53.271 42.6454 53.1368 42.6454C53.0601 42.6454 52.9642 42.6454 52.8875 42.6454C51.5455 42.6454 50.2227 42.6454 48.8807 42.6454C48.8232 42.6454 48.7465 42.6454 48.689 42.6454C48.5356 42.6454 48.4781 42.7032 48.4781 42.8572C48.4781 43.4348 48.4781 44.0124 48.4781 44.5899C48.4781 44.6092 48.4781 44.6285 48.4781 44.6477C48.4781 44.744 48.5548 44.8017 48.6314 44.821C48.7273 44.821 48.8232 44.8402 48.919 44.8402C49.6667 44.8402 50.3952 44.8402 51.1429 44.8402C51.2004 44.8402 51.2388 44.8402 51.2963 44.8402C51.5839 44.8595 51.8139 44.744 51.9481 44.4744C51.9673 44.4552 51.9865 44.4167 52.0057 44.3974C52.0248 44.3782 52.0632 44.3782 52.1015 44.3782C52.1207 44.3782 52.159 44.4167 52.159 44.4359C52.1782 44.4552 52.1782 44.4937 52.1782 44.5322C52.1782 45.1098 52.1782 45.6874 52.1782 46.265C52.1782 46.342 52.1207 46.419 52.0823 46.419C52.044 46.419 51.9865 46.3997 51.9481 46.3612C51.9098 46.3227 51.8906 46.2842 51.8715 46.2457C51.7756 46.0917 51.6414 46.0147 51.4497 46.0147C51.3922 46.0147 51.3155 46.0147 51.258 46.0147C50.4527 46.0147 49.6475 46.0147 48.8423 46.0147C48.7656 46.0147 48.6698 46.0147 48.5931 46.0339C48.5356 46.0339 48.4781 46.1109 48.4781 46.1687C48.4781 46.1879 48.4781 46.2072 48.4781 46.2265C48.4781 46.8811 48.4781 47.5164 48.4781 48.171C48.4781 48.2095 48.4781 48.248 48.4972 48.2673C48.5164 48.2865 48.5356 48.325 48.5739 48.325C48.689 48.3443 48.804 48.3443 48.919 48.3443C49.6667 48.325 50.3952 48.325 51.1238 48.325Z" fill="white"/>
<path d="M111.246 48.325C111.917 48.325 112.607 48.325 113.278 48.325C113.355 48.325 113.451 48.325 113.528 48.325C113.777 48.3443 113.988 48.248 114.103 48.017C114.122 47.9977 114.141 47.9592 114.16 47.94C114.18 47.9207 114.218 47.9207 114.256 47.9207C114.275 47.9207 114.314 47.9592 114.333 47.9785C114.352 47.9977 114.352 48.0362 114.352 48.0747C114.352 48.6331 114.352 49.1914 114.352 49.769C114.352 49.8075 114.352 49.846 114.333 49.8653C114.314 49.8845 114.295 49.923 114.275 49.923C114.256 49.9423 114.199 49.923 114.18 49.923C114.122 49.8653 114.084 49.7882 114.026 49.7305C113.93 49.615 113.796 49.538 113.643 49.5187C113.489 49.4995 113.355 49.4995 113.202 49.4995C111.208 49.4995 109.214 49.4995 107.22 49.4995C107.067 49.4995 106.933 49.4802 106.779 49.4802C106.741 49.4802 106.722 49.3839 106.741 49.3454C106.76 49.3262 106.76 49.3069 106.76 49.3069C106.779 49.2877 106.779 49.2877 106.798 49.2684C107.086 49.1336 107.163 48.9026 107.144 48.6138C107.144 48.4598 107.144 48.325 107.144 48.171C107.144 46.3035 107.144 44.4359 107.144 42.5491C107.144 42.3951 107.144 42.2603 107.144 42.1063C107.144 41.9523 107.067 41.8175 106.933 41.7405C106.875 41.702 106.798 41.6442 106.741 41.5865C106.722 41.5672 106.741 41.4709 106.779 41.4517C106.818 41.4324 106.875 41.4324 106.933 41.4324C107.086 41.4324 107.22 41.4324 107.374 41.4324C109.195 41.4324 110.997 41.4324 112.818 41.4324C112.953 41.4324 113.087 41.4324 113.221 41.4324C113.451 41.4132 113.643 41.3362 113.739 41.1244C113.758 41.0859 113.796 41.0474 113.834 41.0089C113.854 40.9896 113.892 40.9896 113.93 40.9896C113.949 40.9896 113.988 41.0281 114.007 41.0474C114.026 41.0666 114.026 41.1051 114.026 41.1436C114.026 41.7212 114.026 42.2988 114.026 42.8764C114.026 42.9149 114.026 42.9534 114.007 42.9727C113.988 42.9919 113.969 43.0304 113.93 43.0304C113.911 43.0304 113.854 43.0304 113.834 43.0112C113.777 42.9342 113.719 42.8572 113.643 42.7802C113.566 42.6839 113.47 42.6261 113.336 42.6261C113.259 42.6261 113.163 42.6261 113.087 42.6261C111.726 42.6261 110.345 42.6261 108.984 42.6261C108.926 42.6261 108.85 42.6261 108.792 42.6261C108.696 42.6261 108.639 42.7031 108.62 42.7802C108.62 42.8187 108.62 42.8379 108.62 42.8764C108.62 43.4155 108.62 43.9738 108.62 44.5129C108.62 44.5707 108.639 44.6092 108.639 44.6669C108.639 44.7247 108.716 44.7825 108.773 44.8017C108.831 44.8017 108.869 44.821 108.926 44.821C109.77 44.821 110.614 44.821 111.457 44.821C111.515 44.821 111.553 44.821 111.611 44.821C111.821 44.8017 111.994 44.7247 112.109 44.5322C112.128 44.4937 112.167 44.4552 112.205 44.4167C112.224 44.3974 112.262 44.3782 112.301 44.3974C112.32 44.3974 112.358 44.4359 112.377 44.4552C112.397 44.4744 112.397 44.5129 112.397 44.5514C112.397 45.129 112.397 45.7066 112.397 46.2842C112.397 46.3227 112.377 46.342 112.377 46.3805C112.377 46.3997 112.358 46.3997 112.339 46.3997C112.301 46.3997 112.262 46.419 112.243 46.3997C112.186 46.3612 112.147 46.3227 112.109 46.2649C111.994 46.0917 111.821 45.9954 111.611 46.0147C111.438 46.0147 111.285 46.0147 111.112 46.0147C110.441 46.0147 109.751 46.0147 109.08 46.0147C109.003 46.0147 108.907 46.0147 108.831 46.0147C108.754 46.0147 108.677 46.0917 108.658 46.1687C108.658 46.2072 108.658 46.2264 108.658 46.2649C108.658 46.8618 108.658 47.4586 108.658 48.0555C108.658 48.1132 108.658 48.1517 108.677 48.2095C108.677 48.2673 108.754 48.325 108.811 48.325C108.907 48.325 109.003 48.325 109.099 48.325C109.808 48.325 110.518 48.325 111.246 48.325Z" fill="white"/>
<path d="M148.42 47.4393C147.883 47.4393 147.327 47.4393 146.79 47.4393C146.713 47.4393 146.618 47.4393 146.541 47.4393C146.426 47.4393 146.349 47.4778 146.311 47.5933C146.215 47.7858 146.119 47.9784 146.023 48.1709C145.927 48.3827 145.832 48.5945 145.755 48.8063C145.697 48.9603 145.736 49.095 145.87 49.2106C145.927 49.2683 146.004 49.3068 146.062 49.3646C146.081 49.3646 146.081 49.4031 146.081 49.4031C146.062 49.4223 146.062 49.4609 146.023 49.4801C145.985 49.4994 145.927 49.4994 145.889 49.4994C145.218 49.4994 144.528 49.4994 143.857 49.4994C143.799 49.4994 143.761 49.4994 143.704 49.4801C143.684 49.4609 143.665 49.4223 143.646 49.4031C143.646 49.3838 143.646 49.3646 143.665 49.3646C143.704 49.3261 143.723 49.2876 143.78 49.2683C144.029 49.1336 144.183 48.9218 144.298 48.6907C144.375 48.5367 144.451 48.4019 144.509 48.2479C144.93 47.3045 145.333 46.3804 145.755 45.437C146.157 44.5514 146.541 43.6465 146.944 42.7608C147.02 42.5875 147.078 42.4335 147.154 42.2603C147.174 42.2025 147.193 42.1255 147.212 42.0677C147.231 41.9137 147.212 41.7789 147.059 41.6827C147.02 41.6634 146.982 41.6249 146.944 41.5864C146.924 41.5671 146.944 41.5286 146.944 41.4901C146.944 41.4709 146.963 41.4709 146.982 41.4516C147.02 41.4324 147.078 41.4324 147.135 41.4324C148.017 41.4324 148.88 41.4324 149.762 41.4324C149.819 41.4324 149.896 41.4516 149.953 41.4709C149.973 41.4709 149.973 41.5286 149.973 41.5671C149.953 41.6634 149.858 41.6827 149.8 41.7404C149.685 41.8174 149.666 41.9329 149.704 42.0485C149.743 42.1832 149.781 42.2988 149.838 42.4143C149.953 42.6838 150.088 42.9534 150.203 43.2229C150.835 44.5899 151.487 45.9568 152.12 47.3045C152.273 47.6318 152.427 47.9591 152.58 48.2864C152.657 48.4404 152.714 48.5945 152.81 48.7292C152.944 48.9795 153.117 49.2106 153.404 49.3068C153.424 49.3068 153.462 49.3453 153.462 49.3838C153.462 49.4031 153.462 49.4609 153.443 49.4801C153.424 49.4994 153.385 49.4994 153.347 49.4994C152.58 49.4994 151.832 49.4994 151.065 49.4994C151.027 49.4994 150.989 49.4994 150.97 49.4801C150.95 49.4609 150.931 49.4223 150.931 49.4031C150.931 49.3838 150.95 49.3453 150.989 49.3261C151.238 49.1913 151.276 49.0758 151.142 48.787C150.989 48.4212 150.816 48.0746 150.663 47.7088C150.586 47.5163 150.452 47.4393 150.241 47.4585C149.704 47.4778 149.187 47.4585 148.65 47.4585C148.554 47.4393 148.496 47.4393 148.42 47.4393ZM148.401 46.2456C148.803 46.2456 149.225 46.2456 149.628 46.2456C149.685 46.2456 149.762 46.2264 149.819 46.2071C149.838 46.2071 149.877 46.1493 149.877 46.1301C149.877 46.0723 149.858 45.9953 149.838 45.9376C149.417 44.9749 148.976 44.0123 148.554 43.0496C148.535 42.9919 148.496 42.9341 148.458 42.8763C148.439 42.8378 148.343 42.8378 148.343 42.8763C148.286 42.9919 148.228 43.1074 148.171 43.2229C147.787 44.1085 147.423 44.9749 147.059 45.8606C147.02 45.9376 147.001 46.0146 146.982 46.0916C146.963 46.1301 147.02 46.2071 147.059 46.2071C147.135 46.2071 147.212 46.2264 147.308 46.2264C147.634 46.2649 148.017 46.2456 148.401 46.2456Z" fill="white"/>
<path d="M168.435 49.5186C167.265 49.5186 166.096 49.5186 164.926 49.5186C164.792 49.5186 164.658 49.4994 164.543 49.4994C164.524 49.4994 164.485 49.4609 164.485 49.4224C164.485 49.4031 164.485 49.3454 164.485 49.3261C164.543 49.2684 164.62 49.2299 164.677 49.1721C164.831 49.0758 164.888 48.9218 164.907 48.7485C164.907 48.633 164.907 48.5175 164.907 48.402C164.907 45.8606 164.907 43.2999 164.907 40.7586C164.907 40.6623 164.907 40.566 164.907 40.4698C164.907 40.258 164.831 40.0847 164.639 39.9692C164.581 39.9307 164.524 39.8922 164.485 39.8537C164.466 39.8344 164.466 39.7959 164.466 39.7574C164.466 39.7381 164.485 39.6996 164.524 39.6804C164.543 39.6611 164.581 39.6611 164.62 39.6611C165.329 39.6611 166.038 39.6611 166.748 39.6611C166.786 39.6611 166.805 39.6804 166.844 39.6804C166.882 39.6804 166.92 39.8152 166.901 39.8537C166.863 39.8922 166.844 39.9307 166.786 39.9499C166.556 40.0654 166.479 40.2772 166.499 40.5275C166.499 40.6045 166.499 40.7008 166.499 40.7778C166.499 43.0689 166.499 45.3408 166.499 47.6319C166.499 47.7859 166.499 47.9207 166.518 48.0747C166.518 48.1324 166.575 48.2094 166.633 48.2094C166.729 48.2094 166.824 48.2287 166.92 48.2287C168.646 48.2287 170.39 48.2287 172.116 48.2287C172.442 48.2287 172.71 48.1709 172.863 47.8629C172.863 47.8436 172.883 47.8436 172.902 47.8244C172.94 47.7859 172.998 47.7859 173.036 47.8051C173.055 47.8244 173.094 47.8436 173.094 47.8821C173.113 47.9014 173.113 47.9399 173.113 47.9784C173.113 48.5753 173.113 49.1721 173.113 49.7689C173.113 49.8074 173.113 49.8267 173.094 49.8652C173.074 49.923 173.036 49.9422 172.998 49.9615C172.959 49.9615 172.921 49.9615 172.902 49.9422C172.844 49.8845 172.806 49.8074 172.748 49.7497C172.653 49.6149 172.499 49.5379 172.327 49.5186C172.192 49.5186 172.058 49.5186 171.924 49.5186C170.774 49.5186 169.604 49.5186 168.435 49.5186Z" fill="white"/>
<path d="M132.967 41.4324C133.351 41.4324 133.734 41.4324 134.098 41.4324C134.156 41.4324 134.233 41.4516 134.29 41.4709C134.309 41.4709 134.329 41.5286 134.329 41.5479C134.309 41.6442 134.233 41.6634 134.175 41.7212C134.06 41.8174 134.041 41.9522 134.118 42.087C134.175 42.2025 134.233 42.318 134.309 42.4335C134.865 43.2229 135.441 44.0315 135.996 44.8209C136.016 44.8401 136.035 44.8594 136.073 44.8979C136.092 44.9172 136.169 44.9172 136.207 44.8786C136.246 44.8209 136.284 44.7824 136.322 44.7246C136.84 43.9738 137.358 43.2421 137.875 42.4913C137.933 42.395 138.009 42.2988 138.067 42.2025C138.125 42.1062 138.163 41.9907 138.125 41.8752C138.105 41.7597 138.029 41.7019 137.933 41.6442C137.914 41.6249 137.894 41.6056 137.875 41.5671C137.875 41.5479 137.856 41.5286 137.875 41.5286C137.894 41.5094 137.894 41.4709 137.933 41.4516C137.971 41.4324 138.029 41.4324 138.067 41.4324C138.815 41.4324 139.543 41.4324 140.291 41.4324C140.348 41.4324 140.387 41.4324 140.425 41.4516C140.444 41.4709 140.463 41.5094 140.483 41.5286C140.483 41.5479 140.483 41.5671 140.463 41.5671C140.425 41.6056 140.406 41.6442 140.368 41.6634C140.08 41.7982 139.85 42.0292 139.658 42.2795C139.313 42.7416 138.968 43.2036 138.623 43.6657C138.086 44.3781 137.569 45.1097 137.051 45.822C136.993 45.8991 136.936 45.9761 136.878 46.0723C136.821 46.1493 136.802 46.2456 136.802 46.3611C136.802 46.4189 136.802 46.4959 136.802 46.5537C136.802 47.2083 136.802 47.8436 136.802 48.4982C136.802 48.556 136.802 48.633 136.802 48.6907C136.783 48.941 136.878 49.1336 137.108 49.2683C137.147 49.2876 137.185 49.3453 137.204 49.3838C137.223 49.4031 137.204 49.4609 137.185 49.4801C137.166 49.4994 137.128 49.4994 137.089 49.4994C136.399 49.4994 135.709 49.4994 135.019 49.4994C134.98 49.4994 134.942 49.4801 134.942 49.4609C134.923 49.4416 134.923 49.4031 134.923 49.3646C134.942 49.3261 134.98 49.2876 135.019 49.2683C135.268 49.1143 135.364 48.8833 135.345 48.5945C135.345 47.9014 135.345 47.2083 135.345 46.5151C135.345 46.3226 135.287 46.1686 135.172 46.0146C134.769 45.4562 134.367 44.8787 133.964 44.3203C133.523 43.7042 133.063 43.0881 132.622 42.472C132.469 42.2602 132.296 42.0677 132.085 41.8944C131.951 41.7982 131.817 41.7212 131.683 41.6249C131.664 41.6056 131.645 41.5671 131.664 41.5479C131.664 41.5286 131.702 41.4901 131.721 41.4709C131.779 41.4516 131.855 41.4516 131.913 41.4516C132.239 41.4324 132.603 41.4324 132.967 41.4324Z" fill="white"/>
<path d="M181.664 45.8413C181.664 46.6885 181.664 47.5356 181.664 48.3827C181.664 48.4982 181.664 48.6138 181.664 48.7293C181.664 48.9411 181.74 49.1143 181.932 49.2298C181.99 49.2684 182.047 49.3069 182.085 49.3454C182.105 49.3646 182.105 49.4031 182.085 49.4416C182.066 49.4609 182.047 49.4801 182.009 49.4994C181.99 49.4994 181.97 49.4994 181.97 49.4994C181.299 49.4994 180.609 49.4994 179.938 49.4994C179.9 49.4994 179.881 49.4801 179.842 49.4801C179.804 49.4801 179.785 49.3839 179.804 49.3646C179.842 49.3261 179.861 49.2876 179.9 49.2684C180.13 49.1336 180.207 48.9218 180.187 48.6715C180.187 48.6137 180.187 48.5367 180.187 48.479C180.187 46.7077 180.187 44.9364 180.187 43.1652C180.187 43.0304 180.187 42.8956 180.168 42.7608C180.168 42.7031 180.092 42.6453 180.034 42.6453C179.976 42.6453 179.938 42.6261 179.881 42.6261C179.19 42.6261 178.5 42.6261 177.81 42.6261C177.772 42.6261 177.753 42.6261 177.714 42.6261C177.523 42.6261 177.369 42.7223 177.273 42.8956C177.235 42.9534 177.197 43.0111 177.158 43.0496C177.139 43.0689 177.101 43.0689 177.062 43.0496C177.043 43.0304 177.024 43.0111 177.005 42.9726C177.005 42.9534 177.005 42.9341 177.005 42.9149C177.005 42.318 177.005 41.7212 177.005 41.1243C177.005 41.0858 177.024 41.0666 177.024 41.0281C177.024 41.0088 177.043 41.0088 177.062 40.9896C177.101 40.9896 177.139 40.9703 177.158 40.9896C177.216 41.0473 177.273 41.1051 177.312 41.1821C177.427 41.3169 177.561 41.3939 177.733 41.3939C177.829 41.3939 177.925 41.3939 178.021 41.3939C179.957 41.3939 181.874 41.3939 183.811 41.3939C183.849 41.3939 183.868 41.3939 183.907 41.3939C184.233 41.4131 184.501 41.3361 184.654 41.0281C184.674 41.0088 184.712 40.9896 184.731 40.9703C184.75 40.9511 184.846 40.9703 184.865 41.0088C184.865 41.0473 184.884 41.0666 184.884 41.1051C184.884 41.6827 184.884 42.2603 184.884 42.8379C184.884 42.8764 184.884 42.9149 184.865 42.9341C184.846 42.9534 184.827 42.9919 184.789 42.9919C184.769 42.9919 184.712 42.9919 184.693 42.9726C184.635 42.8956 184.578 42.8186 184.52 42.7416C184.443 42.6453 184.348 42.5876 184.213 42.5876C184.156 42.5876 184.079 42.5876 184.022 42.5876C183.332 42.5876 182.641 42.5876 181.951 42.5876C181.894 42.5876 181.855 42.5876 181.798 42.6068C181.74 42.6068 181.664 42.6646 181.664 42.7223C181.664 42.8571 181.644 42.9919 181.644 43.1267C181.664 44.0701 181.664 44.9557 181.664 45.8413Z" fill="white"/>
<path d="M184.942 7.00809C184.999 7.00809 185.076 7.06585 185.095 6.96958C185.133 6.83481 185.172 6.68079 185.191 6.52676C185.459 5.29457 185.881 4.12014 186.533 3.02272C187.031 2.17559 187.664 1.44397 188.469 0.866384C189.006 0.481325 189.62 0.211783 190.252 0.038506C190.348 0.019253 190.444 0.019253 190.54 0C190.597 0 190.674 0.057759 190.693 0.115518C190.712 0.154024 190.712 0.211783 190.731 0.269542C190.751 0.712361 190.751 1.15518 190.693 1.598C190.54 2.63766 190.137 3.5618 189.485 4.38968C188.968 5.06354 188.316 5.60262 187.607 6.06469C186.916 6.50751 186.188 6.85406 185.421 7.12361C185.287 7.18136 185.133 7.20062 184.999 7.23912C184.98 7.23912 184.942 7.21987 184.903 7.20062C184.922 7.12361 184.942 7.06585 184.942 7.00809Z" fill="white"/>
<path d="M184.942 7.00805C184.922 7.06581 184.922 7.12357 184.903 7.18133C184.386 7.20058 183.887 7.18133 183.37 7.10432C182.967 7.04656 182.564 6.96955 182.162 6.85403C181.261 6.62299 180.417 6.23793 179.669 5.6796C178.577 4.83246 177.848 3.7543 177.503 2.40659C177.484 2.34883 177.484 2.27182 177.484 2.21406C177.484 2.17555 177.522 2.11779 177.561 2.09854C177.906 2.00227 178.27 2.00227 178.634 2.04078C179.938 2.1563 181.069 2.69538 182.085 3.50401C183.14 4.35114 183.964 5.3908 184.673 6.54598C184.807 6.68075 184.922 6.81552 184.942 7.00805Z" fill="white"/>
<path d="M16.423 16.4806C16.4614 16.5191 16.4997 16.5576 16.5381 16.5961C16.4806 16.6731 16.4422 16.7694 16.3847 16.8464C16.1355 17.2122 15.8862 17.578 15.637 17.9438C15.6178 17.8861 15.5795 17.8668 15.522 17.8476C15.7329 17.4625 15.9437 17.0967 16.2122 16.7309C16.2697 16.6539 16.3464 16.5576 16.423 16.4806Z" fill="white"/>
<path d="M67.3047 12.8417C67.343 12.8032 67.3814 12.784 67.4197 12.7455C67.784 12.9765 68.0907 13.2461 68.3208 13.5349C68.2824 13.5349 68.2633 13.5541 68.2249 13.5541C68.1866 13.5349 68.1291 13.5156 68.0907 13.4964C67.8415 13.3038 67.6114 13.1305 67.3622 12.938C67.343 12.8803 67.3239 12.861 67.3047 12.8417Z" fill="white"/>
<path d="M68.3018 13.5156C68.4551 13.5541 68.551 13.6696 68.6469 13.7852C68.666 13.8237 68.666 13.8429 68.6469 13.8622C68.6277 13.8622 68.6085 13.8622 68.6085 13.8622C68.4935 13.8044 68.3976 13.7082 68.3209 13.5926C68.3018 13.5926 68.3018 13.5541 68.3018 13.5156Z" fill="white"/>
<path d="M15.6371 17.9631C15.6179 18.0016 15.6179 18.0208 15.5988 18.0401C15.5796 18.0593 15.5413 18.0593 15.5221 18.0593C15.5029 18.0401 15.4646 18.0016 15.4837 17.9823C15.4837 17.9438 15.5221 17.886 15.5413 17.8475C15.5796 17.8668 15.6179 17.9053 15.6371 17.9631Z" fill="white"/>
<path d="M55.2456 14.3242C55.2648 14.2087 55.3223 14.1509 55.4181 14.1124C55.4373 14.1317 55.4565 14.1509 55.4948 14.1702C55.4757 14.2087 55.4373 14.2472 55.4181 14.2857C55.3606 14.3242 55.3031 14.3627 55.2456 14.3242Z" fill="white"/>
<path d="M55.4185 14.0932C55.4376 14.0739 55.4568 14.0354 55.476 14.0354C55.4951 14.0354 55.5335 14.0547 55.5527 14.0547C55.5527 14.0547 55.5527 14.0739 55.5527 14.0932C55.5335 14.1124 55.5143 14.1317 55.4951 14.1509C55.4568 14.1509 55.4376 14.1317 55.4185 14.0932Z" fill="white"/>
<path d="M55.2267 14.3049C55.2267 14.4012 55.2267 14.4012 55.1309 14.4012C55.15 14.3627 55.1884 14.3242 55.2267 14.3049C55.2459 14.3242 55.2267 14.3049 55.2267 14.3049Z" fill="white"/>
<path d="M55.1306 14.4012C55.1498 14.4205 55.1498 14.459 55.1306 14.4783C55.1306 14.4783 55.1115 14.4783 55.0923 14.459C55.1115 14.459 55.1306 14.4398 55.1306 14.4012C55.1498 14.4205 55.1306 14.4012 55.1306 14.4012Z" fill="white"/>
<path d="M54.939 14.7093C54.939 14.69 54.939 14.6708 54.9581 14.6708C54.9965 14.6708 54.9773 14.69 54.939 14.7093Z" fill="white"/>
<path d="M54.8429 14.8055C54.8046 14.844 54.7854 14.8633 54.7471 14.9018C54.7854 14.8826 54.8046 14.844 54.8429 14.8055C54.8429 14.8248 54.8429 14.8055 54.8429 14.8055Z" fill="white"/>
<path d="M54.9391 14.7092C54.9008 14.7477 54.8624 14.7862 54.8433 14.8055C54.8816 14.7862 54.9199 14.7477 54.9391 14.7092Z" fill="white"/>
</svg>
