<svg width="184" height="45" viewBox="0 0 184 45" fill="none" xmlns="http://www.w3.org/2000/svg">
<path d="M97.3699 23.6816C97.3699 22.5056 97.3699 21.3464 97.3534 20.1703C97.3369 19.1791 97.2873 18.1711 97.1882 17.1799C97.1387 16.7095 97.0726 16.2391 96.9404 15.7686C96.8743 15.483 96.7587 15.2142 96.61 14.979C96.2466 14.391 95.718 14.0718 95.0242 14.0046C94.3468 13.9374 93.7026 14.0886 93.0914 14.4078C92.6288 14.643 92.2323 14.9622 91.8524 15.3318C91.4229 15.7518 91.0594 16.2055 90.7291 16.6927C89.9692 17.8015 89.3744 18.9943 88.9284 20.2711C88.5319 21.3464 88.2511 22.4384 88.0529 23.564C87.9042 24.3536 87.8051 25.16 87.739 25.9665C87.6729 26.8233 87.6234 27.6969 87.6399 28.5705C87.6399 28.7049 87.6399 28.8225 87.6234 28.9569C87.6234 28.9737 87.5903 29.0073 87.5738 29.0241C87.4912 29.0577 87.4086 29.0745 87.326 29.0913C86.5331 29.1921 85.7401 29.2929 84.9637 29.3769C84.6664 29.4105 84.369 29.4441 84.0716 29.4945C84.0221 29.4945 83.956 29.4609 83.956 29.3937C83.956 29.2593 83.9395 29.1417 83.9395 29.0073C83.923 24.8072 83.9064 20.5903 83.8734 16.3903C83.8734 15.6174 83.8734 14.8278 83.8734 14.055C83.8734 13.9542 83.8734 13.8534 83.8734 13.7526C83.8734 13.6686 83.8404 13.6182 83.7908 13.5678C83.7247 13.5006 83.6421 13.4334 83.5595 13.3662C82.7996 12.6942 82.0232 12.0222 81.2633 11.3502C81.1477 11.2494 81.0155 11.1486 80.9494 10.9974C80.9329 10.947 80.9164 10.8966 80.8999 10.8294C80.8834 10.7621 80.9329 10.6781 80.9825 10.6445C81.0981 10.5773 81.2138 10.5437 81.3459 10.5437C81.5772 10.5269 81.7919 10.4933 82.0232 10.4765C82.5188 10.4429 83.0144 10.3925 83.51 10.3589C84.0056 10.3253 84.5012 10.2749 84.9967 10.2245C85.4263 10.1909 85.8392 10.1573 86.2688 10.1237C86.7643 10.0901 87.2599 10.0397 87.7555 10.0061C87.9207 9.98933 88.1024 9.97253 88.2676 9.95573C88.3337 9.95573 88.4163 9.95573 88.4824 9.95573C88.5154 9.95573 88.565 10.0061 88.565 10.0397C88.565 10.1237 88.565 10.2077 88.5485 10.2917C88.4659 11.1822 88.3833 12.0726 88.3007 12.963C88.2346 13.7022 88.152 14.4246 88.0859 15.1638C88.0364 15.735 87.9868 16.3231 87.9537 16.8943C87.9537 16.9279 87.9703 16.9447 88.0033 16.9447C88.0198 16.9447 88.0363 16.9447 88.0363 16.9279C88.0694 16.8943 88.0859 16.8607 88.1189 16.8271C88.185 16.7095 88.2511 16.6087 88.3172 16.4911C88.9284 15.483 89.5892 14.5086 90.3491 13.6014C91.0429 12.7782 91.7863 12.039 92.6453 11.4006C93.2235 10.9638 93.8347 10.6109 94.4955 10.3421C95.2554 10.0397 96.0484 9.88853 96.8743 9.93893C97.6342 9.98933 98.3611 10.2077 98.9889 10.6445C99.3853 10.9302 99.7322 11.283 100.013 11.6694C100.393 12.207 100.657 12.795 100.856 13.4166C101.037 13.971 101.136 14.5254 101.219 15.1134C101.269 15.483 101.285 15.8527 101.318 16.2391C101.335 16.4239 101.351 16.6087 101.351 16.7935C101.351 16.8271 101.368 16.8439 101.401 16.8439C101.417 16.8439 101.434 16.8439 101.434 16.8271C101.5 16.7263 101.549 16.6255 101.615 16.5247C102.161 15.5334 102.772 14.5758 103.482 13.6854C104.176 12.795 104.952 12.0054 105.845 11.3334C106.324 10.9638 106.836 10.6613 107.381 10.4093C108.355 9.97253 109.363 9.83813 110.42 10.0061C110.701 10.0565 110.982 10.1069 111.246 10.1909C112.205 10.4933 112.964 11.0646 113.526 11.9214C113.89 12.459 114.137 13.0638 114.303 13.6854C114.501 14.391 114.616 15.1302 114.666 15.8695C114.716 16.6759 114.732 17.4823 114.682 18.2887C114.666 18.4735 114.666 18.6583 114.666 18.8599C114.649 19.7839 114.583 20.7079 114.517 21.632C114.468 22.1864 114.435 22.7576 114.402 23.312C114.352 23.9 114.319 24.488 114.27 25.0928C114.27 25.1264 114.27 25.1432 114.27 25.1768C114.236 26.1513 114.154 27.1089 114.154 28.0833C114.154 28.6041 114.236 29.1249 114.418 29.6121C114.451 29.6793 114.468 29.7465 114.484 29.8137C114.534 29.9649 114.418 30.1497 114.27 30.1833C114.187 30.2001 114.104 30.2169 114.022 30.2169C113.857 30.2001 113.691 30.1833 113.526 30.1329C112.816 29.9145 112.205 29.5449 111.659 29.0409C111.329 28.7385 111.114 28.3689 110.949 27.9657C110.833 27.6633 110.734 27.3441 110.685 27.0081C110.586 26.3865 110.52 25.748 110.52 25.1096C110.52 24.488 110.52 23.8664 110.52 23.2448C110.52 22.4048 110.536 21.5648 110.553 20.7247C110.569 19.9015 110.553 19.0783 110.503 18.2551C110.47 17.5831 110.404 16.8943 110.255 16.2391C110.189 15.9535 110.123 15.6846 110.007 15.4158C109.925 15.231 109.842 15.0462 109.727 14.8782C109.363 14.3574 108.868 14.0886 108.256 14.0382C107.678 13.9878 107.133 14.1054 106.604 14.3574C106.142 14.5758 105.729 14.895 105.349 15.2478C104.985 15.6006 104.672 15.9871 104.374 16.3903C103.763 17.2303 103.267 18.1375 102.838 19.0951C102.309 20.2711 101.929 21.4808 101.649 22.7408C101.483 23.5136 101.351 24.3032 101.252 25.0928C101.202 25.5296 101.169 25.9833 101.136 26.4369C101.07 27.2265 101.054 28.0329 101.07 28.8225C101.07 28.8729 101.07 28.9401 101.054 28.9905C101.054 29.0409 101.004 29.0577 100.971 29.0745C100.922 29.0913 100.856 29.1081 100.806 29.1081C100.244 29.1753 99.6827 29.2425 99.121 29.3097C98.6089 29.3769 98.1133 29.4441 97.6012 29.4945C97.5516 29.4945 97.5186 29.5113 97.4691 29.5113C97.436 29.5113 97.3865 29.4609 97.3865 29.4273C97.3865 29.2929 97.3699 29.1753 97.3699 29.0409C97.3699 28.2681 97.3865 27.4785 97.3865 26.7057C97.3865 25.7144 97.3865 24.7064 97.3865 23.7152C97.3534 23.6816 97.3534 23.6816 97.3699 23.6816Z" fill="#1C6A38"/>
<path d="M14.5574 18.1376C15.1521 18.1544 15.7468 18.1712 16.3415 18.188C17.1509 18.2048 17.9604 18.2384 18.7698 18.2552C18.9185 18.2552 19.0507 18.2552 19.1994 18.2552C19.2324 18.2552 19.2654 18.2048 19.2654 18.1712C19.2159 18.0199 19.1498 17.8687 19.1002 17.7343C18.5055 16.2727 17.9108 14.7943 17.3161 13.3327C17.2831 13.2487 17.25 13.1646 17.217 13.0974C17.184 13.0302 17.217 12.9798 17.25 12.9462C17.2666 12.9294 17.2831 12.9126 17.3161 12.879C17.9439 12.3078 18.6047 11.787 19.3315 11.367C19.8106 11.0814 20.3227 10.863 20.8513 10.695C20.9339 10.6614 20.9835 10.695 21.0165 10.779C21.0496 10.8462 21.0661 10.9134 21.0991 10.9806C21.2313 11.3334 21.3634 11.6862 21.4956 12.039C23.4779 17.4151 25.4603 22.808 27.4426 28.1842C27.4757 28.2682 27.5087 28.3522 27.5252 28.4194C27.5748 28.5538 27.5748 28.6042 27.4096 28.6714C26.8314 28.9066 26.2532 29.1586 25.675 29.3938C25.229 29.5786 24.783 29.7802 24.337 29.965C24.2709 29.9986 24.2048 29.965 24.1718 29.881C24.1387 29.797 24.1057 29.7298 24.0726 29.6458C23.9074 29.2594 23.7422 28.873 23.577 28.4866C22.5694 26.1009 21.5782 23.6985 20.5705 21.3128C20.3557 20.792 20.4714 20.876 19.9262 20.876C18.0925 20.8928 16.2589 20.9264 14.4252 20.9432C14.0122 20.9432 13.5992 20.96 13.1862 20.9432C12.4428 20.9432 11.716 20.9936 10.9726 21.128C10.2788 21.2456 9.618 21.4304 8.97373 21.7328C7.86692 22.2536 7.0079 23.0433 6.44624 24.1521C5.78545 25.4289 5.12467 26.7057 4.44736 27.9826C4.36477 28.1506 4.28217 28.3186 4.18305 28.4698C3.98482 28.8058 3.75354 29.1082 3.47271 29.377C3.02668 29.797 2.51457 30.0322 1.91987 30.133C1.58948 30.1834 1.2756 30.2002 0.945212 30.1498C0.796536 30.133 0.664379 30.0826 0.548742 29.9986C0.482663 29.9482 0.433105 29.8474 0.466144 29.7634C0.565261 29.545 0.647859 29.3434 0.746977 29.1418C1.47384 27.6969 2.21722 26.2353 2.94408 24.7905C5.22379 20.372 7.47045 15.9367 9.70059 11.5182C10.3118 10.2918 10.923 9.06537 11.4847 7.82214C11.8316 7.06613 12.162 6.29331 12.4098 5.48689C12.5585 5.01648 12.6906 4.54607 12.7732 4.05886C12.8393 3.73966 12.8558 3.40365 12.8889 3.06764C12.8889 2.98364 12.8889 2.89964 12.8889 2.81564C12.8889 2.74844 12.9219 2.69804 12.988 2.68124C13.0541 2.64763 13.1201 2.63083 13.1862 2.61403C14.5408 2.14362 15.912 1.69001 17.2666 1.21961C17.3161 1.2028 17.3822 1.186 17.4318 1.186C17.4483 1.186 17.4978 1.2028 17.4978 1.21961C17.5474 1.30361 17.5804 1.40441 17.6135 1.50521C18.3403 3.48765 19.0837 5.48689 19.8106 7.46933C19.9097 7.72134 19.9923 7.99014 20.0914 8.24215C20.1245 8.30935 20.0914 8.37655 20.0253 8.42695C19.9923 8.46055 19.9593 8.47735 19.9262 8.49415C18.8359 9.28377 17.8448 10.2078 16.9362 11.199C16.8536 11.2998 16.7545 11.3838 16.6719 11.4846C16.6388 11.5182 16.5893 11.5014 16.5727 11.451C16.5232 11.3334 16.4736 11.2158 16.4241 11.0982C16.0276 10.107 15.6146 9.11577 15.2181 8.14135C15.1851 8.04055 15.1355 7.95654 15.086 7.87254C15.0695 7.83894 15.0034 7.85574 14.9869 7.87254C14.9208 7.99014 14.8547 8.09095 14.8051 8.20855C13.2027 11.3334 11.6003 14.4583 9.98143 17.5831C9.93187 17.6671 9.89883 17.7679 9.84927 17.8519C9.81623 17.9191 9.84927 18.0031 9.93187 18.0031C9.98143 18.0031 10.0475 18.0031 10.0971 18.0031C11.4517 18.0367 12.7898 18.0703 14.1444 18.1208C14.293 18.1208 14.4252 18.1208 14.5739 18.1208C14.5574 18.1208 14.5574 18.1208 14.5574 18.1376Z" fill="#1C6A38"/>
<path d="M14.6071 14.9455C14.6402 14.8783 14.6732 14.8111 14.7062 14.7607C15.2844 13.9207 15.9122 13.1143 16.5564 12.3247C17.2007 11.5518 17.8945 10.8294 18.6379 10.1406C19.2987 9.51901 20.009 8.9646 20.7689 8.47739C21.4958 8.00698 22.2557 7.63737 23.0817 7.38536C23.6103 7.23416 24.1224 7.13336 24.6675 7.13336C24.7501 7.13336 24.8327 7.13336 24.9153 7.13336C25.6422 7.11656 26.3525 7.21736 27.0629 7.36856C28.3184 7.62057 29.5243 8.04058 30.7137 8.51099C32.3657 9.183 33.9681 9.97262 35.5209 10.8462C36.2643 11.2494 36.9746 11.6862 37.7015 12.1231C37.7511 12.1567 37.8006 12.1735 37.8502 12.1903C37.8832 12.2071 37.9328 12.1567 37.9493 12.1231C37.9493 12.0895 37.9658 12.0559 37.9493 12.0391C37.8667 11.9551 37.7841 11.8711 37.7015 11.8039C37.4041 11.5686 37.0903 11.3334 36.7764 11.0982C35.0584 9.82141 33.2743 8.67899 31.3745 7.70457C30.3998 7.20056 29.3921 6.76375 28.3514 6.41094C27.6246 6.15894 26.8812 5.97413 26.1213 5.85653C25.5926 5.77253 25.0475 5.72213 24.5023 5.75573C24.1389 5.78933 23.7755 5.83973 23.4121 5.90693C23.3955 5.90693 23.379 5.90693 23.379 5.89013C23.3955 5.87333 23.3955 5.83973 23.4121 5.83973C23.4781 5.80613 23.5442 5.77253 23.6103 5.75573C23.825 5.68853 24.0398 5.60453 24.2546 5.53733C25.064 5.28532 25.9065 5.10052 26.749 4.94931C27.2776 4.84851 27.8228 4.78131 28.3514 4.73091C28.8305 4.68051 29.3096 4.66371 29.8051 4.64691C30.152 4.63011 30.5155 4.63011 30.8789 4.64691C31.4736 4.68051 32.0683 4.69731 32.663 4.78131C33.1917 4.84851 33.7038 4.93251 34.2159 5.05012C35.0749 5.25172 35.8678 5.55413 36.6277 5.99094C37.4702 6.46134 38.2136 7.06616 38.9074 7.73817C39.783 8.61179 40.5429 9.58621 41.2037 10.6278C41.6662 11.3502 42.0461 12.0895 42.4261 12.8623C42.74 13.5007 43.0538 14.1223 43.3842 14.7439C43.599 15.1471 43.8468 15.5335 44.0946 15.9199C44.1276 15.9703 44.1772 16.0375 44.2433 16.0879C44.2598 16.1047 44.3093 16.1047 44.3259 16.0879C44.3754 16.0543 44.4084 16.0207 44.458 15.9703C44.6562 15.7687 44.838 15.5839 45.0362 15.3823C45.1188 15.2983 45.1849 15.2143 45.2014 15.0967C45.2675 14.7943 45.3335 14.4751 45.4327 14.1727C45.6805 13.2991 46.0109 12.4591 46.4899 11.6694C46.8203 11.1318 47.2333 10.6446 47.7124 10.2414C47.9932 10.0062 48.3236 9.80461 48.654 9.65341C49.2322 9.3678 49.8434 9.1998 50.4711 9.0486C51.5119 8.81339 52.5526 8.74619 53.6099 8.81339C53.6925 8.81339 53.7751 8.83019 53.8577 8.84699C53.8907 8.86379 53.9403 8.88059 53.9403 8.93099C53.3455 8.9478 52.8004 9.1494 52.2718 9.4014C51.7101 9.68701 51.1815 10.0398 50.6859 10.4262C49.9425 11.0142 49.2652 11.6694 48.6209 12.3583C48.5714 12.4087 48.5383 12.4759 48.5053 12.5431C48.4888 12.5599 48.5053 12.5935 48.5218 12.6103C48.5383 12.6271 48.5714 12.6439 48.5879 12.6271C48.6705 12.5767 48.7531 12.5263 48.8357 12.4591C49.2487 12.0895 49.6947 11.7367 50.1407 11.4174C50.7685 10.947 51.4293 10.5102 52.1231 10.1574C52.4865 9.97262 52.883 9.82141 53.2795 9.70381C53.8742 9.53581 54.4524 9.53581 55.0471 9.67021C55.427 9.77101 55.7904 9.88861 56.1374 10.0398C56.9964 10.4262 57.7728 10.9638 58.5162 11.5518C58.5327 11.5686 58.5492 11.6022 58.5657 11.619C58.5327 11.6526 58.4997 11.6694 58.4666 11.7031C58.384 11.6694 58.3179 11.6358 58.2353 11.5854C57.8884 11.367 57.5415 11.1822 57.1781 11.031C56.6825 10.8126 56.1539 10.695 55.6087 10.695C54.8819 10.695 54.2541 10.9638 53.709 11.451C53.5768 11.5686 53.4447 11.7199 53.3125 11.8543C53.0978 12.0727 52.8995 12.2911 52.6848 12.5095C51.7597 13.4503 50.7189 14.2063 49.5626 14.8111C48.7531 15.2311 47.8941 15.5503 47.002 15.7183C46.6716 15.7855 46.3247 15.8359 45.9943 15.8359C45.8126 15.8359 45.6309 15.8359 45.4492 15.7855C45.317 15.7519 45.2344 15.8023 45.1684 15.9199C45.0362 16.1719 44.904 16.4239 44.7554 16.676C44.6893 16.7936 44.7058 16.8944 44.7554 17.012C44.838 17.18 44.904 17.348 44.9701 17.5328C45.3005 18.3728 45.5318 19.2296 45.697 20.1032C45.7961 20.6072 45.8457 21.128 45.9117 21.6489C45.9117 21.6993 45.9117 21.7329 45.9283 21.7833C45.9778 22.5729 46.0439 23.3625 46.0274 24.1689C46.0274 24.8409 46.0439 25.4961 46.0109 26.1681C45.9778 27.025 45.8952 27.865 45.6805 28.705C45.5979 29.0242 45.4987 29.3434 45.3501 29.6458C45.251 29.8474 45.1353 30.0154 44.9701 30.1666C44.7719 30.3682 44.5241 30.469 44.2433 30.5026C44.0615 30.5194 43.8798 30.469 43.6981 30.385C43.4668 30.2842 43.2521 30.1162 43.1034 29.8978C42.9712 29.713 42.8886 29.5282 42.806 29.3266C42.6078 28.7722 42.4591 28.201 42.3435 27.613C42.0957 26.3193 42.0296 25.0089 42.1122 23.6817C42.1453 22.9593 42.2113 22.2369 42.327 21.5312C42.4096 20.9264 42.5087 20.3384 42.6574 19.7504C42.9052 18.7256 43.2686 17.7344 43.8137 16.8272C43.8633 16.7432 43.8633 16.676 43.8137 16.5919C43.6155 16.2559 43.4173 15.9199 43.219 15.6007C43.153 15.4999 43.0869 15.4831 42.9547 15.5167C42.9052 15.5335 42.8391 15.5503 42.7895 15.5671C42.6078 15.6175 42.4426 15.6679 42.2609 15.7183C41.7984 15.8527 41.3193 15.9199 40.8402 15.9703C40.0473 16.0711 39.2543 16.0543 38.4614 16.0207C38.0154 16.0039 37.5528 15.9535 37.1068 15.8863C36.3469 15.7855 35.587 15.6343 34.8436 15.4495C33.5881 15.1303 32.3657 14.7103 31.1763 14.1895C29.7886 13.5847 28.467 12.8455 27.2116 12.0055C26.8151 11.7367 26.4186 11.451 26.0222 11.1654C25.5596 10.8294 25.064 10.5438 24.5354 10.3254C24.1059 10.1406 23.6433 10.023 23.1808 9.95582C22.8339 9.90541 22.4704 9.87181 22.1235 9.90541C21.4297 9.97262 20.7524 10.1238 20.1081 10.3926C19.3317 10.7118 18.6379 11.1486 17.9771 11.6526C17.1346 12.2911 16.3747 13.0471 15.6809 13.8535C15.3835 14.2063 15.0862 14.5591 14.8054 14.9287C14.7723 14.9623 14.7393 14.9791 14.7062 15.0127C14.6732 15.0127 14.6402 14.9791 14.6071 14.9455ZM47.7124 13.5007C47.6793 13.5343 47.6463 13.5511 47.6298 13.5847L47.6132 13.6015L47.6298 13.5847C47.6463 13.5511 47.6793 13.5175 47.7124 13.5007C47.7454 13.4671 47.7619 13.4335 47.795 13.3999C47.828 13.3831 47.8445 13.3663 47.8115 13.3663C47.8115 13.3663 47.8115 13.3999 47.795 13.3999C47.7784 13.4335 47.7454 13.4671 47.7124 13.5007ZM47.9602 13.1311C48.0428 13.1311 48.0428 13.1311 48.0428 13.0471C48.0923 13.0807 48.1419 13.0639 48.1914 13.0135C48.2245 12.9799 48.241 12.9463 48.2575 12.9127C48.274 12.8959 48.2906 12.8791 48.3071 12.8623C48.3071 12.8455 48.3071 12.8287 48.3071 12.8287C48.2906 12.8119 48.2575 12.8119 48.241 12.8119C48.2245 12.8119 48.208 12.8455 48.1914 12.8623C48.1088 12.8959 48.0428 12.9463 48.0428 13.0471C48.0097 13.0639 47.9767 13.0975 47.9602 13.1311C47.9436 13.1479 47.9271 13.1647 47.9106 13.1815C47.9271 13.1815 47.9436 13.1983 47.9436 13.1983C47.9767 13.1815 47.9767 13.1647 47.9602 13.1311ZM43.4999 24.9753C43.5164 24.9753 43.5164 24.9753 43.4999 24.9753C43.5164 25.4121 43.5164 25.8489 43.5164 26.2689C43.5164 26.8906 43.5825 27.5122 43.6981 28.117C43.7477 28.369 43.8137 28.621 43.8633 28.873C43.8963 28.9906 43.9459 29.125 43.9955 29.2426C44.0781 29.4106 44.2102 29.4274 44.3259 29.2762C44.3754 29.2258 44.4085 29.1586 44.4415 29.0914C44.4911 29.0074 44.5241 28.9066 44.5571 28.8058C44.7058 28.4026 44.8049 27.9826 44.8875 27.5458C45.0032 26.9578 45.0692 26.3529 45.1188 25.7481C45.1683 25.1937 45.2014 24.6225 45.2179 24.0681C45.2344 23.4465 45.2344 22.8249 45.2344 22.2033C45.2344 21.3128 45.1353 20.4224 44.9701 19.532C44.871 19.028 44.7388 18.524 44.5571 18.0368C44.5241 17.936 44.4745 17.852 44.425 17.768C44.4085 17.7512 44.3754 17.7512 44.3589 17.7344C44.3589 17.7344 44.3424 17.7512 44.3259 17.7512C44.3093 17.8016 44.2763 17.852 44.2598 17.9024C44.1111 18.4064 43.9789 18.9272 43.8963 19.4648C43.7642 20.1536 43.7146 20.8592 43.6485 21.5648C43.599 22.1529 43.5825 22.7409 43.5494 23.3289C43.5164 23.9169 43.5164 24.4377 43.4999 24.9753Z" fill="#ACCB3A"/>
<path d="M133.399 24.2865C133.432 23.9505 133.465 23.4968 133.498 23.0264C133.532 22.64 133.581 22.2536 133.614 21.8672C133.631 21.632 133.664 21.4136 133.697 21.1784C133.697 21.1616 133.68 21.1112 133.68 21.1112C133.631 21.0944 133.614 21.1448 133.581 21.1784C133.532 21.2624 133.482 21.3464 133.432 21.4472C133.019 22.2032 132.59 22.9592 132.111 23.6816C131.615 24.4377 131.087 25.1769 130.492 25.8489C129.765 26.6889 128.972 27.4617 128.064 28.0833C127.37 28.5705 126.626 28.957 125.817 29.209C124.974 29.461 124.132 29.5618 123.256 29.4778C122.629 29.4106 122.017 29.293 121.439 29.0578C119.82 28.4025 118.532 26.9913 117.987 25.2777C117.772 24.6057 117.673 23.9337 117.656 23.228C117.623 21.6488 117.937 20.1536 118.548 18.7255C119.193 17.1967 120.118 15.8527 121.241 14.6431C122.447 13.3494 123.801 12.2742 125.354 11.451C126.362 10.9134 127.419 10.5102 128.543 10.2414C129.55 10.0062 130.591 9.88856 131.632 9.95577C131.979 9.97257 132.342 10.023 132.689 10.0734C133.069 10.1238 133.449 10.2078 133.812 10.275C133.895 10.2918 133.978 10.2918 134.06 10.2918C134.077 10.2918 134.11 10.2582 134.126 10.2414C134.143 10.191 134.159 10.1406 134.176 10.0734C134.209 9.77096 134.242 9.46856 134.291 9.16615C134.308 9.01495 134.341 8.88054 134.374 8.74614C134.407 8.62854 134.523 8.54454 134.638 8.59494C134.754 8.64534 134.886 8.67894 134.985 8.74614C135.448 8.98135 135.894 9.19975 136.356 9.43496C136.753 9.63656 137.149 9.83816 137.546 10.0398C137.628 10.0734 137.694 10.1238 137.777 10.1574C137.827 10.191 137.86 10.2414 137.86 10.2918C137.86 10.3422 137.86 10.3758 137.86 10.4262C137.843 10.7286 137.81 11.031 137.794 11.3334C137.744 11.8878 137.711 12.4254 137.661 12.9798C137.661 13.0302 137.645 13.0974 137.645 13.1478C137.579 14.2735 137.513 15.3991 137.447 16.5247C137.364 17.7343 137.331 18.9439 137.265 20.1536C137.199 21.548 137.182 22.9256 137.149 24.3201C137.133 25.1937 137.166 26.0505 137.215 26.9241C137.248 27.5793 137.314 28.2177 137.414 28.8562C137.43 28.9066 137.43 28.9738 137.43 29.0242C137.43 29.1922 137.331 29.377 137.166 29.4274C136.984 29.4946 136.802 29.5114 136.621 29.5114C135.943 29.4778 135.349 29.2426 134.853 28.7553C134.506 28.4193 134.242 28.0329 134.027 27.6129C133.796 27.1425 133.647 26.6553 133.532 26.1345C133.432 25.5801 133.399 24.9921 133.399 24.2865ZM129.947 13.383C128.84 13.3662 127.799 13.5174 126.792 13.8366C125.206 14.3407 123.868 15.2143 122.761 16.4911C122.034 17.3479 121.538 18.3223 121.291 19.4312C121.125 20.1872 121.092 20.9432 121.175 21.716C121.208 22.1696 121.324 22.6064 121.505 23.0096C122.001 24.1521 122.843 24.8913 124.033 25.1937C124.793 25.3953 125.553 25.3785 126.312 25.2441C127.155 25.0929 127.915 24.7401 128.609 24.2529C129.071 23.9169 129.501 23.5304 129.881 23.0936C130.426 22.472 130.888 21.8 131.301 21.0944C131.78 20.2544 132.177 19.3808 132.507 18.4735C132.97 17.2471 133.317 15.9871 133.614 14.6935C133.664 14.4919 133.697 14.2903 133.746 14.1054C133.763 14.0214 133.73 13.9542 133.664 13.9374C133.548 13.9038 133.416 13.8702 133.3 13.8366C132.953 13.7526 132.606 13.6686 132.259 13.6182C131.467 13.467 130.69 13.3662 129.947 13.383Z" fill="#1C6A38"/>
<path d="M70.1623 9.939C70.8892 9.9222 71.6491 9.9894 72.409 10.1238C74.4739 10.4766 76.2745 11.367 77.7448 12.8959C78.7029 13.8871 79.3472 15.0463 79.6611 16.4071C79.8758 17.3311 79.9254 18.272 79.8263 19.2128C79.7767 19.7336 79.6941 20.2376 79.5785 20.7416C79.3307 21.7496 78.9177 22.6737 78.3725 23.5473C77.7283 24.5721 76.9518 25.4625 76.0763 26.2689C75.2008 27.0753 74.2426 27.781 73.1854 28.3186C72.1281 28.8562 71.0048 29.209 69.8154 29.377C69.1711 29.461 68.5103 29.5282 67.8661 29.5114C66.8914 29.4946 65.9498 29.3434 65.0247 29.041C62.9598 28.3522 60.7296 26.4537 60.0358 23.4969C59.9202 23.0265 59.8541 22.556 59.821 22.0856C59.788 21.5816 59.788 21.0776 59.821 20.5736C59.8871 19.5488 60.1514 18.5744 60.5644 17.6504C60.9609 16.7935 61.473 16.0207 62.1007 15.3151C62.7946 14.5255 63.571 13.8199 64.397 13.1983C64.4465 13.1479 64.5126 13.1143 64.5622 13.0639C64.8595 12.8455 64.8595 12.8623 64.6282 12.5767C64.4135 12.3078 64.1822 12.039 63.9675 11.7702C63.9014 11.6862 63.8518 11.6022 63.8023 11.5182C63.7692 11.4678 63.7857 11.4006 63.8353 11.3502C63.9014 11.283 63.9509 11.2326 64.0335 11.1822C64.2153 11.0982 64.397 10.9974 64.5787 10.9302C65.4377 10.5942 66.3132 10.359 67.2053 10.191C68.1469 10.023 69.1216 9.9222 70.1623 9.939ZM75.5477 19.6328C75.5477 19.1624 75.5312 18.7088 75.4486 18.2552C75.3494 17.684 75.2008 17.1295 74.9695 16.5919C74.3087 15.1135 73.2184 14.0551 71.7482 13.3999C70.6909 12.9295 69.5676 12.7615 68.4277 12.7783C68.3286 12.7783 68.2295 12.8287 68.1634 12.8791C67.1392 13.6183 66.2472 14.5087 65.5533 15.5839C64.7934 16.7431 64.3144 18.0032 64.1657 19.3976C64.0831 20.2208 64.0996 21.044 64.2648 21.8504C64.5291 23.2113 65.1569 24.3705 66.148 25.3113C67.5027 26.6049 69.0885 26.9745 70.8726 26.6049C71.7977 26.4033 72.5907 25.9329 73.2845 25.2777C74.1931 24.4041 74.8373 23.3793 75.2008 22.1528C75.432 21.3632 75.5477 20.5064 75.5477 19.6328Z" fill="#1C6A38"/>
<path d="M146.929 17.9695C146.879 18.9439 146.829 19.9016 146.78 20.876C146.747 21.6656 146.747 22.472 146.846 23.2616C146.912 23.7152 147.011 24.1689 147.176 24.6057C147.275 24.8745 147.408 25.1265 147.573 25.3617C148.002 25.9665 148.581 26.3025 149.307 26.4369C149.919 26.5377 150.53 26.4537 151.125 26.3025C151.571 26.1849 152.017 26.0001 152.43 25.7985C152.562 25.7313 152.694 25.6809 152.826 25.6137C152.876 25.5969 152.942 25.5801 152.991 25.5801C153.057 25.5633 153.14 25.6305 153.156 25.6809C153.156 25.7313 153.173 25.7985 153.173 25.8489C153.156 26.2017 153.14 26.5713 153.107 26.9241C153.09 27.1929 153.041 27.4617 153.008 27.7473C152.991 27.8481 152.942 27.9321 152.859 27.9993C152.248 28.5033 151.554 28.8729 150.811 29.1418C150.034 29.4106 149.241 29.545 148.432 29.5282C147.821 29.5282 147.209 29.4442 146.631 29.2594C145.475 28.9065 144.583 28.2009 143.955 27.1761C143.608 26.6049 143.36 26.0001 143.195 25.3449C143.046 24.7233 142.947 24.1017 142.914 23.4632C142.865 22.2872 142.865 21.128 142.848 19.952C142.815 17.7847 142.799 15.6175 142.766 13.4502C142.766 13.383 142.766 13.299 142.766 13.2318C142.766 13.1478 142.716 13.0974 142.633 13.0974C142.567 13.0974 142.485 13.0974 142.419 13.0974C141.56 13.131 140.684 13.1646 139.825 13.1982C139.809 13.1982 139.792 13.1982 139.776 13.1982C139.726 13.1982 139.66 13.131 139.676 13.0806C139.676 13.0302 139.693 12.9966 139.693 12.9462C139.875 12.1734 140.073 11.4006 140.271 10.6278C140.288 10.5774 140.288 10.5438 140.304 10.4934C140.321 10.443 140.37 10.3926 140.42 10.3926C140.502 10.3926 140.585 10.3758 140.668 10.3758C141.262 10.3758 141.857 10.3758 142.452 10.3758C142.534 10.3758 142.617 10.359 142.7 10.359C142.749 10.359 142.782 10.3086 142.782 10.275C142.799 10.1574 142.799 10.0398 142.799 9.92216C142.799 8.66214 142.815 7.40211 142.815 6.14209C142.815 6.00769 142.815 5.89008 142.815 5.75568C142.815 5.68848 142.865 5.65488 142.914 5.62128C142.947 5.60448 142.997 5.58768 143.03 5.57088C144.418 5.16767 145.822 4.76446 147.209 4.36125C147.259 4.34445 147.325 4.34445 147.375 4.34445C147.391 4.34445 147.424 4.37805 147.441 4.39485C147.457 4.42845 147.457 4.47885 147.457 4.51246C147.408 5.90688 147.358 7.28451 147.309 8.67894C147.292 9.14935 147.275 9.63656 147.242 10.107C147.242 10.1574 147.242 10.2246 147.259 10.275C147.259 10.2918 147.292 10.3254 147.325 10.3254C147.375 10.3422 147.441 10.3422 147.49 10.3422C147.755 10.3422 148.035 10.3422 148.3 10.3422C150.067 10.3422 151.818 10.3422 153.586 10.3422C153.702 10.3422 153.817 10.3422 153.933 10.3422C153.982 10.3422 154.049 10.359 154.098 10.3758C154.181 10.3926 154.247 10.4766 154.247 10.5606C154.28 10.9806 154.131 11.3502 153.867 11.6862C153.685 11.9046 153.454 12.0726 153.206 12.2238C152.859 12.4254 152.479 12.5598 152.099 12.6438C151.521 12.795 150.926 12.879 150.332 12.9294C149.324 13.0134 148.316 13.0134 147.309 12.9798C147.292 12.9798 147.275 12.9798 147.259 12.9798C147.209 12.9798 147.143 13.0302 147.143 13.0806C147.127 13.3158 147.094 13.5342 147.094 13.7694C147.044 14.6935 147.011 15.6175 146.978 16.5415C146.962 17.0455 146.929 17.5159 146.929 17.9695C146.912 17.9695 146.912 17.9695 146.929 17.9695Z" fill="#1C6A38"/>
<path d="M174.88 29.5281C173.724 29.4945 172.584 29.3769 171.477 29.0241C170.007 28.5705 168.718 27.8145 167.628 26.7057C166.554 25.5969 165.86 24.2864 165.563 22.7408C165.381 21.8168 165.365 20.876 165.464 19.9352C165.695 17.7343 166.653 15.8863 168.157 14.3238C169.726 12.6942 171.593 11.535 173.707 10.8126C174.715 10.4598 175.756 10.2414 176.813 10.0902C177.721 9.97255 178.63 9.92215 179.539 9.92215C180.513 9.93895 181.455 10.0902 182.396 10.359C182.479 10.3758 182.562 10.4262 182.644 10.443C182.694 10.4598 182.71 10.5102 182.71 10.5438C182.71 10.6782 182.694 10.7958 182.694 10.9302C182.644 11.5518 182.595 12.1734 182.562 12.795C182.512 13.5174 182.446 14.2398 182.396 14.9623C182.396 15.0631 182.363 15.1639 182.314 15.2479C182.264 15.3487 182.165 15.3991 182.066 15.3655C181.95 15.3319 181.868 15.2647 181.769 15.1975C181.356 14.8782 180.926 14.5422 180.513 14.223C179.919 13.7526 179.307 13.299 178.713 12.8286C178.597 12.7446 178.465 12.6942 178.316 12.6774C177.655 12.6438 177.011 12.6438 176.35 12.711C175.128 12.8286 173.955 13.1646 172.881 13.8198C172.121 14.2902 171.461 14.8782 170.915 15.6007C170.288 16.4407 169.891 17.3983 169.726 18.4399C169.61 19.1791 169.594 19.9183 169.676 20.6408C169.891 22.6568 170.866 24.1856 172.567 25.2609C173.261 25.6977 174.021 25.9833 174.814 26.1513C175.376 26.2689 175.937 26.3361 176.499 26.3529C177.507 26.3697 178.514 26.2857 179.506 26.1009C180.645 25.8825 181.736 25.5633 182.826 25.1601C182.892 25.1433 182.958 25.1265 183.024 25.1097C183.041 25.1097 183.057 25.1433 183.074 25.1601V25.1937C182.925 25.8657 182.76 26.5377 182.611 27.2265C182.595 27.3105 182.562 27.3609 182.496 27.3945C182.429 27.4449 182.347 27.4785 182.264 27.5121C180.877 28.2345 179.439 28.7889 177.92 29.1417C176.962 29.3937 175.921 29.5113 174.88 29.5281Z" fill="#1C6A38"/>
<path d="M161.995 19.4479C161.945 20.6072 161.896 21.7496 161.83 22.9088C161.78 24.068 161.714 25.2105 161.664 26.3697C161.631 27.1761 161.582 27.9825 161.532 28.7889C161.532 28.8393 161.516 28.9065 161.516 28.9569C161.516 28.9737 161.483 29.0073 161.466 29.0241C161.384 29.0409 161.301 29.0745 161.218 29.0745C160.409 29.1753 159.616 29.2761 158.807 29.3769C158.526 29.4105 158.245 29.4441 157.964 29.4777C157.898 29.4777 157.848 29.4441 157.848 29.3937C157.848 29.3265 157.832 29.2425 157.832 29.1753C157.832 28.4025 157.815 27.6465 157.815 26.8737C157.799 22.5896 157.782 18.3223 157.766 14.0382C157.766 13.9542 157.766 13.8702 157.766 13.7862C157.782 13.6518 157.716 13.5678 157.617 13.4838C157.551 13.4334 157.485 13.3662 157.419 13.3158C156.659 12.6606 155.916 11.9886 155.156 11.3334C155.04 11.2326 154.908 11.1318 154.842 10.9806C154.825 10.9302 154.792 10.8798 154.776 10.8294C154.759 10.779 154.809 10.6614 154.842 10.6446C154.957 10.5774 155.073 10.5438 155.205 10.527C155.437 10.5102 155.651 10.4766 155.883 10.4598C156.362 10.4262 156.841 10.3926 157.32 10.3422C157.832 10.2918 158.344 10.2582 158.856 10.2078C159.22 10.1742 159.599 10.1406 159.963 10.107C160.442 10.0734 160.921 10.023 161.4 9.98935C161.598 9.97255 161.797 9.95575 161.995 9.93895C162.11 9.92215 162.226 9.92215 162.342 9.92215C162.391 9.92215 162.441 9.97255 162.441 10.0398C162.441 10.0734 162.441 10.0902 162.441 10.1238C162.441 10.191 162.441 10.275 162.441 10.3422C162.391 11.2158 162.358 12.1062 162.309 12.9798C162.309 13.0302 162.309 13.0974 162.292 13.1478C162.259 13.9878 162.226 14.8278 162.177 15.6511C162.127 16.5247 162.077 17.3815 162.044 18.2551C162.028 18.6751 162.011 19.0615 161.995 19.4479Z" fill="#1C6A38"/>
<path d="M81.5111 41.826C81.5111 42.1788 81.5111 42.5148 81.5111 42.8676C81.5111 42.9516 81.5111 43.0356 81.5111 43.1196C81.5277 43.2709 81.5937 43.3885 81.7094 43.4893C81.7589 43.5229 81.825 43.5733 81.8746 43.6237C81.8911 43.6405 81.8911 43.6741 81.8746 43.7077C81.8746 43.7245 81.8415 43.7581 81.825 43.7581C81.7754 43.7749 81.7094 43.7749 81.6598 43.7749C81.0981 43.7749 80.553 43.7749 79.9913 43.7749C79.9583 43.7749 79.9418 43.7749 79.9087 43.7749C79.8427 43.7749 79.7766 43.7245 79.7931 43.6741C79.7931 43.6405 79.8096 43.5733 79.8427 43.5565C80.173 43.3717 80.1565 43.2205 80.1565 42.9012C80.1565 41.7924 80.1565 40.6836 80.1565 39.558C80.1565 38.4156 80.1565 37.2731 80.1565 36.1307C80.1565 36.0131 80.1565 35.8955 80.1565 35.7779C80.1565 35.6435 80.0904 35.5259 79.9748 35.4587C79.9252 35.4251 79.8426 35.3915 79.8096 35.3243C79.7931 35.2907 79.8096 35.1899 79.8592 35.1731C79.9087 35.1731 79.9418 35.1563 79.9913 35.1563C80.5695 35.1563 81.1642 35.1563 81.7424 35.1563C81.792 35.1563 81.825 35.1731 81.858 35.1731C81.8746 35.1899 81.8911 35.2067 81.9076 35.2403C81.9076 35.2739 81.9076 35.3075 81.9076 35.3243C81.8746 35.3579 81.825 35.4083 81.7754 35.4251C81.6102 35.5091 81.5442 35.6603 81.5277 35.8451C81.5277 35.8955 81.5277 35.9291 81.5277 35.9795C81.5277 36.9371 81.5277 37.8947 81.5277 38.8356C81.5277 38.886 81.5276 38.9196 81.5442 38.97C81.5442 38.9868 81.5937 39.0036 81.6102 39.0036C81.6763 38.97 81.7424 38.9364 81.792 38.9028C82.1389 38.6172 82.4693 38.3316 82.8162 38.0628C83.6091 37.4075 84.4186 36.7691 85.2115 36.1139C85.3602 35.9795 85.5089 35.8619 85.6575 35.7107C85.6906 35.6771 85.7236 35.6267 85.7401 35.5595C85.7567 35.5427 85.7401 35.5091 85.7401 35.4755C85.7236 35.4587 85.7071 35.4251 85.6906 35.4083C85.6245 35.3579 85.5254 35.3243 85.5749 35.2067C85.608 35.1227 85.6906 35.1395 85.7567 35.1395C86.4835 35.1395 87.2104 35.1395 87.9372 35.1395C87.9868 35.1395 88.0529 35.1563 88.1024 35.1731C88.119 35.1731 88.1355 35.2235 88.1355 35.2403C88.1355 35.2739 88.1355 35.2907 88.119 35.3243C88.1024 35.3411 88.0859 35.3747 88.0529 35.3747C87.6399 35.5259 87.2765 35.7947 86.9296 36.0635C86.2523 36.6011 85.5749 37.1555 84.8811 37.7099C84.7655 37.7939 84.6499 37.8947 84.5507 37.9788C84.369 38.13 84.369 38.1636 84.5012 38.3316C84.782 38.7012 85.0628 39.0708 85.3272 39.4236C86.1366 40.4988 86.9626 41.574 87.7721 42.6492C87.8712 42.7668 87.9703 42.9012 88.0694 43.0188C88.2181 43.2205 88.3833 43.3885 88.6145 43.4893C88.6476 43.5061 88.6806 43.5397 88.7137 43.5733C88.7302 43.5901 88.7302 43.6237 88.7137 43.6573C88.6972 43.6741 88.6806 43.7077 88.6641 43.7077C88.6311 43.7245 88.5815 43.7245 88.5319 43.7245C87.8712 43.7245 87.2269 43.7245 86.5661 43.7245C86.5166 43.7245 86.4835 43.7245 86.434 43.7077C86.4174 43.7077 86.3844 43.6741 86.3679 43.6573C86.3348 43.6237 86.3514 43.5733 86.3844 43.5397C86.4174 43.4893 86.467 43.4725 86.5166 43.4221C86.5496 43.3885 86.5661 43.3045 86.5496 43.2709C86.467 43.1533 86.4009 43.0188 86.3183 42.918C85.7732 42.1956 85.228 41.4732 84.6829 40.7508C84.3029 40.23 83.9065 39.7092 83.51 39.2052C83.477 39.1548 83.4439 39.1212 83.3944 39.0708C83.3613 39.0204 83.2787 39.0036 83.2457 39.0372C83.1796 39.0708 83.13 39.1044 83.064 39.1548C82.6179 39.5076 82.1719 39.8772 81.7259 40.23C81.7094 40.2468 81.7094 40.2468 81.6928 40.2636C81.5442 40.3644 81.4946 40.482 81.4946 40.6668C81.5111 41.07 81.5111 41.4396 81.5111 41.826Z" fill="#ACCB3A"/>
<path d="M163.795 40.2468C163.795 39.4068 163.795 38.5667 163.795 37.7267C163.795 37.6259 163.795 37.5251 163.795 37.4243C163.795 37.2395 163.729 37.0883 163.564 36.9875C163.514 36.9539 163.465 36.9203 163.432 36.8867C163.415 36.8699 163.415 36.8363 163.432 36.8027C163.448 36.7859 163.465 36.7523 163.481 36.7523C163.498 36.7355 163.531 36.7355 163.564 36.7355C163.646 36.7355 163.729 36.7355 163.812 36.7355C164.935 36.7355 166.058 36.7355 167.182 36.7355C167.463 36.7355 167.743 36.7355 168.041 36.7523C168.355 36.7691 168.652 36.8363 168.966 36.9203C169.362 37.0379 169.693 37.2395 169.99 37.5251C170.519 38.0123 170.866 38.6171 171.014 39.3396C171.113 39.8268 171.163 40.314 171.08 40.8012C171.031 41.0868 170.981 41.3724 170.882 41.6412C170.601 42.3972 170.139 42.9852 169.445 43.4052C169.23 43.5228 169.015 43.6236 168.768 43.674C168.503 43.7412 168.239 43.7916 167.975 43.7916C167.793 43.7916 167.611 43.8084 167.413 43.8084C166.191 43.8084 164.968 43.8084 163.746 43.8084C163.663 43.8084 163.58 43.8084 163.498 43.8084C163.465 43.8084 163.415 43.758 163.415 43.7244C163.415 43.6908 163.415 43.6572 163.448 43.6404C163.498 43.59 163.564 43.5564 163.613 43.506C163.729 43.4052 163.795 43.2876 163.795 43.1364C163.795 43.0188 163.795 42.9012 163.795 42.7836C163.795 41.91 163.795 41.07 163.795 40.2468ZM165.067 40.23C165.067 40.9524 165.067 41.6748 165.067 42.3972C165.067 42.4812 165.084 42.5652 165.084 42.6492C165.084 42.666 165.117 42.6996 165.15 42.6996C165.232 42.7164 165.315 42.7164 165.398 42.7164C165.976 42.7164 166.57 42.7164 167.149 42.7164C167.297 42.7164 167.429 42.7164 167.578 42.6996C167.991 42.6492 168.388 42.582 168.768 42.3804C168.982 42.2628 169.164 42.1116 169.313 41.91C169.494 41.658 169.61 41.3892 169.693 41.1036C169.792 40.734 169.792 40.3644 169.792 39.978C169.775 39.5748 169.676 39.2052 169.494 38.8523C169.263 38.3987 168.916 38.0963 168.454 37.9451C168.14 37.8443 167.826 37.7603 167.496 37.7603C166.752 37.7603 166.025 37.7603 165.282 37.7603C165.232 37.7603 165.199 37.7603 165.15 37.7771C165.133 37.7939 165.1 37.8107 165.1 37.8443C165.084 37.9451 165.084 38.0459 165.084 38.1467C165.067 38.8523 165.067 39.5412 165.067 40.23Z" fill="#ACCB3A"/>
<path d="M103.169 40.2132C103.169 39.3732 103.169 38.5331 103.169 37.6931C103.169 37.6427 103.169 37.6091 103.169 37.5587C103.202 37.2731 103.119 37.0379 102.855 36.9035C102.838 36.8867 102.822 36.8531 102.822 36.8363C102.822 36.8027 102.838 36.7691 102.855 36.7691C102.921 36.7523 102.987 36.7355 103.069 36.7355C103.747 36.7355 104.441 36.7355 105.118 36.7355C105.167 36.7355 105.2 36.7355 105.25 36.7355C105.283 36.7355 105.333 36.7859 105.333 36.8195C105.333 36.8531 105.333 36.8867 105.316 36.9035C105.266 36.9539 105.2 36.9875 105.151 37.0379C105.035 37.1387 105.019 37.3067 105.085 37.4243C105.151 37.5251 105.217 37.6091 105.283 37.7099C105.333 37.7603 105.382 37.8107 105.432 37.8611C106.522 39.0036 107.612 40.146 108.703 41.2884C108.785 41.3724 108.868 41.4564 108.95 41.5236C108.967 41.5404 109 41.5236 109.033 41.5236C109.049 41.5236 109.049 41.5068 109.049 41.49C109.049 41.4396 109.049 41.3724 109.049 41.322C109.049 40.0956 109.049 38.8691 109.049 37.6427C109.049 37.5755 109.049 37.4915 109.049 37.4243C109.033 37.2395 108.967 37.0883 108.802 36.9875C108.752 36.9539 108.703 36.9203 108.67 36.8867C108.653 36.8699 108.653 36.8363 108.67 36.8027C108.686 36.7859 108.703 36.7691 108.719 36.7523C108.736 36.7523 108.752 36.7355 108.752 36.7355C109.297 36.7355 109.826 36.7355 110.371 36.7355C110.404 36.7355 110.421 36.7523 110.454 36.7523C110.487 36.7523 110.503 36.8531 110.487 36.8699C110.437 36.9203 110.388 36.9707 110.321 37.0043C110.206 37.0883 110.156 37.2059 110.14 37.3403C110.14 37.4411 110.14 37.5419 110.14 37.6427C110.14 39.39 110.14 41.1372 110.14 42.8844C110.14 42.9684 110.14 43.0524 110.14 43.1364C110.14 43.2876 110.206 43.4052 110.321 43.506C110.371 43.5396 110.454 43.5732 110.47 43.6572C110.47 43.674 110.47 43.7244 110.454 43.7412C110.437 43.758 110.404 43.7748 110.371 43.7748C110.239 43.7748 110.123 43.7748 109.991 43.7748C109.529 43.7748 109.083 43.7748 108.62 43.7748C108.554 43.7748 108.488 43.758 108.405 43.7412C108.389 43.7412 108.372 43.6908 108.389 43.674C108.405 43.6404 108.438 43.6068 108.471 43.59C108.521 43.5396 108.587 43.506 108.636 43.4556C108.67 43.4052 108.686 43.3548 108.67 43.2876C108.636 43.2204 108.62 43.1532 108.57 43.1028C108.488 43.002 108.405 42.9012 108.323 42.8172C107.414 41.8596 106.505 40.902 105.597 39.9444C105.233 39.5748 104.887 39.1884 104.54 38.8187C104.49 38.7683 104.441 38.7347 104.374 38.6843C104.358 38.6675 104.308 38.7011 104.308 38.7011C104.292 38.7515 104.275 38.8187 104.275 38.8691C104.275 39.2556 104.275 39.642 104.275 40.0452C104.275 40.9524 104.275 41.8596 104.275 42.7836C104.275 42.8172 104.275 42.834 104.275 42.8676C104.242 43.1868 104.308 43.4724 104.622 43.6404C104.639 43.6404 104.639 43.6908 104.639 43.7244C104.639 43.7412 104.606 43.7748 104.589 43.7748C104.573 43.7916 104.54 43.7916 104.507 43.7916C103.994 43.7916 103.482 43.7916 102.97 43.7916C102.937 43.7916 102.904 43.7916 102.888 43.7748C102.871 43.758 102.838 43.7412 102.838 43.7244C102.822 43.7076 102.822 43.6572 102.838 43.6404C102.904 43.5732 102.97 43.5228 103.036 43.4724C103.119 43.4052 103.152 43.3044 103.169 43.2036C103.169 43.086 103.185 42.9684 103.185 42.8508C103.169 41.9772 103.169 41.0868 103.169 40.2132Z" fill="#ACCB3A"/>
<path d="M32.0021 36.7187C32.6629 36.7187 33.3072 36.7355 33.968 36.7355C34.2984 36.7355 34.6122 36.7859 34.9426 36.8363C35.2895 36.9035 35.6034 37.0211 35.8512 37.2731C36.1651 37.5755 36.3303 37.9619 36.3633 38.382C36.3798 38.6004 36.3798 38.8188 36.3633 39.0372C36.3138 39.642 36.0329 40.0956 35.5043 40.3812C35.3391 40.4652 35.1739 40.5324 34.9922 40.5828C34.9591 40.5996 34.9096 40.6164 34.8765 40.6332C34.86 40.65 34.8435 40.6836 34.8435 40.7004C34.86 40.7508 34.8765 40.8012 34.9096 40.8516C35.3226 41.5404 35.7521 42.2292 36.1651 42.918C36.3468 43.2036 36.545 43.4557 36.8589 43.6069C36.8754 43.6237 36.9085 43.6573 36.8919 43.6741C36.8754 43.7077 36.8424 43.7413 36.8093 43.7581C36.7928 43.7581 36.7763 43.7581 36.7598 43.7581C36.7433 43.7581 36.7267 43.7581 36.7102 43.7581C36.1486 43.7581 35.5704 43.7581 35.0087 43.7581C34.9591 43.7581 34.9261 43.7413 34.8765 43.7413C34.8435 43.7413 34.8105 43.6741 34.827 43.6405C34.827 43.6237 34.827 43.6069 34.8435 43.6069C35.0087 43.4893 34.9922 43.3381 34.8931 43.1868C34.7939 43.0356 34.6948 42.8676 34.5957 42.7164C34.2488 42.162 33.8854 41.5908 33.5385 41.0364C33.4889 40.9692 33.4559 40.8852 33.3898 40.818C33.3567 40.7844 33.2907 40.7508 33.2411 40.734C33.2081 40.7172 33.1585 40.734 33.109 40.734C32.5473 40.734 31.9691 40.734 31.4074 40.734C31.3579 40.734 31.2918 40.7508 31.2422 40.7508C31.1927 40.7508 31.1431 40.818 31.1266 40.8684C31.1266 40.9356 31.1101 41.0196 31.1101 41.0868C31.1101 41.574 31.1101 42.0612 31.1101 42.5652C31.1101 42.7164 31.1101 42.8844 31.1101 43.0356C31.0936 43.2372 31.1596 43.4053 31.3414 43.5229C31.3744 43.5397 31.4074 43.5733 31.4405 43.6069C31.457 43.6237 31.457 43.6573 31.4405 43.6909C31.4405 43.7077 31.4074 43.7413 31.3909 43.7413C31.3579 43.7581 31.3083 43.7581 31.2588 43.7581C30.7136 43.7581 30.185 43.7581 29.6398 43.7581C29.6068 43.7581 29.5572 43.7581 29.5242 43.7413C29.5077 43.7245 29.4912 43.7077 29.4746 43.6741C29.4746 43.6573 29.4746 43.6405 29.4746 43.6405C29.5407 43.5901 29.6068 43.5229 29.6729 43.4725C29.772 43.3885 29.8381 43.2709 29.8381 43.1364C29.8381 43.0188 29.8381 42.9012 29.8381 42.7836C29.8381 41.07 29.8381 39.3396 29.8381 37.6259C29.8381 37.5083 29.8381 37.3907 29.8381 37.2731C29.8381 37.1555 29.7885 37.0547 29.6894 36.9707C29.6398 36.9203 29.5738 36.8867 29.5242 36.8363C29.5077 36.8195 29.5077 36.7859 29.5242 36.7523C29.5242 36.7187 29.5407 36.7019 29.5738 36.7019C29.7059 36.7019 29.8216 36.6851 29.9537 36.6851C30.6641 36.7187 31.3414 36.7187 32.0021 36.7187ZM32.8281 37.7771C32.4151 37.7603 32.0021 37.7603 31.5891 37.7603C31.49 37.7603 31.3909 37.7603 31.2918 37.7603C31.2092 37.7603 31.1596 37.8107 31.1596 37.8947C31.1596 38.1299 31.1596 38.3484 31.1596 38.5836C31.1596 38.9028 31.1596 39.222 31.1596 39.5412C31.1596 39.6252 31.2092 39.6756 31.2918 39.6924C31.3579 39.6924 31.4405 39.7092 31.5065 39.7092C32.2665 39.7092 33.0098 39.7092 33.7697 39.7092C33.9349 39.7092 34.1166 39.6924 34.2818 39.6924C34.4636 39.6756 34.6453 39.6252 34.8105 39.558C35.0748 39.4404 35.2235 39.2052 35.2565 38.9196C35.273 38.8188 35.273 38.718 35.2565 38.6172C35.24 38.2644 35.0252 37.9955 34.6948 37.8779C34.5296 37.8107 34.3644 37.7939 34.1992 37.7939C33.7367 37.7771 33.2907 37.7771 32.8281 37.7771Z" fill="#ACCB3A"/>
<path d="M54.8982 43.9429C53.7253 43.9597 52.7011 43.6909 51.7429 43.17C51.6603 43.1196 51.5612 43.0692 51.4786 43.0188C51.3299 42.9348 51.1647 42.8676 50.9995 42.9852C50.983 42.9852 50.9665 43.002 50.9665 42.9852C50.9335 42.9852 50.9169 42.9684 50.8839 42.9516C50.8509 42.918 50.8509 42.8844 50.8674 42.834C50.8839 42.8004 50.8839 42.7836 50.9004 42.75C51.1647 42.33 51.4291 41.9268 51.6934 41.5068C51.7099 41.4732 51.7594 41.4396 51.7925 41.4228C51.809 41.406 51.8586 41.4228 51.8586 41.4396C51.8751 41.4732 51.8916 41.5236 51.8916 41.5572C51.8751 41.8428 52.0072 42.0276 52.222 42.162C52.4367 42.3132 52.668 42.414 52.9158 42.498C53.7088 42.75 54.5182 42.8676 55.3607 42.7836C55.7241 42.75 56.0545 42.6492 56.3684 42.4644C56.5171 42.3804 56.6492 42.2796 56.7649 42.1284C56.8805 41.9772 56.9466 41.8092 56.9301 41.6076C56.9301 41.4732 56.8805 41.3556 56.7979 41.2548C56.7153 41.154 56.6162 41.07 56.4841 41.0364C56.3189 40.986 56.1702 40.9188 56.005 40.8852C55.7572 40.8348 55.5094 40.8012 55.2451 40.7676C54.6999 40.7004 54.1383 40.65 53.5931 40.5828C53.2297 40.5324 52.8663 40.4484 52.5193 40.314C52.222 40.1964 51.9577 40.0284 51.7429 39.7932C51.5447 39.5748 51.4291 39.3228 51.3795 39.0204C51.3299 38.7516 51.3465 38.466 51.4125 38.1971C51.4786 37.9115 51.5943 37.6595 51.7925 37.4243C52.0568 37.1219 52.3707 36.9035 52.7341 36.7691C53.1306 36.6179 53.5436 36.5339 53.9731 36.5003C54.8651 36.4499 55.7242 36.6011 56.5667 36.8867C56.7318 36.9371 56.897 36.9875 57.0457 37.0547C57.244 37.1387 57.4257 37.1555 57.6239 37.0379C57.6404 37.0211 57.6735 37.0379 57.7065 37.0379C57.7395 37.0379 57.7891 37.1051 57.7726 37.1387C57.7726 37.1723 57.7726 37.1891 57.7561 37.2227C57.5413 37.6763 57.31 38.1299 57.0953 38.5836C57.0788 38.6004 57.0622 38.634 57.0292 38.634C57.0127 38.634 56.9796 38.634 56.9466 38.6172C56.9301 38.6004 56.897 38.5668 56.897 38.55C56.8805 38.2811 56.7153 38.1467 56.5006 38.0291C56.2363 37.8947 55.9554 37.7939 55.6581 37.7267C55.0799 37.5923 54.5017 37.5755 53.9235 37.6259C53.7088 37.6427 53.494 37.6763 53.2958 37.7435C53.0645 37.8275 52.8497 37.9283 52.668 38.0963C52.5359 38.2307 52.4698 38.3987 52.4698 38.6004C52.4698 38.7852 52.5524 38.9364 52.7176 39.0372C52.8167 39.1044 52.9158 39.1548 53.0315 39.1884C53.1801 39.2388 53.3288 39.2724 53.494 39.2892C53.8079 39.3396 54.1218 39.3564 54.4191 39.39C55.0303 39.4572 55.6416 39.5076 56.2363 39.642C56.5667 39.726 56.897 39.8268 57.1944 39.978C57.3926 40.0788 57.5578 40.2132 57.7065 40.3644C57.9213 40.5828 58.0534 40.8684 58.103 41.1708C58.1525 41.49 58.1525 41.8092 58.0865 42.1116C57.9543 42.6828 57.6239 43.086 57.1448 43.3885C56.7814 43.6069 56.3849 43.7245 55.9885 43.7917C55.5755 43.9261 55.1955 43.9429 54.8982 43.9429Z" fill="#ACCB3A"/>
<path d="M18.6871 39.4739C18.6871 38.3819 18.6871 37.3067 18.6871 36.2146C18.6871 36.0802 18.6871 35.9458 18.6706 35.8282C18.6541 35.6602 18.588 35.5258 18.4393 35.4418C18.3898 35.4082 18.3402 35.3746 18.3072 35.341C18.2906 35.3242 18.2906 35.2906 18.2906 35.257C18.2906 35.2402 18.3237 35.2066 18.3402 35.1898C18.3732 35.173 18.4228 35.173 18.4558 35.173C18.588 35.173 18.7036 35.173 18.8358 35.173C20.7851 35.173 22.7344 35.173 24.6837 35.173C24.7994 35.173 24.915 35.173 25.0306 35.173C25.2124 35.173 25.361 35.1058 25.4602 34.9378C25.4932 34.8874 25.5262 34.837 25.5593 34.8034C25.5758 34.7866 25.6088 34.7866 25.6419 34.7866C25.6914 34.7866 25.7245 34.8202 25.741 34.8538C25.7575 34.8874 25.7575 34.9042 25.7575 34.9378C25.7575 35.4754 25.7575 36.013 25.7575 36.5339C25.7575 36.5675 25.7245 36.6179 25.7079 36.6515C25.6914 36.6851 25.6088 36.6851 25.5923 36.6683C25.5428 36.6179 25.5097 36.5507 25.4602 36.5003C25.3776 36.3659 25.2619 36.2987 25.1132 36.2987C25.0472 36.2987 24.9646 36.2987 24.8985 36.2987C23.4117 36.2987 21.9084 36.2987 20.4217 36.2987C20.3391 36.2987 20.2565 36.2986 20.1739 36.3155C20.1243 36.3155 20.0748 36.3659 20.0582 36.4331C20.0582 36.4667 20.0417 36.4835 20.0417 36.5171C20.0417 37.1891 20.0417 37.8779 20.0417 38.5499C20.0417 38.5835 20.0417 38.6003 20.0582 38.6339C20.0582 38.6843 20.1243 38.7515 20.1739 38.7515C20.24 38.7515 20.3226 38.7683 20.3886 38.7683C21.3303 38.7683 22.2719 38.7683 23.197 38.7683C23.2465 38.7683 23.3126 38.7683 23.3622 38.7683C23.5108 38.7683 23.6265 38.7011 23.7256 38.5667C23.7586 38.5163 23.8082 38.4491 23.8578 38.4155C23.8743 38.3987 23.9073 38.4155 23.9403 38.4155C23.9734 38.4155 23.9899 38.4323 23.9899 38.4659C23.9899 38.5163 24.0064 38.5499 24.0064 38.6003C24.0064 39.0875 24.0064 39.5747 24.0064 40.0787C24.0064 40.1291 23.9899 40.1963 23.9734 40.2467C23.9734 40.2635 23.8908 40.2803 23.8578 40.2803C23.7752 40.2467 23.7421 40.1627 23.6926 40.0955C23.61 39.9947 23.5108 39.9443 23.3952 39.9443C23.3291 39.9443 23.2465 39.9443 23.1804 39.9443C22.2388 39.9443 21.2972 39.9443 20.3721 39.9443C20.306 39.9443 20.2234 39.9611 20.1574 39.9611C20.1078 39.9611 20.0582 40.0283 20.0582 40.0787C20.0582 40.2131 20.0417 40.3307 20.0417 40.4651C20.0417 41.1539 20.0417 41.8596 20.0417 42.5484C20.0417 42.7164 20.0417 42.9012 20.0417 43.0692C20.0417 43.2708 20.0913 43.4388 20.2895 43.5396C20.3226 43.5564 20.3391 43.5732 20.3556 43.59C20.3721 43.6068 20.3721 43.6068 20.3886 43.6236C20.4052 43.6572 20.4052 43.674 20.4052 43.7076C20.4052 43.7412 20.3556 43.7916 20.3226 43.7916C20.273 43.7916 20.24 43.8084 20.1904 43.8084C19.6287 43.8084 19.0506 43.8084 18.4889 43.8084C18.4393 43.8084 18.4063 43.7916 18.3567 43.7916C18.3237 43.7916 18.3072 43.7748 18.3072 43.7412C18.3072 43.7076 18.2906 43.674 18.3072 43.6572C18.3402 43.6236 18.3898 43.5732 18.4393 43.5564C18.588 43.4724 18.6541 43.3212 18.6706 43.17C18.6871 43.0692 18.6871 42.9684 18.6871 42.8676C18.6871 42.5148 18.6871 42.1788 18.6871 41.826C18.6871 41.0195 18.6871 40.2467 18.6871 39.4739Z" fill="#ACCB3A"/>
<path d="M62.2493 40.2132C62.2493 39.3732 62.2493 38.5331 62.2493 37.6931C62.2493 37.5587 62.2493 37.4411 62.2328 37.3067C62.2328 37.1891 62.1667 37.0883 62.0676 37.0211C62.018 36.9707 61.952 36.9371 61.9024 36.8867C61.8859 36.8699 61.8859 36.8363 61.8859 36.8027C61.8859 36.7691 61.9024 36.7523 61.9354 36.7523C61.9685 36.7523 61.985 36.7355 62.018 36.7355C62.5797 36.7355 63.1579 36.7355 63.7196 36.7355C63.7691 36.7355 63.8022 36.7523 63.8352 36.7691C63.8517 36.7691 63.8517 36.7859 63.8517 36.8027C63.8517 36.8363 63.8682 36.8699 63.8517 36.8867C63.8022 36.9371 63.7526 36.9707 63.6865 37.0211C63.5544 37.1051 63.5048 37.2395 63.4883 37.3907C63.4883 37.4411 63.4883 37.5083 63.4883 37.5587C63.4883 38.1467 63.4883 38.7515 63.4883 39.3396C63.4883 39.39 63.4883 39.4572 63.5048 39.5076C63.5048 39.558 63.5709 39.6084 63.6204 39.6084C63.7526 39.6084 63.8682 39.6252 64.0004 39.6252C64.8924 39.6252 65.7845 39.6252 66.6931 39.6252C66.9574 39.6252 67.2382 39.6252 67.5025 39.6252C67.5851 39.6252 67.6677 39.6252 67.7503 39.6252C67.8495 39.6252 67.899 39.558 67.899 39.4572C67.899 39.4068 67.899 39.3732 67.899 39.3228C67.899 38.7179 67.899 38.1131 67.899 37.5083C67.899 37.2731 67.8164 37.0883 67.6182 36.9707C67.6017 36.9539 67.5686 36.9371 67.5521 36.9203C67.5356 36.9035 67.5356 36.8699 67.5356 36.8363C67.5356 36.8195 67.5686 36.7859 67.5851 36.7691C67.6182 36.7523 67.6677 36.7523 67.7173 36.7523C68.2624 36.7523 68.7911 36.7523 69.3362 36.7523C69.3858 36.7523 69.4519 36.7691 69.5014 36.7859C69.5179 36.7859 69.5179 36.8363 69.5179 36.8699C69.5179 36.8867 69.5179 36.9035 69.5014 36.9035C69.4684 36.9371 69.4353 36.9707 69.4023 36.9875C69.2206 37.0883 69.1545 37.2563 69.171 37.4579C69.171 37.5083 69.171 37.5755 69.171 37.6259C69.171 39.39 69.171 41.154 69.171 42.918C69.171 42.9348 69.171 42.9516 69.171 42.9684C69.138 43.254 69.2206 43.4892 69.4849 43.6236C69.5014 43.6236 69.5014 43.6404 69.5014 43.6572C69.5014 43.6908 69.5014 43.7076 69.5014 43.7412C69.5014 43.758 69.4849 43.7748 69.4849 43.7748C69.4519 43.7916 69.4023 43.7916 69.3527 43.7916C68.7911 43.7916 68.2459 43.7916 67.6843 43.7916C67.6512 43.7916 67.6017 43.7748 67.5686 43.758C67.5521 43.758 67.5521 43.7412 67.5521 43.7244C67.5521 43.6908 67.5356 43.6572 67.5521 43.6404C67.6182 43.59 67.6843 43.5396 67.7503 43.4724C67.8495 43.3884 67.9155 43.2708 67.9155 43.1364C67.9155 43.0524 67.9155 42.9684 67.9155 42.8844C67.9155 42.2964 67.9155 41.6916 67.9155 41.1036C67.9155 41.0196 67.9155 40.9356 67.9155 40.8516C67.9155 40.7004 67.866 40.6668 67.7008 40.65C67.5851 40.65 67.4695 40.65 67.3539 40.65C66.5279 40.65 65.7019 40.65 64.8759 40.65C64.5125 40.65 64.1656 40.65 63.8022 40.65C63.7361 40.65 63.6535 40.65 63.5874 40.6668C63.5378 40.6668 63.4883 40.734 63.4883 40.7844C63.4883 40.8348 63.4718 40.8684 63.4718 40.9188C63.4718 41.6076 63.4718 42.3132 63.4718 43.002C63.4718 43.0524 63.4718 43.1196 63.4718 43.17C63.4883 43.3044 63.5378 43.422 63.6535 43.506C63.703 43.5564 63.7691 43.59 63.8187 43.6404C63.8352 43.6572 63.8352 43.6908 63.8352 43.7244C63.8352 43.7412 63.8022 43.7748 63.7856 43.7748C63.7526 43.7916 63.703 43.7916 63.6535 43.7916C63.1083 43.7916 62.5797 43.7916 62.0346 43.7916C61.985 43.7916 61.9189 43.7748 61.8694 43.758C61.8528 43.758 61.8528 43.7076 61.8528 43.674C61.8528 43.6404 61.8694 43.6236 61.9024 43.6068C61.952 43.5564 62.018 43.5228 62.0676 43.4724C62.1337 43.422 62.1832 43.338 62.1832 43.254C62.1998 43.1196 62.1998 43.002 62.1998 42.8676C62.2493 41.9772 62.2493 41.0868 62.2493 40.2132Z" fill="#ACCB3A"/>
<path d="M44.5074 42.7332C45.0856 42.7332 45.6803 42.7332 46.2585 42.7332C46.3246 42.7332 46.4072 42.7332 46.4733 42.7332C46.688 42.75 46.8532 42.666 46.9688 42.4644C46.9854 42.4476 47.0019 42.414 47.0184 42.3972C47.0349 42.3804 47.068 42.3804 47.101 42.3804C47.134 42.3804 47.1836 42.4308 47.1836 42.4644C47.1836 42.5148 47.2001 42.5484 47.2001 42.5988C47.2001 43.0692 47.2001 43.5228 47.2001 43.9932C47.2001 44.0436 47.2001 44.0772 47.1836 44.1276C47.1836 44.1444 47.1506 44.178 47.1175 44.178C47.101 44.178 47.0514 44.178 47.0349 44.1612C47.0019 44.1276 46.9854 44.094 46.9523 44.0604C46.8532 43.8756 46.688 43.8084 46.4898 43.8084C46.3741 43.8084 46.2585 43.8084 46.1429 43.8084C44.4414 43.8084 42.7398 43.8084 41.0218 43.8084C40.8896 43.8084 40.774 43.7916 40.6418 43.7916C40.6253 43.7916 40.5923 43.758 40.5923 43.7244C40.5923 43.7076 40.5923 43.6572 40.6088 43.6404C40.6749 43.59 40.7575 43.5396 40.807 43.4892C40.8896 43.4052 40.9557 43.3044 40.9557 43.1868C40.9557 43.086 40.9557 42.9852 40.9557 42.8844C40.9557 41.154 40.9557 39.4235 40.9557 37.6763C40.9557 37.5755 40.9557 37.4747 40.9557 37.3739C40.9557 37.2563 40.9062 37.1555 40.807 37.0715C40.741 37.0211 40.6749 36.9707 40.6088 36.9203C40.5923 36.9035 40.5923 36.8699 40.5923 36.8363C40.5923 36.8027 40.6418 36.7523 40.6749 36.7523C40.7575 36.7523 40.8401 36.7523 40.9227 36.7523C41.4843 36.7523 42.0625 36.7523 42.6242 36.7523C43.6814 36.7523 44.7552 36.7523 45.8125 36.7523C45.9281 36.7523 46.0438 36.7523 46.1594 36.7523C46.3411 36.7523 46.4898 36.6851 46.5889 36.5171C46.6219 36.4667 46.655 36.4163 46.688 36.3827C46.7045 36.3659 46.7376 36.3659 46.7706 36.3827C46.7871 36.3995 46.8037 36.4163 46.8202 36.4331C46.8202 36.4499 46.8367 36.4667 46.8367 36.4667C46.8367 37.0043 46.8367 37.5419 46.8367 38.0627C46.8367 38.0963 46.8202 38.1299 46.8037 38.1299C46.7871 38.1467 46.7541 38.1467 46.7211 38.1467C46.6219 38.0963 46.6054 37.9955 46.5393 37.9283C46.4567 37.8443 46.3576 37.7771 46.242 37.7771C46.1759 37.7771 46.0933 37.7771 46.0272 37.7771C44.8709 37.7771 43.731 37.7771 42.5746 37.7771C42.5251 37.7771 42.459 37.7771 42.4094 37.7771C42.2773 37.7771 42.2277 37.8275 42.2277 37.9619C42.2277 38.4659 42.2277 38.9699 42.2277 39.4739C42.2277 39.4907 42.2277 39.5076 42.2277 39.5244C42.2277 39.6084 42.2938 39.6588 42.3599 39.6756C42.4425 39.6756 42.5251 39.6924 42.6077 39.6924C43.2519 39.6924 43.8797 39.6924 44.524 39.6924C44.5735 39.6924 44.6065 39.6924 44.6561 39.6924C44.9039 39.7092 45.1021 39.6084 45.2178 39.3731C45.2343 39.3563 45.2508 39.3227 45.2673 39.3059C45.2839 39.2891 45.3169 39.2891 45.3499 39.2891C45.3664 39.2891 45.3995 39.3227 45.3995 39.3395C45.416 39.3563 45.416 39.3899 45.416 39.4235C45.416 39.9276 45.416 40.4316 45.416 40.9356C45.416 41.0028 45.3664 41.07 45.3334 41.07C45.3004 41.07 45.2508 41.0532 45.2178 41.0196C45.1847 40.986 45.1682 40.9524 45.1517 40.9188C45.0691 40.7844 44.9535 40.7172 44.7883 40.7172C44.7387 40.7172 44.6726 40.7172 44.6231 40.7172C43.9292 40.7172 43.2354 40.7172 42.5416 40.7172C42.4755 40.7172 42.3929 40.7172 42.3268 40.734C42.2773 40.734 42.2277 40.8012 42.2277 40.8516C42.2277 40.8684 42.2277 40.8852 42.2277 40.902C42.2277 41.4732 42.2277 42.0276 42.2277 42.5988C42.2277 42.6324 42.2277 42.666 42.2442 42.6828C42.2608 42.6996 42.2773 42.7332 42.3103 42.7332C42.4094 42.75 42.5086 42.75 42.6077 42.75C43.2519 42.7332 43.8797 42.7332 44.5074 42.7332Z" fill="#ACCB3A"/>
<path d="M96.313 42.7333C96.8912 42.7333 97.4859 42.7333 98.0641 42.7333C98.1301 42.7333 98.2127 42.7333 98.2788 42.7333C98.4936 42.7501 98.6753 42.6661 98.7744 42.4645C98.7909 42.4477 98.8074 42.4141 98.824 42.3973C98.8405 42.3805 98.8735 42.3805 98.9066 42.3805C98.9231 42.3805 98.9561 42.4141 98.9726 42.4309C98.9892 42.4477 98.9892 42.4813 98.9892 42.5149C98.9892 43.0021 98.9892 43.4893 98.9892 43.9933C98.9892 44.0269 98.9892 44.0605 98.9726 44.0773C98.9561 44.0941 98.9396 44.1277 98.9231 44.1277C98.9066 44.1445 98.857 44.1277 98.8405 44.1277C98.7909 44.0773 98.7579 44.0101 98.7083 43.9597C98.6257 43.8589 98.5101 43.7917 98.3779 43.7749C98.2458 43.7581 98.1301 43.7581 97.998 43.7581C96.2799 43.7581 94.5619 43.7581 92.8438 43.7581C92.7117 43.7581 92.5961 43.7413 92.4639 43.7413C92.4309 43.7413 92.4143 43.6573 92.4309 43.6237C92.4474 43.6069 92.4474 43.5901 92.4474 43.5901C92.4639 43.5733 92.4639 43.5733 92.4804 43.5565C92.7282 43.4389 92.7943 43.2373 92.7778 42.9853C92.7778 42.8509 92.7778 42.7333 92.7778 42.5989C92.7778 40.9692 92.7778 39.3396 92.7778 37.6932C92.7778 37.5588 92.7778 37.4412 92.7778 37.3068C92.7778 37.1724 92.7117 37.0548 92.5961 36.9875C92.5465 36.9539 92.4804 36.9035 92.4309 36.8531C92.4143 36.8363 92.4309 36.7523 92.4639 36.7355C92.4969 36.7187 92.5465 36.7187 92.5961 36.7187C92.7282 36.7187 92.8438 36.7187 92.976 36.7187C94.5454 36.7187 96.0982 36.7187 97.6676 36.7187C97.7832 36.7187 97.8989 36.7187 98.0145 36.7187C98.2127 36.7019 98.3779 36.6347 98.4605 36.4499C98.4771 36.4163 98.5101 36.3827 98.5431 36.3491C98.5597 36.3323 98.5927 36.3323 98.6257 36.3323C98.6423 36.3323 98.6753 36.3659 98.6918 36.3827C98.7083 36.3995 98.7083 36.4331 98.7083 36.4667C98.7083 36.9708 98.7083 37.4748 98.7083 37.9788C98.7083 38.0124 98.7083 38.046 98.6918 38.0628C98.6753 38.0796 98.6588 38.1132 98.6257 38.1132C98.6092 38.1132 98.5597 38.1132 98.5431 38.0964C98.4936 38.0292 98.444 37.962 98.3779 37.8948C98.3119 37.8108 98.2293 37.7604 98.1136 37.7604C98.0475 37.7604 97.9649 37.7604 97.8989 37.7604C96.726 37.7604 95.5366 37.7604 94.3637 37.7604C94.3141 37.7604 94.248 37.7604 94.1985 37.7604C94.1159 37.7604 94.0663 37.8276 94.0498 37.8948C94.0498 37.9284 94.0498 37.9452 94.0498 37.9788C94.0498 38.4492 94.0498 38.9364 94.0498 39.4068C94.0498 39.4572 94.0663 39.4908 94.0663 39.5412C94.0663 39.5916 94.1324 39.642 94.1819 39.6588C94.2315 39.6588 94.2645 39.6756 94.3141 39.6756C95.041 39.6756 95.7678 39.6756 96.4947 39.6756C96.5443 39.6756 96.5773 39.6756 96.6268 39.6756C96.8086 39.6588 96.9572 39.5916 97.0564 39.4236C97.0729 39.39 97.1059 39.3564 97.139 39.3228C97.1555 39.306 97.1885 39.2892 97.2216 39.306C97.2381 39.306 97.2711 39.3396 97.2876 39.3564C97.3042 39.3732 97.3042 39.4068 97.3042 39.4404C97.3042 39.9444 97.3042 40.4484 97.3042 40.9524C97.3042 40.986 97.2876 41.0028 97.2876 41.0364C97.2876 41.0532 97.2711 41.0532 97.2546 41.0532C97.2216 41.0532 97.1885 41.07 97.172 41.0532C97.1224 41.0196 97.0894 40.986 97.0564 40.9356C96.9572 40.7844 96.8086 40.7004 96.6268 40.7172C96.4782 40.7172 96.346 40.7172 96.1973 40.7172C95.6192 40.7172 95.0244 40.7172 94.4463 40.7172C94.3802 40.7172 94.2976 40.7172 94.2315 40.7172C94.1654 40.7172 94.0993 40.7844 94.0828 40.8516C94.0828 40.8852 94.0828 40.902 94.0828 40.9356C94.0828 41.4564 94.0828 41.9773 94.0828 42.4981C94.0828 42.5485 94.0828 42.5821 94.0993 42.6325C94.0993 42.6829 94.1654 42.7333 94.215 42.7333C94.2976 42.7333 94.3802 42.7333 94.4628 42.7333C95.074 42.7333 95.6852 42.7333 96.313 42.7333Z" fill="#ACCB3A"/>
<path d="M128.344 41.9604C127.882 41.9604 127.403 41.9604 126.94 41.9604C126.874 41.9604 126.791 41.9604 126.725 41.9604C126.626 41.9604 126.56 41.994 126.527 42.0948C126.444 42.2628 126.362 42.4308 126.279 42.5988C126.197 42.7836 126.114 42.9684 126.048 43.1532C125.998 43.2876 126.031 43.4052 126.147 43.506C126.197 43.5564 126.263 43.59 126.312 43.6404C126.329 43.6404 126.329 43.674 126.329 43.674C126.312 43.6908 126.312 43.7244 126.279 43.7412C126.246 43.758 126.197 43.758 126.164 43.758C125.585 43.758 124.991 43.758 124.412 43.758C124.363 43.758 124.33 43.758 124.28 43.7412C124.264 43.7244 124.247 43.6908 124.231 43.674C124.231 43.6572 124.231 43.6404 124.247 43.6404C124.28 43.6068 124.297 43.5732 124.346 43.5564C124.561 43.4388 124.693 43.254 124.792 43.0524C124.859 42.918 124.925 42.8004 124.974 42.666C125.338 41.8428 125.684 41.0364 126.048 40.2132C126.395 39.4403 126.725 38.6507 127.072 37.8779C127.138 37.7267 127.188 37.5923 127.254 37.4411C127.27 37.3907 127.287 37.3235 127.303 37.2731C127.32 37.1387 127.303 37.0211 127.171 36.9371C127.138 36.9203 127.105 36.8867 127.072 36.8531C127.056 36.8363 127.072 36.8027 127.072 36.7691C127.072 36.7523 127.089 36.7523 127.105 36.7355C127.138 36.7187 127.188 36.7187 127.237 36.7187C127.997 36.7187 128.741 36.7187 129.501 36.7187C129.55 36.7187 129.616 36.7355 129.666 36.7523C129.682 36.7523 129.682 36.8027 129.682 36.8363C129.666 36.9203 129.583 36.9371 129.534 36.9875C129.434 37.0547 129.418 37.1555 129.451 37.2563C129.484 37.3739 129.517 37.4747 129.567 37.5755C129.666 37.8107 129.781 38.0459 129.88 38.2811C130.426 39.4739 130.987 40.6668 131.532 41.8428C131.665 42.1284 131.797 42.414 131.929 42.6996C131.995 42.834 132.045 42.9684 132.127 43.086C132.243 43.3044 132.391 43.506 132.639 43.59C132.656 43.59 132.689 43.6236 132.689 43.6572C132.689 43.674 132.689 43.7244 132.672 43.7412C132.656 43.758 132.623 43.758 132.59 43.758C131.929 43.758 131.285 43.758 130.624 43.758C130.591 43.758 130.558 43.758 130.541 43.7412C130.525 43.7244 130.508 43.6908 130.508 43.674C130.508 43.6572 130.525 43.6236 130.558 43.6068C130.773 43.4892 130.806 43.3884 130.69 43.1364C130.558 42.8172 130.409 42.5148 130.277 42.1956C130.211 42.0276 130.095 41.9604 129.914 41.9772C129.451 41.994 129.005 41.9772 128.542 41.9772C128.46 41.9604 128.41 41.9604 128.344 41.9604ZM128.328 40.9188C128.675 40.9188 129.038 40.9188 129.385 40.9188C129.434 40.9188 129.501 40.902 129.55 40.8852C129.567 40.8852 129.6 40.8348 129.6 40.818C129.6 40.7676 129.583 40.7004 129.567 40.65C129.203 39.8099 128.823 38.9699 128.46 38.1299C128.443 38.0795 128.41 38.0291 128.377 37.9787C128.361 37.9451 128.278 37.9451 128.278 37.9787C128.229 38.0795 128.179 38.1803 128.129 38.2811C127.799 39.0539 127.485 39.8099 127.171 40.5828C127.138 40.65 127.122 40.7172 127.105 40.7844C127.089 40.818 127.138 40.8852 127.171 40.8852C127.237 40.8852 127.303 40.902 127.386 40.902C127.667 40.9356 127.997 40.9188 128.328 40.9188Z" fill="#ACCB3A"/>
<path d="M145.591 43.7748C144.583 43.7748 143.575 43.7748 142.567 43.7748C142.452 43.7748 142.336 43.758 142.237 43.758C142.221 43.758 142.188 43.7244 142.188 43.6908C142.188 43.674 142.188 43.6236 142.188 43.6068C142.237 43.5564 142.303 43.5228 142.353 43.4724C142.485 43.3884 142.534 43.254 142.551 43.1028C142.551 43.002 142.551 42.9012 142.551 42.8004C142.551 40.5828 142.551 38.3483 142.551 36.1307C142.551 36.0467 142.551 35.9627 142.551 35.8787C142.551 35.6939 142.485 35.5427 142.32 35.4419C142.27 35.4083 142.221 35.3747 142.188 35.3411C142.171 35.3243 142.171 35.2907 142.171 35.2571C142.171 35.2403 142.188 35.2067 142.221 35.1899C142.237 35.1731 142.27 35.1731 142.303 35.1731C142.914 35.1731 143.526 35.1731 144.137 35.1731C144.17 35.1731 144.186 35.1899 144.219 35.1899C144.252 35.1899 144.286 35.3075 144.269 35.3411C144.236 35.3747 144.219 35.4083 144.17 35.4251C143.972 35.5259 143.906 35.7107 143.922 35.9291C143.922 35.9963 143.922 36.0803 143.922 36.1475C143.922 38.1467 143.922 40.1292 143.922 42.1284C143.922 42.2628 143.922 42.3804 143.939 42.5148C143.939 42.5652 143.988 42.6324 144.038 42.6324C144.12 42.6324 144.203 42.6492 144.286 42.6492C145.772 42.6492 147.276 42.6492 148.762 42.6492C149.043 42.6492 149.274 42.5988 149.407 42.33C149.407 42.3132 149.423 42.3132 149.44 42.2964C149.473 42.2628 149.522 42.2628 149.555 42.2796C149.572 42.2964 149.605 42.3132 149.605 42.3468C149.621 42.3636 149.621 42.3972 149.621 42.4308C149.621 42.9516 149.621 43.4724 149.621 43.9932C149.621 44.0268 149.621 44.0436 149.605 44.0772C149.588 44.1276 149.555 44.1444 149.522 44.1612C149.489 44.1612 149.456 44.1612 149.44 44.1444C149.39 44.094 149.357 44.0268 149.307 43.9764C149.225 43.8588 149.093 43.7916 148.944 43.7748C148.828 43.7748 148.713 43.7748 148.597 43.7748C147.606 43.7748 146.598 43.7748 145.591 43.7748Z" fill="#ACCB3A"/>
<path d="M115.029 36.7187C115.36 36.7187 115.69 36.7187 116.004 36.7187C116.054 36.7187 116.12 36.7355 116.169 36.7523C116.186 36.7523 116.202 36.8027 116.202 36.8195C116.186 36.9035 116.12 36.9203 116.07 36.9707C115.971 37.0547 115.954 37.1723 116.021 37.2899C116.07 37.3907 116.12 37.4915 116.186 37.5923C116.665 38.2811 117.16 38.9867 117.639 39.6755C117.656 39.6923 117.673 39.7091 117.706 39.7427C117.722 39.7595 117.788 39.7595 117.821 39.7259C117.854 39.6755 117.887 39.6419 117.92 39.5915C118.366 38.9363 118.812 38.2979 119.258 37.6427C119.308 37.5587 119.374 37.4747 119.424 37.3907C119.473 37.3067 119.506 37.2059 119.473 37.1051C119.457 37.0043 119.391 36.9539 119.308 36.9035C119.291 36.8867 119.275 36.8699 119.258 36.8363C119.258 36.8195 119.242 36.8027 119.258 36.8027C119.275 36.7859 119.275 36.7523 119.308 36.7355C119.341 36.7187 119.391 36.7187 119.424 36.7187C120.068 36.7187 120.696 36.7187 121.34 36.7187C121.389 36.7187 121.422 36.7187 121.455 36.7355C121.472 36.7523 121.489 36.7859 121.505 36.8027C121.505 36.8195 121.505 36.8363 121.489 36.8363C121.455 36.8699 121.439 36.9035 121.406 36.9203C121.158 37.0379 120.96 37.2395 120.795 37.4579C120.497 37.8611 120.2 38.2643 119.903 38.6675C119.44 39.2891 118.994 39.9275 118.548 40.5492C118.498 40.6164 118.449 40.6836 118.399 40.7676C118.35 40.8348 118.333 40.9188 118.333 41.0196C118.333 41.07 118.333 41.1372 118.333 41.1876C118.333 41.7588 118.333 42.3132 118.333 42.8844C118.333 42.9348 118.333 43.002 118.333 43.0524C118.317 43.2708 118.399 43.4388 118.598 43.5564C118.631 43.5732 118.664 43.6236 118.68 43.6572C118.697 43.674 118.68 43.7244 118.664 43.7412C118.647 43.758 118.614 43.758 118.581 43.758C117.986 43.758 117.392 43.758 116.797 43.758C116.764 43.758 116.731 43.7412 116.731 43.7244C116.714 43.7076 116.714 43.674 116.714 43.6404C116.731 43.6068 116.764 43.5732 116.797 43.5564C117.012 43.422 117.094 43.2204 117.078 42.9684C117.078 42.3636 117.078 41.7588 117.078 41.154C117.078 40.986 117.028 40.8516 116.929 40.7172C116.582 40.23 116.235 39.7259 115.888 39.2387C115.508 38.7011 115.112 38.1635 114.732 37.6259C114.6 37.4411 114.451 37.2731 114.269 37.1219C114.154 37.0379 114.038 36.9707 113.923 36.8867C113.906 36.8699 113.89 36.8363 113.906 36.8195C113.906 36.8027 113.939 36.7691 113.956 36.7523C114.005 36.7355 114.071 36.7355 114.121 36.7355C114.402 36.7187 114.715 36.7187 115.029 36.7187Z" fill="#ACCB3A"/>
<path d="M156.989 40.566C156.989 41.3052 156.989 42.0444 156.989 42.7836C156.989 42.8844 156.989 42.9852 156.989 43.086C156.989 43.2708 157.055 43.422 157.221 43.5228C157.27 43.5564 157.32 43.59 157.353 43.6236C157.369 43.6404 157.369 43.674 157.353 43.7076C157.336 43.7244 157.32 43.7412 157.287 43.758C157.27 43.758 157.254 43.758 157.254 43.758C156.675 43.758 156.081 43.758 155.503 43.758C155.47 43.758 155.453 43.7412 155.42 43.7412C155.387 43.7412 155.37 43.6572 155.387 43.6404C155.42 43.6068 155.437 43.5732 155.47 43.5564C155.668 43.4388 155.734 43.254 155.717 43.0356C155.717 42.9852 155.717 42.918 155.717 42.8676C155.717 41.322 155.717 39.7764 155.717 38.2307C155.717 38.1131 155.717 37.9955 155.701 37.8779C155.701 37.8275 155.635 37.7771 155.585 37.7771C155.536 37.7771 155.503 37.7603 155.453 37.7603C154.858 37.7603 154.264 37.7603 153.669 37.7603C153.636 37.7603 153.619 37.7603 153.586 37.7603C153.421 37.7603 153.289 37.8443 153.206 37.9955C153.173 38.0459 153.14 38.0963 153.107 38.1299C153.091 38.1467 153.058 38.1467 153.025 38.1299C153.008 38.1131 152.992 38.0963 152.975 38.0627C152.975 38.0459 152.975 38.0291 152.975 38.0123C152.975 37.4915 152.975 36.9707 152.975 36.4499C152.975 36.4163 152.992 36.3995 152.992 36.3659C152.992 36.3491 153.008 36.3491 153.025 36.3323C153.058 36.3323 153.091 36.3155 153.107 36.3323C153.157 36.3827 153.206 36.4331 153.239 36.5003C153.339 36.6179 153.454 36.6851 153.603 36.6851C153.685 36.6851 153.768 36.6851 153.851 36.6851C155.519 36.6851 157.171 36.6851 158.84 36.6851C158.873 36.6851 158.889 36.6851 158.922 36.6851C159.203 36.7019 159.434 36.6347 159.566 36.3659C159.583 36.3491 159.616 36.3323 159.632 36.3155C159.649 36.2987 159.732 36.3155 159.748 36.3491C159.748 36.3827 159.765 36.3995 159.765 36.4331C159.765 36.9371 159.765 37.4411 159.765 37.9451C159.765 37.9787 159.765 38.0123 159.748 38.0291C159.732 38.0459 159.715 38.0795 159.682 38.0795C159.666 38.0795 159.616 38.0795 159.599 38.0627C159.55 37.9955 159.5 37.9283 159.451 37.8611C159.385 37.7771 159.302 37.7267 159.186 37.7267C159.137 37.7267 159.071 37.7267 159.021 37.7267C158.427 37.7267 157.832 37.7267 157.237 37.7267C157.188 37.7267 157.155 37.7267 157.105 37.7435C157.055 37.7435 156.989 37.7939 156.989 37.8443C156.989 37.9619 156.973 38.0795 156.973 38.1971C156.989 39.0203 156.989 39.7932 156.989 40.566Z" fill="#ACCB3A"/>
<path d="M159.814 6.67972C159.863 6.67972 159.93 6.73012 159.946 6.64612C159.979 6.52851 160.012 6.39411 160.029 6.25971C160.26 5.18449 160.623 4.15967 161.185 3.20205C161.615 2.46283 162.16 1.82442 162.854 1.32041C163.316 0.984401 163.845 0.749196 164.39 0.597993C164.472 0.581192 164.555 0.581192 164.638 0.564392C164.687 0.564392 164.753 0.614793 164.77 0.665194C164.786 0.698795 164.786 0.749196 164.803 0.799597C164.819 1.186 164.819 1.57241 164.77 1.95882C164.638 2.86604 164.291 3.67246 163.729 4.39487C163.283 4.98288 162.721 5.45329 162.11 5.8565C161.515 6.24291 160.888 6.54531 160.227 6.78052C160.111 6.83092 159.979 6.84772 159.863 6.88132C159.847 6.88132 159.814 6.86452 159.781 6.84772C159.797 6.78052 159.814 6.73012 159.814 6.67972Z" fill="#ACCB3A"/>
<path d="M159.814 6.6797C159.797 6.7301 159.797 6.7805 159.781 6.8309C159.335 6.8477 158.905 6.8309 158.459 6.7637C158.112 6.7133 157.766 6.6461 157.419 6.5453C156.642 6.34369 155.915 6.00769 155.271 5.52048C154.329 4.78126 153.702 3.84044 153.404 2.66442C153.388 2.61402 153.388 2.54682 153.388 2.49641C153.388 2.46281 153.421 2.41241 153.454 2.39561C153.751 2.31161 154.065 2.31161 154.379 2.34521C155.502 2.44601 156.477 2.91642 157.353 3.62204C158.261 4.36125 158.971 5.26847 159.583 6.27649C159.698 6.39409 159.797 6.5117 159.814 6.6797Z" fill="#ACCB3A"/>
<path d="M14.6069 14.9455C14.6399 14.9791 14.6729 15.0127 14.706 15.0463C14.6564 15.1135 14.6234 15.1975 14.5738 15.2647C14.3591 15.5839 14.1443 15.9031 13.9296 16.2223C13.913 16.1719 13.88 16.1551 13.8304 16.1383C14.0122 15.8023 14.1939 15.4831 14.4251 15.1639C14.4747 15.0967 14.5408 15.0127 14.6069 14.9455Z" fill="#1C6A38"/>
<path d="M58.4499 11.7702C58.4829 11.7366 58.516 11.7198 58.549 11.6862C58.8629 11.8878 59.1272 12.123 59.3254 12.375C59.2924 12.375 59.2759 12.3918 59.2428 12.3918C59.2098 12.375 59.1602 12.3582 59.1272 12.3414C58.9124 12.1734 58.7142 12.0222 58.4994 11.8542C58.4829 11.8038 58.4664 11.787 58.4499 11.7702Z" fill="white"/>
<path d="M59.3091 12.3582C59.4415 12.3919 59.5242 12.4929 59.607 12.5939C59.6235 12.6275 59.6235 12.6443 59.607 12.6612C59.5904 12.6612 59.5739 12.6612 59.5739 12.6612C59.4746 12.6107 59.3918 12.5265 59.3256 12.4256C59.3091 12.4256 59.3091 12.3919 59.3091 12.3582Z" fill="white"/>
<path d="M13.9308 16.2397C13.9141 16.2734 13.9141 16.2903 13.8975 16.3072C13.8808 16.3241 13.8475 16.3241 13.8308 16.3241C13.8142 16.3072 13.7808 16.2734 13.7975 16.2565C13.7975 16.2228 13.8308 16.1721 13.8475 16.1383C13.8808 16.1552 13.9141 16.189 13.9308 16.2397Z" fill="#1C6A38"/>
<path d="M48.0591 13.0638C48.0756 12.963 48.125 12.9126 48.2073 12.879C48.2237 12.8958 48.2402 12.9126 48.2731 12.9294C48.2567 12.963 48.2237 12.9966 48.2073 13.0302C48.1579 13.0638 48.1085 13.0974 48.0591 13.0638Z" fill="white"/>
<path d="M48.208 12.8625C48.2246 12.8456 48.2413 12.8118 48.258 12.8118C48.2746 12.8118 48.308 12.8287 48.3246 12.8287C48.3246 12.8287 48.3246 12.8456 48.3246 12.8625C48.308 12.8794 48.2913 12.8963 48.2746 12.9132C48.2413 12.9132 48.2246 12.8963 48.208 12.8625Z" fill="white"/>
<path d="M48.0432 13.047C48.0432 13.1314 48.0432 13.1314 47.9601 13.1314C47.9767 13.0977 48.01 13.0639 48.0432 13.047C48.0432 13.047 48.0598 13.0639 48.0432 13.047Z" fill="white"/>
<path d="M47.9609 13.131C47.9778 13.1481 47.9778 13.1822 47.9609 13.1992C47.9609 13.1992 47.9439 13.1992 47.9269 13.1822C47.9439 13.1822 47.9609 13.1651 47.9609 13.131C47.9609 13.131 47.9778 13.1481 47.9609 13.131Z" fill="white"/>
<path d="M47.7948 13.4003C47.7948 13.3833 47.7948 13.3662 47.8117 13.3662C47.8456 13.3662 47.8287 13.3833 47.7948 13.4003Z" fill="white"/>
<path d="M47.7124 13.4839C47.6792 13.5176 47.6626 13.5345 47.6294 13.5683C47.6626 13.5514 47.6792 13.5176 47.7124 13.4839C47.7124 13.4839 47.7124 13.5007 47.7124 13.4839Z" fill="#1C6A38"/>
<path d="M47.7953 13.3998C47.7621 13.4336 47.7289 13.4674 47.7123 13.4842C47.7455 13.4674 47.7787 13.4336 47.7953 13.3998Z" fill="#1C6A38"/>
</svg>
