<svg width="219" height="196" viewBox="0 0 219 196" fill="none" xmlns="http://www.w3.org/2000/svg">
<g clip-path="url(#clip0_327_1073)">
<path d="M-94.8359 23.0614C-89.3191 25.5726 -84.4573 28.8289 -78.7459 31.003C-73.0346 33.177 -67.0054 34.412 -61.1187 35.114C-50.7198 36.176 -40.0743 36.032 -29.6233 36.224C-18.738 36.443 -7.85269 36.662 3.12991 36.713C13.8467 36.834 25.3157 36.042 35.9284 37.901C36.3628 37.927 36.2395 38.53 35.8051 38.504C23.6812 40.041 10.6048 38.557 -1.58368 38.26C-13.2405 37.82 -24.9945 37.549 -36.58 37.375C-47.031 37.182 -57.508 37.424 -67.7576 35.325C-76.8987 33.642 -88.2761 29.994 -95.199 23.3011C-95.1017 23.1326 -95.0044 22.9641 -94.8359 23.0614Z" fill="#1C6A38"/>
<path d="M35.6818 39.107C12.402 30.384 -11.7418 31.721 -36.0734 31.827C-59.1019 32.01 -82.8239 30.671 -102.511 17.2823C-103.522 16.6984 -102.55 15.0135 -101.538 15.5974C-60.1413 43.542 -7.68105 19.2383 36.0709 38.433C36.408 38.627 36.0189 39.301 35.6818 39.107Z" fill="#1C6A38"/>
<path d="M-85.826 32.757C-69.1399 42.39 -51.6235 49.808 -33.4522 56.48C-16.0523 62.931 0.167692 68.701 19.1896 68.451C19.8898 68.405 19.7405 69.443 19.3061 69.416C0.64056 70.996 -16.4675 64.039 -33.6015 57.517C-51.6755 50.676 -69.555 43.499 -85.9493 33.359C-86.5522 33.236 -86.1631 32.562 -85.826 32.757Z" fill="#1C6A38"/>
<path d="M20.4474 67.829C1.65965 64.171 -16.635 58.101 -34.761 52.129C-52.2842 46.281 -69.71 40.264 -86.7208 33.139C-87.4923 32.918 -86.8826 31.473 -86.2084 31.862C-68.64 38.411 -51.1688 45.128 -33.2113 51.002C-15.4223 56.78 2.78174 61.449 20.7393 67.323C20.9078 67.421 20.7133 67.758 20.4474 67.829Z" fill="#1C6A38"/>
<path d="M-50.2896 59.564C-41.0773 61.513 -32.1375 65.101 -23.217 67.556C-14.2965 70.01 -4.52653 71.382 4.27068 74.44C4.60777 74.634 4.58176 75.069 4.14739 75.042C-5.0457 74.228 -14.5431 71.216 -23.3663 68.593C-32.4554 66.041 -41.9075 63.729 -50.2896 59.564C-50.2896 59.564 -50.3869 59.732 -50.2896 59.564Z" fill="#1C6A38"/>
<path d="M3.76494 74.148C-2.30951 72.213 -8.16339 69.508 -14.3351 67.742C-20.5068 65.976 -26.7759 64.378 -32.9476 62.612C-43.6508 59.353 -55.7737 55.05 -63.0982 46.328C-63.5066 45.867 -63.0202 45.025 -62.346 45.414C-51.7603 53.548 -41.2584 58.712 -28.4093 62.536C-18.1144 65.335 -5.16127 67.422 3.76494 74.148Z" fill="#1C6A38"/>
<path d="M-18.5623 68.446C-10.3035 73.214 -2.72571 79.162 5.43581 84.099C13.0917 88.743 20.8708 92.785 29.1104 96.419C47.2037 104.394 65.9654 108.486 85.3889 110.265C85.8233 110.291 85.8685 110.991 85.4342 110.965C66.6521 111.579 48.2342 106.112 31.2495 98.553C22.0699 94.601 13.448 90.072 4.94941 84.941C-3.04355 80.102 -11.808 75.041 -18.7569 68.783C-18.9254 68.686 -18.7309 68.349 -18.5623 68.446Z" fill="#1C6A38"/>
<path d="M84.8122 109.707C77.0907 109.069 69.2335 106.33 61.7847 104.051C53.5644 101.551 45.3701 98.618 37.2731 95.515C21.8506 89.532 6.67459 82.343 -7.36005 73.566C-7.86569 73.274 -7.47657 72.6 -6.97094 72.892C8.34757 80.613 23.6661 88.333 39.7628 94.706C47.4255 97.782 55.2827 100.522 63.1659 102.826C70.4462 105.008 77.8497 106.586 84.7409 109.442C85.078 109.636 85.078 109.636 84.8122 109.707Z" fill="#1C6A38"/>
<path d="M-28.3167 52.256C-12.8286 54.233 2.55651 52.108 17.798 55.291C33.7398 58.429 47.8207 62.066 63.6537 56.829C64.0168 56.589 64.3279 57.218 63.9648 57.458C51.6713 64.738 35.613 60.634 22.7119 57.679C13.5969 55.561 4.76686 54.507 -4.74408 54.632C-12.6861 54.765 -20.7706 54.366 -28.6085 52.761C-28.8744 52.832 -28.7511 52.229 -28.3167 52.256Z" fill="#1C6A38"/>
<path d="M64.5034 55.747C48.1523 57.989 32.8395 54.54 16.8457 52.27C-0.956795 49.63 -19.3237 49.135 -37.1658 50.067C-37.866 50.112 -37.8852 48.978 -37.185 48.933C-20.1404 48.214 -3.21917 48.099 13.7406 50.253C21.5333 51.157 29.0081 53.002 36.7748 54.34C46.1105 55.687 55.213 55.101 64.5034 55.747C64.5034 55.747 64.6007 55.578 64.5034 55.747Z" fill="#1C6A38"/>
<path d="M-54.4876 42.313C-42.3772 43.913 -29.6311 43.634 -17.4167 43.497C-5.37079 43.262 6.62987 42.328 18.514 40.428C18.7798 40.357 18.9224 40.888 18.6565 40.959C6.72039 43.728 -5.18299 44.494 -17.4947 44.8C-29.8064 45.105 -42.5525 45.384 -54.8315 43.687C-55.4084 43.129 -55.2591 42.092 -54.4876 42.313Z" fill="#1C6A38"/>
<path d="M20.1351 39.566C20.8613 39.087 21.5162 38.342 22.3137 38.128C22.411 37.96 22.4823 38.226 22.4823 38.226C21.6588 38.873 20.764 39.255 20.1351 39.566C20.0378 39.735 20.0378 39.735 20.1351 39.566Z" fill="#1C6A38"/>
<path d="M-0.196217 74.781C16.2636 80.914 32.3796 88.422 47.9119 96.94C48.5861 97.329 47.9051 98.509 47.231 98.119C31.7699 89.867 15.8225 82.457 -0.222231 75.215C-0.559323 75.021 -0.364764 74.684 -0.196217 74.781Z" fill="#1C6A38"/>
<path d="M42.4143 95.563C37.7402 93.538 33.358 91.008 28.684 88.984C24.0099 86.959 19.1153 85.706 14.7331 83.176C14.2275 82.884 14.6166 82.21 15.051 82.236C19.6345 82.86 24.2825 85.319 28.2564 87.389C33.1702 89.777 38.1814 91.996 42.4403 95.129C43.2118 95.35 42.9199 95.855 42.4143 95.563Z" fill="#1C6A38"/>
<path d="M34.4406 91.858C31.0177 90.78 27.6207 89.269 24.3923 87.854C20.6583 86.147 16.4638 84.849 13.2162 82.3C12.6393 81.742 12.8599 80.971 13.7286 81.023C20.7238 82.141 29.1512 87.007 34.5639 91.255C34.8037 91.618 34.7064 91.787 34.4406 91.858Z" fill="#1C6A38"/>
<path d="M31.1148 90.612C23.0631 88.21 11.3938 85.067 5.48217 78.958C5.07381 78.498 5.53419 78.09 5.96856 78.116C10.2863 78.811 14.2341 81.315 18.1367 83.119C22.7135 85.312 27.1217 87.408 31.6012 89.77C31.841 90.133 31.6205 90.904 31.1148 90.612Z" fill="#1C6A38"/>
<path d="M20.4636 86.485C16.4377 85.283 12.8009 83.408 8.96961 81.87C5.23557 80.164 1.20969 78.963 -1.94068 76.245C-2.27777 76.051 -2.0572 75.279 -1.62283 75.306C2.02069 75.612 5.22308 77.461 8.45148 78.875C12.6912 80.874 16.9308 82.872 20.6841 85.713C21.1898 86.005 20.9692 86.776 20.4636 86.485Z" fill="#1C6A38"/>
<path d="M35.8341 93.337C33.7595 93.038 31.7109 92.304 29.6623 91.571C27.6138 90.837 25.4679 90.272 23.8085 88.865C23.3028 88.573 23.3548 87.705 24.055 87.659C26.2269 87.79 28.1782 88.692 30.2268 89.425C32.2753 90.159 34.3239 90.892 36.0806 92.131C36.489 92.592 36.437 93.46 35.8341 93.337Z" fill="#1C6A38"/>
<path d="M24.743 84.911C31.9 87.695 38.169 89.293 45.7479 89.4C52.458 89.455 59.2654 89.342 66.0208 90.097C73.5477 91.072 81.0226 92.917 88.5494 93.893C96.3421 94.797 102.962 93.452 110.405 91.459C110.937 91.316 111.079 91.848 110.619 92.256C97.8647 99.945 80.2251 93.13 66.9088 91.283C53.7611 89.533 35.711 93.94 24.743 84.911C24.4772 84.982 24.4772 84.982 24.743 84.911Z" fill="#1C6A38"/>
<path d="M110.697 90.953C91.2923 90.309 71.5385 86.767 52.141 84.554C34.8181 82.641 17.8324 80.921 1.88492 73.511C1.21073 73.122 1.7944 72.111 2.56587 72.332C19.9137 79.652 39.3632 80.996 57.7946 83.325C75.4546 85.434 93.4324 86.602 110.749 90.085C111.086 90.279 111.131 90.979 110.697 90.953Z" fill="#1C6A38"/>
<path d="M49.95 83.289C70.0951 74.476 93.8352 82.791 112.548 70.231C112.911 69.991 113.32 70.451 112.956 70.691C106.699 77.637 96.7728 78.871 87.9361 79.385C82.1659 79.648 76.4218 79.477 70.7229 80.006C63.7922 80.722 56.978 82.404 50.1899 83.652C49.924 83.724 49.6842 83.36 49.95 83.289Z" fill="#1C6A38"/>
<path d="M112.691 70.762C92.2548 74.24 71.1776 75.326 50.6513 77.404C33.7232 79.088 15.5441 79.825 0.303591 70.801C-0.202048 70.509 0.187067 69.835 0.789986 69.959C17.0938 78.698 35.8566 76.95 53.6534 75.318C73.1164 73.525 92.9945 70.624 112.477 69.965C112.911 69.991 112.956 70.691 112.691 70.762Z" fill="#1C6A38"/>
<path d="M2.44949 71.366C1.24365 71.119 0.0638177 70.438 -1.11601 69.757C-2.12729 69.173 -3.23585 68.758 -3.9553 67.669C-4.02657 67.403 -3.92929 67.234 -3.66346 67.163C-2.52889 67.144 -1.44634 67.994 -0.435057 68.578C0.744771 69.259 1.9246 69.94 2.74133 70.861C2.98114 71.224 2.78658 71.561 2.44949 71.366Z" fill="#1C6A38"/>
<path d="M-25.8426 66.265C-12.4832 80.493 1.40785 94.578 16.5375 106.908C32.9183 120.185 50.2073 129.942 70.1874 136.984C70.3559 137.081 70.3299 137.516 70.1614 137.418C30.8359 127.295 0.123964 95.634 -26.4003 66.841C-26.6401 66.478 -26.0824 65.901 -25.8426 66.265Z" fill="#1C6A38"/>
<path d="M70.019 136.887C64.2307 130.175 54.1756 127.74 46.6623 123.627C38.8119 119.319 31.2533 114.506 23.9865 109.187C10.8014 99.328 -1.77409 88.024 -11.516 74.536C-11.7558 74.173 -11.2954 73.765 -10.7898 74.057C1.72689 87.798 14.73 100.697 30.0349 111.556C37.0619 116.511 44.3807 120.961 51.9913 124.906C58.1562 128.241 66.0394 130.546 70.2136 136.55C70.4534 136.913 70.0903 137.153 70.019 136.887Z" fill="#1C6A38"/>
<path d="M-38.7582 72.287C-18.7214 88.573 -4.79291 110.768 4.95364 134.368C4.95364 134.368 4.85636 134.536 4.95364 134.368C-5.13 110.573 -21.2179 90.951 -39.2186 72.695C-39.4584 72.332 -38.998 71.924 -38.7582 72.287Z" fill="#1C6A38"/>
<path d="M4.49331 134.776C0.888272 136.738 -1.09475 131.999 -2.41035 129.217C-6.52569 120.776 -11.3672 112.813 -17.5639 105.641C-27.4098 93.891 -40.2579 84.227 -46.544 69.814C-46.9264 68.919 -45.5712 68.129 -45.1889 69.024C-38.87 81.433 -28.7707 90.409 -19.6182 100.636C-15.6059 104.974 -12.0539 109.721 -8.86504 114.707C-6.94653 117.612 -5.12529 120.686 -3.56987 123.83C-1.74864 126.904 0.34414 134.178 4.49331 134.776C4.59059 134.607 4.59059 134.607 4.49331 134.776Z" fill="#1C6A38"/>
<path d="M2.71035 133.971C3.84492 133.952 4.4546 132.507 4.16953 131.444C3.88446 130.381 2.80192 129.531 2.61413 128.299C2.54286 128.033 2.73741 127.696 3.07451 127.891C4.78598 128.43 6.12759 130.777 5.855 132.417C5.67968 133.888 4.27253 135.547 2.65833 134.84C2.22396 134.814 2.1787 134.114 2.71035 133.971Z" fill="#1C6A38"/>
<path d="M4.4876 130.504C1.94016 127.91 0.313475 124.5 -1.50776 121.426C-3.56882 117.99 -5.79842 114.456 -7.39909 110.611C-7.47036 110.346 -7.20453 110.274 -7.03599 110.372C-4.51455 113.4 -2.62204 116.739 -0.729533 120.078C1.16297 123.418 3.58713 126.614 4.68216 130.167C4.75343 130.433 4.65615 130.601 4.4876 130.504Z" fill="#1C6A38"/>
<path d="M-18.8083 30.337C-8.92753 28.4034 -0.207289 26.923 8.72102 21.9682C16.6573 17.564 23.4918 11.1757 31.1883 6.4084C31.6486 6.0002 32.2968 6.8237 31.8364 7.2319C19.1855 19.0237 -0.687961 32.037 -18.6658 30.869C-18.8343 30.771 -19.0741 30.408 -18.8083 30.337Z" fill="#1C6A38"/>
<path d="M31.9858 6.19489C22.157 7.25989 14.2784 15.0673 5.42816 18.7192C-3.25358 22.4684 -12.674 23.9938 -22.1397 24.8192C-32.2083 25.5211 -42.1275 25.186 -52.2154 24.7535C-63.8722 24.3138 -76.573 25.2932 -88.1258 23.1164C-88.7287 22.9929 -88.5081 22.2217 -87.9765 22.0793C-76.1184 20.6133 -63.0679 22.5316 -51.1453 22.9001C-41.226 23.2352 -31.1382 23.6677 -21.2381 22.8685C-10.4694 22.1215 0.111662 20.1428 9.6689 14.8772C17.0475 11.0496 23.2271 5.4065 31.798 4.9632C32.5695 5.1839 32.5174 6.05249 31.9858 6.19489Z" fill="#1C6A38"/>
<path d="M-31.8083 72.705C-18.3314 82.059 -8.30442 96.609 2.18969 109.183C14.557 123.962 27.8067 135.655 45.8547 142.93C46.1918 143.125 46.1658 143.559 45.7314 143.533C29.2128 139.837 15.6328 126.38 4.77563 114.046C-1.34979 107.14 -7.01483 99.825 -12.7771 92.679C-18.8053 85.604 -25.3198 79.372 -32.0029 73.042C-32.34 72.848 -31.9769 72.608 -31.8083 72.705Z" fill="#1C6A38"/>
<path d="M44.649 142.683C42.2961 139.752 37.4275 138.064 34.1538 135.95C30.8802 133.835 27.9696 131.481 25.1563 128.958C18.2074 122.699 12.3478 115.722 6.31968 108.647C-5.39951 94.692 -16.1719 79.486 -30.6534 67.98C-30.9905 67.785 -30.4328 67.209 -30.3616 67.475C-15.4197 78.573 -4.35544 93.273 7.07191 107.733C12.8342 114.879 18.8624 121.954 25.9086 128.044C29.6358 131.319 33.5577 134.258 37.8426 136.956C40.4421 138.682 44.831 139.643 46.0494 142.593C46.1206 142.859 46.0233 143.027 45.9261 143.196C45.2711 143.941 45.3684 143.772 44.5709 143.986C44.5709 143.986 44.4024 143.889 44.2338 143.791C44.1626 143.526 43.994 143.428 44.0913 143.26C44.1173 142.825 44.5777 142.417 44.649 142.683Z" fill="#1C6A38"/>
<path d="M-5.09149 112.842C10.1739 127.272 17.5416 148.375 26.8288 166.542C27.0686 166.906 26.7055 167.145 26.3684 166.951C22.9782 163.87 21.235 159.494 19.3945 155.286C17.3403 150.281 15.0201 145.347 12.6028 140.581C7.52816 130.687 0.806586 122.089 -5.18877 113.011C-5.26004 112.745 -5.16276 112.576 -5.09149 112.842Z" fill="#1C6A38"/>
<path d="M26.349 165.816C25.0854 162.166 24.0617 158.879 22.435 155.469C20.8083 152.059 19.3502 148.745 17.7235 145.335C14.6127 139.046 11.3333 132.659 7.69084 126.513C0.166071 113.856 -8.97965 102.061 -20.0902 92.501C-20.6671 91.943 -19.7464 91.127 -19.1694 91.684C-6.97635 102.094 2.38319 114.687 10.2643 128.672C14.2891 135.714 17.9508 142.995 21.5153 150.445C23.2132 154.121 24.9112 157.797 26.6091 161.473C27.3738 163.263 28.3331 164.715 28.0345 166.789C27.9372 166.958 27.8399 167.126 27.6714 167.029C26.8739 167.243 26.8739 167.243 26.1997 166.853C26.0312 166.756 26.0312 166.756 26.1285 166.588C26.2257 166.419 26.1545 166.153 26.1545 166.153C26.0119 165.622 26.2778 165.55 26.349 165.816Z" fill="#1C6A38"/>
<path d="M60.416 107.978C66.9961 110.205 72.5061 114.285 77.7503 118.436C84.9198 123.923 91.7069 128.515 99.7519 132.486C100.089 132.681 99.7971 133.186 99.3628 133.16C92.3936 131.608 86.4752 127.068 80.7966 122.89C73.9642 117.598 67.3716 112.668 59.8583 108.555C59.9556 108.387 60.1501 108.05 60.416 107.978Z" fill="#1C6A38"/>
<path d="M101.152 132.396C95.1231 131.162 88.4525 127.535 83.3509 123.916C83.0138 123.721 83.3056 123.216 83.6427 123.41C89.4253 125.85 95.8821 128.679 101.081 132.13C101.515 132.156 101.587 132.422 101.152 132.396Z" fill="#1C6A38"/>
<path d="M96.77 129.866C91.9013 128.178 88.0508 125.506 83.9604 122.47C78.5477 118.222 72.7458 114.648 67.2358 110.568C66.8987 110.373 67.0932 110.036 67.5276 110.062C72.351 111.05 76.4153 114.52 80.3372 117.458C85.7499 121.706 91.0654 126.123 97.1591 129.192C97.2303 129.458 97.0358 129.795 96.77 129.866Z" fill="#1C6A38"/>
<path d="M81.2446 119.779C79.1507 118.346 77.1542 116.744 75.0603 115.31C73.1351 113.974 71.281 112.903 69.8161 111.159C69.5763 110.796 69.7709 110.459 70.2053 110.485C74.497 111.615 78.9437 115.98 81.8022 119.202C81.8735 119.468 81.4131 119.876 81.2446 119.779Z" fill="#1C6A38"/>
<path d="M29.5901 97.146C43.5592 109.928 61.8538 115.998 75.1679 129.526C81.5852 135.926 86.9844 143.312 92.6754 150.192C98.6063 157.436 105.095 164.102 111.849 170.698C112.018 170.795 111.823 171.132 111.655 171.035C96.784 160.203 87.542 142.736 74.7075 129.934C67.305 122.515 58.9749 117.481 49.9447 112.492C42.5999 108.476 34.2178 104.31 29.5901 97.146C29.4215 97.048 29.4215 97.048 29.5901 97.146Z" fill="#1C6A38"/>
<path d="M112.718 170.75C101.64 159.187 92.7671 145.752 82.1497 133.781C76.7698 127.53 70.6376 122.192 63.9477 117.431C57.7635 112.962 51.5533 108.927 46.2186 103.376C45.4019 102.455 46.6857 101.399 47.4312 102.054C59.5983 112.898 73.1533 120.949 83.9132 133.451C94.025 145.13 104.714 157.367 113.178 170.342C113.684 170.634 113.126 171.211 112.718 170.75Z" fill="#1C6A38"/>
<path d="M88.619 139.313C99.7758 143.733 109.032 152.222 118.075 159.914C129.186 169.474 140.011 177.971 154.04 182.476C154.209 182.573 154.183 183.007 154.014 182.91C142.027 180.707 131.752 173.203 122.541 165.413C111.502 156.119 101.065 146.949 88.3011 140.253C87.6982 140.13 88.0161 139.19 88.619 139.313Z" fill="#1C6A38"/>
<path d="M154.785 183.131C145.768 180.845 138.028 173.232 131.682 167.097C123.916 159.917 116.488 152.932 107.607 146.906C93.1186 136.969 75.7775 128.08 67.4236 111.8C67.1838 111.437 67.8127 111.126 68.0525 111.489C79.3045 127.421 95.1479 136.568 110.887 147.452C117.648 152.479 123.852 158.083 130.127 163.952C137.963 171.397 146.002 176.937 155.077 182.626C155.246 182.723 155.122 183.326 154.785 183.131Z" fill="#1C6A38"/>
<path d="M51.9741 112.091C63.3312 120.445 70.9533 132.933 78.6273 144.553C88.2652 159.777 98.2276 172.494 113.416 182.386C113.585 182.483 113.39 182.82 113.222 182.723C99.4392 177.012 89.626 163.259 81.7122 151.276C72.5992 137.478 64.0892 123.803 51.6823 112.596C51.3452 112.402 51.8056 111.993 51.9741 112.091Z" fill="#1C6A38"/>
<path d="M113.079 182.191C112.224 179.002 108.373 176.329 106.163 173.93C103.855 171.699 101.645 169.3 99.603 166.997C95.5194 162.393 91.7016 157.718 88.1496 152.971C81.5253 144.204 75.7245 134.789 69.3921 125.517C69.2235 125.42 69.5866 125.18 69.7552 125.277C73.9361 129.713 76.9304 135.036 80.2878 140.12C84.3646 146.293 88.8046 152.226 93.6076 157.92C98.0023 163.153 102.494 168.217 107.084 173.114C109.631 175.708 113.747 178.309 113.079 182.191C113.247 182.289 113.247 182.289 113.079 182.191Z" fill="#1C6A38"/>
<path d="M12.9492 88.212C20.3449 97.199 26.8527 105.001 36.9395 111.273C44.4268 115.821 51.1687 119.713 56.3021 127.17C56.5419 127.533 55.8157 128.013 55.5759 127.65C49.6518 118.838 39.3637 114.47 30.6512 108.542C23.2159 103.126 17.4536 95.98 12.9492 88.212C12.7806 88.114 12.6834 88.283 12.9492 88.212Z" fill="#1C6A38"/>
<path d="M58.2072 133.213C61.1688 140.539 62.3668 148.195 66.0545 155.042C69.9108 161.986 75.0057 167.174 80.6062 172.654C80.7748 172.751 80.5802 173.088 80.4117 172.991C66.0399 164.019 62.0037 148.434 57.6756 133.355C57.4358 132.992 57.9674 132.849 58.2072 133.213Z" fill="#1C6A38"/>
<path d="M80.9692 172.414C76.9896 166.073 72.1865 160.379 68.6674 153.63C65.4593 147.509 63.1459 141.006 60.5667 134.575C60.2557 133.946 61.319 133.661 61.63 134.29C64.423 141.519 67.1187 148.917 71.0723 155.692C74.3064 161.379 79.1615 166.204 81.235 172.343C81.3063 172.609 81.0404 172.68 80.9692 172.414Z" fill="#1C6A38"/>
<path d="M61.5723 130.887C58.4287 126.601 55.9141 122.004 52.1415 118.028C48.9459 114.611 45.1926 111.77 41.5366 108.761C41.1283 108.3 41.7832 107.555 42.2889 107.847C50.1845 112.855 58.7149 121.824 61.9354 130.647C62.0067 130.913 61.6436 131.153 61.5723 130.887Z" fill="#1C6A38"/>
<path d="M85.1731 121.149C95.5268 121.51 105.297 122.882 115.631 122.109C120.533 121.794 125.531 121.31 130.361 120.729C136.06 120.2 143.879 120.67 147.426 115.304C147.913 114.462 149.092 115.143 148.606 115.986C145.169 123.886 129.92 122.271 122.918 122.722C110.918 123.656 96.4985 125.665 84.9785 121.486C84.9785 121.486 84.9073 121.22 85.1731 121.149Z" fill="#1C6A38"/>
<path d="M148.438 115.888C136.508 117.088 124.631 117.42 112.799 118.452C101.764 119.27 91.0474 119.148 80.1688 117.361C79.1315 117.211 79.4041 115.571 80.6099 115.818C102.918 120.385 126.109 116.027 148.49 115.02C149.021 114.877 149.138 115.843 148.438 115.888Z" fill="#1C6A38"/>
<path d="M18.2159 75.976C29.2765 74.723 39.1969 69.218 50.1862 67.7C55.548 66.976 61.0263 67.219 66.2908 66.664C73.4161 65.61 79.1737 62.644 85.5603 59.367C86.0919 59.225 86.6688 59.782 86.2085 60.191C77.2406 68.717 64.9549 68.588 53.5119 68.946C46.6072 69.228 40.6618 70.963 34.3272 73.371C29.2505 75.158 23.908 77.016 18.4557 76.339C18.0213 76.313 17.9501 76.047 18.2159 75.976Z" fill="#1C6A38"/>
<path d="M85.7999 59.73C79.9585 59.727 74.3694 62.791 68.5473 63.923C63.6199 64.672 58.7185 64.988 53.6486 65.206C42.1083 65.732 30.9312 66.019 19.883 69.974C19.3514 70.116 19.1375 69.319 19.5007 69.079C29.369 64.443 40.4489 64.325 51.0231 63.915C57.2276 63.678 63.6979 63.369 69.7859 62.167C75.0764 61.177 80.1079 58.69 85.7547 59.03C86.0918 59.225 86.2343 59.756 85.7999 59.73Z" fill="#1C6A38"/>
<path d="M19.3514 70.116C17.6784 71.846 15.0914 72.824 12.7963 73.296C10.6696 73.866 7.94011 74.312 5.98882 73.41C5.82027 73.312 5.84628 72.878 6.11211 72.807C8.23872 72.237 10.7477 72.563 12.8743 71.993C15.0009 71.424 16.985 70.323 19.0403 69.488C19.4747 69.514 19.4487 69.948 19.3514 70.116Z" fill="#1C6A38"/>
<path d="M10.7971 49.901C12.5346 50.006 14.1748 50.279 15.815 50.552C17.7211 50.753 19.6271 50.955 21.5071 51.591C21.6757 51.689 21.7469 51.954 21.4811 52.026C19.9122 52.018 18.1034 51.648 16.4632 51.375C14.6545 51.005 12.7484 50.803 10.8684 50.167C10.6998 50.07 10.5313 49.972 10.7971 49.901Z" fill="#1C6A38"/>
<path d="M57.2423 54.7C63.7387 53.957 69.8267 52.755 75.8241 50.151C81.3612 47.957 85.939 44.309 90.9965 41.388C91.2623 41.317 91.5021 41.68 91.4049 41.849C83.403 50.259 68.6593 54.776 57.3136 54.966C56.782 55.108 56.808 54.674 57.2423 54.7Z" fill="#1C6A38"/>
<path d="M90.2962 41.433C85.2523 41.217 80.7265 43.996 76.0842 45.808C71.2733 47.524 66.3912 48.974 61.3665 49.892C53.1779 51.23 44.1013 51.381 36.536 48.137C36.1989 47.942 36.4907 47.437 36.8278 47.631C48.0435 49.614 58.034 50.215 69.0302 47.128C73.815 45.846 78.3861 43.768 83.0284 41.955C85.5441 40.711 87.768 39.973 90.2962 41.433C90.2962 41.433 90.3935 41.265 90.2962 41.433Z" fill="#1C6A38"/>
<path d="M34.941 48.564C29.2229 47.958 23.2649 46.99 17.6441 46.216C11.2518 45.221 4.27584 45.237 -1.70133 43.134C-1.86987 43.037 -1.7726 42.869 -1.60405 42.966C4.16608 42.703 10.098 44.106 15.7188 44.88C22.2084 45.706 28.698 46.532 35.1615 47.793C35.4986 47.987 35.3753 48.59 34.941 48.564Z" fill="#1C6A38"/>
<path d="M98.9545 132.7C101.775 133.654 104.329 134.679 107.246 135.465C109.729 136.225 112.433 136.213 114.721 137.309C115.058 137.504 114.935 138.107 114.669 138.178C109.787 139.628 102.487 136.312 98.6627 133.205C98.5914 132.939 98.786 132.602 98.9545 132.7Z" fill="#1C6A38"/>
<path d="M115.784 137.025C112.938 136.505 110.021 135.719 107.272 135.031C105.126 134.466 102.883 134.069 101.055 132.565C100.718 132.37 101.01 131.864 101.444 131.891C103.81 131.684 106.099 132.781 108.316 133.611C110.967 134.468 113.522 135.494 116.076 136.519C116.342 136.448 116.218 137.051 115.784 137.025Z" fill="#1C6A38"/>
<path d="M110.87 134.637C106.747 133.604 101.924 132.617 98.3129 130.308C97.9759 130.113 98.0019 129.679 98.4362 129.705C102.683 130.135 107.259 132.328 111.259 133.963C111.596 134.158 111.207 134.832 110.87 134.637Z" fill="#1C6A38"/>
<path d="M111.564 136.161C107.051 135.802 100.633 135.242 97.1716 131.895C96.9318 131.532 97.0551 130.929 97.4894 130.955C99.9271 131.015 101.95 132.183 104.264 132.845C106.747 133.604 109.133 134.532 111.784 135.389C112.219 135.415 112.264 136.116 111.564 136.161Z" fill="#1C6A38"/>
<path d="M107.097 136.502C102.876 135.638 96.5099 134.209 93.7746 130.383C93.5348 130.02 93.9952 129.612 94.4296 129.638C96.6727 130.035 98.5007 131.539 100.621 132.539C102.909 133.635 105.197 134.732 107.583 135.66C107.823 136.023 107.531 136.528 107.097 136.502Z" fill="#1C6A38"/>
<path d="M105.593 132.489C118.988 133.033 131.972 138.957 145.068 141.576C158.767 144.317 171.176 143.843 184.448 139.15C184.714 139.079 184.953 139.442 184.759 139.779C174.547 145.79 161.489 145.44 150.177 143.626C142.747 142.482 135.369 140.469 128.258 138.385C120.712 136.275 113.042 134.768 105.496 132.657C105.496 132.657 105.425 132.392 105.593 132.489Z" fill="#1C6A38"/>
<path d="M183.845 139.027C170.969 141.477 156.492 140.083 143.759 137.225C135.753 135.523 127.896 132.784 119.889 131.082C111.28 129.257 102.689 128.566 93.8335 127.946C92.9647 127.894 92.8742 126.493 93.743 126.546C109.095 126.423 123.85 130.449 138.534 134.209C153.724 138.261 168.181 138.52 183.631 138.229C184.039 138.69 184.111 138.955 183.845 139.027Z" fill="#1C6A38"/>
<path d="M111.343 136.932C118.585 136.844 127.94 139.325 133.106 144.779C133.514 145.239 133.054 145.647 132.548 145.355C128.717 143.817 125.638 141.366 121.709 139.996C118.384 138.75 114.863 137.841 111.343 136.932C111.149 137.269 111.246 137.1 111.343 136.932Z" fill="#1C6A38"/>
<path d="M133.65 147.34C127.867 144.9 121.67 143.568 115.984 140.959C115.647 140.765 115.939 140.259 116.108 140.357C122.357 140.82 128.451 143.889 133.871 146.568C134.376 146.86 134.084 147.366 133.65 147.34Z" fill="#1C6A38"/>
<path d="M124.399 143.122C119.388 140.903 114.156 139.455 109.314 137.333C109.145 137.236 109.171 136.801 109.437 136.73C114.552 137.212 120.238 139.821 124.788 142.448C125.125 142.643 124.736 143.317 124.399 143.122Z" fill="#1C6A38"/>
<path d="M117.463 139.566C128.542 145.289 134.893 155.696 143.255 164.567C153.827 175.838 166.475 181.568 180.523 187.207C180.692 187.304 180.594 187.473 180.426 187.376C168.173 185.244 156.401 177.998 147.215 169.774C136.442 160.409 129.838 146.936 117.463 139.566C117.294 139.469 117.197 139.638 117.463 139.566Z" fill="#1C6A38"/>
<path d="M180.115 186.747C174.812 185.033 170.145 181.44 165.257 178.618C160.2 175.699 155.507 172.54 151.3 168.538C141.972 159.783 135.381 149.013 123.991 142.662C123.654 142.467 123.874 141.696 124.211 141.89C134.863 146.018 141.338 155.822 148.52 164.012C153.251 169.44 158.593 173.423 164.732 177.192C169.957 180.208 175.739 182.648 180.115 186.747C180.115 186.747 180.212 186.578 180.115 186.747Z" fill="#1C6A38"/>
<path d="M130.189 143.993C143.115 152.355 154.971 162.57 168.189 170.426C182.081 178.671 196.11 183.176 212.279 183.974C212.616 184.169 212.59 184.603 212.155 184.577C197.665 186.32 182.677 180.363 170.373 173.259C156.046 164.988 142.258 155.005 129.631 144.57C129.294 144.375 129.683 143.701 130.189 143.993Z" fill="#1C6A38"/>
<path d="M212.421 184.506C207.346 180.452 199.261 180.053 193.284 177.95C188.584 176.36 183.813 174.504 179.696 171.902C179.528 171.805 179.554 171.371 179.891 171.565C186.639 173.889 192.902 177.055 199.579 179.113C204.039 180.34 209.783 180.512 212.59 184.603C212.687 184.435 212.59 184.603 212.421 184.506Z" fill="#1C6A38"/>
<path d="M177.265 170.274C158.42 163.213 144.607 147.824 125.664 140.932C125.061 140.808 125.379 139.868 125.884 140.16C145.34 145.776 158.977 162.636 177.362 170.106C177.531 170.203 177.434 170.372 177.265 170.274Z" fill="#1C6A38"/>
<path d="M140.023 147.2C149.093 148.617 157.988 151.506 166.934 153.526C172.094 154.708 176.678 155.332 181.969 154.343C185.93 153.71 189.749 152.545 193.516 152.248C194.216 152.203 194.332 153.169 193.703 153.48C185.508 156.387 177.054 157.796 168.47 155.536C159.018 153.224 148.84 151.391 139.829 147.537C139.66 147.44 139.855 147.103 140.023 147.2Z" fill="#1C6A38"/>
<path d="M192.452 152.533C179.966 148.47 165.255 150.984 153.483 143.738C153.146 143.544 153.438 143.038 153.775 143.233C161.373 144.474 168.504 147.693 176.102 148.934C180.757 149.825 189.017 148.752 192.718 152.462C192.647 152.196 192.718 152.462 192.452 152.533Z" fill="#1C6A38"/>
<path d="M128.505 131.339C128.674 131.436 128.842 131.534 128.914 131.8C129.082 131.897 128.985 132.065 128.816 131.968C128.648 131.871 128.479 131.773 128.213 131.845C127.876 131.65 128.168 131.144 128.505 131.339Z" fill="#1C6A38"/>
<path d="M175.326 138.601C176.655 138.246 178.321 138.084 179.677 137.294C183.476 134.995 176.643 135.542 174.639 135.509C171.333 135.397 168 135.72 164.525 135.511C158.178 135.216 151.689 134.39 145.614 132.456C138.937 130.398 132.454 128.003 125.654 126.548C118.516 124.898 111.177 125.154 104.084 124.204C103.216 124.152 103.631 123.044 104.331 122.998C117.518 121.177 131.884 125.876 144.176 130.277C151.261 132.795 158.425 134.011 165.738 134.189C171.482 134.36 177.667 132.989 182.821 135.74C183.158 135.934 183.132 136.369 182.866 136.44C180.422 137.949 178.367 138.784 175.495 138.699C175.131 138.938 175.229 138.77 175.326 138.601Z" fill="#1C6A38"/>
<path d="M103.677 117.903C103.871 117.566 104.377 117.858 104.183 118.195C103.988 118.532 103.482 118.24 103.677 117.903Z" fill="#1C6A38"/>
<path d="M104.351 118.292C115.017 113.442 127.86 112.994 136.083 103.813C136.18 103.644 136.517 103.839 136.42 104.007C133.962 108.654 130.065 111.122 125.157 113.006C118.556 115.486 111.45 117.673 104.325 118.727C104.325 118.727 104.085 118.364 104.351 118.292Z" fill="#1C6A38"/>
<path d="M135.817 103.884C124.626 107.308 113.189 111.937 101.713 114.298C92.0981 116.161 80.4934 114.852 71.1905 111.503C70.082 111.088 70.5231 109.545 71.729 109.792C83.0159 112.04 94.037 114.359 105.37 111.467C115.472 108.762 125.43 105.526 135.461 102.555C136.187 102.076 136.614 103.671 135.817 103.884Z" fill="#1C6A38"/>
<path d="M75.7039 106.021C81.9344 105.35 88.2815 105.645 94.512 104.973C100.477 104.373 112.814 103.634 117.178 99.189C117.542 98.949 118.047 99.241 117.853 99.578C116.828 102.132 115.596 102.319 113.106 103.128C108.756 104.435 103.997 105.282 99.6012 105.89C91.9443 107.085 83.4186 108.229 75.5806 106.624C75.4121 106.527 75.5354 105.924 75.7039 106.021Z" fill="#1C6A38"/>
<path d="M117.47 98.683C105.261 103.092 89.4815 101.62 76.9367 99.994C69.8442 99.044 62.6092 97.563 55.7633 95.407C48.483 93.226 41.0794 91.647 33.7018 89.635C33.2675 89.608 33.3908 89.006 33.7539 88.766C40.4188 88.121 46.9728 90.782 53.2158 92.813C59.8932 94.871 66.4993 96.663 73.326 97.684C80.7555 98.829 88.3084 99.37 95.7188 99.38C102.961 99.293 110.112 97.805 117.354 97.718C117.859 98.009 117.833 98.444 117.47 98.683Z" fill="#1C6A38"/>
<path d="M7.0876 92.915C4.7347 89.984 1.85016 87.196 -0.139631 84.025C-0.210899 83.759 0.152202 83.519 0.223469 83.785C2.84219 86.645 4.83198 89.816 7.18487 92.747C7.35342 92.844 7.15886 93.181 7.0876 92.915Z" fill="#1C6A38"/>
<path d="M13.9268 96.639C9.73915 93.772 5.00061 89.913 2.58322 85.147C2.51196 84.881 2.77778 84.81 2.94633 84.908C4.94287 86.51 6.5503 88.786 8.35229 90.725C10.1543 92.664 12.0536 94.434 14.1214 96.302C14.2899 96.399 14.0954 96.736 13.9268 96.639Z" fill="#1C6A38"/>
<path d="M15.3531 96.115C11.7944 92.937 7.63271 89.635 4.89747 85.81C4.65766 85.447 5.2866 85.136 5.35787 85.402C9.08514 88.677 11.9889 92.6 15.3531 96.115C15.5216 96.212 15.5216 96.212 15.3531 96.115Z" fill="#1C6A38"/>
<path d="M14.0114 93.767C13.1234 92.581 12.0669 91.297 11.0816 90.279C10.0963 89.26 8.91649 88.579 8.19705 87.49C8.0285 87.393 8.29433 87.321 8.3916 87.153C10.9718 87.744 13.2014 91.278 14.3745 93.528C14.4458 93.794 14.1799 93.865 14.0114 93.767Z" fill="#1C6A38"/>
<path d="M15.1008 93.048C14.0442 91.764 12.7219 90.552 11.7626 89.099C11.6914 88.833 11.9572 88.762 12.1257 88.86C13.2795 89.975 14.2388 91.427 15.2953 92.711C15.6324 92.906 15.3406 93.412 15.1008 93.048Z" fill="#1C6A38"/>
<path d="M50.3318 123.499C46.0469 120.8 41.5934 118.004 37.6976 114.632C37.5291 114.534 37.7236 114.197 37.8922 114.295C42.2744 116.825 46.5333 119.958 50.5264 123.162C50.6949 123.259 50.5004 123.596 50.3318 123.499Z" fill="#1C6A38"/>
<path d="M53.2683 125.419C49.3725 122.046 44.8217 119.419 40.8286 116.215C40.6601 116.117 40.9519 115.612 41.1205 115.709C45.8918 117.565 50.2933 121.23 53.826 124.842C54.0658 125.205 53.6054 125.613 53.2683 125.419Z" fill="#1C6A38"/>
<path d="M51.8487 124.374C46.8896 121.286 41.7619 118.101 37.0946 114.508C36.9261 114.411 37.1206 114.074 37.2892 114.171C42.3456 117.09 47.2787 120.613 51.946 124.206C52.2118 124.135 52.0172 124.472 51.8487 124.374Z" fill="#1C6A38"/>
<path d="M44.6984 120.022C38.1251 116.226 31.0201 112.574 24.9332 107.936C24.7646 107.839 24.9592 107.502 25.1277 107.599C32.1615 110.986 38.4169 115.721 44.6984 120.022C44.8669 120.119 44.9642 119.95 44.6984 120.022Z" fill="#1C6A38"/>
<path d="M38.8252 116.181C29.8922 111.024 20.8427 104.901 14.2637 96.834C14.1924 96.568 14.2897 96.399 14.6268 96.594C22.7815 103.099 30.1128 110.253 38.8252 116.181C38.8252 116.181 38.9225 116.013 38.8252 116.181Z" fill="#1C6A38"/>
<path d="M98.4701 121.861C96.175 122.333 93.9058 122.371 91.5654 122.143C90.9625 122.02 84.9333 120.786 84.8361 120.954C84.9333 120.786 85.1019 120.883 85.0046 121.051L84.9073 121.22L84.81 121.388C84.2784 121.531 83.9413 121.336 83.9673 120.902L84.0646 120.733C85.2512 119.846 87.6108 121.208 88.9852 121.552C91.9998 122.17 95.1377 122.184 98.0358 121.835C98.4962 121.427 98.5674 121.693 98.4701 121.861Z" fill="#1C6A38"/>
<path d="M100.473 121.895C94.8006 121.989 89.0825 121.384 83.5849 120.007C83.4164 119.91 83.5136 119.741 83.6822 119.839C89.3551 119.744 95.0732 120.35 100.668 121.558C100.837 121.655 100.739 121.824 100.473 121.895Z" fill="#1C6A38"/>
<path d="M96.9532 120.986C92.7781 120.822 87.6369 120.774 83.7083 119.404C83.3712 119.21 83.3972 118.775 83.8315 118.802C88.2726 118.894 92.7328 120.122 97.1478 120.649C97.1478 120.649 97.1218 121.083 96.9532 120.986Z" fill="#1C6A38"/>
<path d="M97.5177 118.84C94.3798 118.826 91.0213 119.583 87.9354 118.7C87.7669 118.602 87.6243 118.071 88.0587 118.097C91.1514 117.411 94.6003 118.054 97.6409 118.237C97.978 118.432 97.952 118.866 97.5177 118.84Z" fill="#1C6A38"/>
<path d="M142.485 119.192C138.472 120.694 133.208 121.249 129.013 119.95C128.676 119.756 128.702 119.321 129.136 119.347C131.237 119.212 133.577 119.44 135.847 119.402C138.116 119.365 140.314 119.061 142.414 118.926L142.485 119.192Z" fill="#1C6A38"/>
<path d="M140.8 118.218C136.599 118.489 132.469 119.025 128.222 118.595C128.054 118.498 127.982 118.232 128.151 118.329C132.281 117.793 136.456 117.957 140.56 117.855C141.163 117.979 141.137 118.413 140.8 118.218Z" fill="#1C6A38"/>
<path d="M142.758 117.552C141.189 117.544 139.523 117.706 137.883 117.433C137.714 117.335 137.643 117.07 137.909 116.998C139.406 116.74 141.046 117.013 142.784 117.117C142.952 117.215 143.024 117.48 142.758 117.552Z" fill="#1C6A38"/>
<path d="M77.9277 105.283C72.6892 105.404 66.634 104.604 62.3038 101.205C62.1353 101.108 62.3299 100.771 62.4984 100.868C67.8014 102.582 72.3782 104.775 77.9277 105.283C78.0963 105.381 78.025 105.115 77.9277 105.283Z" fill="#1C6A38"/>
<path d="M77.5713 103.954C73.1303 103.862 67.9438 103.114 63.9439 101.478C63.7754 101.381 63.8727 101.213 63.8727 101.213C68.1451 101.208 73.4029 102.222 77.5 103.689C77.6685 103.786 77.5713 103.954 77.5713 103.954Z" fill="#1C6A38"/>
<path d="M75.672 102.184C71.7887 101.515 67.8081 101.014 64.1453 99.573C63.9768 99.476 63.9055 99.21 64.1713 99.139C68.0807 99.374 72.0093 100.743 75.6981 101.75C76.1324 101.776 75.9379 102.113 75.672 102.184Z" fill="#1C6A38"/>
<path d="M73.533 100.05C70.8815 99.193 68.2753 99.037 65.332 98.685C65.1634 98.588 65.0922 98.322 65.358 98.251C68.0163 97.539 71.1021 98.422 73.5591 99.616C73.8961 99.811 73.7016 100.148 73.533 100.05Z" fill="#1C6A38"/>
<path d="M63.2891 102.223C57.0913 100.892 50.1742 98.471 44.4888 95.862C44.3203 95.765 44.5148 95.428 44.6834 95.525C50.7839 97.025 57.5325 99.349 63.2891 102.223C63.2891 102.223 63.3864 102.055 63.2891 102.223Z" fill="#1C6A38"/>
<path d="M49.6633 54.593C44.762 54.908 39.2124 54.4 34.8302 51.87C34.6616 51.772 34.6876 51.338 35.0247 51.533C39.9194 52.786 44.4509 54.279 49.6633 54.593C49.8319 54.69 49.9292 54.521 49.6633 54.593Z" fill="#1C6A38"/>
<path d="M50.0265 54.353C45.6115 53.826 40.6909 53.007 36.691 51.372C36.5225 51.274 36.4512 51.008 36.717 50.937C41.0608 51.199 45.8581 52.62 50.0525 53.919C50.2211 54.016 50.1951 54.45 50.0265 54.353Z" fill="#1C6A38"/>
<path d="M48.2957 52.68C44.7234 52.639 40.3085 52.112 37.2746 50.361C37.1061 50.263 37.1321 49.829 37.3006 49.926C39.0381 50.031 40.6523 50.738 42.4611 51.108C44.4384 51.576 46.4157 52.044 48.3217 52.246C48.4903 52.343 48.393 52.511 48.2957 52.68Z" fill="#1C6A38"/>
<path d="M47.9915 50.482C44.7563 50.636 40.6524 50.738 37.5925 49.421C37.424 49.323 37.6186 48.986 37.6186 48.986C39.1875 48.994 40.6592 49.169 42.0336 49.513C43.9396 49.715 45.8456 49.917 47.7517 50.119C48.3546 50.242 48.2573 50.411 47.9915 50.482Z" fill="#1C6A38"/>
<path d="M85.284 45.054C83.0794 46.927 80.635 48.436 77.7821 49.485C75.2924 50.294 71.908 51.485 69.3277 50.894C69.1592 50.797 69.2565 50.628 69.2565 50.628C71.8435 49.65 74.547 49.639 77.2052 48.927C79.9608 48.047 82.5738 46.635 85.1155 44.957C85.2128 44.788 85.3813 44.886 85.284 45.054Z" fill="#1C6A38"/>
<path d="M83.5464 44.95C80.2785 47.107 75.6362 48.92 71.461 48.756C71.461 48.756 71.2925 48.658 71.3897 48.49C73.1793 47.726 75.2086 47.325 76.9981 46.561C78.9561 45.894 81.1088 44.89 83.0668 44.224C83.6697 44.347 83.9095 44.71 83.5464 44.95Z" fill="#1C6A38"/>
<path d="M80.6292 44.164C77.7504 45.647 74.703 47.033 71.4418 47.621C71.176 47.693 70.9362 47.329 71.2993 47.09C74.0096 45.509 77.4653 44.584 80.3894 43.801C80.8238 43.827 80.895 44.093 80.6292 44.164Z" fill="#1C6A38"/>
<path d="M94.1878 140.956C90.9594 139.541 87.3487 137.232 84.7039 134.806C84.5354 134.709 84.73 134.372 84.8985 134.469C88.1269 135.884 91.7376 138.193 94.4797 140.45C94.7195 140.814 94.3564 141.053 94.1878 140.956Z" fill="#1C6A38"/>
<path d="M93.9152 142.596C91.2445 140.604 88.4052 138.516 86.0263 136.019C85.8578 135.922 86.0523 135.585 86.2209 135.682C88.8916 137.673 91.6336 139.93 94.1098 142.259C94.1811 142.525 93.9865 142.861 93.9152 142.596Z" fill="#1C6A38"/>
<path d="M105.792 148.105C101.746 145.769 97.6301 143.168 93.8768 140.327C93.7082 140.23 93.8055 140.061 93.974 140.158C98.1164 142.325 102.038 145.264 105.889 147.936C106.057 148.033 105.96 148.202 105.792 148.105Z" fill="#1C6A38"/>
<path d="M102.33 144.758C96.794 141.113 90.6031 138.212 85.2616 134.23C85.0931 134.133 85.1903 133.964 85.4562 133.893C91.6019 136.093 97.0859 140.607 102.33 144.758C102.33 144.758 102.427 144.59 102.33 144.758Z" fill="#1C6A38"/>
<path d="M88.49 135.644C85.8193 133.653 82.8827 131.733 80.5038 129.236C80.3353 129.139 80.5298 128.802 80.6984 128.899C83.5637 130.554 86.0138 133.316 88.49 135.644C88.49 135.644 88.5873 135.476 88.49 135.644Z" fill="#1C6A38"/>
<path d="M143.616 176.008C139.811 174.036 135.934 171.798 132.324 169.489C132.155 169.391 132.252 169.223 132.421 169.32C136.226 171.292 140.103 173.531 143.714 175.84C143.882 175.937 143.785 176.106 143.616 176.008Z" fill="#1C6A38"/>
<path d="M141.01 175.852C133.808 172.367 127.215 167.438 121.809 161.621C121.641 161.524 121.907 161.452 121.907 161.452C128.233 166.453 134.489 171.188 141.107 175.683C141.373 175.612 141.179 175.949 141.01 175.852Z" fill="#1C6A38"/>
<path d="M135.312 170.54C130.664 168.081 125.802 164.825 122.464 160.876C122.295 160.778 122.49 160.441 122.659 160.539C127.015 163.503 131.248 167.07 135.312 170.54C135.312 170.54 135.409 170.372 135.312 170.54Z" fill="#1C6A38"/>
<path d="M185.316 178.517C181.148 176.784 176.616 175.291 172.837 172.885C172.668 172.787 172.863 172.45 173.031 172.548C177.492 173.775 181.439 176.279 185.316 178.517C185.485 178.614 185.413 178.348 185.316 178.517Z" fill="#1C6A38"/>
<path d="M184.577 176.293C181.252 175.047 177.66 173.872 174.626 172.12C174.458 172.023 174.555 171.855 174.724 171.952C178.146 173.029 181.543 174.541 184.675 176.124C184.843 176.222 184.746 176.39 184.577 176.293Z" fill="#1C6A38"/>
<path d="M173.031 172.547C165.518 168.434 157.233 164.1 151.321 157.991C151.153 157.894 151.445 157.389 151.613 157.486C159.198 161.865 165.907 167.76 173.031 172.547C173.031 172.547 173.129 172.379 173.031 172.547Z" fill="#1C6A38"/>
<path d="M159.874 150.573C152.231 148.632 144.535 147.559 136.697 145.954C136.263 145.928 136.386 145.325 136.821 145.351C144.639 145.821 152.451 147.86 159.874 150.573C159.874 150.573 159.972 150.405 159.874 150.573Z" fill="#1C6A38"/>
<path d="M157.132 148.316C154.384 147.628 151.635 146.939 148.886 146.251C146.04 145.731 143.168 145.646 140.614 144.62C140.277 144.426 140.303 143.991 140.737 144.017C146.099 143.294 152.316 145.76 157.158 147.882C157.23 148.148 157.132 148.316 157.132 148.316Z" fill="#1C6A38"/>
<path d="M154.922 145.917C149.522 144.372 144.115 144.395 138.688 143.284C138.52 143.187 138.448 142.921 138.714 142.85C144.173 141.958 150.079 143.795 155.019 145.748C155.285 145.677 155.188 145.846 154.922 145.917Z" fill="#1C6A38"/>
</g>
<defs>
<clipPath id="clip0_327_1073">
<rect width="219" height="196" fill="white"/>
</clipPath>
</defs>
</svg>
