<svg width="265" height="198" viewBox="0 0 265 198" fill="none" xmlns="http://www.w3.org/2000/svg">
<g clip-path="url(#clip0_327_912)">
<path d="M356.208 1.3307C336.151 12.9107 320.828 30.7438 304.338 46.555C296.092 54.461 287.218 62.055 277.274 67.797C267.258 73.804 256.892 76.868 245.703 79.285C245.1 79.408 245.249 80.445 245.852 80.322C266.417 80.131 285.786 65.803 300.429 52.631C319.208 35.723 334.907 15.4264 356.403 1.6677C356.74 1.4731 356.545 1.1361 356.208 1.3307Z" fill="#1C6A38"/>
<path d="M245.339 79.045C255.368 76.175 264.995 69.494 273.733 63.999C283.049 57.947 292.072 51.39 300.609 43.99C309.146 36.589 317.294 28.5153 325.831 21.1152C335.283 12.9627 345.201 6.7871 356.377 1.2332C356.714 1.0386 356.591 0.435794 356.156 0.461994C335.664 6.22759 319.666 24.4499 304.544 38.348C295.527 46.475 286.05 54.193 275.989 60.9C271.296 64.059 266.336 67.147 261.449 69.969C256.224 72.985 250.344 75.257 245.411 78.779C244.976 78.805 245.171 79.142 245.339 79.045Z" fill="#1C6A38"/>
<path d="M314.014 29.0614C308.497 31.5726 303.635 34.8289 297.924 37.003C292.213 39.177 286.183 40.412 280.297 41.114C269.898 42.176 259.252 42.032 248.801 42.224C237.916 42.443 227.031 42.662 216.048 42.713C205.331 42.834 193.862 42.042 183.25 43.901C182.815 43.927 182.938 44.53 183.373 44.504C195.497 46.041 208.573 44.557 220.762 44.26C232.418 43.82 244.173 43.549 255.758 43.375C266.209 43.182 276.686 43.424 286.936 41.325C296.077 39.642 307.454 35.994 314.377 29.3011C314.28 29.1326 314.182 28.9641 314.014 29.0614Z" fill="#1C6A38"/>
<path d="M183.496 45.107C206.776 36.384 230.92 37.721 255.252 37.827C278.28 38.01 302.002 36.671 321.689 23.2823C322.701 22.6984 321.728 21.0135 320.717 21.5974C279.32 49.542 226.859 25.2383 183.107 44.433C182.77 44.627 183.159 45.301 183.496 45.107Z" fill="#1C6A38"/>
<path d="M338.336 10.0769C319.451 13.5665 300.663 17.2247 281.752 20.28C265.953 22.8867 251.813 24.0859 236.415 18.823C236.149 18.7518 235.909 19.1149 236.104 19.4519C247.989 27.1926 264.417 24.8969 277.538 22.7128C297.824 19.3133 318.252 15.3821 338.459 10.6797C338.894 10.6536 338.77 10.0508 338.336 10.0769Z" fill="#1C6A38"/>
<path d="M238.035 19.6843C270.587 17.2903 302.898 9.419 335.808 11.5364C336.942 11.5553 337.007 9.72089 335.872 9.70189C320.202 8.63959 304.688 10.183 289.2 12.1608C272.24 14.3142 254.988 15.9621 237.983 18.8157C237.478 19.1076 237.601 19.7104 238.035 19.6843Z" fill="#1C6A38"/>
<path d="M305.004 38.757C288.318 48.39 270.801 55.808 252.63 62.48C235.23 68.931 219.01 74.701 199.988 74.451C199.288 74.405 199.438 75.443 199.872 75.416C218.537 76.996 235.645 70.039 252.779 63.517C270.854 56.676 288.733 49.499 305.127 39.359C305.73 39.236 305.341 38.562 305.004 38.757Z" fill="#1C6A38"/>
<path d="M198.731 73.829C217.518 70.171 235.813 64.101 253.939 58.129C271.462 52.281 288.888 46.264 305.899 39.139C306.67 38.918 306.061 37.473 305.386 37.862C287.818 44.411 270.347 51.128 252.389 57.002C234.6 62.78 216.396 67.449 198.439 73.323C198.27 73.421 198.465 73.758 198.731 73.829Z" fill="#1C6A38"/>
<path d="M244.4 79.363C245.003 79.24 245.871 79.187 246.474 79.064C247.077 78.94 247.68 78.817 248.089 78.357C248.257 78.259 248.16 78.091 248.062 77.922C247.531 77.78 246.928 77.903 246.325 78.027C245.554 78.248 244.782 78.468 244.179 78.592C243.939 78.955 243.965 79.389 244.4 79.363Z" fill="#1C6A38"/>
<path d="M244.523 79.966C245.321 80.179 246.287 80.295 247.058 80.075C247.661 79.951 248.601 79.633 248.549 78.765C248.452 78.596 248.354 78.428 248.354 78.428C247.823 78.285 247.246 78.843 246.643 78.966C245.871 79.187 245.268 79.311 244.568 79.266C244.037 79.123 243.991 79.823 244.523 79.966Z" fill="#1C6A38"/>
<path d="M269.468 65.564C260.256 67.513 251.316 71.101 242.395 73.556C233.475 76.01 223.705 77.382 214.908 80.44C214.571 80.634 214.597 81.069 215.031 81.042C224.224 80.228 233.722 77.216 242.545 74.593C251.634 72.041 261.086 69.729 269.468 65.564C269.468 65.564 269.565 65.732 269.468 65.564Z" fill="#1C6A38"/>
<path d="M215.413 80.148C221.488 78.213 227.342 75.508 233.513 73.742C239.685 71.976 245.954 70.378 252.126 68.612C262.829 65.353 274.952 61.05 282.276 52.328C282.685 51.867 282.198 51.025 281.524 51.414C270.939 59.548 260.437 64.712 247.588 68.536C237.293 71.335 224.339 73.422 215.413 80.148Z" fill="#1C6A38"/>
<path d="M250.187 66.811C253.202 66.194 255.924 65.071 258.744 64.117C260.962 63.286 263.276 62.624 264.838 61.048C265.175 60.853 264.883 60.348 264.546 60.542C261.843 60.531 259.483 61.893 257.097 62.821C254.543 63.846 252.158 64.774 249.798 66.137C249.461 66.331 249.584 66.934 250.187 66.811Z" fill="#1C6A38"/>
<path d="M252.287 66.946C255.976 65.939 259.276 64.259 262.841 62.65C266.141 60.969 269.901 59.697 272.714 57.174C273.123 56.714 272.662 56.306 272.228 56.332C268.61 57.072 265.168 59.284 261.869 60.965C258.569 62.645 255.003 64.254 252.093 66.609C251.924 66.706 252.119 67.043 252.287 66.946Z" fill="#1C6A38"/>
<path d="M263.755 61.897C266.115 60.535 268.572 59.341 271.197 58.05C273.317 57.051 275.969 56.194 277.434 54.45C277.673 54.086 277.479 53.749 277.213 53.678C274.944 53.64 272.947 55.242 270.925 56.41C268.397 57.87 265.894 59.764 263.561 61.56C263.392 61.658 263.587 61.995 263.755 61.897Z" fill="#1C6A38"/>
<path d="M244.119 70.314C247.277 69.165 251.108 67.627 253.876 65.804C254.213 65.61 254.09 65.007 253.655 65.033C250.206 65.676 246.667 67.72 243.925 69.977C243.588 70.172 243.782 70.509 244.119 70.314Z" fill="#1C6A38"/>
<path d="M242.959 69.861C244.67 69.322 246.647 68.854 248.067 67.81C248.404 67.615 248.21 67.278 247.775 67.304C246.135 67.577 244.281 68.648 242.667 69.355C242.498 69.453 242.693 69.79 242.959 69.861Z" fill="#1C6A38"/>
<path d="M237.74 74.446C229.482 79.214 221.904 85.162 213.742 90.099C206.086 94.743 198.307 98.785 190.068 102.419C171.974 110.394 153.213 114.486 133.789 116.265C133.355 116.291 133.309 116.991 133.744 116.965C152.526 117.579 170.944 112.112 187.929 104.553C197.108 100.601 205.73 96.072 214.229 90.941C222.222 86.102 230.986 81.041 237.935 74.783C238.103 74.686 237.909 74.349 237.74 74.446Z" fill="#1C6A38"/>
<path d="M134.366 115.707C142.088 115.069 149.945 112.33 157.394 110.051C165.614 107.551 173.808 104.618 181.905 101.515C197.328 95.532 212.504 88.343 226.539 79.566C227.044 79.274 226.655 78.6 226.149 78.892C210.831 86.613 195.512 94.333 179.416 100.706C171.753 103.782 163.896 106.522 156.013 108.826C148.732 111.008 141.329 112.586 134.438 115.442C134.1 115.636 134.1 115.636 134.366 115.707Z" fill="#1C6A38"/>
<path d="M247.495 58.256C232.007 60.233 216.622 58.108 201.38 61.291C185.438 64.429 171.358 68.066 155.524 62.829C155.161 62.589 154.85 63.218 155.213 63.458C167.507 70.738 183.565 66.634 196.466 63.679C205.581 61.561 214.411 60.507 223.922 60.632C231.864 60.765 239.949 60.366 247.787 58.761C248.053 58.832 247.929 58.229 247.495 58.256Z" fill="#1C6A38"/>
<path d="M154.675 61.747C171.026 63.989 186.339 60.54 202.333 58.27C220.135 55.63 238.502 55.135 256.344 56.067C257.044 56.112 257.063 54.978 256.363 54.933C239.319 54.214 222.397 54.099 205.438 56.253C197.645 57.157 190.17 59.002 182.403 60.34C173.068 61.687 163.965 61.101 154.675 61.747C154.675 61.747 154.578 61.578 154.675 61.747Z" fill="#1C6A38"/>
<path d="M273.666 48.313C261.555 49.913 248.809 49.634 236.595 49.497C224.549 49.262 212.548 48.328 200.664 46.428C200.398 46.357 200.256 46.888 200.522 46.959C212.458 49.728 224.361 50.494 236.673 50.8C248.985 51.105 261.731 51.384 274.01 49.687C274.587 49.129 274.437 48.092 273.666 48.313Z" fill="#1C6A38"/>
<path d="M199.043 45.566C198.317 45.087 197.662 44.342 196.865 44.128C196.767 43.96 196.696 44.226 196.696 44.226C197.52 44.873 198.414 45.255 199.043 45.566C199.141 45.735 199.141 45.735 199.043 45.566Z" fill="#1C6A38"/>
<path d="M219.374 80.781C202.915 86.914 186.799 94.422 171.266 102.94C170.592 103.329 171.273 104.509 171.947 104.119C187.408 95.867 203.356 88.457 219.4 81.215C219.738 81.021 219.543 80.684 219.374 80.781Z" fill="#1C6A38"/>
<path d="M176.764 101.563C181.438 99.538 185.82 97.008 190.494 94.984C195.168 92.959 200.063 91.706 204.445 89.176C204.951 88.884 204.562 88.21 204.127 88.236C199.544 88.86 194.896 91.319 190.922 93.389C186.008 95.777 180.997 97.996 176.738 101.129C175.966 101.35 176.258 101.855 176.764 101.563Z" fill="#1C6A38"/>
<path d="M184.738 97.858C188.161 96.78 191.558 95.269 194.786 93.854C198.52 92.147 202.714 90.849 205.962 88.3C206.539 87.742 206.318 86.971 205.45 87.023C198.454 88.141 190.027 93.007 184.614 97.255C184.374 97.618 184.472 97.787 184.738 97.858Z" fill="#1C6A38"/>
<path d="M188.063 96.612C196.115 94.21 207.784 91.067 213.696 84.958C214.104 84.498 213.644 84.09 213.209 84.116C208.892 84.811 204.944 87.315 201.041 89.119C196.464 91.312 192.056 93.408 187.577 95.77C187.337 96.133 187.558 96.904 188.063 96.612Z" fill="#1C6A38"/>
<path d="M198.714 92.485C202.74 91.283 206.377 89.408 210.208 87.87C213.942 86.164 217.968 84.963 221.119 82.245C221.456 82.051 221.235 81.279 220.801 81.306C217.157 81.612 213.955 83.461 210.726 84.875C206.487 86.874 202.247 88.872 198.494 91.713C197.988 92.005 198.209 92.776 198.714 92.485Z" fill="#1C6A38"/>
<path d="M183.344 99.337C185.419 99.038 187.467 98.304 189.516 97.571C191.564 96.837 193.71 96.272 195.37 94.865C195.875 94.573 195.823 93.705 195.123 93.659C192.951 93.79 191 94.692 188.951 95.425C186.903 96.159 184.854 96.892 183.097 98.131C182.689 98.592 182.741 99.46 183.344 99.337Z" fill="#1C6A38"/>
<path d="M194.435 90.911C187.278 93.695 181.009 95.293 173.431 95.4C166.72 95.455 159.913 95.342 153.158 96.097C145.631 97.072 138.156 98.917 130.629 99.893C122.836 100.797 116.217 99.452 108.774 97.459C108.242 97.316 108.099 97.848 108.56 98.256C121.314 105.945 138.953 99.13 152.27 97.283C165.417 95.533 183.467 99.94 194.435 90.911C194.701 90.982 194.701 90.982 194.435 90.911Z" fill="#1C6A38"/>
<path d="M108.481 96.953C127.886 96.309 147.639 92.767 167.037 90.554C184.36 88.641 201.346 86.921 217.293 79.511C217.967 79.122 217.384 78.111 216.612 78.332C199.264 85.652 179.815 86.996 161.383 89.325C143.723 91.434 125.746 92.602 108.429 96.085C108.092 96.279 108.047 96.979 108.481 96.953Z" fill="#1C6A38"/>
<path d="M169.228 89.289C149.083 80.476 125.343 88.791 106.63 76.231C106.267 75.991 105.859 76.451 106.222 76.691C112.479 83.637 122.405 84.871 131.242 85.385C137.012 85.648 142.756 85.477 148.455 86.006C155.386 86.722 162.2 88.404 168.988 89.652C169.254 89.724 169.494 89.36 169.228 89.289Z" fill="#1C6A38"/>
<path d="M106.488 76.762C126.924 80.24 148.001 81.326 168.527 83.404C185.455 85.088 203.634 85.825 218.875 76.801C219.381 76.509 218.991 75.835 218.388 75.959C202.085 84.698 183.322 82.95 165.525 81.318C146.062 79.525 126.184 76.624 106.702 75.965C106.267 75.991 106.222 76.691 106.488 76.762Z" fill="#1C6A38"/>
<path d="M216.729 77.366C217.935 77.119 219.114 76.438 220.294 75.757C221.306 75.173 222.414 74.758 223.134 73.669C223.205 73.403 223.108 73.234 222.842 73.163C221.707 73.144 220.625 73.994 219.613 74.578C218.433 75.259 217.254 75.94 216.437 76.861C216.197 77.224 216.392 77.561 216.729 77.366Z" fill="#1C6A38"/>
<path d="M245.021 72.265C231.661 86.493 217.77 100.578 202.64 112.908C186.26 126.185 168.971 135.942 148.991 142.984C148.822 143.081 148.848 143.516 149.017 143.418C188.342 133.295 219.054 101.634 245.578 72.841C245.818 72.478 245.26 71.901 245.021 72.265Z" fill="#1C6A38"/>
<path d="M149.159 142.887C154.948 136.175 165.003 133.74 172.516 129.627C180.367 125.319 187.925 120.506 195.192 115.187C208.377 105.328 220.953 94.024 230.694 80.536C230.934 80.173 230.474 79.765 229.968 80.057C217.452 93.798 204.449 106.697 189.144 117.556C182.117 122.511 174.798 126.961 167.187 130.906C161.022 134.241 153.139 136.546 148.965 142.55C148.725 142.913 149.088 143.153 149.159 142.887Z" fill="#1C6A38"/>
<path d="M257.937 78.287C237.9 94.573 223.971 116.768 214.225 140.368C214.225 140.368 214.322 140.536 214.225 140.368C224.308 116.573 240.396 96.951 258.397 78.695C258.637 78.332 258.176 77.924 257.937 78.287Z" fill="#1C6A38"/>
<path d="M214.685 140.776C218.29 142.738 220.273 137.999 221.589 135.217C225.704 126.776 230.546 118.813 236.742 111.641C246.588 99.891 259.436 90.227 265.723 75.814C266.105 74.919 264.75 74.129 264.367 75.024C258.048 87.433 247.949 96.409 238.797 106.636C234.784 110.974 231.232 115.721 228.044 120.707C226.125 123.612 224.304 126.686 222.748 129.83C220.927 132.904 218.834 140.178 214.685 140.776C214.588 140.607 214.588 140.607 214.685 140.776Z" fill="#1C6A38"/>
<path d="M216.468 139.971C215.333 139.952 214.724 138.507 215.009 137.444C215.294 136.381 216.376 135.531 216.564 134.299C216.635 134.033 216.441 133.696 216.104 133.891C214.392 134.43 213.051 136.777 213.323 138.417C213.499 139.888 214.906 141.547 216.52 140.84C216.954 140.814 217 140.114 216.468 139.971Z" fill="#1C6A38"/>
<path d="M214.691 136.504C217.238 133.91 218.865 130.5 220.686 127.426C222.747 123.99 224.977 120.456 226.578 116.611C226.649 116.346 226.383 116.274 226.214 116.372C223.693 119.4 221.801 122.739 219.908 126.078C218.015 129.418 215.591 132.614 214.496 136.167C214.425 136.433 214.522 136.601 214.691 136.504Z" fill="#1C6A38"/>
<path d="M237.987 36.337C228.106 34.4034 219.386 32.923 210.457 27.9682C202.521 23.564 195.686 17.1757 187.99 12.4084C187.53 12.0002 186.881 12.8237 187.342 13.2319C199.993 25.0237 219.866 38.037 237.844 36.869C238.013 36.771 238.252 36.408 237.987 36.337Z" fill="#1C6A38"/>
<path d="M187.192 12.1949C197.021 13.2599 204.9 21.0673 213.75 24.7192C222.432 28.4684 231.852 29.9938 241.318 30.8192C251.386 31.5211 261.306 31.186 271.394 30.7535C283.05 30.3138 295.751 31.2932 307.304 29.1164C307.907 28.9929 307.686 28.2217 307.155 28.0793C295.297 26.6133 282.246 28.5316 270.324 28.9001C260.404 29.2352 250.316 29.6677 240.416 28.8685C229.648 28.1215 219.067 26.1428 209.509 20.8772C202.131 17.0496 195.951 11.4065 187.38 10.9632C186.609 11.1839 186.661 12.0525 187.192 12.1949Z" fill="#1C6A38"/>
<path d="M250.987 78.705C237.51 88.059 227.483 102.609 216.989 115.183C204.621 129.962 191.372 141.655 173.323 148.93C172.986 149.125 173.012 149.559 173.447 149.533C189.965 145.837 203.545 132.38 214.403 120.046C220.528 113.14 226.193 105.825 231.955 98.679C237.984 91.604 244.498 85.372 251.181 79.042C251.518 78.848 251.155 78.608 250.987 78.705Z" fill="#1C6A38"/>
<path d="M174.529 148.683C176.882 145.752 181.751 144.064 185.024 141.95C188.298 139.835 191.209 137.481 194.022 134.958C200.971 128.699 206.83 121.722 212.859 114.647C224.578 100.692 235.35 85.486 249.832 73.98C250.169 73.785 249.611 73.209 249.54 73.475C234.598 84.573 223.534 99.273 212.106 113.733C206.344 120.879 200.316 127.954 193.27 134.044C189.542 137.319 185.621 140.258 181.336 142.956C178.736 144.682 174.347 145.643 173.129 148.593C173.058 148.859 173.155 149.027 173.252 149.196C173.907 149.941 173.81 149.772 174.607 149.986C174.607 149.986 174.776 149.889 174.944 149.791C175.016 149.526 175.184 149.428 175.087 149.26C175.061 148.825 174.601 148.417 174.529 148.683Z" fill="#1C6A38"/>
<path d="M224.27 118.842C209.004 133.272 201.637 154.375 192.349 172.542C192.11 172.906 192.473 173.145 192.81 172.951C196.2 169.87 197.943 165.494 199.784 161.286C201.838 156.281 204.158 151.347 206.575 146.581C211.65 136.687 218.372 128.089 224.367 119.011C224.438 118.745 224.341 118.576 224.27 118.842Z" fill="#1C6A38"/>
<path d="M192.829 171.816C194.093 168.166 195.116 164.879 196.743 161.469C198.37 158.059 199.828 154.745 201.454 151.335C204.565 145.046 207.845 138.659 211.487 132.513C219.012 119.856 228.158 108.061 239.268 98.501C239.845 97.943 238.924 97.127 238.347 97.684C226.154 108.094 216.795 120.687 208.914 134.672C204.889 141.714 201.227 148.995 197.663 156.445C195.965 160.121 194.267 163.797 192.569 167.473C191.804 169.263 190.845 170.715 191.143 172.789C191.241 172.958 191.338 173.126 191.507 173.029C192.304 173.243 192.304 173.243 192.978 172.853C193.147 172.756 193.147 172.756 193.05 172.588C192.952 172.419 193.024 172.153 193.024 172.153C193.166 171.622 192.9 171.55 192.829 171.816Z" fill="#1C6A38"/>
<path d="M280.892 67.056C273.548 76.912 266.308 88.506 262.038 100.182C257.074 113.382 259.1 129.736 246.926 139.011C246.757 139.108 247.049 139.614 247.218 139.516C258.679 132.899 258.884 118.852 261.514 107.449C265.168 92.759 275.182 80.911 281.352 67.464C281.495 66.932 281.131 66.693 280.892 67.056Z" fill="#1C6A38"/>
<path d="M246.446 139.737C253.453 130.075 256.031 117.803 258.83 106.303C262.127 92.941 266.184 82.062 274.681 71.091C274.921 70.728 274.558 70.488 274.221 70.682C265.924 77.719 261.848 89.733 259.042 99.665C255.239 113.318 252.279 126.485 245.623 139.089C245.409 139.887 246.038 140.197 246.446 139.737Z" fill="#1C6A38"/>
<path d="M158.762 113.978C152.182 116.205 146.672 120.285 141.428 124.436C134.258 129.923 127.471 134.515 119.426 138.486C119.089 138.681 119.381 139.186 119.815 139.16C126.785 137.608 132.703 133.068 138.382 128.89C145.214 123.598 151.807 118.668 159.32 114.555C159.223 114.387 159.028 114.05 158.762 113.978Z" fill="#1C6A38"/>
<path d="M118.026 138.396C124.055 137.162 130.726 133.535 135.827 129.916C136.164 129.721 135.873 129.216 135.536 129.41C129.753 131.85 123.296 134.679 118.097 138.13C117.663 138.156 117.592 138.422 118.026 138.396Z" fill="#1C6A38"/>
<path d="M122.408 135.866C127.277 134.178 131.127 131.506 135.218 128.47C140.631 124.222 146.432 120.648 151.942 116.568C152.28 116.373 152.085 116.036 151.651 116.062C146.827 117.05 142.763 120.52 138.841 123.458C133.428 127.706 128.113 132.123 122.019 135.192C121.948 135.458 122.142 135.795 122.408 135.866Z" fill="#1C6A38"/>
<path d="M137.934 125.779C140.028 124.346 142.024 122.744 144.118 121.31C146.043 119.974 147.897 118.903 149.362 117.159C149.602 116.796 149.407 116.459 148.973 116.485C144.681 117.615 140.235 121.98 137.376 125.202C137.305 125.468 137.765 125.876 137.934 125.779Z" fill="#1C6A38"/>
<path d="M189.588 103.146C175.619 115.928 157.324 121.998 144.01 135.526C137.593 141.926 132.194 149.312 126.503 156.192C120.572 163.436 114.083 170.102 107.329 176.698C107.16 176.795 107.355 177.132 107.523 177.035C122.394 166.203 131.636 148.736 144.47 135.934C151.873 128.515 160.203 123.481 169.233 118.492C176.578 114.476 184.96 110.31 189.588 103.146C189.756 103.048 189.756 103.048 189.588 103.146Z" fill="#1C6A38"/>
<path d="M106.46 176.75C117.538 165.187 126.411 151.752 137.028 139.781C142.408 133.53 148.541 128.192 155.231 123.431C161.415 118.962 167.625 114.927 172.96 109.376C173.776 108.455 172.492 107.399 171.747 108.054C159.58 118.898 146.025 126.949 135.265 139.451C125.153 151.13 114.465 163.367 106 176.342C105.494 176.634 106.052 177.211 106.46 176.75Z" fill="#1C6A38"/>
<path d="M130.559 145.313C119.402 149.733 110.146 158.222 101.103 165.914C89.993 175.474 79.167 183.971 65.1382 188.476C64.9696 188.573 64.9956 189.007 65.1642 188.91C77.151 186.707 87.426 179.203 96.637 171.413C107.676 162.119 118.113 152.949 130.877 146.253C131.48 146.13 131.162 145.19 130.559 145.313Z" fill="#1C6A38"/>
<path d="M64.3929 189.131C73.4106 186.845 81.15 179.232 87.496 173.097C95.262 165.917 102.69 158.932 111.571 152.906C126.06 142.969 143.401 134.08 151.755 117.8C151.994 117.437 151.366 117.126 151.126 117.489C139.874 133.421 124.03 142.568 108.291 153.452C101.53 158.479 95.326 164.083 89.052 169.952C81.215 177.397 73.1765 182.937 64.101 188.626C63.9325 188.723 64.0558 189.326 64.3929 189.131Z" fill="#1C6A38"/>
<path d="M167.204 118.091C155.847 126.445 148.225 138.933 140.551 150.553C130.913 165.777 120.951 178.494 105.762 188.386C105.594 188.483 105.788 188.82 105.957 188.723C119.739 183.012 129.552 169.259 137.466 157.276C146.579 143.478 155.089 129.803 167.496 118.596C167.833 118.402 167.373 117.993 167.204 118.091Z" fill="#1C6A38"/>
<path d="M106.099 188.191C106.954 185.002 110.805 182.329 113.015 179.93C115.323 177.699 117.533 175.3 119.575 172.997C123.659 168.393 127.476 163.718 131.028 158.971C137.653 150.204 143.453 140.789 149.786 131.517C149.954 131.42 149.591 131.18 149.423 131.277C145.242 135.713 142.248 141.036 138.89 146.12C134.813 152.293 130.373 158.226 125.57 163.92C121.176 169.153 116.684 174.217 112.094 179.114C109.547 181.708 105.431 184.309 106.099 188.191C105.931 188.289 105.931 188.289 106.099 188.191Z" fill="#1C6A38"/>
<path d="M206.229 94.212C198.833 103.199 192.326 111.001 182.239 117.273C174.751 121.821 168.01 125.713 162.876 133.17C162.636 133.533 163.363 134.013 163.602 133.65C169.526 124.838 179.815 120.47 188.527 114.542C195.962 109.126 201.725 101.98 206.229 94.212C206.398 94.114 206.495 94.283 206.229 94.212Z" fill="#1C6A38"/>
<path d="M160.971 139.213C158.009 146.539 156.811 154.195 153.124 161.042C149.267 167.986 144.173 173.174 138.572 178.654C138.403 178.751 138.598 179.088 138.767 178.991C153.138 170.019 157.175 154.434 161.503 139.355C161.742 138.992 161.211 138.849 160.971 139.213Z" fill="#1C6A38"/>
<path d="M138.209 178.414C142.188 172.073 146.991 166.379 150.511 159.63C153.719 153.509 156.032 147.006 158.611 140.575C158.922 139.946 157.859 139.661 157.548 140.29C154.755 147.519 152.059 154.917 148.106 161.692C144.872 167.379 140.017 172.204 137.943 178.343C137.872 178.609 138.138 178.68 138.209 178.414Z" fill="#1C6A38"/>
<path d="M157.606 136.887C160.749 132.601 163.264 128.004 167.037 124.028C170.232 120.611 173.986 117.77 177.642 114.761C178.05 114.3 177.395 113.555 176.889 113.847C168.994 118.855 160.463 127.824 157.243 136.647C157.172 136.913 157.535 137.153 157.606 136.887Z" fill="#1C6A38"/>
<path d="M134.005 127.149C123.651 127.51 113.881 128.882 103.547 128.109C98.646 127.794 93.647 127.31 88.817 126.729C83.118 126.2 75.299 126.67 71.752 121.304C71.2656 120.462 70.0858 121.143 70.5722 121.986C74.01 129.886 89.258 128.271 96.26 128.722C108.261 129.656 122.68 131.665 134.2 127.486C134.2 127.486 134.271 127.22 134.005 127.149Z" fill="#1C6A38"/>
<path d="M70.7409 121.888C82.67 123.088 94.548 123.42 106.38 124.452C117.414 125.27 128.131 125.148 139.01 123.361C140.047 123.211 139.774 121.571 138.569 121.818C116.261 126.385 93.069 122.027 70.6889 121.02C70.1572 120.877 70.0407 121.843 70.7409 121.888Z" fill="#1C6A38"/>
<path d="M200.962 81.976C189.902 80.723 179.981 75.218 168.992 73.7C163.63 72.976 158.152 73.219 152.887 72.664C145.762 71.61 140.005 68.644 133.618 65.367C133.086 65.225 132.509 65.782 132.97 66.191C141.938 74.717 154.223 74.588 165.666 74.946C172.571 75.228 178.516 76.963 184.851 79.371C189.928 81.158 195.27 83.016 200.723 82.339C201.157 82.313 201.228 82.047 200.962 81.976Z" fill="#1C6A38"/>
<path d="M133.378 65.73C139.22 65.727 144.809 68.791 150.631 69.923C155.558 70.672 160.46 70.988 165.53 71.206C177.07 71.732 188.247 72.019 199.295 75.974C199.827 76.116 200.041 75.319 199.678 75.079C189.809 70.443 178.729 70.325 168.155 69.915C161.951 69.678 155.48 69.369 149.392 68.167C144.102 67.177 139.07 64.69 133.424 65.03C133.086 65.225 132.944 65.756 133.378 65.73Z" fill="#1C6A38"/>
<path d="M199.827 76.116C201.5 77.846 204.087 78.824 206.382 79.296C208.508 79.866 211.238 80.312 213.189 79.41C213.358 79.312 213.332 78.878 213.066 78.807C210.939 78.237 208.43 78.563 206.304 77.993C204.177 77.424 202.193 76.323 200.138 75.488C199.703 75.514 199.729 75.948 199.827 76.116Z" fill="#1C6A38"/>
<path d="M208.381 55.901C206.644 56.006 205.003 56.279 203.363 56.552C201.457 56.753 199.551 56.955 197.671 57.591C197.503 57.689 197.431 57.954 197.697 58.026C199.266 58.018 201.075 57.648 202.715 57.375C204.524 57.005 206.43 56.803 208.31 56.167C208.478 56.07 208.647 55.972 208.381 55.901Z" fill="#1C6A38"/>
<path d="M161.936 60.7C155.44 59.957 149.352 58.755 143.354 56.151C137.817 53.957 133.239 50.309 128.182 47.388C127.916 47.317 127.676 47.68 127.774 47.849C135.775 56.259 150.519 60.776 161.865 60.966C162.397 61.108 162.37 60.674 161.936 60.7Z" fill="#1C6A38"/>
<path d="M128.882 47.433C133.926 47.217 138.451 49.996 143.094 51.808C147.905 53.524 152.787 54.974 157.811 55.892C166 57.23 175.077 57.381 182.642 54.137C182.979 53.942 182.687 53.437 182.35 53.631C171.135 55.614 161.144 56.215 150.148 53.128C145.363 51.846 140.792 49.768 136.15 47.955C133.634 46.711 131.41 45.973 128.882 47.433C128.882 47.433 128.784 47.265 128.882 47.433Z" fill="#1C6A38"/>
<path d="M184.237 54.564C189.955 53.958 195.913 52.99 201.534 52.216C207.926 51.221 214.902 51.237 220.879 49.134C221.048 49.037 220.951 48.869 220.782 48.966C215.012 48.703 209.08 50.106 203.459 50.88C196.97 51.706 190.48 52.532 184.016 53.793C183.679 53.987 183.803 54.59 184.237 54.564Z" fill="#1C6A38"/>
<path d="M120.224 138.7C117.404 139.654 114.849 140.679 111.932 141.465C109.449 142.225 106.746 142.213 104.457 143.309C104.12 143.504 104.243 144.107 104.509 144.178C109.391 145.628 116.691 142.312 120.516 139.205C120.587 138.939 120.392 138.602 120.224 138.7Z" fill="#1C6A38"/>
<path d="M103.394 143.025C106.24 142.505 109.158 141.719 111.906 141.031C114.052 140.466 116.295 140.069 118.123 138.565C118.46 138.37 118.169 137.864 117.734 137.891C115.368 137.684 113.079 138.781 110.862 139.611C108.211 140.468 105.657 141.494 103.102 142.519C102.837 142.448 102.96 143.051 103.394 143.025Z" fill="#1C6A38"/>
<path d="M108.308 140.637C112.431 139.604 117.255 138.617 120.865 136.308C121.202 136.113 121.176 135.679 120.742 135.705C116.496 136.135 111.919 138.328 107.919 139.963C107.582 140.158 107.971 140.832 108.308 140.637Z" fill="#1C6A38"/>
<path d="M107.614 142.161C112.127 141.802 118.545 141.242 122.006 137.895C122.246 137.532 122.123 136.929 121.689 136.955C119.251 137.015 117.228 138.183 114.914 138.845C112.431 139.604 110.045 140.532 107.394 141.389C106.959 141.415 106.914 142.116 107.614 142.161Z" fill="#1C6A38"/>
<path d="M112.082 142.502C116.302 141.638 122.668 140.209 125.404 136.383C125.643 136.02 125.183 135.612 124.749 135.638C122.506 136.035 120.678 137.539 118.558 138.539C116.269 139.635 113.981 140.732 111.595 141.66C111.355 142.023 111.647 142.528 112.082 142.502Z" fill="#1C6A38"/>
<path d="M113.585 138.489C100.191 139.033 87.206 144.957 74.11 147.576C60.4115 150.317 48.0025 149.843 34.7305 145.15C34.4646 145.079 34.2248 145.442 34.4194 145.779C44.6316 151.79 57.6888 151.44 69.0017 149.626C76.431 148.482 83.809 146.469 90.921 144.385C98.467 142.275 106.136 140.768 113.682 138.657C113.682 138.657 113.753 138.392 113.585 138.489Z" fill="#1C6A38"/>
<path d="M35.3334 145.027C48.2096 147.477 62.6864 146.083 75.419 143.225C83.425 141.523 91.283 138.784 99.289 137.082C107.899 135.257 116.489 134.566 125.345 133.946C126.214 133.894 126.304 132.493 125.435 132.546C110.083 132.423 95.328 136.449 80.644 140.209C65.4544 144.261 50.9969 144.52 35.5472 144.229C35.1389 144.69 35.0676 144.955 35.3334 145.027Z" fill="#1C6A38"/>
<path d="M107.835 142.932C100.594 142.844 91.239 145.325 86.072 150.779C85.664 151.239 86.125 151.647 86.63 151.355C90.461 149.817 93.541 147.366 97.469 145.996C100.795 144.75 104.315 143.841 107.835 142.932C108.03 143.269 107.933 143.1 107.835 142.932Z" fill="#1C6A38"/>
<path d="M85.528 153.34C91.311 150.9 97.508 149.568 103.194 146.959C103.531 146.765 103.239 146.259 103.07 146.357C96.821 146.82 90.727 149.889 85.307 152.568C84.802 152.86 85.094 153.366 85.528 153.34Z" fill="#1C6A38"/>
<path d="M94.779 149.122C99.79 146.903 105.022 145.455 109.865 143.333C110.033 143.236 110.007 142.801 109.741 142.73C104.626 143.212 98.941 145.821 94.39 148.448C94.053 148.643 94.442 149.317 94.779 149.122Z" fill="#1C6A38"/>
<path d="M101.715 145.566C90.636 151.289 84.285 161.696 75.923 170.567C65.3507 181.838 52.703 187.568 38.6548 193.207C38.4863 193.304 38.5835 193.473 38.7521 193.376C51.005 191.244 62.7773 183.998 71.9626 175.774C82.736 166.409 89.34 152.936 101.715 145.566C101.884 145.469 101.981 145.638 101.715 145.566Z" fill="#1C6A38"/>
<path d="M39.0631 192.747C44.3661 191.033 49.0334 187.44 53.9213 184.618C58.9777 181.699 63.671 178.54 67.8779 174.538C77.206 165.783 83.797 155.013 95.187 148.662C95.524 148.467 95.304 147.696 94.967 147.89C84.315 152.018 77.84 161.822 70.6584 170.012C65.9266 175.44 60.5851 179.423 54.4462 183.192C49.2212 186.208 43.4386 188.648 39.0631 192.747C39.0631 192.747 38.9659 192.578 39.0631 192.747Z" fill="#1C6A38"/>
<path d="M88.989 149.993C76.063 158.355 64.2073 168.57 50.9894 176.426C37.0973 184.671 23.0684 189.176 6.89931 189.974C6.56231 190.169 6.58831 190.603 7.02261 190.577C21.513 192.32 36.5012 186.363 48.8051 179.259C63.1316 170.988 76.92 161.005 89.547 150.57C89.884 150.375 89.495 149.701 88.989 149.993Z" fill="#1C6A38"/>
<path d="M6.75693 190.506C11.8325 186.452 19.9171 186.053 25.8942 183.95C30.5943 182.36 35.3656 180.504 39.482 177.902C39.6506 177.805 39.6245 177.371 39.2875 177.565C32.5388 179.889 26.2766 183.055 19.5992 185.113C15.139 186.34 9.39483 186.512 6.58833 190.603C6.49113 190.435 6.58833 190.603 6.75693 190.506Z" fill="#1C6A38"/>
<path d="M41.9129 176.274C60.7584 169.213 74.571 153.824 93.514 146.932C94.117 146.808 93.799 145.868 93.294 146.16C73.8385 151.776 60.2007 168.636 41.8156 176.106C41.6471 176.203 41.7444 176.372 41.9129 176.274Z" fill="#1C6A38"/>
<path d="M79.155 153.2C70.0854 154.617 61.191 157.506 52.2444 159.526C47.084 160.708 42.5005 161.332 37.21 160.343C33.2486 159.71 29.4297 158.545 25.6629 158.248C24.9627 158.203 24.8462 159.169 25.4751 159.48C33.6705 162.387 42.1249 163.796 50.7083 161.536C60.1604 159.224 70.3388 157.391 79.35 153.537C79.518 153.44 79.324 153.103 79.155 153.2Z" fill="#1C6A38"/>
<path d="M26.7263 158.533C39.2123 154.47 53.9232 156.984 65.6955 149.738C66.0326 149.544 65.7407 149.038 65.4036 149.233C57.8055 150.474 50.6745 153.693 43.0764 154.934C38.4216 155.825 30.1617 154.752 26.4605 158.462C26.5317 158.196 26.4605 158.462 26.7263 158.533Z" fill="#1C6A38"/>
<path d="M90.673 137.339C90.504 137.436 90.336 137.534 90.264 137.8C90.096 137.897 90.193 138.065 90.362 137.968C90.53 137.871 90.699 137.773 90.965 137.845C91.302 137.65 91.01 137.144 90.673 137.339Z" fill="#1C6A38"/>
<path d="M43.8522 144.601C42.5231 144.246 40.8569 144.084 39.5017 143.294C35.7021 140.995 42.5356 141.542 44.5389 141.509C47.8453 141.397 51.1777 141.72 54.6527 141.511C60.9998 141.216 67.4893 140.39 73.5638 138.456C80.241 136.398 86.724 134.003 93.525 132.548C100.662 130.898 108.001 131.154 115.094 130.204C115.963 130.152 115.548 129.044 114.847 128.998C101.66 127.177 87.294 131.876 75.003 136.277C67.917 138.795 60.7532 140.011 53.4401 140.189C47.696 140.36 41.5107 138.989 36.3571 141.74C36.02 141.934 36.046 142.369 36.3118 142.44C38.7563 143.949 40.8116 144.784 43.6837 144.699C44.0468 144.938 43.9495 144.77 43.8522 144.601Z" fill="#1C6A38"/>
<path d="M115.501 123.903C115.307 123.566 114.801 123.858 114.996 124.195C115.19 124.532 115.696 124.24 115.501 123.903Z" fill="#1C6A38"/>
<path d="M114.827 124.292C104.161 119.442 91.318 118.994 83.095 109.813C82.998 109.644 82.661 109.839 82.758 110.007C85.216 114.654 89.113 117.122 94.021 119.006C100.622 121.486 107.728 123.673 114.853 124.727C114.853 124.727 115.093 124.364 114.827 124.292Z" fill="#1C6A38"/>
<path d="M83.361 109.884C94.552 113.308 105.989 117.937 117.465 120.298C127.08 122.161 138.685 120.852 147.988 117.503C149.096 117.088 148.655 115.545 147.449 115.792C136.162 118.04 125.141 120.359 113.808 117.467C103.707 114.762 93.748 111.526 83.718 108.555C82.992 108.076 82.564 109.671 83.361 109.884Z" fill="#1C6A38"/>
<path d="M143.475 112.021C137.244 111.35 130.897 111.645 124.666 110.973C118.702 110.373 106.364 109.634 102 105.189C101.637 104.949 101.131 105.241 101.326 105.578C102.351 108.132 103.582 108.319 106.072 109.128C110.423 110.435 115.182 111.282 119.577 111.89C127.234 113.085 135.76 114.229 143.598 112.624C143.766 112.527 143.643 111.924 143.475 112.021Z" fill="#1C6A38"/>
<path d="M101.708 104.683C113.917 109.092 129.697 107.62 142.242 105.994C149.334 105.044 156.569 103.563 163.415 101.407C170.695 99.226 178.099 97.647 185.476 95.635C185.911 95.608 185.787 95.006 185.424 94.766C178.759 94.121 172.205 96.782 165.962 98.813C159.285 100.871 152.679 102.663 145.852 103.684C138.423 104.829 130.87 105.37 123.459 105.38C116.218 105.293 109.066 103.805 101.825 103.718C101.319 104.009 101.345 104.444 101.708 104.683Z" fill="#1C6A38"/>
<path d="M262.511 64.413C263.84 64.769 264.975 64.788 266.375 64.878C267.776 64.968 269.008 65.156 270.213 64.909C270.382 64.811 270.453 64.546 270.187 64.474C268.858 64.118 267.555 64.197 266.252 64.275C265.117 64.256 263.717 64.166 262.511 64.413Z" fill="#1C6A38"/>
<path d="M256.139 36.64C266.662 36.181 277.203 34.5882 287.771 33.4295C287.939 33.3322 288.01 33.0664 287.745 32.9952C277.222 33.4538 266.363 34.107 256.113 36.206C255.776 36.4 255.971 36.737 256.139 36.64Z" fill="#1C6A38"/>
<path d="M236.684 36.416C240.496 36.012 244.236 35.874 248.075 35.905C248.243 35.807 248.146 35.639 248.146 35.639C244.282 35.174 240.372 35.409 236.684 36.416C236.586 36.247 236.586 36.247 236.684 36.416Z" fill="#1C6A38"/>
<path d="M238.706 35.248C246.7 36.249 255.634 36.932 263.692 36.098C263.861 36.001 263.932 35.735 263.764 35.833C255.744 34.3973 246.862 34.5829 238.777 34.982C238.511 34.9109 238.537 35.345 238.706 35.248Z" fill="#1C6A38"/>
<path d="M242.829 34.2151C248.768 34.3809 255.556 35.629 261.488 34.226C261.656 34.1286 261.728 33.8629 261.462 33.7917C255.542 32.4915 248.813 33.6808 242.803 33.7808C242.732 34.0466 242.829 34.2151 242.829 34.2151Z" fill="#1C6A38"/>
<path d="M245.96 32.6321C250.959 33.116 256.32 33.8395 261.436 33.3575C261.87 33.3313 262.013 32.7997 261.481 32.6574C256.625 31.6419 250.978 31.9816 245.934 32.1978C245.571 31.9582 245.694 32.5609 245.96 32.6321Z" fill="#1C6A38"/>
<path d="M251.457 31.2553C252.592 31.2742 253.727 31.2931 254.861 31.312C255.03 31.2147 255.101 30.9489 254.932 31.0462C253.798 31.0273 252.663 31.0084 251.529 30.9895C251.263 30.9183 251.289 31.3526 251.457 31.2553Z" fill="#1C6A38"/>
<path d="M212.091 98.915C214.444 95.984 217.328 93.196 219.318 90.025C219.389 89.759 219.026 89.519 218.955 89.785C216.336 92.645 214.346 95.816 211.994 98.747C211.825 98.844 212.02 99.181 212.091 98.915Z" fill="#1C6A38"/>
<path d="M205.251 102.639C209.439 99.772 214.178 95.913 216.595 91.147C216.666 90.881 216.4 90.81 216.232 90.908C214.235 92.51 212.628 94.786 210.826 96.725C209.024 98.664 207.125 100.434 205.057 102.302C204.888 102.399 205.083 102.736 205.251 102.639Z" fill="#1C6A38"/>
<path d="M203.825 102.115C207.384 98.937 211.546 95.635 214.281 91.81C214.521 91.447 213.892 91.136 213.82 91.402C210.093 94.677 207.189 98.6 203.825 102.115C203.657 102.212 203.657 102.212 203.825 102.115Z" fill="#1C6A38"/>
<path d="M205.167 99.767C206.055 98.581 207.111 97.297 208.096 96.279C209.082 95.26 210.261 94.579 210.981 93.49C211.149 93.393 210.884 93.321 210.786 93.153C208.206 93.744 205.977 97.278 204.803 99.528C204.732 99.794 204.998 99.865 205.167 99.767Z" fill="#1C6A38"/>
<path d="M204.077 99.048C205.134 97.764 206.456 96.552 207.415 95.099C207.487 94.833 207.221 94.762 207.052 94.86C205.898 95.975 204.939 97.427 203.883 98.711C203.546 98.906 203.837 99.412 204.077 99.048Z" fill="#1C6A38"/>
<path d="M168.847 129.499C173.132 126.8 177.585 124.004 181.481 120.632C181.649 120.534 181.455 120.197 181.286 120.295C176.904 122.825 172.645 125.958 168.652 129.162C168.484 129.259 168.678 129.596 168.847 129.499Z" fill="#1C6A38"/>
<path d="M165.91 131.419C169.806 128.046 174.356 125.419 178.35 122.215C178.518 122.117 178.226 121.612 178.058 121.709C173.286 123.565 168.885 127.23 165.352 130.842C165.112 131.205 165.573 131.613 165.91 131.419Z" fill="#1C6A38"/>
<path d="M167.33 130.374C172.289 127.286 177.416 124.101 182.084 120.508C182.252 120.411 182.058 120.074 181.889 120.171C176.833 123.09 171.9 126.613 167.232 130.206C166.966 130.135 167.161 130.472 167.33 130.374Z" fill="#1C6A38"/>
<path d="M174.48 126.022C181.053 122.226 188.158 118.574 194.245 113.936C194.413 113.839 194.219 113.502 194.05 113.599C187.017 116.986 180.761 121.721 174.48 126.022C174.311 126.119 174.214 125.95 174.48 126.022Z" fill="#1C6A38"/>
<path d="M180.353 122.181C189.286 117.024 198.336 110.901 204.915 102.834C204.986 102.568 204.889 102.399 204.551 102.594C196.397 109.099 189.065 116.253 180.353 122.181C180.353 122.181 180.256 122.013 180.353 122.181Z" fill="#1C6A38"/>
<path d="M120.708 127.861C123.003 128.333 125.273 128.371 127.613 128.143C128.216 128.02 134.245 126.786 134.342 126.954C134.245 126.786 134.077 126.883 134.174 127.051L134.271 127.22L134.368 127.388C134.9 127.531 135.237 127.336 135.211 126.902L135.114 126.733C133.927 125.846 131.568 127.208 130.193 127.552C127.179 128.17 124.041 128.184 121.143 127.835C120.682 127.427 120.611 127.693 120.708 127.861Z" fill="#1C6A38"/>
<path d="M118.705 127.895C124.378 127.989 130.096 127.384 135.594 126.007C135.762 125.91 135.665 125.741 135.496 125.839C129.823 125.744 124.105 126.35 118.51 127.558C118.342 127.655 118.439 127.824 118.705 127.895Z" fill="#1C6A38"/>
<path d="M122.225 126.986C126.4 126.822 131.542 126.774 135.47 125.404C135.807 125.21 135.781 124.775 135.347 124.802C130.906 124.894 126.446 126.122 122.031 126.649C122.031 126.649 122.057 127.083 122.225 126.986Z" fill="#1C6A38"/>
<path d="M121.661 124.84C124.798 124.826 128.157 125.583 131.243 124.7C131.411 124.602 131.554 124.071 131.12 124.097C128.027 123.411 124.578 124.054 121.537 124.237C121.2 124.432 121.226 124.866 121.661 124.84Z" fill="#1C6A38"/>
<path d="M76.693 125.192C80.706 126.694 85.971 127.249 90.165 125.95C90.502 125.756 90.476 125.321 90.042 125.347C87.941 125.212 85.601 125.44 83.332 125.402C81.063 125.365 78.865 125.061 76.764 124.926L76.693 125.192Z" fill="#1C6A38"/>
<path d="M78.378 124.218C82.579 124.489 86.709 125.025 90.956 124.595C91.124 124.498 91.196 124.232 91.027 124.329C86.897 123.793 82.722 123.957 78.618 123.855C78.015 123.979 78.041 124.413 78.378 124.218Z" fill="#1C6A38"/>
<path d="M76.421 123.552C77.989 123.544 79.656 123.706 81.296 123.433C81.464 123.335 81.536 123.07 81.27 122.998C79.772 122.74 78.132 123.013 76.395 123.117C76.226 123.215 76.155 123.48 76.421 123.552Z" fill="#1C6A38"/>
<path d="M141.251 111.283C146.489 111.404 152.544 110.604 156.874 107.205C157.043 107.108 156.848 106.771 156.68 106.868C151.377 108.582 146.8 110.775 141.251 111.283C141.082 111.381 141.153 111.115 141.251 111.283Z" fill="#1C6A38"/>
<path d="M141.607 109.954C146.048 109.862 151.234 109.114 155.234 107.478C155.403 107.381 155.305 107.213 155.305 107.213C151.033 107.208 145.775 108.222 141.678 109.689C141.509 109.786 141.607 109.954 141.607 109.954Z" fill="#1C6A38"/>
<path d="M143.506 108.184C147.39 107.515 151.37 107.014 155.033 105.573C155.201 105.476 155.273 105.21 155.007 105.139C151.098 105.374 147.169 106.743 143.48 107.75C143.046 107.776 143.24 108.113 143.506 108.184Z" fill="#1C6A38"/>
<path d="M145.645 106.05C148.297 105.193 150.903 105.037 153.846 104.685C154.015 104.588 154.086 104.322 153.82 104.251C151.162 103.539 148.076 104.422 145.619 105.616C145.282 105.811 145.477 106.148 145.645 106.05Z" fill="#1C6A38"/>
<path d="M155.889 108.223C162.087 106.892 169.004 104.471 174.689 101.862C174.858 101.765 174.663 101.428 174.495 101.525C168.394 103.025 161.645 105.349 155.889 108.223C155.889 108.223 155.792 108.055 155.889 108.223Z" fill="#1C6A38"/>
<path d="M246.484 98.154C251.553 92.531 256.33 86.404 261.036 80.541C261.205 80.444 261.01 80.107 260.673 80.302C255.118 85.082 249.569 91.43 246.484 98.154C246.316 98.251 246.218 98.083 246.484 98.154Z" fill="#1C6A38"/>
<path d="M247.313 94.53C251.371 89.491 256.155 84.932 260.018 79.557C260.089 79.291 259.895 78.954 259.557 79.148C254.359 82.599 250.016 88.701 246.95 94.29C246.879 94.556 247.242 94.796 247.313 94.53Z" fill="#1C6A38"/>
<path d="M249.004 89.285C250.612 87.009 252.511 85.238 254.579 83.371C254.747 83.273 254.65 83.105 254.482 83.202C252.051 84.83 250.346 86.938 249.004 89.285C248.836 89.382 248.836 89.382 249.004 89.285Z" fill="#1C6A38"/>
<path d="M232.781 111.008C237.636 106.183 242.322 101.455 246.912 96.559C241.959 101.215 237.273 105.943 232.781 111.008C232.612 111.105 232.515 110.937 232.781 111.008Z" fill="#1C6A38"/>
<path d="M222.955 127.464C227.044 118.588 232.904 111.611 240.19 105.158C240.359 105.06 240.261 104.892 240.093 104.989C231.957 110.36 226.247 118.375 222.689 127.393L222.955 127.464Z" fill="#1C6A38"/>
<path d="M235.017 109.043C239.535 104.412 244.585 99.924 248.545 94.717C248.714 94.62 248.519 94.283 248.182 94.478C243.204 98.7 239.075 104.004 234.654 108.803C234.751 108.971 234.849 109.14 235.017 109.043Z" fill="#1C6A38"/>
<path d="M169.515 60.593C174.416 60.908 179.966 60.4 184.348 57.87C184.516 57.772 184.49 57.338 184.153 57.533C179.259 58.786 174.727 60.279 169.515 60.593C169.346 60.69 169.249 60.521 169.515 60.593Z" fill="#1C6A38"/>
<path d="M169.152 60.353C173.567 59.826 178.488 59.007 182.487 57.372C182.656 57.274 182.727 57.008 182.461 56.937C178.118 57.199 173.32 58.62 169.126 59.919C168.957 60.016 168.983 60.45 169.152 60.353Z" fill="#1C6A38"/>
<path d="M170.882 58.68C174.455 58.639 178.87 58.112 181.903 56.361C182.072 56.263 182.046 55.829 181.877 55.926C180.14 56.031 178.526 56.738 176.717 57.108C174.74 57.576 172.762 58.044 170.856 58.246C170.688 58.343 170.785 58.511 170.882 58.68Z" fill="#1C6A38"/>
<path d="M171.187 56.482C174.422 56.636 178.526 56.738 181.586 55.421C181.754 55.323 181.56 54.986 181.56 54.986C179.991 54.994 178.519 55.169 177.145 55.513C175.239 55.715 173.333 55.917 171.427 56.119C170.824 56.242 170.921 56.411 171.187 56.482Z" fill="#1C6A38"/>
<path d="M133.894 51.054C136.099 52.927 138.543 54.436 141.396 55.485C143.886 56.294 147.27 57.485 149.85 56.894C150.019 56.797 149.921 56.628 149.921 56.628C147.335 55.65 144.631 55.639 141.973 54.927C139.217 54.047 136.604 52.635 134.062 50.957C133.965 50.788 133.797 50.886 133.894 51.054Z" fill="#1C6A38"/>
<path d="M135.632 50.95C138.9 53.107 143.542 54.92 147.717 54.756C147.717 54.756 147.886 54.658 147.788 54.49C145.999 53.726 143.97 53.325 142.18 52.561C140.222 51.894 138.069 50.89 136.111 50.224C135.508 50.347 135.269 50.71 135.632 50.95Z" fill="#1C6A38"/>
<path d="M138.549 50.164C141.428 51.647 144.475 53.033 147.736 53.621C148.002 53.693 148.242 53.329 147.879 53.09C145.169 51.509 141.713 50.584 138.789 49.801C138.354 49.827 138.283 50.093 138.549 50.164Z" fill="#1C6A38"/>
<path d="M242.502 53.5C245.063 54.043 247.598 54.152 250.062 54.527C252.96 54.876 255.689 55.322 258.561 55.236C258.827 55.307 258.801 54.873 258.535 54.802C256.143 54.161 253.511 53.884 250.878 53.606C247.98 53.258 245.251 52.812 242.379 52.897C242.21 52.994 242.068 53.526 242.502 53.5Z" fill="#1C6A38"/>
<path d="M245.03 52.04C247.733 52.052 250.534 52.232 253.335 52.412C256.136 52.592 258.963 53.207 261.666 53.219C262.1 53.193 262.243 52.661 261.711 52.519C256.635 50.732 250.288 51.027 245.004 51.606C244.738 51.535 244.764 51.969 245.03 52.04Z" fill="#1C6A38"/>
<path d="M249.756 50.884C255.792 51.218 262.677 52.635 268.707 51.401C269.141 51.374 269.018 50.772 268.752 50.7C262.735 49.232 255.837 50.518 249.73 50.45C249.561 50.547 249.587 50.982 249.756 50.884Z" fill="#1C6A38"/>
<path d="M248.823 52.771C252.856 53.139 257.109 54.277 261.089 53.776C261.355 53.848 261.329 53.413 261.063 53.342C257.245 52.177 252.732 52.536 248.797 52.337C248.531 52.265 248.557 52.7 248.823 52.771Z" fill="#1C6A38"/>
<path d="M226.599 54.369C234.417 53.899 242.288 54.297 250.204 53.995C250.47 54.067 250.444 53.632 250.178 53.561C242.495 51.931 234.171 52.693 226.573 53.935C226.404 54.032 226.333 54.298 226.599 54.369Z" fill="#1C6A38"/>
<path d="M220.413 52.998C228.472 52.165 236.193 51.526 244.135 51.658C244.304 51.561 244.207 51.392 244.207 51.392C236.478 50.463 228.031 50.622 220.387 52.564C220.316 52.83 220.245 53.095 220.413 52.998Z" fill="#1C6A38"/>
<path d="M124.99 146.956C128.219 145.541 131.83 143.232 134.474 140.806C134.643 140.709 134.448 140.372 134.28 140.469C131.051 141.884 127.441 144.193 124.699 146.45C124.459 146.814 124.822 147.053 124.99 146.956Z" fill="#1C6A38"/>
<path d="M125.263 148.596C127.934 146.604 130.773 144.516 133.152 142.019C133.32 141.922 133.126 141.585 132.957 141.682C130.287 143.673 127.545 145.93 125.068 148.259C124.997 148.525 125.192 148.861 125.263 148.596Z" fill="#1C6A38"/>
<path d="M113.387 154.105C117.432 151.769 121.548 149.168 125.301 146.327C125.47 146.23 125.373 146.061 125.204 146.158C121.062 148.325 117.14 151.264 113.289 153.936C113.121 154.033 113.218 154.202 113.387 154.105Z" fill="#1C6A38"/>
<path d="M116.848 150.758C122.384 147.113 128.575 144.212 133.917 140.23C134.085 140.133 133.988 139.964 133.722 139.893C127.576 142.093 122.092 146.607 116.848 150.758C116.848 150.758 116.751 150.59 116.848 150.758Z" fill="#1C6A38"/>
<path d="M130.688 141.644C133.359 139.653 136.296 137.733 138.675 135.236C138.843 135.139 138.649 134.802 138.48 134.899C135.615 136.554 133.165 139.316 130.688 141.644C130.688 141.644 130.591 141.476 130.688 141.644Z" fill="#1C6A38"/>
<path d="M75.562 182.008C79.368 180.036 83.244 177.798 86.855 175.489C87.023 175.391 86.926 175.223 86.758 175.32C82.952 177.292 79.076 179.531 75.465 181.84C75.296 181.937 75.394 182.106 75.562 182.008Z" fill="#1C6A38"/>
<path d="M78.168 181.852C85.37 178.367 91.963 173.438 97.369 167.621C97.538 167.524 97.272 167.452 97.272 167.452C90.945 172.453 84.689 177.188 78.071 181.683C77.805 181.612 78 181.949 78.168 181.852Z" fill="#1C6A38"/>
<path d="M83.866 176.54C88.514 174.081 93.376 170.825 96.714 166.876C96.882 166.778 96.688 166.441 96.519 166.539C92.163 169.503 87.93 173.07 83.866 176.54C83.866 176.54 83.769 176.372 83.866 176.54Z" fill="#1C6A38"/>
<path d="M33.8623 184.517C38.0307 182.784 42.5622 181.291 46.3415 178.885C46.51 178.787 46.3155 178.45 46.1469 178.548C41.6867 179.775 37.7388 182.279 33.8623 184.517C33.6937 184.614 33.765 184.348 33.8623 184.517Z" fill="#1C6A38"/>
<path d="M34.6012 182.293C37.9269 181.047 41.5184 179.872 44.5522 178.12C44.7208 178.023 44.6235 177.855 44.455 177.952C41.032 179.029 37.6351 180.541 34.5039 182.124C34.3354 182.222 34.4327 182.39 34.6012 182.293Z" fill="#1C6A38"/>
<path d="M46.147 178.547C53.6603 174.434 61.9451 170.1 67.8567 163.991C68.0253 163.894 67.7335 163.389 67.5649 163.486C59.9803 167.865 53.2712 173.76 46.147 178.547C46.147 178.547 46.0497 178.379 46.147 178.547Z" fill="#1C6A38"/>
<path d="M59.3042 156.573C66.9476 154.632 74.643 153.559 82.481 151.954C82.915 151.928 82.792 151.325 82.358 151.351C74.539 151.821 66.727 153.86 59.3042 156.573C59.3042 156.573 59.2069 156.405 59.3042 156.573Z" fill="#1C6A38"/>
<path d="M62.0459 154.316C64.7947 153.628 67.5435 152.939 70.2923 152.251C73.1383 151.731 76.01 151.646 78.565 150.62C78.902 150.426 78.876 149.991 78.441 150.017C73.0795 149.294 66.8625 151.76 62.0199 153.882C61.9487 154.148 62.0459 154.316 62.0459 154.316Z" fill="#1C6A38"/>
<path d="M64.2564 151.917C69.6566 150.372 75.064 150.395 80.49 149.284C80.658 149.187 80.73 148.921 80.464 148.85C75.005 147.958 69.099 149.795 64.1591 151.748C63.8933 151.677 63.9906 151.846 64.2564 151.917Z" fill="#1C6A38"/>
<path d="M263.064 75.102C270.603 71.423 278.214 67.479 284.78 62.115C284.949 62.017 284.754 61.68 284.586 61.778C277.338 65.962 270.214 70.749 262.869 74.765C262.701 74.862 262.895 75.199 263.064 75.102Z" fill="#1C6A38"/>
</g>
<defs>
<clipPath id="clip0_327_912">
<rect width="265" height="198" fill="white"/>
</clipPath>
</defs>
</svg>
