<svg width="198" height="221" viewBox="0 0 198 221" fill="none" xmlns="http://www.w3.org/2000/svg">
<g clip-path="url(#clip0_328_2556)">
<path d="M4.57176 193.767C-4.5251 187.332 2.13116 170.024 5.90303 162.479C8.7874 156.488 12.7812 150.941 17.2187 145.615C21.878 140.068 27.4249 133.855 33.4155 129.861C33.6374 129.639 34.0812 130.083 33.8593 130.305C30.5312 134.964 25.6499 138.737 21.6562 142.953C17.6624 147.391 13.6687 152.05 10.3406 156.932C4.12803 166.474 -3.41572 183.116 4.79365 193.323C5.01553 193.545 4.79364 193.989 4.57176 193.767Z" fill="#1C6A38"/>
<path d="M30.5309 131.858C33.859 128.973 34.0809 125.867 33.1934 121.651C32.7496 119.875 32.3059 117.657 34.3027 116.991C34.5246 116.991 34.7465 117.213 34.5246 117.435C32.3059 119.654 34.9684 124.092 34.5246 126.754C34.0809 129.195 32.7496 131.192 30.5309 132.302C30.5309 132.524 30.309 132.08 30.5309 131.858Z" fill="#1C6A38"/>
<path d="M34.7469 116.547C36.3 112.997 39.85 112.109 43.4 112.109C46.5062 111.887 49.3906 112.109 52.4969 111.665C56.4906 111 59.8187 109.446 63.5906 108.337C64.0344 108.337 64.2562 108.559 64.0344 109.003C60.9281 111.443 56.7125 112.553 52.7187 112.997C46.5062 113.884 39.85 111.443 34.9687 116.769C34.9687 116.991 34.7469 116.769 34.7469 116.547Z" fill="#1C6A38"/>
<path d="M62.925 107.893C62.925 107.893 64.2562 106.562 64.2562 106.34C64.2562 105.23 62.4813 104.343 61.5938 104.121C60.2625 103.677 58.9313 103.455 57.8219 103.011C55.825 102.124 53.6063 100.792 52.9406 98.5739C52.9406 98.3519 53.1625 98.1299 53.3844 98.1299C54.4938 99.0169 55.3813 100.127 56.4906 100.792C58.2656 101.902 59.8188 102.124 61.8156 102.79C63.5906 103.233 65.1438 103.899 65.8094 105.674C65.8094 105.896 65.8094 106.118 65.5875 106.34C64.9219 107.006 64.0344 107.449 63.1469 107.893C62.925 108.115 62.925 107.893 62.925 107.893Z" fill="#1C6A38"/>
<path d="M54.05 99.6829C54.4937 95.4669 59.1531 94.8009 62.7031 95.2449C66.475 95.6889 70.025 96.3549 73.7969 96.5769C77.7906 96.7979 82.0063 95.9109 86 96.5769C86.4438 96.5769 86.4438 97.0199 86 97.2419C82.0063 99.0169 76.9031 98.5739 72.6875 98.3519C67.1406 97.9079 57.8219 93.6919 54.05 99.6829Z" fill="#1C6A38"/>
<path d="M83.7812 96.3549C85.778 96.3549 86.2218 89.4759 87.3312 87.7009C88.2187 86.3689 89.7718 85.4819 91.3249 85.2599C95.7624 84.3719 99.978 88.1439 104.415 88.1439C104.859 88.1439 104.859 88.5879 104.415 88.8099C99.3124 91.2509 94.4312 84.1499 89.328 87.7009C85.9999 90.1419 88.4406 93.4699 86.2218 95.9109C85.3343 97.0199 84.4468 97.0199 83.3374 96.7979C83.5593 96.7979 83.5593 96.3549 83.7812 96.3549Z" fill="#1C6A38"/>
<path d="M5.01541 192.214C13.2248 187.11 19.6592 176.903 25.4279 169.136C31.1967 161.37 36.0779 152.716 42.2904 145.172C42.7342 144.728 43.3998 145.172 43.1779 145.615C38.5186 154.935 31.6404 163.367 25.4279 171.577C22.0998 175.793 18.7717 180.009 15.4436 184.225C12.5592 187.776 9.89666 191.104 5.68104 192.879C5.01542 193.101 4.57166 192.435 5.01541 192.214Z" fill="#1C6A38"/>
<path d="M40.9589 147.834C42.0683 146.725 43.1777 145.615 44.5089 144.506C44.7308 144.284 45.1746 144.284 45.1746 144.506C46.0621 145.615 47.3933 147.169 48.7246 147.612C54.0496 149.388 54.7152 145.393 55.6027 142.731C56.2683 140.068 57.1558 137.627 58.2652 135.186C59.8183 131.858 62.0371 128.751 65.1434 126.976C65.5871 126.754 65.809 127.42 65.5871 127.642C61.1496 132.08 58.709 136.518 56.934 142.287C56.2683 144.506 55.8246 147.612 53.384 148.722C51.3871 149.61 49.1683 148.944 47.3933 148.056C46.9496 147.834 45.6183 146.281 45.1746 146.281C43.8433 146.059 42.2902 147.391 40.9589 147.834C40.9589 148.056 40.9589 148.056 40.9589 147.834Z" fill="#1C6A38"/>
<path d="M63.1467 128.973C65.3654 125.423 68.4717 122.316 71.5779 119.654C73.3529 118.1 77.3467 113.884 80.0092 114.328C81.3404 114.55 81.3404 115.216 81.3404 116.103C81.5623 117.657 80.4529 119.875 80.0092 121.429C79.3436 123.87 78.6779 126.532 77.5686 128.973C77.3467 129.195 77.1248 129.195 77.1248 128.751C77.3467 126.089 78.2342 123.648 78.8998 121.207C79.5654 118.322 80.0092 116.103 76.2373 117.878C71.3561 120.097 67.5842 125.645 64.2561 129.639C63.3686 130.305 62.7029 129.639 63.1467 128.973Z" fill="#1C6A38"/>
<path d="M78.2344 128.53C80.0094 132.302 86.8875 122.538 87.775 120.985C89.3281 118.1 90.2156 114.994 91.5469 112.109C93.5437 107.449 95.7625 103.012 99.7563 99.9049C100.422 99.4609 101.087 100.349 100.422 100.793C90.4375 108.781 91.7688 126.089 78.6781 130.748C78.4563 130.748 78.2344 130.748 78.2344 130.527C78.0125 129.861 78.0125 129.417 77.7906 128.751C77.5688 128.53 78.0125 128.308 78.2344 128.53Z" fill="#1C6A38"/>
<path d="M100.2 99.6829C101.309 100.127 101.309 100.127 101.753 101.236C102.197 102.124 101.531 103.677 102.197 104.565C105.525 110.112 108.187 101.902 108.853 100.793C111.072 95.4669 114.4 89.9199 119.281 86.8129C119.503 86.5909 119.947 87.0349 119.725 87.2569C116.619 91.4729 113.069 95.0229 110.628 99.6829C109.297 102.124 108.631 106.118 105.969 107.449C100.422 109.89 102.419 102.124 99.9781 100.349C99.5344 99.9049 99.9781 99.4609 100.2 99.6829Z" fill="#1C6A38"/>
<path d="M103.75 88.8099C101.531 86.8129 103.084 83.2629 105.747 82.3749C107.522 81.7089 109.518 82.3749 111.072 83.0409C114.622 84.3719 117.062 85.7039 121.056 84.3719C121.278 84.1499 121.5 84.5939 121.5 84.8159C120.168 86.8129 117.506 86.8129 115.287 86.1469C113.512 85.7039 111.959 84.5939 110.406 84.1499C109.297 83.7069 108.409 83.4849 107.3 83.4849C105.303 83.7069 102.197 86.1469 104.415 88.3659C104.859 88.5879 104.193 89.2539 103.75 88.8099Z" fill="#1C6A38"/>
<path d="M117.062 88.5879C121.499 85.7039 126.159 83.4849 130.596 80.8219C134.368 78.3809 138.14 75.7179 142.134 73.4989C142.356 73.2769 142.8 73.7209 142.356 73.9429C135.699 79.9339 125.937 85.9259 117.284 89.0319C117.062 89.0319 116.84 88.5879 117.062 88.5879Z" fill="#1C6A38"/>
<path d="M117.95 85.2598C121.5 82.5968 125.493 80.8218 129.265 78.6028C133.703 76.1618 137.918 73.4988 142.356 71.5018C142.578 71.5018 142.8 71.7238 142.578 71.9458C135.7 77.2718 126.381 83.0408 117.95 85.4818V85.2598Z" fill="#1C6A38"/>
<path d="M140.359 74.1649C164.765 51.0879 190.725 28.6759 221.565 14.697C236.875 7.81817 252.85 1.82697 268.825 -3.27663C283.025 -7.93643 297.89 -11.4867 312.978 -11.9305C326.734 -12.3743 342.709 -10.821 354.69 -3.49853C355.356 -3.05473 354.69 -2.16713 354.025 -2.38903C345.593 -5.27363 337.606 -8.38023 328.731 -9.48973C319.856 -10.5991 310.981 -10.3773 302.328 -9.26783C282.359 -6.82693 263.056 0.27367 244.197 7.15247C224.672 14.697 206.034 23.3509 188.728 35.5549C171.865 47.5379 156.556 61.5169 141.025 75.0529C140.359 75.4959 139.693 74.6089 140.359 74.1649Z" fill="#1C6A38"/>
<path d="M136.587 74.3868C142.8 69.9488 148.346 64.8448 154.115 59.9638C154.337 59.7418 154.781 60.1858 154.559 60.4068C149.9 66.3988 143.465 71.2798 137.031 75.0528C136.587 75.2738 136.143 74.6088 136.587 74.3868Z" fill="#1C6A38"/>
<path d="M146.35 68.1738C152.562 60.4078 159.662 53.7508 167.65 47.5378C175.193 41.7678 183.847 35.5548 192.722 31.7828C192.943 31.7828 192.943 32.0048 192.722 32.0048C184.512 37.5518 176.081 42.2118 168.315 48.4248C160.55 54.6378 153.45 61.5168 146.35 68.1738C146.128 68.3958 146.35 68.6178 146.35 68.1738Z" fill="#1C6A38"/>
<path d="M181.184 40.4369C187.397 35.5549 194.497 32.0049 201.597 28.4549C209.584 24.6819 217.128 20.2439 225.337 16.4721C240.425 9.37151 256.622 4.2679 272.597 0.273804C272.818 0.273804 273.04 0.717506 272.818 0.717506C256.622 5.37731 241.312 10.9247 225.781 17.1378C217.572 20.4659 209.362 23.7949 201.818 28.4549C195.162 32.4489 188.506 36.8869 181.628 40.4369C181.184 40.8809 180.962 40.6589 181.184 40.4369Z" fill="#1C6A38"/>
<path d="M6.34656 184.225C8.56531 176.681 13.2247 169.58 17.6622 162.923C22.0997 156.488 27.2029 149.831 33.6372 144.95C33.8591 144.728 34.081 144.95 33.8591 145.172C28.756 150.941 23.431 156.266 18.9935 162.701C14.1122 169.58 11.006 176.903 6.7903 184.225C6.56842 184.669 6.34656 184.447 6.34656 184.225Z" fill="#1C6A38"/>
<path d="M23.209 150.497C31.1965 142.509 39.6277 135.408 48.2809 128.529C57.3777 121.207 66.6965 113.441 76.9027 107.449C77.1246 107.227 77.3465 107.671 77.1246 107.671C68.2496 114.772 58.4871 121.207 49.3902 128.308C40.5152 135.408 32.084 143.175 23.209 150.497C23.209 150.497 23.209 150.719 23.209 150.497Z" fill="#1C6A38"/>
<path d="M60.7059 119.876C67.3621 114.994 74.684 111 81.784 106.784C88.2184 102.79 94.8746 98.7949 101.531 95.2449C101.753 95.2449 101.753 95.4669 101.753 95.4669C94.8746 100.127 87.7746 104.343 80.6746 108.781C74.2402 112.775 67.8058 116.991 60.9277 120.541C60.7058 120.319 60.484 120.097 60.7059 119.876Z" fill="#1C6A38"/>
<path d="M84.8905 102.124C95.3186 97.9079 104.637 93.2479 113.956 86.8129C114.4 86.5909 114.844 87.2569 114.4 87.4789C106.191 94.3579 95.3186 99.9049 84.8905 102.568C84.6686 102.568 84.6686 102.124 84.8905 102.124Z" fill="#1C6A38"/>
<path d="M72.2437 112.775C76.0156 108.115 82.6719 104.343 88.2187 101.902C88.4406 101.68 88.6625 102.124 88.4406 102.346C85.7781 104.343 82.6719 106.118 80.0094 108.115C77.3469 109.89 74.9063 111.665 72.2437 112.775C72.2437 112.775 72.2437 112.997 72.2437 112.775Z" fill="#1C6A38"/>
<path d="M35.1904 142.509C38.9622 136.74 45.1747 130.748 51.3872 127.198C51.6091 126.976 51.831 127.42 51.6091 127.642C48.9466 130.083 45.8403 132.302 43.1778 134.964C40.5153 137.405 38.0747 140.29 35.4122 142.953C35.1903 142.953 34.9685 142.731 35.1904 142.509Z" fill="#1C6A38"/>
<path d="M70.4687 164.033C66.9187 159.595 68.6937 153.16 69.8031 148.278C71.1344 141.621 73.3531 134.964 76.4594 128.751C76.9031 127.864 78.0125 128.529 77.7906 129.195C73.575 138.959 67.3625 152.938 70.9125 163.811C70.9125 164.033 70.6906 164.255 70.4687 164.033Z" fill="#1C6A38"/>
<path d="M70.6906 163.145C87.7749 164.255 91.5468 142.731 103.306 134.743C103.528 134.521 103.75 134.964 103.528 134.964C93.7655 144.284 87.1093 164.92 70.6906 163.589C70.2468 163.811 70.2468 163.145 70.6906 163.145Z" fill="#1C6A38"/>
<path d="M101.309 137.627C102.418 134.743 103.971 132.745 107.3 133.411C109.962 133.855 111.737 135.408 114.621 135.186C118.171 134.964 121.5 132.967 123.718 130.305C131.484 121.873 130.153 107.006 140.803 100.792C141.025 100.571 141.246 101.014 141.025 101.236C135.7 106.34 133.259 112.331 130.818 119.21C129.043 123.87 127.268 128.751 123.496 132.08C121.278 134.077 118.615 135.63 115.731 136.074C110.628 136.961 104.637 132.08 101.309 137.849C101.309 138.071 101.087 137.849 101.309 137.627Z" fill="#1C6A38"/>
<path d="M138.584 102.568C140.137 101.68 140.359 98.3518 142.8 99.0168C145.24 99.6828 144.575 103.011 144.131 104.787C143.022 110.556 141.912 116.103 141.468 121.873C141.246 125.201 140.803 128.751 141.246 131.858C141.69 134.299 142.578 138.737 145.684 138.515C147.681 138.293 147.459 138.071 148.568 136.296C158.775 120.319 155.003 99.6828 164.987 83.7069C165.209 83.4849 165.431 83.7068 165.431 83.9278C156.334 101.68 160.328 124.757 147.237 140.734C147.015 140.956 146.793 141.178 146.35 140.956C139.472 138.293 139.472 130.748 139.915 124.313C140.137 119.432 140.803 114.55 141.69 109.89C142.134 107.449 143.687 104.121 141.69 102.568C140.137 101.236 140.359 102.346 138.806 103.011C138.584 103.233 138.14 102.79 138.584 102.568Z" fill="#1C6A38"/>
<path d="M164.1 87.2568C165.431 84.3718 166.984 82.1528 169.203 79.9338C169.425 79.7118 169.869 79.7118 169.869 79.9338C172.309 83.9278 172.087 88.3658 172.753 93.0258C173.862 100.127 176.747 105.452 183.181 109.225C183.625 109.446 183.181 110.112 182.737 110.112C177.634 108.559 174.528 103.677 172.975 98.7948C172.087 95.9108 171.644 92.8038 171.422 89.9198C171.2 87.4788 171.644 85.7038 169.203 84.3718C168.094 82.8188 166.984 83.0408 166.319 84.5938C165.653 85.2598 164.987 86.3688 164.1 87.2568Z" fill="#1C6A38"/>
<path d="M183.846 109.89C186.065 104.565 187.618 100.127 187.396 94.3579C187.175 89.2539 185.843 84.3719 185.178 79.2689C184.068 71.0579 184.734 62.6259 190.059 55.7479C190.503 55.3039 191.168 55.7479 190.946 56.1909C188.062 61.5169 185.843 66.8419 186.065 73.0559C186.065 78.1589 187.396 83.2629 188.062 88.3659C189.171 95.2449 189.837 104.787 184.29 110.112C184.068 110.112 183.846 109.89 183.846 109.89Z" fill="#1C6A38"/>
<path d="M190.059 56.6349C190.724 56.1919 191.168 55.7479 191.834 55.3039C192.056 55.0819 192.278 55.3039 192.499 55.5259C194.496 60.1859 200.487 62.6269 204.924 59.2979C208.253 56.8569 208.918 51.9759 209.14 47.9809C209.362 43.3219 209.14 38.6619 211.803 34.4459C214.465 30.0079 219.79 26.9009 224.228 23.5729C229.774 19.3569 235.321 15.1407 241.09 11.1466C241.534 10.7028 242.199 11.5904 241.756 11.8123C234.656 17.8035 226.89 22.9069 219.346 28.4549C214.465 32.0049 211.359 35.3329 210.471 41.5459C210.028 45.3189 210.249 49.0909 209.362 52.8629C208.253 57.5229 205.368 61.5169 200.265 61.5169C198.49 61.5169 196.493 60.8509 194.94 59.9639C192.943 58.8539 192.499 55.9699 190.059 56.6349C189.837 56.6349 190.059 56.8569 190.059 56.6349Z" fill="#1C6A38"/>
<path d="M95.9839 87.0349C101.531 80.5999 92.6558 77.0499 92.4339 71.5019C92.212 68.6179 94.8745 66.6209 97.3152 66.1769C101.309 65.5109 104.859 68.1739 108.187 69.5049C115.509 72.3899 123.053 72.1679 129.709 68.1739C129.931 67.9519 130.153 68.3959 129.931 68.6179C123.053 74.6089 113.068 73.2769 105.303 69.7269C101.531 67.9519 90.2153 64.8449 95.0965 74.6089C95.984 76.3839 97.0933 77.4929 97.7589 79.4899C98.6464 82.3749 98.6465 85.2599 96.4277 87.4789C96.4277 87.9229 95.762 87.4789 95.9839 87.0349Z" fill="#1C6A38"/>
<path d="M127.49 69.5049C136.365 66.3989 126.825 62.6259 124.384 60.6289C123.275 59.7419 122.387 58.6319 122.165 57.3009C121.5 54.4159 123.275 51.7539 125.493 50.4219C129.709 47.9809 134.812 49.7559 139.25 49.9779C147.459 50.6439 153.893 47.3159 160.771 43.0999C160.993 42.8779 161.437 43.3219 161.215 43.5429C156.112 49.0909 148.125 51.5319 140.803 51.3099C138.584 51.3099 136.365 50.8659 134.146 50.4219C131.928 50.1999 129.487 49.7559 127.268 50.6439C126.603 51.0879 125.937 51.5319 125.05 51.9749C125.05 54.6379 125.05 57.0789 125.05 59.7419C126.603 62.4049 130.596 62.8479 132.15 65.9549C132.15 66.1769 132.15 66.1769 132.15 66.3989C130.818 68.1739 129.709 68.8399 127.49 69.5049Z" fill="#1C6A38"/>
<path d="M159.44 43.7649C163.656 41.9899 157.887 36.2209 157.444 34.2239C157.222 33.1139 157.444 32.2269 157.665 31.1169C158.553 27.7889 161.881 25.5699 165.209 24.9039C170.978 23.3509 177.412 24.2389 183.181 23.1289C190.059 22.0199 196.494 19.5789 202.928 17.1378C203.594 16.9159 204.037 17.8035 203.372 18.2473C192.5 24.0169 180.74 24.4599 168.759 25.5699C162.325 26.0139 156.556 29.3419 160.55 37.1089C161.215 38.4399 162.325 39.3269 162.547 40.8809C162.547 42.8779 161.437 44.4309 159.662 43.9869C159.219 43.9869 159.219 43.7649 159.44 43.7649Z" fill="#1C6A38"/>
<path d="M76.0155 152.05C78.8999 143.84 83.7812 136.296 90.6593 130.97C90.8812 130.97 90.8812 130.97 90.8812 131.192C84.8905 137.627 80.0093 144.062 76.6812 152.272C76.4593 152.716 75.7936 152.494 76.0155 152.05Z" fill="#1C6A38"/>
<path d="M79.7872 147.391C93.3216 128.529 110.85 113.662 127.934 97.9079C128.156 97.6859 128.6 98.1299 128.378 98.3519C121.056 106.784 111.737 112.775 103.75 120.319C94.8747 128.529 87.7747 138.293 79.7872 147.391Z" fill="#1C6A38"/>
<path d="M95.3186 125.645C100.422 119.875 106.19 114.772 111.737 109.668C117.728 104.121 123.497 97.6859 129.931 92.8039C130.153 92.5819 130.597 93.0259 130.375 93.2479C125.494 99.0169 119.281 104.121 113.956 109.224C107.965 114.994 102.197 120.985 95.5405 126.089C95.5405 126.089 95.0968 125.867 95.3186 125.645Z" fill="#1C6A38"/>
<path d="M131.484 91.0289C137.475 82.8189 144.575 73.7209 152.34 66.8419C152.562 66.6209 152.784 67.0639 152.784 67.2859C147.015 75.7179 139.028 84.1499 131.484 91.0289C131.484 91.2509 131.484 91.2509 131.484 91.0289Z" fill="#1C6A38"/>
<path d="M125.05 97.9078C127.49 95.4668 129.709 93.0258 131.928 90.5848C133.925 88.3658 135.478 85.7038 137.918 84.1498C138.14 83.9278 138.584 84.1498 138.362 84.5938C137.253 87.4788 134.59 89.6978 132.371 91.9168C130.153 94.1358 127.934 96.3548 125.493 98.5738C125.271 98.5738 124.828 98.1298 125.05 97.9078Z" fill="#1C6A38"/>
<path d="M126.825 99.2389C133.037 92.3599 138.584 85.0379 144.575 77.9369C144.796 77.7149 145.018 77.9369 145.018 78.1589C140.803 86.1469 133.925 93.4699 126.825 99.2389C126.825 99.2389 126.825 99.4609 126.825 99.2389Z" fill="#1C6A38"/>
<path d="M125.937 96.7978C129.931 92.3598 133.925 87.4788 138.362 83.7068C138.584 83.4848 139.028 83.9278 138.806 84.1498C135.256 89.0318 130.597 93.0258 126.603 97.4638C126.159 97.9078 125.493 97.2418 125.937 96.7978Z" fill="#1C6A38"/>
<path d="M149.678 72.8339C153.893 66.3989 159.44 60.8509 164.987 55.5259C170.756 49.9779 177.19 43.7649 184.29 39.5489C184.512 39.3269 184.956 39.7709 184.512 39.9929C178.743 45.5409 172.087 50.1999 166.318 55.7479C160.55 61.2949 155.668 67.5079 149.678 72.8339C149.678 73.0559 149.678 73.2769 149.678 72.8339Z" fill="#1C6A38"/>
<path d="M110.85 101.68C112.625 97.6859 114.622 92.8039 117.728 89.4759C117.95 89.2539 118.172 89.4759 118.172 89.6979C116.397 93.9139 113.29 97.6859 111.293 101.902C111.072 102.124 110.628 101.902 110.85 101.68Z" fill="#1C6A38"/>
<path d="M112.625 101.902C114.178 97.6859 116.175 92.8039 119.281 89.2539C119.503 89.0319 119.725 89.2539 119.725 89.4759C117.95 93.9139 115.065 97.9079 113.069 102.124C112.847 102.124 112.625 102.124 112.625 101.902Z" fill="#1C6A38"/>
<path d="M115.953 98.7949C117.284 95.6889 118.837 92.3609 120.612 89.6979C120.834 89.4759 121.056 89.6979 121.056 89.9199C119.946 93.0259 117.95 96.1329 116.175 98.7949C115.953 99.2389 115.731 99.0169 115.953 98.7949Z" fill="#1C6A38"/>
<path d="M120.169 96.3548C121.056 93.2478 122.165 89.9198 124.384 87.7008C124.606 87.4788 124.828 87.7008 124.606 87.9228C123.053 90.8068 121.278 93.2478 120.39 96.3548C120.39 96.7978 120.169 96.5758 120.169 96.3548Z" fill="#1C6A38"/>
<path d="M125.272 89.0319C125.715 88.1439 125.937 86.8129 126.603 86.1469C126.603 85.9259 127.047 86.1469 126.825 86.3689C126.603 87.4789 125.937 88.3659 125.494 89.2539L125.272 89.0319Z" fill="#1C6A38"/>
<path d="M49.6124 63.0699C42.9562 65.0669 43.6218 55.7479 46.2843 52.4189C52.4968 45.3189 65.5874 44.2089 74.2406 43.7649C74.6843 43.7649 74.9062 44.2089 74.4624 44.4309C70.2468 46.2059 65.5874 46.2059 61.3718 47.0939C58.7093 47.5379 56.2687 48.2029 53.8281 49.0909C52.2749 49.7559 50.4999 50.6439 49.1687 51.7539C48.2812 52.4189 47.6156 53.0849 47.1718 53.9729C44.2874 56.6349 45.1749 59.5199 49.6124 62.8479V63.0699Z" fill="#1C6A38"/>
<path d="M70.4686 43.5429C71.7999 42.4339 73.353 41.3239 74.6843 40.2149C74.4624 39.5489 74.2405 38.8839 74.0186 38.2179C73.5749 37.1079 73.1311 36.2209 72.9093 35.1109C72.6874 34.2239 72.4655 33.3359 72.6874 32.2269C72.9093 30.4519 73.7968 28.8979 75.5718 28.6759C78.2343 28.2329 80.0093 30.8949 81.7843 32.2269C85.778 35.5549 90.2155 37.5519 95.3186 38.6619C95.9842 38.8839 95.7624 39.5489 95.0968 39.5489C91.103 39.3269 87.553 37.7739 84.4468 35.5549C82.4499 34.2239 80.8968 32.4489 78.8999 31.1169C78.678 30.8949 78.2343 30.6729 78.0124 30.2299C74.6843 31.5609 73.5749 33.5579 74.4624 35.5549C74.6843 36.4429 75.3499 37.5519 75.5718 38.4399C76.0155 40.2149 76.2374 42.6559 74.4624 43.7649C72.9093 45.3189 71.3561 45.0969 70.4686 43.5429C70.2468 43.5429 70.2468 43.5429 70.4686 43.5429Z" fill="#1C6A38"/>
<path d="M93.7653 39.1049C99.5341 37.9959 85.9997 19.3569 97.7591 17.1377C102.196 16.472 105.746 19.1349 109.075 21.3539C115.287 25.3479 121.056 26.2359 128.378 26.9009C128.6 26.9009 128.6 27.3449 128.378 27.3449C124.162 28.2329 119.725 27.3449 115.731 26.0139C109.962 24.0169 100.643 14.0312 95.3184 19.8009C90.8809 24.6819 96.8716 30.2299 96.6497 35.5549C96.6497 37.9959 95.9841 39.7709 93.7653 39.1049C93.5434 39.1049 93.5434 39.3269 93.7653 39.1049Z" fill="#1C6A38"/>
<path d="M127.047 26.9009C130.597 24.4599 121.722 16.0283 120.834 13.3656C120.169 11.1466 120.39 9.14947 121.5 7.15247C121.722 6.93057 121.722 6.70868 122.165 6.70868C138.584 7.37438 143.687 27.7889 158.775 31.7829C159.219 32.0049 159.219 32.6709 158.775 32.6709C146.794 31.3389 141.469 18.6911 132.815 12.0342C130.819 10.4809 123.497 5.37728 121.944 10.0371C120.834 13.1437 124.828 17.1378 126.603 18.913C127.49 19.8009 128.378 20.4659 129.044 21.3539C130.597 23.7949 130.597 26.2359 127.934 27.5669C127.047 27.5669 126.825 27.1229 127.047 26.9009Z" fill="#1C6A38"/>
<path d="M46.728 61.0729C50.7218 61.5169 54.4937 61.7389 58.4874 61.2949C62.0374 60.8509 65.3655 59.7419 68.9155 58.8539C69.1374 58.8539 69.3593 59.0759 69.1374 59.2979C62.9249 62.8479 53.6062 63.2919 46.728 61.5169C46.5062 61.2949 46.5062 61.0729 46.728 61.0729Z" fill="#1C6A38"/>
<path d="M69.1371 59.7419C67.1402 61.7389 64.9215 63.7359 63.3683 66.1769C62.7027 67.2859 60.0402 70.8369 60.2621 72.1679C61.5933 78.6029 70.6902 67.5079 72.2433 65.7329C77.3465 59.9639 83.7808 55.7479 91.3246 53.7509C91.7683 53.7509 91.7683 53.9729 91.5465 54.1939C87.3308 56.4129 82.8933 57.9669 79.1215 60.8509C76.2371 63.0699 73.7965 65.7329 71.3558 68.3959C69.359 70.6149 64.0339 77.0499 60.4839 76.1619C54.4933 74.6089 66.9183 61.0729 69.1371 59.2979C69.1371 59.0759 69.359 59.5199 69.1371 59.7419Z" fill="#1C6A38"/>
<path d="M89.7715 54.8598C90.4371 53.0848 92.8778 54.4158 92.8778 55.9698C93.0996 58.1888 91.1028 60.1858 93.9871 61.7388C96.4278 63.0698 99.3121 61.2948 101.531 60.1858C101.753 60.1858 101.753 60.4078 101.753 60.4078C99.534 62.4048 96.4277 64.1798 93.5434 62.6258C92.434 61.9608 91.5465 61.0728 91.3246 59.9638C91.3246 59.5198 91.3246 59.0758 91.3246 58.6318C91.3246 58.1888 91.5465 57.9668 91.5465 57.7448C91.5465 57.5228 91.7684 57.3008 91.7684 57.0788C91.9903 56.4128 91.7684 55.7478 90.4371 55.5258C90.2152 55.5258 89.5496 55.3038 89.7715 54.8598Z" fill="#1C6A38"/>
<path d="M101.975 60.6289C101.753 60.8509 101.531 60.8509 101.309 61.0729C101.531 60.8509 101.753 60.6289 101.975 60.6289C102.197 60.6289 101.975 60.4069 101.975 60.6289Z" fill="#1C6A38"/>
<path d="M99.5342 62.1829C101.975 59.9639 104.637 57.7449 107.3 56.1909C108.853 55.0819 110.85 53.7509 113.069 53.9729C115.287 53.9729 117.506 56.6349 115.509 58.6319C115.287 58.8539 115.065 58.6319 115.065 58.4099C114.178 55.3039 112.847 54.4159 110.628 55.5259C110.406 55.7479 110.184 55.7479 109.962 55.9699C108.631 56.6349 107.078 57.5229 105.747 58.4099C103.528 59.7419 101.753 61.2949 99.7561 62.8479C99.5342 62.6259 99.3124 62.4049 99.5342 62.1829Z" fill="#1C6A38"/>
<path d="M116.175 59.2979C114.622 60.8509 116.619 63.5139 118.394 63.7359C121.056 64.1799 123.053 61.9609 125.05 60.4069C125.272 60.4069 125.272 60.4069 125.272 60.6289C123.497 62.8479 119.947 65.7329 117.062 63.9579C115.065 62.8479 113.956 60.1859 115.731 58.4099C116.175 58.1889 116.619 58.8539 116.175 59.2979Z" fill="#1C6A38"/>
<path d="M63.8125 55.0818C68.6938 54.4158 73.7969 53.9728 78.6781 53.0848C78.9 53.0848 78.9 53.3068 78.6781 53.3068C74.0188 54.8598 68.6938 55.7478 63.8125 55.3038C63.5906 55.3038 63.5906 55.0818 63.8125 55.0818Z" fill="#1C6A38"/>
<path d="M74.6844 51.3099C87.775 49.3129 99.7563 44.6529 112.181 40.2149C122.609 36.4429 134.147 32.8919 145.241 34.0019C145.462 34.0019 145.462 34.2239 145.241 34.2239C132.372 34.4459 120.612 37.7739 108.409 42.2119C97.5375 46.2059 86.2219 50.6439 74.6844 51.7539C74.4625 51.5319 74.2406 51.3099 74.6844 51.3099Z" fill="#1C6A38"/>
<path d="M109.297 44.2089C121.278 39.5489 134.59 36.4429 147.459 35.3329C147.459 35.3329 147.681 35.5549 147.459 35.5549C134.59 38.2179 121.944 41.1029 109.297 44.2089C109.075 44.4309 109.075 44.4309 109.297 44.2089Z" fill="#1C6A38"/>
<path d="M89.9936 50.6439C95.7623 49.5349 101.087 47.5379 106.856 45.9839C107.078 45.9839 107.078 46.2059 107.078 46.2059C101.975 49.0909 95.7623 50.1999 90.2155 50.8659C89.9936 50.8659 89.9936 50.6439 89.9936 50.6439Z" fill="#1C6A38"/>
<path d="M147.015 33.7798C148.79 33.7798 150.787 33.7798 152.562 33.5578C154.337 33.3358 155.89 32.8918 157.665 32.8918C157.887 32.8918 158.109 33.3358 157.887 33.3358C154.781 35.1108 150.344 34.8888 147.015 34.4458C146.572 34.4458 146.572 33.7798 147.015 33.7798Z" fill="#1C6A38"/>
<path d="M76.2371 220.616C70.4684 219.729 72.4653 211.518 73.3528 207.746C74.9059 201.533 78.0121 194.433 83.1152 190.217C83.3371 189.995 83.7809 190.438 83.559 190.66C81.1184 194.654 78.234 198.205 76.2371 202.643C74.4621 206.637 70.2465 217.732 76.459 220.394C76.6809 220.172 76.459 220.838 76.2371 220.616Z" fill="#1C6A38"/>
<path d="M81.3405 191.77C82.4498 190.216 82.8936 187.998 82.228 186.222C82.4498 186.222 82.6717 186.222 82.8936 186.222C80.2311 188.885 73.7967 189.773 72.0217 185.779C71.7998 185.557 72.2436 185.335 72.4655 185.335C74.0186 186.222 74.9061 187.332 76.903 187.554C78.8998 187.776 80.8967 187.11 82.228 185.779C82.4498 185.557 82.8936 185.557 82.8936 185.779C83.7811 188.219 83.1154 189.995 81.3405 191.77C81.3405 191.77 81.5623 191.992 81.3405 191.77Z" fill="#1C6A38"/>
<path d="M72.2433 184.891C72.687 182.006 74.9059 179.787 77.3465 178.456C78.6778 177.79 80.0089 177.125 81.3402 176.903C82.0058 176.681 82.8933 176.681 83.5589 176.459C85.3339 176.237 93.7652 175.349 88.662 170.468C88.4402 170.246 88.662 169.802 88.8839 170.024C91.7683 170.69 91.5464 174.24 89.5495 176.015C87.9964 177.568 85.5558 177.568 83.5589 177.79C78.6777 178.456 75.3495 180.897 72.2433 184.891C72.2433 184.891 72.4652 185.113 72.2433 184.891Z" fill="#1C6A38"/>
<path d="M89.1059 169.58C84.6684 169.58 86.2215 164.477 88.2184 162.258C91.1028 159.373 95.0965 157.82 98.6465 155.823C103.971 152.938 108.409 150.275 112.181 145.615C112.403 145.172 113.29 145.615 112.846 146.059C110.85 149.831 107.3 152.272 103.75 154.491C101.309 155.823 98.8684 156.932 96.6496 158.263C94.8746 159.151 93.0996 160.039 91.3246 161.148C89.5496 162.479 83.3372 166.695 89.1059 169.58Z" fill="#1C6A38"/>
<path d="M111.959 147.169C115.953 146.503 113.29 140.512 114.178 138.071C114.622 136.518 116.175 135.186 117.728 136.074C117.95 136.296 117.95 136.518 117.728 136.74C113.512 137.627 115.731 141.843 115.065 144.728C114.622 146.503 113.734 147.391 111.959 147.612C111.737 147.391 111.737 147.169 111.959 147.169Z" fill="#1C6A38"/>
<path d="M76.6811 220.394C81.3405 217.288 85.778 214.181 89.5498 209.965C92.6561 206.415 94.4311 202.421 97.0936 198.427C98.203 196.873 99.5342 195.32 101.531 195.32C104.193 195.32 105.747 200.424 107.743 199.98C108.187 199.98 108.409 200.646 107.965 200.867C106.412 201.533 107.078 200.867 105.525 200.646C105.081 200.424 104.859 199.98 104.637 199.758C100.422 196.873 97.7592 197.317 96.6498 201.089C95.7623 202.421 95.0967 203.974 94.2092 205.305C89.9936 211.74 83.7811 217.732 76.6811 220.838C76.4592 221.282 76.2373 220.616 76.6811 220.394Z" fill="#1C6A38"/>
<path d="M108.631 200.424C114.622 197.983 113.069 192.657 113.291 187.776C113.512 184.891 113.956 182.006 115.066 179.344C117.062 174.24 120.169 168.915 124.162 165.142C124.384 164.92 124.606 165.142 124.606 165.364C120.834 173.131 114.844 178.9 114.4 187.998C114.178 192.657 115.287 200.202 108.631 200.867C108.631 200.867 108.409 200.646 108.631 200.424Z" fill="#1C6A38"/>
<path d="M124.606 164.92C125.494 165.364 127.269 166.917 128.156 167.139C132.594 168.693 132.815 162.479 133.037 160.26C133.259 156.488 133.481 152.938 134.369 149.388C135.7 143.618 137.919 137.183 142.134 132.745C142.356 132.524 143.022 132.745 142.8 133.189C139.25 141.177 135.256 147.391 134.369 156.266C133.925 160.926 134.369 166.917 129.487 169.358C129.265 169.358 129.044 169.358 129.044 169.358C127.49 168.027 125.937 166.695 124.606 164.92C124.384 164.92 124.384 165.142 124.606 164.92Z" fill="#1C6A38"/>
<path d="M85.3342 201.533C87.9967 195.986 91.5467 190.66 94.4311 185.113C97.3154 179.566 99.9779 173.796 102.862 168.471C102.862 168.249 103.306 168.471 103.084 168.693C100.643 174.906 97.5373 180.675 94.4311 186.444C91.7686 191.77 89.1061 197.095 85.5561 201.977C85.5561 202.199 85.1123 201.977 85.3342 201.533Z" fill="#1C6A38"/>
<path d="M105.081 170.912C111.959 161.592 118.615 152.494 124.828 142.731C128.156 137.627 131.04 132.524 133.925 127.42C136.365 122.76 138.362 117.435 141.246 112.997C141.468 112.775 141.912 112.997 141.69 113.219C139.25 123.426 132.593 133.411 127.046 142.287C120.612 152.494 113.512 162.258 106.19 172.021C105.746 172.465 104.637 171.577 105.081 170.912Z" fill="#1C6A38"/>
<path d="M116.396 150.941C123.053 142.065 129.043 132.967 134.812 123.648C134.812 123.648 135.034 123.648 135.034 123.87C130.596 134.077 124.384 143.396 116.84 151.385C116.396 151.385 116.175 151.163 116.396 150.941Z" fill="#1C6A38"/>
<path d="M101.309 173.574C105.968 165.364 110.85 157.154 116.175 149.388C116.397 149.166 116.84 149.388 116.618 149.61C112.181 157.82 106.856 165.808 101.531 173.574C101.531 174.018 101.309 173.796 101.309 173.574Z" fill="#1C6A38"/>
<path d="M132.593 117.435C133.703 113.219 135.7 107.893 139.693 105.452C139.915 105.23 140.137 105.452 139.915 105.674C138.806 107.449 137.253 109.003 135.921 110.778C134.812 112.997 133.481 114.994 132.593 117.435C132.593 117.435 132.815 117.435 132.593 117.435Z" fill="#1C6A38"/>
<path d="M131.04 119.21C132.372 113.441 135.034 106.118 140.581 103.233C140.803 103.011 141.025 103.455 140.803 103.677C139.25 106.118 137.031 108.115 135.256 110.556C133.481 113.219 132.15 116.325 131.262 119.432C131.484 119.654 131.04 119.432 131.04 119.21Z" fill="#1C6A38"/>
<path d="M131.262 121.207C133.259 115.659 136.365 110.556 140.581 106.562C140.581 106.562 140.803 106.562 140.803 106.784C137.253 111.443 133.925 115.881 131.262 121.207C131.262 121.207 131.262 121.429 131.262 121.207Z" fill="#1C6A38"/>
<path d="M133.037 121.429C134.368 116.769 136.809 111.222 140.803 108.115C141.025 107.893 141.246 108.115 141.025 108.337C138.362 112.775 135.256 116.547 133.037 121.429C133.037 121.429 133.259 121.651 133.037 121.429Z" fill="#1C6A38"/>
<path d="M133.925 122.538C135.478 118.988 137.253 115.438 139.25 112.109C139.25 111.887 139.471 112.109 139.471 112.331C137.918 115.881 136.143 119.432 134.146 122.76C134.146 122.76 133.925 122.76 133.925 122.538Z" fill="#1C6A38"/>
<path d="M120.391 136.296C124.828 130.97 127.934 125.645 131.041 119.654C131.041 119.432 131.262 119.654 131.262 119.654C129.044 125.867 125.272 131.858 120.834 136.74C120.612 136.961 120.169 136.74 120.391 136.296Z" fill="#1C6A38"/>
<path d="M122.165 137.627C126.159 132.08 129.043 126.31 132.15 120.319C132.372 120.097 132.593 120.319 132.593 120.541C130.597 126.754 126.603 132.745 122.609 137.849C122.165 137.849 121.943 137.627 122.165 137.627Z" fill="#1C6A38"/>
<path d="M123.496 137.849C126.381 132.524 129.487 127.198 133.037 122.316C133.037 122.095 133.481 122.316 133.259 122.538C130.596 127.864 127.046 133.189 123.496 137.849C123.496 138.071 123.496 138.071 123.496 137.849Z" fill="#1C6A38"/>
<path d="M125.937 136.518C128.6 132.967 130.597 128.973 132.372 124.979C132.372 124.757 132.593 124.979 132.593 124.979C131.262 129.417 129.043 133.411 125.937 136.518C125.715 136.74 125.937 136.74 125.937 136.518Z" fill="#1C6A38"/>
<path d="M117.506 136.074C120.39 134.964 122.165 132.746 123.94 130.305C123.94 130.083 124.162 130.305 124.162 130.527C123.275 133.411 120.612 135.63 117.728 136.518C117.506 136.296 117.284 136.074 117.506 136.074Z" fill="#1C6A38"/>
<path d="M117.062 136.74C119.281 134.964 121.722 133.189 123.94 131.636C124.162 131.414 124.384 131.636 124.162 131.858C122.609 134.299 119.947 136.074 117.062 136.74C116.84 136.74 117.062 136.961 117.062 136.74Z" fill="#1C6A38"/>
<path d="M115.953 138.737C118.615 136.962 120.612 134.743 123.053 132.745C123.275 132.524 123.275 132.745 123.275 132.967C121.721 135.63 118.837 137.627 116.175 138.959C115.953 139.18 115.731 138.737 115.953 138.737Z" fill="#1C6A38"/>
<path d="M117.95 140.068C120.168 138.293 122.165 136.296 124.162 134.299C124.384 134.077 124.384 134.299 124.384 134.521C122.831 136.961 120.612 138.959 118.171 140.512C117.95 140.512 117.728 140.29 117.95 140.068Z" fill="#1C6A38"/>
<path d="M184.956 41.7679C190.281 37.1089 196.05 32.4489 202.262 29.3419C202.484 29.3419 202.484 29.5639 202.484 29.5639C196.715 33.7799 190.725 37.5519 184.956 41.7679C184.956 41.9899 184.956 41.9899 184.956 41.7679Z" fill="#1C6A38"/>
<path d="M186.509 42.8779C191.168 39.3269 196.05 35.5549 201.153 32.8919C201.375 32.6709 201.596 33.1139 201.375 33.3359C196.937 37.1079 191.612 40.2149 186.731 43.5429C186.731 43.3219 186.287 43.0999 186.509 42.8779Z" fill="#1C6A38"/>
<path d="M187.396 45.0969C191.168 41.3239 196.05 37.7739 200.931 35.7769C201.153 35.5549 201.596 36.2209 201.153 36.4429C196.715 39.5489 192.278 42.6559 187.84 45.7619C187.618 45.7619 186.953 45.3189 187.396 45.0969Z" fill="#1C6A38"/>
<path d="M190.503 45.5399C194.497 43.3219 198.047 40.6589 201.597 37.9959C201.818 37.7739 202.04 37.9959 201.818 38.2179C198.712 41.5459 194.718 43.9869 190.725 45.9839C190.503 46.2059 190.059 45.7619 190.503 45.5399Z" fill="#1C6A38"/>
<path d="M190.947 48.4249C194.94 45.9839 198.712 43.0999 202.706 40.4369C202.928 40.2149 203.15 40.4369 202.928 40.6589C199.822 43.9869 195.384 46.8719 191.168 48.6469C190.947 49.0909 190.725 48.6469 190.947 48.4249Z" fill="#1C6A38"/>
<path d="M193.387 50.4219C196.05 48.2029 198.934 45.5409 201.818 43.9869C202.04 43.9869 202.262 44.2089 202.04 44.2089C199.6 46.6499 196.493 48.8689 193.609 50.6439C193.387 50.8659 193.165 50.6439 193.387 50.4219Z" fill="#1C6A38"/>
<path d="M196.05 51.7539C198.269 50.4219 200.265 48.6469 202.04 46.6499C202.262 46.4279 202.484 46.6499 202.262 46.8719C200.931 49.0909 198.712 50.8659 196.272 52.1969C196.05 52.4189 195.828 51.9749 196.05 51.7539Z" fill="#1C6A38"/>
<path d="M145.241 81.0438C150.344 73.9428 156.778 67.2858 163.212 61.5168C163.212 61.5168 163.434 61.5168 163.434 61.7388C157.444 68.1738 151.675 74.8308 145.241 81.0438C145.241 81.2658 145.462 81.2658 145.241 81.0438Z" fill="#1C6A38"/>
<path d="M148.79 129.195C150.122 124.535 151.231 119.654 153.45 115.216H153.672C152.562 119.876 150.565 124.535 148.79 129.195Z" fill="#1C6A38"/>
<path d="M148.347 132.08C149.678 127.864 151.453 123.426 153.672 119.432C153.894 119.21 154.337 119.21 154.116 119.654C152.784 123.87 150.566 128.308 148.347 132.08C148.347 132.302 148.569 132.302 148.347 132.08Z" fill="#1C6A38"/>
<path d="M150.787 131.858C151.453 128.751 152.34 125.645 153.45 122.538C153.45 122.316 153.672 122.538 153.672 122.538C153.006 125.645 152.118 128.751 151.009 131.858C151.009 132.08 150.787 132.08 150.787 131.858Z" fill="#1C6A38"/>
<path d="M145.24 137.183C147.681 135.852 148.79 133.855 149.234 131.192C149.234 130.97 149.678 130.97 149.678 131.192C150.121 134.077 147.903 136.74 145.462 137.627C145.018 137.849 145.018 137.405 145.24 137.183Z" fill="#1C6A38"/>
<path d="M146.572 136.961C153.672 121.651 156.112 104.787 160.106 88.5879H160.328C157 104.565 154.781 122.538 146.572 136.961Z" fill="#1C6A38"/>
<path d="M158.109 93.4699C159.441 88.5879 161.437 83.0409 164.987 79.0469C166.319 77.7149 169.203 75.7179 170.091 78.1589C170.091 78.3809 169.869 78.6029 169.647 78.3809C165.209 75.2749 159.219 90.5849 158.331 93.4699C158.331 93.6919 158.109 93.6919 158.109 93.4699Z" fill="#1C6A38"/>
<path d="M163.656 86.5909C164.321 83.7069 166.762 79.4909 170.09 79.2689C170.312 79.2689 170.534 79.4909 170.312 79.7119C169.203 80.8219 167.871 81.2659 166.762 82.3749C165.653 83.4849 164.765 85.0379 164.1 86.5909C163.878 86.8129 163.656 86.8129 163.656 86.5909Z" fill="#1C6A38"/>
<path d="M164.1 83.4848C165.653 81.7098 167.871 79.7118 170.09 79.4908C170.312 79.4908 170.534 79.7118 170.312 79.9338C168.315 81.2658 166.318 82.3748 164.321 83.9278C164.1 84.1498 163.878 83.7068 164.1 83.4848Z" fill="#1C6A38"/>
<path d="M166.54 81.0439C167.428 79.7119 168.981 79.2689 170.534 79.7119C172.087 80.1559 173.419 81.2659 173.197 82.8189C173.197 83.0409 172.975 83.0409 172.753 82.8189C171.865 80.5999 168.537 79.0469 166.54 81.2659C166.54 81.4879 166.319 81.2659 166.54 81.0439Z" fill="#1C6A38"/>
<path d="M168.316 79.2689C171.644 79.0469 174.306 81.4879 174.528 85.0379C174.528 85.4819 174.084 85.4819 173.862 85.0379C173.419 82.3749 170.978 80.1559 168.316 79.7119C168.094 79.4909 168.094 79.2689 168.316 79.2689Z" fill="#1C6A38"/>
<path d="M173.64 83.2629C174.528 90.8069 176.525 97.9079 179.187 105.23C179.187 105.452 178.965 105.452 178.965 105.23C175.415 98.5739 173.418 91.0289 172.975 83.4849C172.975 82.8189 173.64 82.8189 173.64 83.2629Z" fill="#1C6A38"/>
<path d="M183.847 107.227C179.409 106.34 174.75 101.236 176.303 96.3549C176.303 96.1329 176.747 96.1329 176.747 96.3549C177.634 101.236 179.187 104.787 184.068 106.562C184.29 106.784 184.068 107.227 183.847 107.227Z" fill="#1C6A38"/>
<path d="M180.74 107.671C176.303 102.346 172.531 92.5819 174.528 85.4819C174.528 85.2599 174.972 85.2599 175.193 85.4819C175.859 89.4759 175.637 93.4699 176.968 97.4639C178.078 101.014 179.631 104.121 181.406 107.228C181.406 107.671 180.962 107.893 180.74 107.671Z" fill="#1C6A38"/>
<path d="M161.881 29.1199C166.54 27.5669 171.422 26.2359 176.525 26.9009C176.747 26.9009 176.747 27.1229 176.525 27.1229C171.643 27.7889 166.984 28.0109 162.103 29.3419C161.659 29.3419 161.659 29.1199 161.881 29.1199Z" fill="#1C6A38"/>
<path d="M165.209 29.7859C167.872 28.8979 170.978 28.2328 173.64 28.2328C173.862 28.2328 173.862 28.4548 173.64 28.4548C171.2 29.5638 167.872 30.0079 165.209 30.2299C165.209 30.2299 164.987 30.0079 165.209 29.7859Z" fill="#1C6A38"/>
<path d="M165.653 31.3389C166.984 31.3389 168.315 31.1169 169.647 30.8949C170.978 30.6729 172.309 30.2299 173.418 30.0079C173.64 30.0079 173.64 30.2299 173.64 30.2299C171.422 31.5609 168.093 31.7829 165.653 31.7829C165.209 31.7829 165.209 31.3389 165.653 31.3389Z" fill="#1C6A38"/>
<path d="M168.094 32.2269C169.869 32.2269 171.644 31.7829 173.197 30.8949C173.419 30.8949 173.419 31.1169 173.419 31.1169C171.866 32.4489 170.091 32.8919 168.094 32.6709C167.65 32.8919 167.65 32.2269 168.094 32.2269Z" fill="#1C6A38"/>
<path d="M163.434 39.7709C160.55 38.6619 158.775 35.7769 159.218 32.6709C159.884 29.7859 162.99 27.3449 166.097 28.0109C166.318 28.0109 166.318 28.2329 166.097 28.4549C163.434 28.8979 160.771 30.2299 160.106 33.1139C159.44 35.7769 160.993 38.6619 163.434 39.7709C163.656 39.5489 163.656 39.7709 163.434 39.7709Z" fill="#1C6A38"/>
<path d="M123.719 57.7449C125.05 55.5259 127.047 53.7509 129.709 53.3069C129.931 53.3069 129.931 53.5289 129.709 53.7509C127.491 54.6379 125.494 55.9699 123.941 57.9669C123.941 58.1889 123.497 57.9669 123.719 57.7449Z" fill="#1C6A38"/>
<path d="M124.606 56.4129C125.937 53.9729 128.6 51.7539 131.484 52.1969C131.706 52.1969 131.706 52.6409 131.484 52.6409C128.822 53.3069 126.381 54.1939 124.828 56.6349C124.828 56.8569 124.384 56.6349 124.606 56.4129Z" fill="#1C6A38"/>
<path d="M123.718 55.3038C125.049 51.9758 129.043 49.7568 132.593 51.3098C132.815 51.3098 132.815 51.7538 132.371 51.7538C129.043 51.7538 125.937 52.6408 123.94 55.5258C123.94 55.7478 123.718 55.5258 123.718 55.3038Z" fill="#1C6A38"/>
<path d="M127.269 51.9758C134.812 51.7538 142.356 51.7538 149.678 52.4188C149.9 52.4188 149.9 52.6408 149.678 52.6408C142.134 53.0848 134.591 52.8628 127.269 52.4188C127.047 52.4188 127.047 51.9758 127.269 51.9758Z" fill="#1C6A38"/>
<path d="M137.918 52.6409C141.246 53.7509 144.353 53.7509 147.903 53.9719C148.125 53.9719 148.125 54.4159 147.903 54.4159C144.575 55.0819 141.025 54.1939 137.918 52.8629C137.696 52.8629 137.918 52.6409 137.918 52.6409Z" fill="#1C6A38"/>
<path d="M140.137 55.3038C143.465 56.1908 146.793 55.7478 150.121 55.5258C150.343 55.5258 150.343 55.7478 150.121 55.7478C146.793 56.8568 143.243 56.4128 139.915 55.5258C139.915 55.7478 139.915 55.3038 140.137 55.3038Z" fill="#1C6A38"/>
<path d="M143.465 57.3009C145.462 57.7449 147.237 57.3009 149.012 56.6349C149.234 56.6349 149.234 56.8569 149.234 56.8569C147.459 57.9669 145.462 57.9669 143.465 57.5229C143.243 57.5229 143.243 57.3009 143.465 57.3009Z" fill="#1C6A38"/>
<path d="M131.928 63.7358C128.822 61.5168 123.719 57.7448 125.494 53.3068C125.494 53.0848 125.937 53.0848 125.937 53.5288C125.937 57.9668 128.6 60.8508 131.928 63.7358C131.928 63.7358 132.15 63.7358 131.928 63.7358Z" fill="#1C6A38"/>
<path d="M74.2404 32.8919C78.2341 31.7829 83.5591 34.8899 85.556 38.2179C85.556 38.4399 85.556 38.4399 85.3341 38.4399C83.781 36.8869 82.2279 35.3329 80.0091 34.4459C78.2341 33.5579 76.2372 33.5579 74.2404 32.8919C74.0185 32.8919 74.0185 32.8919 74.2404 32.8919Z" fill="#1C6A38"/>
<path d="M79.7871 35.5548C84.2246 39.1058 89.3277 40.8808 95.0965 41.1028V41.3238C89.3277 41.5458 83.7809 39.5488 79.7871 35.5548C79.5652 35.3328 79.5652 35.5548 79.7871 35.5548Z" fill="#1C6A38"/>
<path d="M76.6813 31.5608C80.2313 33.5578 83.5594 35.7768 86.8875 38.2178V38.4398C83.3375 36.4428 80.0094 34.2238 76.6813 32.0048C76.2375 31.5608 76.4594 31.3388 76.6813 31.5608Z" fill="#1C6A38"/>
<path d="M78.8997 33.5579C76.0154 33.7799 74.4622 37.1079 75.7935 39.5489C75.7935 39.5489 75.7935 39.7709 75.5716 39.5489C73.5747 37.1079 75.7935 32.8919 78.8997 33.1139V33.5579Z" fill="#1C6A38"/>
<path d="M91.9904 39.3269C94.6529 40.8809 98.4247 39.5489 99.0904 36.4429C99.5341 34.0019 97.7591 31.7829 96.6497 29.7859C95.5404 27.5669 94.6529 24.6819 96.6497 22.6849C96.6497 22.6849 96.8716 22.6849 96.8716 22.9069C93.7654 28.4549 101.753 32.4489 99.3122 37.5519C97.7591 40.4369 94.2091 41.3239 91.9904 39.3269C91.7685 39.3269 91.5466 39.5489 91.9904 39.3269Z" fill="#1C6A38"/>
<path d="M95.9844 23.3509C97.0938 20.9099 99.5344 20.4659 101.975 21.1319C106.634 22.2409 111.516 24.9039 115.731 27.1229C115.953 27.1229 115.731 27.3449 115.731 27.3449C112.625 26.2359 109.741 24.9039 106.634 23.5729C103.306 21.7979 98.8688 19.8009 95.9844 23.3509Z" fill="#1C6A38"/>
<path d="M106.19 25.1259C108.409 26.2359 110.406 27.1228 112.847 27.7888C115.287 28.4548 117.506 28.4549 119.947 28.8979C120.168 28.8979 120.168 29.1199 119.947 29.3419C115.509 30.0079 109.74 28.0109 106.19 25.5699C105.968 25.3479 106.19 25.1259 106.19 25.1259Z" fill="#1C6A38"/>
<path d="M107.078 27.7889C109.075 28.6759 111.294 29.3419 113.291 29.7859C115.066 30.2299 116.841 30.4519 118.616 31.1169C118.837 31.1169 118.837 31.5609 118.616 31.5609C114.622 31.5609 110.406 29.7859 106.856 28.2329C106.634 28.0109 106.856 27.5669 107.078 27.7889Z" fill="#1C6A38"/>
<path d="M109.518 31.3389C111.071 31.7829 112.625 32.2269 114.178 32.4489C115.509 32.6709 117.062 32.4489 118.393 32.6709C118.615 32.6709 118.615 32.8919 118.393 33.1139C117.062 33.5579 115.287 33.3359 113.956 33.1139C112.403 32.8919 110.85 32.4489 109.296 32.0049C109.075 31.5609 109.296 31.3389 109.518 31.3389Z" fill="#1C6A38"/>
<path d="M109.075 33.3359C111.737 33.5579 114.4 33.7799 117.062 34.4459V34.6679C114.4 34.6679 111.737 34.2239 109.075 33.7799C108.853 33.7799 108.853 33.3359 109.075 33.3359Z" fill="#1C6A38"/>
<path d="M109.297 35.9989C111.294 35.9989 113.512 35.9989 115.287 36.6649C115.509 36.6649 115.509 36.8869 115.287 36.8869C113.291 37.1079 111.072 36.6649 109.297 36.2209C109.075 36.2209 109.075 35.9989 109.297 35.9989Z" fill="#1C6A38"/>
<path d="M113.068 37.3298C113.956 37.3298 114.843 37.1078 115.731 37.1078C115.953 37.1078 115.953 37.5518 115.731 37.5518C114.843 37.7738 113.956 37.7738 113.29 37.7738C112.846 37.9958 112.625 37.3298 113.068 37.3298Z" fill="#1C6A38"/>
<path d="M50.7215 50.1999C55.6027 49.3129 60.7059 47.7589 65.809 47.3159C66.0309 47.3159 66.0309 47.5379 65.809 47.7589C60.9278 49.3129 55.6027 49.7569 50.7215 50.1999C50.4996 50.4219 50.4996 50.4219 50.7215 50.1999Z" fill="#1C6A38"/>
<path d="M49.834 51.7539C55.6027 48.8689 62.7028 46.8719 69.1371 47.5379C69.359 47.5379 69.359 47.7599 69.1371 47.7599C62.4809 48.6469 56.2683 49.3129 49.834 51.9759C49.834 52.1969 49.6121 51.7539 49.834 51.7539Z" fill="#1C6A38"/>
<path d="M51.1652 52.4189C55.8246 50.8659 60.9278 49.3129 65.809 49.3129C66.0309 49.3129 66.0309 49.5349 65.809 49.7559C60.9278 51.0879 56.0465 51.5319 51.1652 53.0849C51.1652 52.8629 50.9434 52.4189 51.1652 52.4189Z" fill="#1C6A38"/>
<path d="M54.2718 53.0849C58.0437 51.9759 62.2593 50.6439 66.0312 50.6439C66.253 50.6439 66.253 50.8659 66.0312 51.0879C62.4812 52.6409 58.0437 53.0849 54.2718 53.7509C54.2718 53.5289 54.0499 53.3069 54.2718 53.0849Z" fill="#1C6A38"/>
<path d="M57.1559 54.4159C58.9309 54.1939 60.484 53.9719 62.259 53.5289C63.8121 53.0849 65.3652 52.4189 67.1402 51.9749C67.3621 51.9749 67.3621 52.1969 67.3621 52.4189C64.6996 54.4159 60.484 54.8599 57.3778 54.8599C56.934 54.6379 56.934 54.4159 57.1559 54.4159Z" fill="#1C6A38"/>
<path d="M59.3748 55.9699C61.5936 55.3039 63.8123 54.6379 66.253 54.4159C66.4748 54.4159 66.6967 54.8599 66.4748 54.8599C64.2561 55.5259 61.8154 55.9699 59.5967 56.6349C59.1529 56.6349 59.1529 56.1919 59.3748 55.9699Z" fill="#1C6A38"/>
<path d="M47.3936 62.6259C51.6092 63.0699 55.8248 63.0699 60.0404 62.8479C60.2623 62.8479 60.2623 63.0699 60.0404 63.2919C56.0467 64.6239 51.3873 64.4019 47.3936 62.6259C47.3936 62.6259 47.3936 62.8479 47.3936 62.6259Z" fill="#1C6A38"/>
<path d="M56.4906 63.9579C60.2624 62.8479 64.2562 61.2949 68.2499 60.6289C68.4718 60.6289 68.4718 60.8509 68.2499 60.8509C64.4781 62.1829 60.2624 63.0699 56.4906 63.9579C56.2687 63.9579 56.2687 63.9579 56.4906 63.9579Z" fill="#1C6A38"/>
<path d="M121.5 28.2329C123.94 28.2329 127.712 28.6759 129.487 26.4569C131.484 23.7949 128.822 21.3539 127.047 19.5789C125.272 17.8034 122.609 15.8064 122.831 13.1436C122.831 12.9217 123.275 12.9217 123.275 13.1436C124.162 16.0283 125.937 17.5815 127.934 19.5789C129.265 20.6879 130.597 22.2409 130.819 24.0169C131.484 29.1199 124.828 29.7859 121.278 29.1199C121.056 28.8979 121.056 28.2329 121.5 28.2329Z" fill="#1C6A38"/>
<path d="M132.15 27.5669C136.587 27.5669 141.469 27.1229 145.906 28.0109C146.128 28.0109 146.128 28.2329 145.906 28.2329C141.469 28.8979 136.587 28.0109 132.15 27.7889V27.5669Z" fill="#1C6A38"/>
<path d="M128.156 30.2298C131.262 30.0078 134.368 30.0078 137.253 29.7858C139.915 29.7858 142.8 29.3418 145.462 29.7858C145.684 29.7858 145.684 30.2298 145.462 30.2298C142.578 30.8948 139.693 30.6738 136.809 30.6738C133.925 30.6738 131.04 30.6738 128.156 30.6738C127.934 30.6738 127.934 30.2298 128.156 30.2298Z" fill="#1C6A38"/>
<path d="M128.6 31.7829C131.262 32.0049 133.703 32.2269 136.365 32.2269C138.806 32.2269 141.025 31.5609 143.243 31.5609C143.465 31.5609 143.465 31.7829 143.243 32.0049C138.806 33.5579 133.037 33.1139 128.378 32.4489C128.378 32.2269 128.378 31.7829 128.6 31.7829Z" fill="#1C6A38"/>
<path d="M133.259 38.4399C139.25 37.5519 145.24 35.9989 151.453 35.3329C151.675 35.3329 151.675 35.5549 151.453 35.5549C145.684 37.1089 139.472 37.7739 133.259 38.4399Z" fill="#1C6A38"/>
<path d="M137.697 39.7709C143.465 38.4399 149.456 36.6649 155.447 36.2209C155.668 36.2209 155.668 36.4429 155.447 36.4429C149.9 37.9959 143.687 38.6619 137.697 39.7709Z" fill="#1C6A38"/>
<path d="M141.912 41.5458C147.237 39.9928 152.784 38.2178 158.331 37.3298C158.553 37.3298 158.553 37.5518 158.331 37.5518C153.006 39.3268 147.459 40.4368 141.912 41.9898C141.912 41.9898 141.69 41.5458 141.912 41.5458Z" fill="#1C6A38"/>
<path d="M138.141 43.5428C145.241 42.6558 152.119 40.8808 158.997 39.1058C158.997 39.1058 159.219 39.3268 158.997 39.3268C152.341 41.9898 145.241 43.0998 138.141 43.7648C137.919 43.9868 137.919 43.7648 138.141 43.5428Z" fill="#1C6A38"/>
<path d="M137.031 46.6499C140.581 45.9839 144.131 45.3189 147.459 44.6529C149.456 44.2089 151.675 43.5439 153.671 43.0999C154.781 42.8779 158.553 42.2119 155.003 42.6559C155.003 42.6559 154.781 42.4339 155.003 42.4339C155.89 42.2119 157 41.9899 157.887 41.7679C158.109 41.7679 158.331 42.2119 158.109 42.2119C151.453 44.6529 144.353 46.2059 137.253 47.0939C136.809 47.0939 136.809 46.6499 137.031 46.6499Z" fill="#1C6A38"/>
<path d="M137.475 47.3159C145.241 47.0939 152.119 44.8749 159.441 42.2119C159.662 41.9899 160.106 42.6559 159.662 42.6559C153.228 46.6499 144.797 47.9809 137.475 47.9809C137.031 47.9809 137.031 47.3159 137.475 47.3159Z" fill="#1C6A38"/>
<path d="M140.581 47.9809C147.237 47.5379 153.006 45.5409 159.218 43.0999C159.662 43.0999 159.884 43.5429 159.662 43.5429C154.115 47.3159 147.237 48.8689 140.581 48.6469C140.137 48.6469 140.137 47.9809 140.581 47.9809Z" fill="#1C6A38"/>
<path d="M142.578 48.4249C148.347 47.5379 153.228 45.3188 158.775 43.5428C158.997 43.5428 159.219 43.7648 158.997 43.9868C154.559 47.3158 148.125 48.8689 142.8 49.0909C142.356 49.0909 142.134 48.4249 142.578 48.4249Z" fill="#1C6A38"/>
<path d="M139.915 49.5348C147.459 49.5348 152.784 46.8718 158.775 42.6558C158.997 42.4338 159.218 42.8778 159.218 43.0998C154.781 48.6468 146.793 50.8658 139.915 50.1998C139.472 49.9778 139.472 49.5348 139.915 49.5348Z" fill="#1C6A38"/>
<path d="M153.006 46.4278C155.447 45.9838 157.444 44.8748 159.44 43.5428C159.662 43.5428 159.662 43.5428 159.662 43.7648C157.887 45.5408 155.447 46.4278 153.006 46.8718C152.784 46.6498 152.784 46.4278 153.006 46.4278Z" fill="#1C6A38"/>
<path d="M129.487 48.2029C134.812 49.0909 139.915 48.6469 145.24 47.7589C145.462 47.7589 145.684 48.2029 145.462 48.2029C140.581 50.4219 134.59 50.4219 129.487 48.8689C128.821 48.8689 129.043 48.2029 129.487 48.2029Z" fill="#1C6A38"/>
<path d="M9.00916 163.367C12.781 154.713 18.7716 147.169 26.0935 141.399C26.0935 141.399 26.3154 141.399 26.0935 141.621C19.4372 148.056 13.8904 155.157 9.00916 163.367Z" fill="#1C6A38"/>
<path d="M10.5624 163.145C14.1124 157.154 18.1062 151.385 22.9874 146.503C22.9874 146.503 23.2093 146.503 23.2093 146.725C18.7718 152.05 14.5562 157.376 10.5624 163.145C10.5624 163.145 10.7843 163.367 10.5624 163.145Z" fill="#1C6A38"/>
<path d="M12.5593 163.367C16.1093 158.485 19.6593 153.382 23.8749 148.944C24.0968 148.722 24.3187 148.944 24.0968 149.166C20.7687 154.269 16.553 158.929 12.5593 163.367C12.5593 163.367 12.5593 163.589 12.5593 163.367Z" fill="#1C6A38"/>
<path d="M14.3342 165.586C17.4405 160.261 20.7686 154.047 24.9842 149.61C25.2061 149.388 25.4279 149.61 25.4279 149.831C22.9873 155.601 18.328 160.926 14.778 166.03C14.5561 166.252 14.1124 165.808 14.3342 165.586Z" fill="#1C6A38"/>
<path d="M3.24018 185.335C2.57455 175.127 7.01206 162.036 14.334 155.157C14.5558 154.935 14.9996 155.379 14.7777 155.601C11.8934 160.26 8.78709 164.477 7.01209 169.58C5.01521 174.684 4.57146 180.009 3.68396 185.335C3.68396 185.778 3.24018 185.778 3.24018 185.335Z" fill="#1C6A38"/>
<path d="M0.577698 180.897C1.68707 170.69 7.23397 157.376 15.8871 151.163C16.109 150.941 16.3309 151.385 16.3309 151.607C13.2246 156.266 9.45271 160.261 6.7902 165.364C4.1277 170.468 2.57458 175.793 1.24333 181.119C1.02145 181.341 0.577698 181.341 0.577698 180.897Z" fill="#1C6A38"/>
<path d="M22.5436 143.618C28.978 138.293 34.303 132.524 39.628 126.089C39.8498 125.867 40.0717 126.089 39.8498 126.31C35.6342 133.189 29.4217 139.402 22.5436 143.618C22.5436 143.84 22.5436 144.062 22.5436 143.618Z" fill="#1C6A38"/>
<path d="M30.5311 138.737C35.1904 135.408 37.853 131.414 40.7373 126.532C40.9592 126.311 41.1811 126.532 40.9592 126.754C39.4061 132.08 34.9686 136.074 30.5311 138.959C30.5311 139.18 30.3092 138.959 30.5311 138.737Z" fill="#1C6A38"/>
<path d="M34.9686 131.858C36.2998 130.305 36.9654 128.529 37.4092 126.754C37.6311 124.979 37.4092 123.204 36.9654 121.429C36.9654 121.207 37.1873 121.207 37.1873 121.207C39.1842 124.535 37.8529 129.195 35.1904 132.08C34.9686 132.08 34.7467 132.08 34.9686 131.858Z" fill="#1C6A38"/>
<path d="M36.2995 122.095C36.0776 118.544 39.4058 113.663 43.6214 114.994C43.8433 114.994 43.8433 115.216 43.6214 115.438C41.8464 115.881 40.2933 116.103 38.962 117.213C37.187 118.322 36.2995 120.097 36.2995 122.095Z" fill="#1C6A38"/>
<path d="M38.7405 116.991C46.5061 113.884 54.9374 116.103 62.2593 111.222C62.4812 111.222 62.703 111.222 62.4812 111.444C56.9343 117.435 46.0624 115.66 38.7405 116.991Z" fill="#1C6A38"/>
<path d="M48.0593 118.544C50.2781 118.322 52.7187 118.1 54.9374 117.435C56.9343 116.769 58.7093 115.881 60.7062 114.994C60.9281 114.994 60.928 115.216 60.928 115.216C57.5999 118.1 52.4968 118.988 48.2812 118.766C47.8374 118.766 47.8374 118.544 48.0593 118.544Z" fill="#1C6A38"/>
<path d="M49.8341 119.654C51.831 119.654 53.8279 119.21 55.6029 118.544C57.156 117.879 58.7091 116.769 60.2622 115.881C60.4841 115.881 60.4842 116.103 60.4842 116.103C58.2654 119.21 53.606 120.319 49.8341 120.097C49.6122 119.876 49.6122 119.654 49.8341 119.654Z" fill="#1C6A38"/>
<path d="M52.2746 120.319C55.3808 119.654 57.3777 118.1 59.8183 116.325C60.0402 116.103 60.484 116.547 60.2621 116.769C58.4871 119.21 55.3808 120.541 52.4965 120.985C51.8308 121.207 51.8308 120.319 52.2746 120.319Z" fill="#1C6A38"/>
<path d="M53.1622 122.094C55.6028 120.541 58.4872 118.1 61.3716 117.435C61.5935 117.435 61.8153 117.657 61.5935 117.878C59.3747 119.875 56.0466 121.207 53.3841 122.316C53.1622 122.316 53.1622 122.094 53.1622 122.094Z" fill="#1C6A38"/>
<path d="M53.1623 123.87C56.0467 122.538 58.4873 120.985 60.9279 118.988C61.1498 118.766 61.5935 119.21 61.1498 119.432C58.9311 121.651 56.2686 123.204 53.3842 124.535C52.9404 124.979 52.7185 124.092 53.1623 123.87Z" fill="#1C6A38"/>
<path d="M40.7371 139.402C46.9496 132.967 53.384 126.532 60.7059 121.207C60.7059 121.207 60.9278 121.207 60.7059 121.429C54.2715 127.42 47.1715 133.189 40.7371 139.402C40.7371 139.402 40.7371 139.624 40.7371 139.402Z" fill="#1C6A38"/>
<path d="M42.0687 140.068C47.8374 134.521 53.6062 128.529 60.0405 123.648C60.2624 123.648 60.4843 123.648 60.2624 123.87C54.9374 129.861 48.5031 135.186 42.5124 140.29C42.2906 140.512 41.8468 140.29 42.0687 140.068Z" fill="#1C6A38"/>
<path d="M44.0653 140.29C48.7247 135.186 53.8279 129.417 59.5966 125.423C59.8185 125.201 60.0403 125.423 59.8185 125.645C55.6028 131.192 49.8341 136.296 44.5091 140.512C44.0653 140.734 43.8435 140.512 44.0653 140.29Z" fill="#1C6A38"/>
<path d="M46.0621 141.843C49.834 137.405 54.0496 132.524 58.709 128.973C58.9309 128.751 59.1527 128.973 58.9309 129.195C55.3809 133.855 50.4996 138.071 46.284 142.065C46.284 142.287 45.8402 142.065 46.0621 141.843Z" fill="#1C6A38"/>
<path d="M48.503 135.63C53.3842 130.527 58.4873 124.979 64.0342 120.763C64.2561 120.541 64.4779 120.985 64.2561 120.985C59.8186 126.532 54.0498 131.414 48.9467 135.852C48.7248 136.518 48.2811 136.074 48.503 135.63Z" fill="#1C6A38"/>
<path d="M100.199 69.9488C100.865 69.7268 101.531 69.2828 102.418 69.2828C102.418 69.2828 102.64 69.2828 102.418 69.5048C101.753 69.7268 100.865 69.7268 100.199 69.9488Z" fill="#1C6A38"/>
<path d="M95.0967 72.6119C97.7592 70.8369 101.087 68.8399 104.415 68.3959C104.637 68.3959 104.637 68.6179 104.415 68.6179C101.309 70.1709 98.203 71.0589 95.0967 72.8339C95.0967 72.8339 94.8748 72.6119 95.0967 72.6119Z" fill="#1C6A38"/>
<path d="M95.7622 75.7178C98.6466 73.2768 102.418 71.0578 106.19 70.3928C106.412 70.3928 106.412 70.6148 106.19 70.8368C104.637 71.7238 102.862 72.1678 101.309 73.0558C99.5341 73.9428 97.7591 75.0528 95.9841 76.1618C95.7622 76.1618 95.5403 75.9398 95.7622 75.7178Z" fill="#1C6A38"/>
<path d="M96.65 79.4909C99.7563 77.4929 103.306 75.2749 106.634 73.9429C106.856 73.9429 106.856 74.1649 106.856 74.1649C103.972 76.3839 100.2 77.9369 96.65 79.4909C96.65 79.4909 96.65 79.7119 96.65 79.4909Z" fill="#1C6A38"/>
<path d="M96.65 82.8188C99.5344 81.0438 102.641 78.6029 105.969 77.2719C106.191 77.2719 106.412 77.4928 106.191 77.7148C103.528 79.9338 99.9781 81.7088 96.8719 83.2628C96.65 83.4848 96.4281 83.0408 96.65 82.8188Z" fill="#1C6A38"/>
<path d="M96.4276 85.0379C99.312 83.2629 102.196 81.4879 105.303 80.1559C105.525 80.1559 105.746 80.3779 105.525 80.3779C102.862 82.3749 99.7558 83.9279 96.8714 85.4819C96.4276 85.7039 96.2058 85.2599 96.4276 85.0379Z" fill="#1C6A38"/>
<path d="M98.2029 85.9249C99.3123 85.2599 100.422 84.8158 101.309 84.1498C102.197 83.7068 102.862 83.0408 103.972 82.8188C104.194 82.8188 104.194 83.0408 104.194 83.0408C103.75 83.9278 102.862 84.3718 101.975 84.8158C100.865 85.4818 99.7562 85.9249 98.6468 86.3689C98.203 86.5909 97.7592 86.1469 98.2029 85.9249Z" fill="#1C6A38"/>
<path d="M98.2031 87.0349C99.3124 86.3689 100.422 85.4819 101.753 85.2599C102.862 85.0379 103.084 86.1469 102.197 86.5909C101.975 86.5909 101.975 86.5909 101.975 86.3689C101.975 86.1469 101.975 85.9249 102.197 85.9249C102.419 85.9249 102.64 85.9249 102.64 86.1469H102.419C101.975 86.3689 101.753 86.3689 101.309 86.5909C100.422 87.0349 99.5343 87.4789 98.8687 87.7009C97.9812 87.9229 97.7593 87.2569 98.2031 87.0349Z" fill="#1C6A38"/>
<path d="M99.9778 86.5908C101.753 86.8128 103.306 86.1468 104.637 84.8158C104.859 84.5938 105.081 84.8158 104.859 85.0378C103.971 86.8128 101.753 87.7008 99.756 87.4788C99.3122 87.4788 99.3122 86.5908 99.9778 86.5908Z" fill="#1C6A38"/>
<path d="M127.269 56.4128C127.489 56.4128 127.269 56.4128 127.269 56.4128C127.269 56.4128 127.269 56.1928 127.269 56.4128Z" fill="#1C6A38"/>
<path d="M126.825 55.7479C128.6 53.7509 131.262 51.9749 133.925 51.7539C134.368 51.7539 134.368 52.1969 134.146 52.4189C133.037 52.8629 131.928 53.3069 130.818 53.9719C129.487 54.4159 128.156 55.0819 126.825 55.7479C126.825 55.7479 126.825 55.9699 126.825 55.7479Z" fill="#1C6A38"/>
<path d="M126.159 57.3009C129.931 55.3039 133.925 53.0849 138.14 51.7539C138.362 51.7539 138.362 51.9749 138.362 51.9749C134.59 54.1939 130.375 55.7479 126.381 57.5229C126.159 57.5229 126.159 57.3009 126.159 57.3009Z" fill="#1C6A38"/>
<path d="M127.934 59.5199C131.484 57.7449 135.256 55.5258 139.25 54.1938C139.471 54.1938 139.471 54.4158 139.471 54.4158C135.921 56.6348 131.706 57.9669 127.934 59.5199C127.934 59.5199 127.934 59.7419 127.934 59.5199Z" fill="#1C6A38"/>
<path d="M130.153 62.1828C134.146 59.9638 138.14 57.5228 142.356 55.9698C142.578 55.9698 142.578 56.1908 142.356 56.1908C138.584 58.6318 134.368 60.6288 130.153 62.1828C129.931 62.4048 129.931 62.4048 130.153 62.1828Z" fill="#1C6A38"/>
<path d="M131.04 65.9548C135.256 63.9578 139.472 61.9608 143.909 60.4078C144.131 60.4078 144.131 60.6288 144.131 60.6288C140.137 62.8478 135.7 64.6238 131.484 66.3988C131.04 66.3988 130.819 65.9548 131.04 65.9548Z" fill="#1C6A38"/>
<path d="M131.484 69.9489C135.478 66.8419 140.359 63.5139 145.24 62.1829C145.462 62.1829 145.684 62.4049 145.462 62.6259C141.025 65.2889 136.143 67.2859 131.706 70.3929C131.484 70.3929 131.262 70.1709 131.484 69.9489Z" fill="#1C6A38"/>
<path d="M132.815 71.9458C136.365 69.9488 139.915 67.5078 143.465 65.9548C143.687 65.9548 143.909 66.1768 143.687 66.1768C140.581 68.6178 136.365 70.1708 132.815 72.1678C132.815 72.1678 132.593 71.9458 132.815 71.9458Z" fill="#1C6A38"/>
<path d="M135.256 72.6118C138.584 71.7238 141.469 69.9488 144.353 68.1738C144.575 68.1738 144.797 68.3958 144.575 68.3958C142.134 70.6148 138.584 71.9458 135.256 72.8338C135.034 72.8338 135.034 72.6118 135.256 72.6118Z" fill="#1C6A38"/>
<path d="M162.103 44.6529C166.318 41.1029 171.2 37.9959 176.525 36.6649C176.747 36.6649 176.747 36.8869 176.525 36.8869C171.422 39.3269 166.762 41.5459 162.325 44.8749C162.325 45.0969 162.103 44.8749 162.103 44.6529Z" fill="#1C6A38"/>
<path d="M161.881 47.7589C165.875 44.4309 170.534 41.3239 175.637 39.9929C175.859 39.9929 176.081 40.2149 175.859 40.4369C170.978 42.8779 166.318 44.8749 161.881 47.7589C161.659 47.7589 161.881 47.9809 161.881 47.7589Z" fill="#1C6A38"/>
<path d="M166.319 48.8689C169.425 47.0939 172.309 45.0968 175.637 43.5428C175.637 43.5428 175.859 43.5428 175.637 43.7648C172.753 45.7618 169.425 47.3159 166.319 48.8689C166.097 48.8689 166.319 49.0909 166.319 48.8689Z" fill="#1C6A38"/>
<path d="M160.106 65.2889C166.762 58.8539 173.862 52.8628 181.406 47.5378C181.628 47.3158 181.85 47.7589 181.628 47.7589C174.528 53.7509 167.206 59.5199 160.106 65.2889C159.884 65.5109 160.106 65.5109 160.106 65.2889Z" fill="#1C6A38"/>
<path d="M162.99 65.7329C168.094 61.2949 173.197 56.4129 178.744 52.6409C178.965 52.6409 179.187 52.6409 178.965 52.8629C174.306 57.7449 168.537 61.9609 163.212 66.1769C162.99 66.1769 162.769 65.9549 162.99 65.7329Z" fill="#1C6A38"/>
<path d="M165.209 66.3989C169.425 62.8479 173.419 59.0759 177.634 55.9699C177.856 55.7479 178.078 56.1909 177.856 56.1909C173.862 59.9639 169.647 63.2919 165.431 66.8419C165.209 66.8419 164.987 66.6209 165.209 66.3989Z" fill="#1C6A38"/>
<path d="M168.315 66.8419C171.643 64.1799 174.75 61.2949 178.522 59.0759C178.743 59.0759 178.743 59.0759 178.743 59.2979C175.637 62.1829 171.865 64.6229 168.315 66.8419C168.315 67.0639 168.315 67.0639 168.315 66.8419Z" fill="#1C6A38"/>
<path d="M166.54 71.7239C170.312 68.6179 174.306 65.2889 178.521 62.8479C178.743 62.8479 178.965 63.0699 178.743 63.0699C175.193 66.3989 170.978 69.2829 166.984 72.1679C166.54 72.1679 166.318 71.7239 166.54 71.7239Z" fill="#1C6A38"/>
<path d="M169.425 72.8339C171.2 71.5019 172.975 70.3929 174.528 69.0609C176.081 67.7299 177.634 65.9549 179.409 64.8449C179.631 64.6229 179.853 64.8449 179.631 65.0669C177.412 68.3959 173.197 71.2799 169.647 73.2769C169.425 73.7209 168.981 73.0559 169.425 72.8339Z" fill="#1C6A38"/>
<path d="M171.866 72.8339C174.528 70.6149 177.412 68.1739 180.297 66.3989C180.519 66.1769 180.741 66.6209 180.519 66.8419C178.078 69.2829 174.972 71.2799 172.087 73.2769C172.087 73.4989 171.644 73.0559 171.866 72.8339Z" fill="#1C6A38"/>
<path d="M175.193 74.8309C176.746 73.4989 178.521 72.1679 180.296 71.0589C180.518 70.8369 180.962 71.2799 180.518 71.5019C178.965 72.8339 177.19 74.1649 175.415 75.2749C175.415 75.4959 174.971 75.0529 175.193 74.8309Z" fill="#1C6A38"/>
<path d="M111.959 148.944C115.065 144.728 117.728 140.068 121.278 136.296C121.5 136.074 121.721 136.296 121.5 136.518C119.059 140.956 115.287 144.728 111.959 148.944C111.959 148.944 112.181 148.944 111.959 148.944Z" fill="#1C6A38"/>
<path d="M109.962 154.269C114.4 149.388 118.172 144.062 122.166 138.737C122.166 138.737 122.387 138.737 122.387 138.959C119.059 144.728 114.844 150.053 110.184 154.713C110.184 154.713 109.741 154.491 109.962 154.269Z" fill="#1C6A38"/>
<path d="M112.846 155.823C115.509 151.607 118.171 147.169 121.278 143.175C121.5 142.953 121.721 143.175 121.5 143.396C119.059 147.834 115.953 152.05 113.068 156.045C112.846 156.488 112.625 156.045 112.846 155.823Z" fill="#1C6A38"/>
<path d="M98.6465 185.557C101.531 178.234 106.634 170.911 111.959 165.364C112.181 165.142 112.403 165.364 112.181 165.586C107.743 172.243 103.306 179.122 98.8684 185.779L98.6465 185.557Z" fill="#1C6A38"/>
<path d="M100.643 186.888C103.528 180.897 107.078 174.462 111.737 169.58C111.959 169.358 112.181 169.58 111.959 169.802C108.409 175.571 104.415 181.119 100.865 187.11C100.865 187.332 100.643 187.11 100.643 186.888Z" fill="#1C6A38"/>
<path d="M101.975 190.66C105.303 183.781 109.075 176.681 113.512 170.468C113.512 170.246 113.734 170.468 113.734 170.69C110.628 177.568 106.412 184.447 102.197 190.882C101.975 190.882 101.753 190.66 101.975 190.66Z" fill="#1C6A38"/>
<path d="M104.859 188.885C107.3 184.003 109.741 178.234 113.069 173.796C113.291 173.574 113.512 173.796 113.512 174.018C111.516 179.344 107.966 184.225 105.303 189.107C105.081 189.329 104.859 189.107 104.859 188.885Z" fill="#1C6A38"/>
<path d="M107.3 189.329C109.518 185.113 111.737 180.231 114.621 176.681C114.843 176.459 115.065 176.681 114.843 176.903C113.068 181.341 109.962 185.557 107.3 189.329C107.078 189.551 107.3 189.551 107.3 189.329Z" fill="#1C6A38"/>
<path d="M109.74 187.998C111.294 185.335 112.403 182.228 114.4 180.009C114.622 179.787 114.844 180.009 114.622 180.231C113.512 183.116 111.515 185.779 110.184 188.441C109.962 188.663 109.519 188.441 109.74 187.998Z" fill="#1C6A38"/>
<path d="M81.1188 211.075C84.6688 205.083 87.775 198.205 92.2125 192.879C92.2125 192.879 92.4344 192.879 92.4344 193.101C89.3281 199.314 84.8907 205.305 81.1188 211.075C81.1188 211.297 81.1188 211.297 81.1188 211.075Z" fill="#1C6A38"/>
<path d="M83.1152 212.628C86.8871 207.524 89.7715 201.977 93.0996 196.429C93.0996 196.208 93.5434 196.429 93.3215 196.651C90.8809 202.643 87.109 207.968 83.3371 213.072C83.1152 213.294 82.8933 212.85 83.1152 212.628Z" fill="#1C6A38"/>
<path d="M78.0125 217.953C83.7813 211.518 91.325 205.749 95.0969 197.761C95.3188 197.539 95.7625 197.539 95.7625 197.983C94.875 201.977 92.2125 204.64 89.55 207.524C86 211.297 82.2281 214.847 78.4563 218.175C78.0125 218.397 77.7906 218.175 78.0125 217.953Z" fill="#1C6A38"/>
<path d="M92.4344 202.864C95.5406 199.314 97.5375 195.32 99.7563 191.326C99.9782 191.104 100.2 191.326 100.2 191.548C98.8688 195.986 95.7625 199.758 92.4344 202.864C92.4344 202.864 92.6563 203.086 92.4344 202.864Z" fill="#1C6A38"/>
<path d="M71.3562 162.258C72.9094 161.37 74.6844 160.704 76.0156 159.817C77.5687 158.929 78.9 157.598 80.4531 156.488C80.675 156.266 81.1187 156.488 80.8969 156.932C79.3437 160.039 74.9062 162.923 71.5781 162.923C71.3562 162.923 71.1343 162.479 71.3562 162.258Z" fill="#1C6A38"/>
<path d="M74.6842 162.923C76.903 160.926 79.3436 158.707 82.228 157.376C82.4498 157.154 82.6717 157.598 82.6717 157.82C80.6748 160.039 77.7905 161.814 75.3498 163.589C74.6842 163.811 74.2405 163.145 74.6842 162.923Z" fill="#1C6A38"/>
<path d="M72.0217 160.482C74.4623 160.261 76.0155 159.151 77.7905 157.82C78.0123 157.598 78.2342 157.82 78.2342 158.042C77.3467 160.261 74.4623 161.37 72.0217 161.148C71.7999 161.148 71.7999 160.482 72.0217 160.482Z" fill="#1C6A38"/>
<path d="M71.3561 158.485C74.9061 158.707 77.7904 157.598 80.6748 155.601C80.8967 155.379 81.1186 155.601 80.8967 155.823C78.8998 158.707 74.6842 159.817 71.1342 158.929C71.1342 158.929 71.1342 158.485 71.3561 158.485Z" fill="#1C6A38"/>
<path d="M77.7902 158.929C86.8871 151.607 93.9871 143.618 100.865 134.299C101.087 134.077 101.309 134.299 101.087 134.521C96.2059 144.284 87.109 153.16 77.7902 158.929C77.7902 158.929 77.7902 159.151 77.7902 158.929Z" fill="#1C6A38"/>
<path d="M95.7625 138.959C98.6469 136.74 99.9781 132.302 103.972 131.414C109.519 130.083 113.956 135.852 119.281 131.414C119.503 131.192 119.947 131.636 119.725 131.858C117.506 134.521 114.4 134.299 111.294 133.411C107.522 132.524 104.416 130.97 100.866 134.077C98.8687 135.852 97.9812 137.627 95.7625 139.18C95.7625 139.402 95.5406 139.18 95.7625 138.959Z" fill="#1C6A38"/>
<path d="M118.393 131.414C128.822 122.538 127.047 104.787 139.693 97.9079C140.137 97.6859 140.581 98.5739 140.137 98.7949C128.378 106.784 130.375 124.092 118.393 131.414C118.172 131.636 118.393 131.858 118.393 131.414Z" fill="#1C6A38"/>
<path d="M108.409 131.192C113.069 124.979 117.728 118.544 123.275 112.997C123.497 112.775 123.497 112.997 123.497 113.219C119.059 119.654 113.734 125.423 108.409 131.192C108.187 131.192 108.409 131.414 108.409 131.192Z" fill="#1C6A38"/>
<path d="M109.962 131.858C114.621 126.31 119.725 120.541 125.272 115.659C125.272 115.659 125.493 115.659 125.493 115.881C120.612 121.651 115.509 126.976 109.962 131.858C109.74 132.08 109.962 132.302 109.962 131.858Z" fill="#1C6A38"/>
<path d="M113.734 131.192C117.506 127.42 120.39 122.982 123.94 118.988C124.162 118.766 124.384 118.988 124.162 119.21C121.722 123.87 117.728 127.864 113.956 131.636C113.956 131.858 113.512 131.636 113.734 131.192Z" fill="#1C6A38"/>
<path d="M116.619 132.746C118.172 130.527 119.725 128.086 121.5 126.089C121.722 125.867 121.944 126.089 121.722 126.311C120.169 128.751 118.616 130.97 117.062 133.189C116.841 133.411 116.397 132.967 116.619 132.746Z" fill="#1C6A38"/>
<path d="M90.4373 120.319C91.3248 117.657 92.8779 115.216 94.4311 112.775C95.9842 109.89 97.7592 107.228 99.5342 104.565C99.7561 104.343 99.9779 104.565 99.7561 104.787C98.6467 107.449 97.0936 109.89 95.7623 112.331C94.2092 114.994 92.8779 118.1 90.4373 120.319C90.4373 120.541 90.6592 120.541 90.4373 120.319Z" fill="#1C6A38"/>
<path d="M90.4373 118.544C91.3248 113.441 94.8748 105.452 99.5342 103.012C99.7561 103.012 99.9779 103.233 99.7561 103.233C98.6467 105.674 96.6498 107.449 95.0967 109.668C93.3217 112.553 91.9904 115.438 90.4373 118.544C90.4373 118.766 90.6592 118.766 90.4373 118.544Z" fill="#1C6A38"/>
<path d="M90.2156 116.547C91.9906 112.109 94.6531 106.784 98.2031 103.455C98.425 103.233 99.0906 103.677 98.8687 103.899C97.7594 106.118 96.2062 107.893 94.875 109.89C93.5437 112.109 91.9906 114.328 90.6594 116.769C90.4375 117.213 89.9937 116.991 90.2156 116.547Z" fill="#1C6A38"/>
<path d="M90.6592 120.763C92.4342 118.1 94.2092 115.66 95.7623 112.997C97.0935 110.556 98.2029 108.115 99.5342 105.674C99.7561 105.452 100.422 105.674 100.2 105.896C98.8685 111.222 95.0967 117.213 91.1029 120.985C90.881 121.207 90.6592 120.985 90.6592 120.763Z" fill="#1C6A38"/>
<path d="M92.4343 122.094C93.5437 119.876 94.6529 117.657 95.9842 115.66C97.0936 113.662 98.203 111.222 99.978 109.446C100.2 109.225 100.644 109.446 100.422 109.668C99.7561 111.887 98.4248 113.884 97.3154 115.881C95.9842 118.1 94.6529 120.319 93.0998 122.538C92.8779 122.538 92.2124 122.316 92.4343 122.094Z" fill="#1C6A38"/>
<path d="M95.3188 119.876C97.3157 117.435 98.6469 114.772 99.7563 111.887C99.7563 111.665 100.2 111.665 100.2 111.887C99.7563 115.216 97.7594 117.879 95.3188 119.876C95.3188 119.876 95.3188 120.097 95.3188 119.876Z" fill="#1C6A38"/>
<path d="M78.8997 131.858C85.9997 127.864 89.9935 122.76 93.9872 115.66C94.2091 115.438 94.431 115.438 94.431 115.881C92.8778 123.426 86.2216 129.861 79.1216 132.524C78.6778 132.302 78.6778 131.858 78.8997 131.858Z" fill="#1C6A38"/>
<path d="M147.016 82.1529C148.569 80.1559 150.344 78.6029 152.341 77.4929C150.344 78.8249 148.569 80.3779 147.016 82.1529C146.794 82.3749 147.016 82.3749 147.016 82.1529Z" fill="#1C6A38"/>
<path d="M139.472 94.5789C143.687 87.0349 148.79 80.1559 155.447 74.6089C155.669 74.3869 155.89 74.6089 155.669 74.8309C149.678 81.0439 144.131 87.2569 139.472 94.5789Z" fill="#1C6A38"/>
<path d="M143.021 94.8009C147.015 89.6979 151.231 84.3719 155.668 79.7119C155.89 79.4909 156.112 79.7119 155.89 79.9339C152.118 85.2599 147.681 90.1419 143.465 95.0229C143.243 95.2449 143.021 95.0229 143.021 94.8009Z" fill="#1C6A38"/>
<path d="M144.797 98.1299C148.125 92.8039 152.118 87.4789 156.778 83.2629C157 83.0409 157 83.2629 157 83.4849C153.006 88.3659 148.79 93.2479 144.797 98.1299C144.575 98.1299 144.797 98.3519 144.797 98.1299Z" fill="#1C6A38"/>
<path d="M145.684 101.68C148.791 97.0199 152.119 92.1389 155.891 88.1439C156.112 87.9229 156.334 88.1439 156.112 88.3659C153.228 93.2479 149.456 97.6859 145.906 102.124C145.684 102.124 145.462 101.902 145.684 101.68Z" fill="#1C6A38"/>
<path d="M145.018 106.784C147.903 102.79 150.565 98.3519 153.893 94.8009C154.115 94.5789 154.337 94.8009 154.115 95.0229C151.675 99.2389 148.347 103.011 145.24 107.006C145.24 107.227 144.797 107.006 145.018 106.784Z" fill="#1C6A38"/>
<path d="M148.569 105.23C149.9 103.455 151.009 101.458 152.34 99.6829C152.34 99.6829 152.562 99.6829 152.562 99.9049C151.453 101.902 150.122 103.677 148.79 105.452C148.79 105.674 148.347 105.452 148.569 105.23Z" fill="#1C6A38"/>
<path d="M200.709 30.8949C200.265 31.3389 199.822 31.7829 199.6 32.4489C199.378 32.2269 199.156 32.0049 198.934 31.7829C202.928 29.3419 206.922 27.1229 210.915 24.6819C211.137 25.1259 211.359 25.5699 211.581 26.0139C199.822 31.7829 190.059 40.2149 178.744 46.8719C178.3 47.0939 177.634 46.4279 178.078 46.2059C187.619 37.5519 199.378 30.4519 210.915 24.9039C211.803 24.4599 212.247 25.7919 211.359 26.2359C207.365 28.4549 203.372 30.8949 199.156 32.8919C198.49 33.1139 198.047 32.2269 198.712 31.7829C199.156 31.5609 199.822 31.1169 200.265 30.8949C200.709 30.6739 200.931 30.8949 200.709 30.8949Z" fill="#1C6A38"/>
<path d="M180.74 43.3219C180.296 43.7649 177.412 46.8719 176.303 47.9809C173.418 50.6439 170.756 53.3069 167.871 55.9699C162.546 61.0729 157.443 66.6209 151.675 70.8369C151.231 71.0589 150.787 70.6149 151.009 70.1709C155.225 65.0669 160.55 60.6289 165.431 55.9699C170.756 50.8659 176.081 45.7619 181.628 41.1029C182.071 40.6589 182.515 41.3249 182.293 41.7679C181.628 43.0999 182.071 42.6559 180.74 43.3219Z" fill="#1C6A38"/>
</g>
<defs>
<clipPath id="clip0_328_2556">
<rect width="198" height="221" fill="white"/>
</clipPath>
</defs>
</svg>
