<svg width="157" height="219" viewBox="0 0 157 219" fill="none" xmlns="http://www.w3.org/2000/svg">
<g clip-path="url(#clip0_328_2805)">
<path d="M152.563 27.2931C161.659 33.7281 155.003 51.036 151.231 58.5804C148.347 64.5716 144.353 70.119 139.916 75.4445C135.256 80.9919 129.709 87.205 123.719 91.1991C123.497 91.421 123.053 90.9772 123.275 90.7553C126.603 86.0955 131.484 82.3233 135.478 78.1073C139.472 73.6693 143.466 69.0095 146.794 64.1278C153.006 54.5863 160.55 37.9441 152.341 27.7369C152.119 27.515 152.341 27.0712 152.563 27.2931Z" fill="#1C6A38"/>
<path d="M126.603 89.202C123.275 92.0867 123.053 95.1932 123.94 99.4092C124.384 101.184 124.828 103.403 122.831 104.069C122.609 104.069 122.387 103.847 122.609 103.625C124.828 101.406 122.165 96.9684 122.609 94.3056C123.053 91.8648 124.384 89.8677 126.603 88.7582C126.603 88.5363 126.825 88.9801 126.603 89.202Z" fill="#1C6A38"/>
<path d="M122.387 104.513C120.834 108.063 117.284 108.951 113.734 108.951C110.628 109.173 107.744 108.951 104.637 109.395C100.644 110.06 97.3156 111.614 93.5437 112.723C93.1 112.723 92.8781 112.501 93.1 112.057C96.2062 109.617 100.422 108.507 104.416 108.063C110.628 107.176 117.284 109.617 122.166 104.291C122.166 104.069 122.387 104.291 122.387 104.513Z" fill="#1C6A38"/>
<path d="M94.2093 113.167C94.2093 113.167 92.8781 114.498 92.8781 114.72C92.8781 115.83 94.6531 116.717 95.5406 116.939C96.8718 117.383 98.2031 117.605 99.3125 118.049C101.309 118.936 103.528 120.268 104.194 122.486C104.194 122.708 103.972 122.93 103.75 122.93C102.641 122.043 101.753 120.933 100.644 120.268C98.8687 119.158 97.3156 118.936 95.3187 118.27C93.5437 117.827 91.9906 117.161 91.325 115.386C91.325 115.164 91.325 114.942 91.5468 114.72C92.2125 114.054 93.1 113.611 93.9875 113.167C94.2094 112.945 94.2093 113.167 94.2093 113.167Z" fill="#1C6A38"/>
<path d="M103.084 121.377C102.641 125.593 97.9812 126.259 94.4312 125.815C90.6593 125.371 87.1093 124.705 83.3375 124.483C79.3437 124.262 75.1281 125.149 71.1343 124.483C70.6906 124.483 70.6906 124.04 71.1343 123.818C75.1281 122.043 80.2312 122.486 84.4468 122.708C89.9937 123.152 99.3125 127.368 103.084 121.377Z" fill="#1C6A38"/>
<path d="M73.3529 124.705C71.3561 124.705 70.9123 131.584 69.8029 133.359C68.9154 134.691 67.3623 135.578 65.8092 135.8C61.3717 136.688 57.1561 132.916 52.7186 132.916C52.2748 132.916 52.2748 132.472 52.7186 132.25C57.8217 129.809 62.7029 136.91 67.8061 133.359C71.1342 130.918 68.6935 127.59 70.9123 125.149C71.7998 124.04 72.6873 124.04 73.7967 124.262C73.5748 124.262 73.5748 124.705 73.3529 124.705Z" fill="#1C6A38"/>
<path d="M152.119 28.8465C143.909 33.9501 137.475 44.1573 131.706 51.9236C125.937 59.69 121.056 68.3439 114.844 75.8883C114.4 76.3321 113.734 75.8883 113.956 75.4445C118.616 66.1249 125.494 57.6929 131.706 49.4828C135.034 45.2667 138.362 41.0507 141.691 36.8347C144.575 33.2844 147.237 29.9559 151.453 28.1808C152.119 27.9589 152.562 28.6246 152.119 28.8465Z" fill="#1C6A38"/>
<path d="M116.175 73.2255C115.066 74.335 113.956 75.4445 112.625 76.554C112.403 76.7759 111.959 76.7759 111.959 76.554C111.072 75.4445 109.741 73.8912 108.409 73.4474C103.084 71.6723 102.419 75.6664 101.531 78.3291C100.866 80.9919 99.978 83.4327 98.8687 85.8736C97.3155 89.202 95.0968 92.3086 91.9905 94.0837C91.5468 94.3056 91.3249 93.6399 91.5468 93.418C95.9843 88.9801 98.4249 84.5422 100.2 78.7729C100.866 76.554 101.309 73.4474 103.75 72.338C105.747 71.4504 107.966 72.1161 109.741 73.0037C110.184 73.2255 111.516 74.7788 111.959 74.7788C113.291 75.0007 114.844 73.6693 116.175 73.2255C116.175 73.0036 116.175 73.0036 116.175 73.2255Z" fill="#1C6A38"/>
<path d="M93.9874 92.0867C91.7687 95.637 88.6624 98.7436 85.5562 101.406C83.7812 102.96 79.7874 107.176 77.1249 106.732C75.7937 106.51 75.7937 105.844 75.7937 104.957C75.5718 103.403 76.6812 101.184 77.1249 99.6311C77.7905 97.1903 78.4562 94.5275 79.5655 92.0867C79.7874 91.8648 80.0093 91.8648 80.0093 92.3086C79.7874 94.9713 78.8999 97.4122 78.2343 99.853C77.5687 102.738 77.1249 104.957 80.8968 103.181C85.778 100.963 89.5499 95.4151 92.878 91.421C93.7655 90.7553 94.4312 91.421 93.9874 92.0867Z" fill="#1C6A38"/>
<path d="M78.9 92.5305C77.125 88.7583 70.2468 98.5217 69.3593 100.075C67.8062 102.96 66.9187 106.066 65.5875 108.951C63.5906 113.611 61.3718 118.048 57.3781 121.155C56.7125 121.599 56.0469 120.711 56.7125 120.267C66.6969 112.279 65.3656 94.9713 78.4562 90.3115C78.6781 90.3115 78.9 90.3115 78.9 90.5334C79.1219 91.1991 79.1218 91.6429 79.3437 92.3086C79.5656 92.5305 79.1219 92.7524 78.9 92.5305Z" fill="#1C6A38"/>
<path d="M56.9344 121.377C55.825 120.933 55.825 120.933 55.3812 119.824C54.9375 118.936 55.6031 117.383 54.9375 116.495C51.6094 110.948 48.9469 119.158 48.2812 120.267C46.0625 125.593 42.7344 131.14 37.8531 134.247C37.6312 134.469 37.1875 134.025 37.4093 133.803C40.5156 129.587 44.0656 126.037 46.5062 121.377C47.8375 118.936 48.5031 114.942 51.1656 113.611C56.7125 111.17 54.7156 118.936 57.1562 120.711C57.6 121.155 57.1562 121.599 56.9344 121.377Z" fill="#1C6A38"/>
<path d="M53.3843 132.25C55.603 134.247 54.0499 137.797 51.3874 138.685C49.6124 139.351 47.6155 138.685 46.0624 138.019C42.5124 136.688 40.0718 135.356 36.078 136.688C35.8561 136.91 35.6343 136.466 35.6343 136.244C36.9655 134.247 39.628 134.247 41.8468 134.913C43.6218 135.356 45.1749 136.466 46.728 136.91C47.8374 137.353 48.7249 137.575 49.8343 137.575C51.8312 137.353 54.9374 134.913 52.7187 132.694C52.2749 132.472 52.9405 131.806 53.3843 132.25Z" fill="#1C6A38"/>
<path d="M40.0718 132.472C35.6343 135.356 30.9749 137.575 26.5374 140.238C22.7655 142.679 18.9936 145.342 14.9999 147.561C14.778 147.783 14.3343 147.339 14.778 147.117C21.4343 141.126 31.1968 135.134 39.8499 132.028C40.0718 132.028 40.2937 132.472 40.0718 132.472Z" fill="#1C6A38"/>
<path d="M39.1844 135.8C35.6344 138.463 31.6406 140.238 27.8688 142.457C23.4313 144.898 19.2156 147.561 14.7781 149.558C14.5563 149.558 14.3344 149.336 14.5563 149.114C21.4344 143.788 30.7531 138.019 39.1844 135.578V135.8Z" fill="#1C6A38"/>
<path d="M16.7749 146.895C-7.63133 169.972 -33.5907 192.383 -64.4313 206.363C-79.7407 213.242 -95.7157 219.233 -111.691 224.336C-125.891 228.996 -140.756 232.547 -155.844 232.99C-169.6 233.434 -185.575 231.881 -197.556 224.558C-198.222 224.115 -197.556 223.227 -196.891 223.449C-188.459 226.334 -180.472 229.44 -171.597 230.55C-162.722 231.659 -153.847 231.437 -145.194 230.328C-125.225 227.887 -105.922 220.786 -87.0626 213.907C-67.5376 206.363 -48.9001 197.709 -31.5938 185.505C-14.7313 173.522 0.578032 159.543 16.1093 146.007C16.7749 145.564 17.4406 146.451 16.7749 146.895Z" fill="#1C6A38"/>
<path d="M20.5467 146.673C14.3342 151.111 8.78735 156.214 3.0186 161.096C2.79672 161.318 2.35298 160.874 2.57486 160.652C7.23423 154.661 13.6686 149.78 20.103 146.007C20.5468 145.785 20.9905 146.451 20.5467 146.673Z" fill="#1C6A38"/>
<path d="M10.7844 152.886C4.57186 160.652 -2.52814 167.309 -10.5156 173.522C-18.0594 179.292 -26.7125 185.505 -35.5875 189.277C-35.8094 189.277 -35.8094 189.055 -35.5875 189.055C-27.3781 183.508 -18.9469 178.848 -11.1813 172.635C-3.41564 166.422 3.68436 159.543 10.7844 152.886C11.0062 152.664 10.7844 152.442 10.7844 152.886Z" fill="#1C6A38"/>
<path d="M150.788 36.8347C148.569 44.3792 143.909 51.4798 139.472 58.1367C135.034 64.5717 129.931 71.2285 123.497 76.1103C123.275 76.3321 123.053 76.1103 123.275 75.8884C128.378 70.1191 133.703 64.7936 138.141 58.3586C143.022 51.4798 146.128 44.1573 150.344 36.8347C150.566 36.3909 150.788 36.6128 150.788 36.8347Z" fill="#1C6A38"/>
<path d="M133.925 70.5629C125.938 78.5511 117.506 85.6518 108.853 92.5305C99.7563 99.8531 90.4375 107.619 80.2313 113.611C80.0094 113.833 79.7875 113.389 80.0094 113.389C88.8844 106.288 98.6469 99.8531 107.744 92.7524C116.619 85.6518 125.05 77.8854 133.925 70.5629C133.925 70.5629 133.925 70.341 133.925 70.5629Z" fill="#1C6A38"/>
<path d="M96.428 101.184C89.7717 106.066 82.4499 110.06 75.3499 114.276C68.9155 118.27 62.2592 122.265 55.603 125.815C55.3811 125.815 55.3811 125.593 55.3811 125.593C62.2592 120.933 69.3592 116.717 76.4592 112.279C82.8936 108.285 89.328 104.069 96.2061 100.519C96.428 100.741 96.6499 100.963 96.428 101.184Z" fill="#1C6A38"/>
<path d="M72.2438 118.936C61.8156 123.152 52.4968 127.812 43.1781 134.247C42.7343 134.469 42.2906 133.803 42.7343 133.581C50.9437 126.702 61.8156 121.155 72.2438 118.492C72.4656 118.492 72.4656 118.936 72.2438 118.936Z" fill="#1C6A38"/>
<path d="M84.8906 108.285C81.1187 112.945 74.4625 116.717 68.9156 119.158C68.6937 119.38 68.4718 118.936 68.6937 118.714C71.3562 116.717 74.4625 114.942 77.125 112.945C79.7875 111.17 82.2281 109.395 84.8906 108.285C84.8906 108.285 84.8906 108.063 84.8906 108.285Z" fill="#1C6A38"/>
<path d="M121.944 78.5511C118.172 84.3204 111.959 90.3116 105.747 93.8619C105.525 94.0838 105.303 93.64 105.525 93.4181C108.188 90.9772 111.294 88.7583 113.956 86.0955C116.619 83.6547 119.059 80.77 121.722 78.1073C121.944 78.1073 122.166 78.3292 121.944 78.5511Z" fill="#1C6A38"/>
<path d="M86.6656 57.0272C90.2156 61.4651 88.4406 67.9001 87.3312 72.7818C86 79.4387 83.7812 86.0955 80.675 92.3086C80.2312 93.1962 79.1218 92.5305 79.3437 91.8648C83.5593 82.1014 89.7719 68.122 86.2219 57.2491C86.2219 57.0272 86.4437 56.8053 86.6656 57.0272Z" fill="#1C6A38"/>
<path d="M86.4435 57.9148C69.3592 56.8053 65.5873 78.3292 53.8279 86.3175C53.6061 86.5394 53.3842 86.0956 53.6061 86.0956C63.3686 76.7759 70.0248 56.1396 86.4435 57.471C86.8873 57.2491 86.8873 57.9148 86.4435 57.9148Z" fill="#1C6A38"/>
<path d="M55.8249 83.4328C54.7155 86.3175 53.1624 88.3145 49.8342 87.6488C47.1717 87.2051 45.3967 85.6518 42.5124 85.8737C38.9624 86.0956 35.6342 88.0926 33.4155 90.7554C25.6499 99.1874 26.9811 114.054 16.3311 120.268C16.1092 120.489 15.8874 120.046 16.1092 119.824C21.4342 114.72 23.8749 108.729 26.3155 101.85C28.0905 97.1904 29.8655 92.3086 33.6374 88.9802C35.8561 86.9832 38.5186 85.4299 41.403 84.9861C46.5061 84.0985 52.4967 88.9802 55.8249 83.2109C55.8249 82.989 56.0467 83.2109 55.8249 83.4328Z" fill="#1C6A38"/>
<path d="M18.55 118.492C16.9969 119.38 16.775 122.708 14.3344 122.043C11.8937 121.377 12.5594 118.049 13.0031 116.273C14.1125 110.504 15.2219 104.957 15.6656 99.1874C15.8875 95.859 16.3313 92.3086 15.8875 89.2021C15.4438 86.7612 14.5563 82.3233 11.45 82.5452C9.45313 82.7671 9.675 82.989 8.56562 84.7642C-1.64063 100.741 2.13125 121.377 -7.85313 137.353C-8.07501 137.575 -8.29688 137.353 -8.29688 137.132C0.800005 119.38 -3.19376 96.3027 9.89687 80.3263C10.1187 80.1044 10.3406 79.8825 10.7844 80.1044C17.6625 82.7671 17.6625 90.3116 17.2188 96.7465C16.9969 101.628 16.3312 106.51 15.4437 111.17C15 113.611 13.4469 116.939 15.4437 118.492C16.9969 119.824 16.775 118.714 18.3281 118.049C18.55 117.827 18.9937 118.27 18.55 118.492Z" fill="#1C6A38"/>
<path d="M61.1499 134.025C55.603 140.46 64.478 144.01 64.6999 149.558C64.9217 152.442 62.2592 154.439 59.8186 154.883C55.8249 155.549 52.2749 152.886 48.9467 151.555C41.6249 148.67 34.0811 148.892 27.4249 152.886C27.203 153.108 26.9811 152.664 27.203 152.442C34.0811 146.451 44.0655 147.782 51.8311 151.333C55.603 153.108 66.9186 156.215 62.0374 146.451C61.1499 144.676 60.0405 143.566 59.3749 141.569C58.4874 138.685 58.4874 135.8 60.7061 133.581C60.7061 133.137 61.3717 133.581 61.1499 134.025Z" fill="#1C6A38"/>
<path d="M29.6436 151.555C20.7686 154.661 30.3092 158.434 32.7498 160.431C33.8592 161.318 34.7467 162.428 34.9686 163.759C35.6342 166.644 33.8592 169.306 31.6405 170.638C27.4249 173.079 22.3217 171.304 17.8842 171.082C9.67487 170.416 3.24049 173.744 -3.63763 177.96C-3.85951 178.182 -4.30325 177.738 -4.08137 177.517C1.02175 171.969 9.00923 169.528 16.3311 169.75C18.5499 169.75 20.7686 170.194 22.9874 170.638C25.2061 170.86 27.6467 171.304 29.8655 170.416C30.5311 169.972 31.1967 169.528 32.0842 169.085C32.0842 166.422 32.0842 163.981 32.0842 161.318C30.5311 158.655 26.5374 158.212 24.9842 155.105C24.9842 154.883 24.9842 154.883 24.9842 154.661C26.3155 152.886 27.4248 152.22 29.6436 151.555Z" fill="#1C6A38"/>
<path d="M-2.30641 177.295C-6.52203 179.07 -0.753281 184.839 -0.309532 186.836C-0.0876542 187.946 -0.309528 188.833 -0.531403 189.943C-1.4189 193.271 -4.74703 195.49 -8.07515 196.156C-13.8439 197.709 -20.2783 196.821 -26.047 197.931C-32.9251 199.04 -39.3595 201.481 -45.7939 203.922C-46.4595 204.144 -46.9033 203.256 -46.2376 202.813C-35.3658 197.043 -23.6064 196.6 -11.6251 195.49C-5.19078 195.046 0.577965 191.718 -3.41578 183.951C-4.08141 182.62 -5.19077 181.733 -5.41264 180.179C-5.41264 178.182 -4.30328 176.629 -2.52828 177.073C-2.08453 177.073 -2.08453 177.295 -2.30641 177.295Z" fill="#1C6A38"/>
<path d="M81.1186 69.0096C78.2342 77.2197 73.3529 84.7642 66.4748 90.0897C66.2529 90.0897 66.2529 90.0897 66.2529 89.8678C72.2436 83.4328 77.1248 76.9978 80.4529 68.7877C80.6748 68.3439 81.3405 68.5658 81.1186 69.0096Z" fill="#1C6A38"/>
<path d="M77.3469 73.6694C63.8125 92.5306 46.2844 107.398 29.2 123.152C28.9782 123.374 28.5344 122.93 28.7563 122.708C36.0781 114.276 45.3969 108.285 53.3844 100.741C62.2594 92.5306 69.3594 82.7672 77.3469 73.6694Z" fill="#1C6A38"/>
<path d="M61.8155 95.4151C56.7123 101.184 50.9436 106.288 45.3967 111.392C39.4061 116.939 33.6373 123.374 27.2029 128.256C26.9811 128.478 26.5373 128.034 26.7592 127.812C31.6405 122.043 37.8529 116.939 43.1779 111.835C49.1686 106.066 54.9373 100.075 61.5936 94.9713C61.5936 94.9713 62.0373 95.1932 61.8155 95.4151Z" fill="#1C6A38"/>
<path d="M25.6499 130.031C19.6592 138.241 12.5592 147.339 4.7936 154.218C4.57173 154.439 4.34984 153.996 4.34984 153.774C10.1186 145.342 18.1061 136.91 25.6499 130.031C25.6499 129.809 25.6499 129.809 25.6499 130.031Z" fill="#1C6A38"/>
<path d="M32.0844 123.152C29.6438 125.593 27.425 128.034 25.2063 130.475C23.2094 132.694 21.6563 135.356 19.2157 136.91C18.9938 137.132 18.55 136.91 18.7719 136.466C19.8813 133.581 22.5438 131.362 24.7625 129.143C26.9813 126.924 29.2 124.705 31.6407 122.486C31.8625 122.486 32.3063 122.93 32.0844 123.152Z" fill="#1C6A38"/>
<path d="M30.3092 121.821C24.0967 128.7 18.5499 136.022 12.5592 143.123C12.3374 143.345 12.1155 143.123 12.1155 142.901C16.3311 134.913 23.2092 127.59 30.3092 121.821C30.3092 121.821 30.3092 121.599 30.3092 121.821Z" fill="#1C6A38"/>
<path d="M31.1968 124.262C27.2031 128.7 23.2093 133.581 18.7718 137.353C18.5499 137.575 18.1062 137.132 18.328 136.91C21.8781 132.028 26.5374 128.034 30.5312 123.596C30.9749 123.152 31.6406 123.818 31.1968 124.262Z" fill="#1C6A38"/>
<path d="M7.4561 148.226C3.24047 154.661 -2.3064 160.209 -7.85328 165.534C-13.622 171.082 -20.0564 177.295 -27.1564 181.511C-27.3782 181.733 -27.822 181.289 -27.3782 181.067C-21.6095 175.519 -14.9533 170.86 -9.18452 165.312C-3.41578 159.765 1.46547 153.552 7.4561 148.226C7.4561 148.004 7.4561 147.783 7.4561 148.226Z" fill="#1C6A38"/>
<path d="M46.2843 119.38C44.5093 123.374 42.5124 128.256 39.4061 131.584C39.1843 131.806 38.9624 131.584 38.9624 131.362C40.7374 127.146 43.8436 123.374 45.8405 119.158C46.0624 118.936 46.5061 119.158 46.2843 119.38Z" fill="#1C6A38"/>
<path d="M44.5092 119.158C42.9561 123.374 40.9592 128.256 37.8529 131.806C37.6311 132.028 37.4092 131.806 37.4092 131.584C39.1842 127.146 42.0686 123.152 44.0654 118.936C44.2873 118.936 44.5092 118.936 44.5092 119.158Z" fill="#1C6A38"/>
<path d="M41.1813 122.265C39.85 125.371 38.2969 128.699 36.5219 131.362C36.3 131.584 36.0781 131.362 36.0781 131.14C37.1875 128.034 39.1844 124.927 40.9594 122.265C41.1812 121.821 41.4031 122.043 41.1813 122.265Z" fill="#1C6A38"/>
<path d="M36.9654 124.705C36.0779 127.812 34.9686 131.14 32.7498 133.359C32.5279 133.581 32.3061 133.359 32.5279 133.137C34.0811 130.253 35.8561 127.812 36.7436 124.705C36.7436 124.262 36.9654 124.484 36.9654 124.705Z" fill="#1C6A38"/>
<path d="M31.8623 132.028C31.4186 132.916 31.1967 134.247 30.5311 134.913C30.5311 135.134 30.0873 134.913 30.3092 134.691C30.5311 133.581 31.1967 132.694 31.6404 131.806L31.8623 132.028Z" fill="#1C6A38"/>
<path d="M107.522 157.99C114.178 155.993 113.512 165.312 110.85 168.641C104.637 175.741 91.5468 176.851 82.8937 177.295C82.4499 177.295 82.2281 176.851 82.6718 176.629C86.8874 174.854 91.5468 174.854 95.7624 173.966C98.4249 173.522 100.866 172.857 103.306 171.969C104.859 171.304 106.634 170.416 107.966 169.306C108.853 168.641 109.519 167.975 109.962 167.087C112.847 164.425 111.959 161.54 107.522 158.212V157.99Z" fill="#1C6A38"/>
<path d="M86.6655 177.517C85.3342 178.626 83.7811 179.736 82.4498 180.845C82.6717 181.511 82.8936 182.176 83.1155 182.842C83.5592 183.952 84.003 184.839 84.2248 185.949C84.4467 186.836 84.6686 187.724 84.4467 188.833C84.2248 190.608 83.3373 192.162 81.5623 192.384C78.8998 192.827 77.1248 190.165 75.3498 188.833C71.3561 185.505 66.9186 183.508 61.8155 182.398C61.1499 182.176 61.3717 181.511 62.0373 181.511C66.0311 181.733 69.5811 183.286 72.6873 185.505C74.6842 186.836 76.2373 188.611 78.2342 189.943C78.4561 190.165 78.8998 190.387 79.1217 190.83C82.4498 189.499 83.5592 187.502 82.6717 185.505C82.4498 184.617 81.7842 183.508 81.5623 182.62C81.1186 180.845 80.8967 178.404 82.6717 177.295C84.2248 175.741 85.778 175.963 86.6655 177.517C86.8873 177.517 86.8873 177.517 86.6655 177.517Z" fill="#1C6A38"/>
<path d="M63.3688 181.955C57.6 183.064 71.1344 201.703 59.375 203.922C54.9375 204.588 51.3875 201.925 48.0594 199.706C41.8469 195.712 36.0781 194.824 28.7563 194.159C28.5344 194.159 28.5344 193.715 28.7563 193.715C32.9719 192.827 37.4094 193.715 41.4031 195.046C47.1719 197.043 56.4907 207.029 61.8157 201.259C66.2532 196.378 60.2625 190.83 60.4844 185.505C60.4844 183.064 61.15 181.289 63.3688 181.955C63.5907 181.955 63.5907 181.733 63.3688 181.955Z" fill="#1C6A38"/>
<path d="M30.0873 194.159C26.5373 196.6 35.4123 205.032 36.2998 207.694C36.9654 209.913 36.7435 211.91 35.6342 213.907C35.4123 214.129 35.4123 214.351 34.9685 214.351C18.5498 213.686 13.4467 193.271 -1.64084 189.277C-2.08459 189.055 -2.08459 188.389 -1.64084 188.389C10.3404 189.721 15.6654 202.369 24.3185 209.026C26.3154 210.579 33.6373 215.683 35.1904 211.023C36.2998 207.916 32.306 203.922 30.531 202.147C29.6435 201.259 28.756 200.594 28.0904 199.706C26.5373 197.265 26.5373 194.824 29.1998 193.493C30.0873 193.493 30.3092 193.937 30.0873 194.159Z" fill="#1C6A38"/>
<path d="M110.406 159.987C106.412 159.543 102.64 159.321 98.6467 159.765C95.0967 160.209 91.7686 161.318 88.2186 162.206C87.9967 162.206 87.7748 161.984 87.9967 161.762C94.2092 158.212 103.528 157.768 110.406 159.543C110.628 159.765 110.628 159.987 110.406 159.987Z" fill="#1C6A38"/>
<path d="M87.9968 161.318C89.9936 159.321 92.2124 157.324 93.7655 154.883C94.4312 153.774 97.0936 150.223 96.8718 148.892C95.5405 142.457 86.4436 153.552 84.8905 155.327C79.7874 161.096 73.353 165.312 65.8093 167.309C65.3655 167.309 65.3655 167.087 65.5874 166.866C69.803 164.647 74.2405 163.093 78.0124 160.209C80.8968 157.99 83.3374 155.327 85.778 152.664C87.7749 150.445 93.0999 144.01 96.6499 144.898C102.641 146.451 90.2155 159.987 87.9968 161.762C87.9968 161.984 87.7749 161.54 87.9968 161.318Z" fill="#1C6A38"/>
<path d="M67.3624 166.2C66.6967 167.975 64.2561 166.644 64.2561 165.09C64.0342 162.871 66.0311 160.874 63.1467 159.321C60.7061 157.99 57.8217 159.765 55.603 160.874C55.3811 160.874 55.3811 160.652 55.3811 160.652C57.5999 158.655 60.7061 156.88 63.5905 158.434C64.6999 159.099 65.5874 159.987 65.8092 161.096C65.8092 161.54 65.8092 161.984 65.8092 162.428C65.8092 162.871 65.5874 163.093 65.5874 163.315C65.5874 163.537 65.3655 163.759 65.3655 163.981C65.1436 164.647 65.3655 165.312 66.6967 165.534C66.9186 165.534 67.5842 165.756 67.3624 166.2Z" fill="#1C6A38"/>
<path d="M55.1594 160.431C55.3813 160.209 55.6032 160.209 55.825 159.987C55.6032 160.209 55.3813 160.431 55.1594 160.431C54.9375 160.431 55.1594 160.653 55.1594 160.431Z" fill="#1C6A38"/>
<path d="M57.5999 158.877C55.1592 161.096 52.4967 163.315 49.8342 164.869C48.2811 165.978 46.2842 167.309 44.0655 167.087C41.8467 167.087 39.628 164.425 41.6249 162.428C41.8467 162.206 42.0686 162.428 42.0686 162.65C42.9561 165.756 44.2874 166.644 46.5061 165.534C46.728 165.312 46.9499 165.312 47.1717 165.09C48.503 164.425 50.0561 163.537 51.3874 162.65C53.6061 161.318 55.3811 159.765 57.378 158.212C57.5999 158.434 57.8217 158.655 57.5999 158.877Z" fill="#1C6A38"/>
<path d="M40.9592 161.762C42.5123 160.209 40.5154 157.546 38.7404 157.324C36.0779 156.88 34.0811 159.099 32.0842 160.653C31.8623 160.653 31.8623 160.653 31.8623 160.431C33.6373 158.212 37.1873 155.327 40.0717 157.102C42.0686 158.212 43.1779 160.874 41.4029 162.65C40.9592 162.871 40.5154 162.206 40.9592 161.762Z" fill="#1C6A38"/>
<path d="M93.3218 165.978C88.4406 166.644 83.3375 167.087 78.4562 167.975C78.2343 167.975 78.2343 167.753 78.4562 167.753C83.1156 166.2 88.4406 165.312 93.3218 165.756C93.5437 165.756 93.5437 165.978 93.3218 165.978Z" fill="#1C6A38"/>
<path d="M82.45 169.75C69.3593 171.747 57.3781 176.407 44.9531 180.845C34.525 184.617 22.9874 188.168 11.8937 187.058C11.6718 187.058 11.6718 186.836 11.8937 186.836C24.7625 186.614 36.5218 183.286 48.7249 178.848C59.5968 174.854 70.9125 170.416 82.45 169.306C82.6718 169.528 82.8937 169.75 82.45 169.75Z" fill="#1C6A38"/>
<path d="M47.8375 176.851C35.8563 181.511 22.5438 184.617 9.67501 185.727C9.67501 185.727 9.45313 185.505 9.67501 185.505C22.5438 182.842 35.1907 179.957 47.8375 176.851C48.0594 176.629 48.0594 176.629 47.8375 176.851Z" fill="#1C6A38"/>
<path d="M67.1405 170.416C61.3718 171.525 56.0468 173.522 50.278 175.076C50.0561 175.076 50.0562 174.854 50.0562 174.854C55.1593 171.969 61.3718 170.86 66.9186 170.194C67.1405 170.194 67.1405 170.416 67.1405 170.416Z" fill="#1C6A38"/>
<path d="M10.1186 187.28C8.34355 187.28 6.34668 187.28 4.57168 187.502C2.79667 187.724 1.24354 188.167 -0.531454 188.167C-0.753329 188.167 -0.975201 187.724 -0.753325 187.724C2.35292 185.949 6.79043 186.17 10.1186 186.614C10.5623 186.614 10.5623 187.28 10.1186 187.28Z" fill="#1C6A38"/>
<path d="M80.8967 0.443783C86.6654 1.33137 84.6686 9.54151 83.7811 13.3137C82.228 19.5268 79.1217 26.6275 74.0186 30.8435C73.7967 31.0654 73.353 30.6216 73.5749 30.3997C76.0155 26.4056 78.8998 22.8552 80.8967 18.4173C82.6717 14.4232 86.8873 3.32843 80.6748 0.665679C80.453 0.887575 80.6748 0.221888 80.8967 0.443783Z" fill="#1C6A38"/>
<path d="M75.7936 29.2903C74.6843 30.8435 74.2405 33.0625 74.9061 34.8377C74.6843 34.8377 74.4624 34.8377 74.2405 34.8377C76.903 32.1749 83.3374 31.2873 85.1124 35.2815C85.3343 35.5033 84.8905 35.7252 84.6686 35.7252C83.1155 34.8377 82.228 33.7282 80.2311 33.5063C78.2343 33.2844 76.2374 33.9501 74.9061 35.2815C74.6843 35.5033 74.2405 35.5033 74.2405 35.2815C73.353 32.8406 74.0187 31.0654 75.7936 29.2903C75.7936 29.2903 75.5718 29.0684 75.7936 29.2903Z" fill="#1C6A38"/>
<path d="M84.8905 36.1691C84.4467 39.0537 82.228 41.2727 79.7873 42.604C78.4561 43.2697 77.1249 43.9354 75.7936 44.1573C75.128 44.3792 74.2405 44.3792 73.5749 44.6011C71.7998 44.823 63.3686 45.7106 68.4717 50.5923C68.6936 50.8142 68.4717 51.258 68.2498 51.0361C65.3655 50.3704 65.5873 46.82 67.5842 45.0449C69.1373 43.4916 71.578 43.4916 73.5749 43.2697C78.4561 42.604 81.7842 40.1632 84.8905 36.1691C84.8905 36.1691 84.6686 35.9472 84.8905 36.1691Z" fill="#1C6A38"/>
<path d="M68.028 51.4799C72.4655 51.4799 70.9123 56.5835 68.9155 58.8024C66.0311 61.6871 62.0373 63.2403 58.4873 65.2374C53.1623 68.122 48.7248 70.7848 44.953 75.4446C44.7311 75.8884 43.8436 75.4446 44.2873 75.0008C46.2842 71.2286 49.8342 68.7877 53.3842 66.5688C55.8248 65.2374 58.2655 64.1279 60.4842 62.7965C62.2592 61.9089 64.0342 61.0214 65.8092 59.9119C67.5842 58.5805 73.7967 54.3645 68.028 51.4799Z" fill="#1C6A38"/>
<path d="M45.1749 73.8913C41.1811 74.557 43.8436 80.5482 42.9561 82.989C42.5124 84.5423 40.9593 85.8737 39.4062 84.9861C39.1843 84.7642 39.1843 84.5423 39.4062 84.3204C43.6218 83.4328 41.403 79.2168 42.0686 76.3322C42.5124 74.557 43.3999 73.6694 45.1749 73.4475C45.3968 73.6694 45.3968 73.8913 45.1749 73.8913Z" fill="#1C6A38"/>
<path d="M80.453 0.665708C75.7936 3.77225 71.3561 6.87879 67.5843 11.0948C64.478 14.6451 62.703 18.6393 60.0405 22.6334C58.9311 24.1866 57.5999 25.7399 55.603 25.7399C52.9405 25.7399 51.3874 20.6363 49.3905 21.0801C48.9468 21.0801 48.7249 20.4144 49.1686 20.1925C50.7218 19.5268 50.0561 20.1925 51.6093 20.4144C52.053 20.6363 52.2749 21.0801 52.4968 21.302C56.7124 24.1866 59.3749 23.7429 60.4843 19.9706C61.3718 18.6393 62.0374 17.086 62.9249 15.7546C67.1405 9.31964 73.353 3.32846 80.453 0.221917C80.6749 -0.221875 80.8968 0.443812 80.453 0.665708Z" fill="#1C6A38"/>
<path d="M48.503 20.6363C42.5124 23.0771 44.0656 28.4026 43.8437 33.2843C43.6218 36.169 43.178 39.0536 42.0687 41.7164C40.0718 46.82 36.9656 52.1455 32.9718 55.9177C32.7499 56.1396 32.5281 55.9177 32.5281 55.6958C36.2999 47.9295 42.2906 42.1602 42.7343 33.0625C42.9562 28.4026 41.8468 20.8582 48.503 20.1925C48.503 20.1925 48.7249 20.4144 48.503 20.6363Z" fill="#1C6A38"/>
<path d="M32.528 56.1396C31.6405 55.6958 29.8655 54.1425 28.978 53.9206C24.5405 52.3673 24.3186 58.5804 24.0967 60.7994C23.8748 64.5716 23.653 68.1219 22.7655 71.6723C21.4342 77.4416 19.2155 83.8765 14.9998 88.3144C14.778 88.5363 14.1123 88.3144 14.3342 87.8706C17.8842 79.8824 21.878 73.6693 22.7655 64.7935C23.2092 60.1337 22.7655 54.1425 27.6467 51.7017C27.8686 51.7017 28.0905 51.7017 28.0905 51.7017C29.6436 53.033 31.1967 54.3644 32.528 56.1396C32.7499 56.1396 32.7499 55.9177 32.528 56.1396Z" fill="#1C6A38"/>
<path d="M71.7999 19.5268C69.1374 25.0742 65.5874 30.3997 62.703 35.9471C59.8187 41.4945 57.1562 47.2638 54.2718 52.5893C54.2718 52.8112 53.828 52.5893 54.0499 52.3674C56.4905 46.1543 59.5968 40.385 62.703 34.6157C65.3655 29.2902 68.028 23.9647 71.578 19.083C71.578 18.8611 72.0218 19.083 71.7999 19.5268Z" fill="#1C6A38"/>
<path d="M52.0531 50.1485C45.175 59.4681 38.5188 68.5658 32.3063 78.3292C28.9782 83.4328 26.0938 88.5364 23.2094 93.64C20.7688 98.2998 18.7719 103.625 15.8875 108.063C15.6657 108.285 15.2219 108.063 15.4438 107.841C17.8844 97.6342 24.5407 87.6488 30.0875 78.773C36.5219 68.5658 43.6219 58.8024 50.9438 49.039C51.3875 48.5952 52.4969 49.4828 52.0531 50.1485Z" fill="#1C6A38"/>
<path d="M40.7374 70.1191C34.0811 78.9949 28.0905 88.0926 22.3217 97.4123C22.3217 97.4123 22.0999 97.4122 22.0999 97.1904C26.5374 86.9832 32.7499 77.6635 40.2936 69.6753C40.7374 69.6753 40.9592 69.8972 40.7374 70.1191Z" fill="#1C6A38"/>
<path d="M55.8249 47.4857C51.1656 55.6959 46.2843 63.906 40.9593 71.6723C40.7374 71.8942 40.2937 71.6723 40.5155 71.4504C44.9531 63.2403 50.2781 55.2521 55.6031 47.4857C55.6031 47.0419 55.8249 47.2638 55.8249 47.4857Z" fill="#1C6A38"/>
<path d="M24.5405 103.625C23.4311 107.841 21.4342 113.167 17.4405 115.608C17.2186 115.829 16.9967 115.608 17.2186 115.386C18.328 113.611 19.8811 112.057 21.2124 110.282C22.3217 108.063 23.653 106.066 24.5405 103.625C24.5405 103.625 24.3186 103.625 24.5405 103.625Z" fill="#1C6A38"/>
<path d="M26.0937 101.85C24.7624 107.619 22.0999 114.942 16.553 117.827C16.3312 118.049 16.1093 117.605 16.3312 117.383C17.8843 114.942 20.103 112.945 21.878 110.504C23.653 107.841 24.9843 104.735 25.8718 101.628C25.6499 101.406 26.0937 101.628 26.0937 101.85Z" fill="#1C6A38"/>
<path d="M25.8717 99.853C23.8748 105.4 20.7685 110.504 16.5529 114.498C16.5529 114.498 16.3311 114.498 16.3311 114.276C19.881 109.616 23.2092 105.179 25.8717 99.853C25.8717 99.853 25.8717 99.6311 25.8717 99.853Z" fill="#1C6A38"/>
<path d="M24.0967 99.6312C22.7655 104.291 20.3249 109.838 16.3311 112.945C16.1092 113.167 15.8874 112.945 16.1092 112.723C18.7717 108.285 21.878 104.513 24.0967 99.6312C24.0967 99.6312 23.8749 99.4093 24.0967 99.6312Z" fill="#1C6A38"/>
<path d="M23.2092 98.5217C21.6561 102.072 19.8811 105.622 17.8842 108.951C17.8842 109.173 17.6624 108.951 17.6624 108.729C19.2155 105.179 20.9905 101.628 22.9874 98.2998C22.9874 98.2998 23.2092 98.2998 23.2092 98.5217Z" fill="#1C6A38"/>
<path d="M36.7437 84.7641C32.3062 90.0896 29.2 95.4151 26.0937 101.406C26.0937 101.628 25.8718 101.406 25.8718 101.406C28.0906 95.1932 31.8625 89.202 36.3 84.3203C36.5218 84.0984 36.9656 84.3203 36.7437 84.7641Z" fill="#1C6A38"/>
<path d="M34.9687 83.4328C30.9749 88.9802 28.0905 94.7495 24.9843 100.741C24.7624 100.963 24.5405 100.741 24.5405 100.519C26.5374 94.3057 30.5312 88.3145 34.5249 83.2109C34.9687 83.2109 35.1905 83.4328 34.9687 83.4328Z" fill="#1C6A38"/>
<path d="M33.6374 83.2109C30.753 88.5364 27.6467 93.8618 24.0967 98.7436C24.0967 98.9654 23.653 98.7436 23.8749 98.5217C26.5374 93.1962 30.0874 87.8707 33.6374 83.2109C33.6374 82.989 33.6374 82.989 33.6374 83.2109Z" fill="#1C6A38"/>
<path d="M31.1968 84.5423C28.5343 88.0926 26.5374 92.0867 24.7624 96.0809C24.7624 96.3027 24.5405 96.0809 24.5405 96.0809C25.8718 91.6429 28.0905 87.6488 31.1968 84.5423C31.4187 84.3204 31.1968 84.3204 31.1968 84.5423Z" fill="#1C6A38"/>
<path d="M39.6279 84.986C36.7435 86.0955 34.9685 88.3145 33.1936 90.7553C33.1936 90.9772 32.9717 90.7553 32.9717 90.5334C33.8592 87.6488 36.5217 85.4298 39.406 84.5422C39.6279 84.7641 39.8498 84.986 39.6279 84.986Z" fill="#1C6A38"/>
<path d="M40.0718 84.3204C37.853 86.0956 35.4124 87.8708 33.1937 89.424C32.9718 89.6459 32.7499 89.424 32.9718 89.2021C34.5249 86.7613 37.1874 84.9861 40.0718 84.3204C40.2937 84.3204 40.0718 84.0985 40.0718 84.3204Z" fill="#1C6A38"/>
<path d="M41.1813 82.3233C38.5188 84.0985 36.5219 86.3175 34.0812 88.3145C33.8594 88.5364 33.8594 88.3145 33.8594 88.0926C35.4125 85.4299 38.2969 83.4328 40.9594 82.1014C41.1812 81.8795 41.4031 82.3233 41.1813 82.3233Z" fill="#1C6A38"/>
<path d="M39.1844 80.9919C36.9656 82.7671 34.9687 84.7641 32.9719 86.7612C32.75 86.9831 32.75 86.7612 32.75 86.5393C34.3031 84.0984 36.5219 82.1014 38.9625 80.5481C39.1844 80.5481 39.4063 80.77 39.1844 80.9919Z" fill="#1C6A38"/>
<path d="M11.8937 140.016C6.79057 147.117 0.356198 153.774 -6.07818 159.543C-6.07818 159.543 -6.30005 159.543 -6.30005 159.321C-0.309423 152.886 5.45932 146.229 11.8937 140.016C11.8937 139.794 11.6718 139.794 11.8937 140.016Z" fill="#1C6A38"/>
<path d="M8.34365 91.8649C7.0124 96.5247 5.90302 101.406 3.68426 105.844H3.46239C4.57177 101.184 6.56864 96.5247 8.34365 91.8649Z" fill="#1C6A38"/>
<path d="M8.78744 88.9801C7.45619 93.1962 5.68121 97.6341 3.46246 101.628C3.24059 101.85 2.79683 101.85 3.0187 101.406C4.34995 97.1903 6.56869 92.7524 8.78744 88.9801C8.78744 88.7582 8.56557 88.7582 8.78744 88.9801Z" fill="#1C6A38"/>
<path d="M6.34678 89.2021C5.68115 92.3086 4.79365 95.4151 3.68427 98.5217C3.68427 98.7436 3.46239 98.5217 3.46239 98.5217C4.12802 95.4151 5.01552 92.3086 6.1249 89.2021C6.1249 88.9802 6.34678 88.9802 6.34678 89.2021Z" fill="#1C6A38"/>
<path d="M11.8937 83.8766C9.453 85.208 8.34363 87.205 7.89988 89.8678C7.89988 90.0897 7.45612 90.0897 7.45612 89.8678C7.01237 86.9831 9.23113 84.3204 11.6718 83.4328C12.1155 83.2109 12.1155 83.6547 11.8937 83.8766Z" fill="#1C6A38"/>
<path d="M10.5624 84.0985C3.46239 99.4093 1.02177 116.273 -2.97198 132.472H-3.19385C0.134279 116.495 2.35302 98.5217 10.5624 84.0985Z" fill="#1C6A38"/>
<path d="M33.4156 163.315C32.0843 165.534 30.0874 167.309 27.425 167.753C27.2031 167.753 27.2031 167.531 27.425 167.309C29.6437 166.422 31.6406 165.09 33.1937 163.093C33.1937 162.871 33.6375 163.093 33.4156 163.315Z" fill="#1C6A38"/>
<path d="M32.5279 164.647C31.1967 167.087 28.5342 169.306 25.6498 168.863C25.4279 168.863 25.4279 168.419 25.6498 168.419C28.3123 167.753 30.7529 166.866 32.3061 164.425C32.3061 164.203 32.7498 164.425 32.5279 164.647Z" fill="#1C6A38"/>
<path d="M33.4155 165.756C32.0843 169.084 28.0905 171.303 24.5405 169.75C24.3186 169.75 24.3186 169.306 24.7624 169.306C28.0905 169.306 31.1968 168.419 33.1937 165.534C33.1937 165.312 33.4155 165.534 33.4155 165.756Z" fill="#1C6A38"/>
<path d="M29.8656 169.084C22.3218 169.306 14.7781 169.306 7.45618 168.641C7.23431 168.641 7.23431 168.419 7.45618 168.419C15 167.975 22.5437 168.197 29.8656 168.641C30.0875 168.641 30.0875 169.084 29.8656 169.084Z" fill="#1C6A38"/>
<path d="M19.2155 168.419C15.8874 167.309 12.7811 167.309 9.23108 167.087C9.00921 167.087 9.00921 166.644 9.23108 166.644C12.5592 165.978 16.1092 166.866 19.2155 168.197C19.4374 168.197 19.2155 168.419 19.2155 168.419Z" fill="#1C6A38"/>
<path d="M16.9967 165.756C13.6686 164.868 10.3405 165.312 7.01233 165.534C6.79046 165.534 6.79046 165.312 7.01233 165.312C10.3405 164.203 13.8905 164.647 17.2186 165.534C17.2186 165.312 17.2186 165.756 16.9967 165.756Z" fill="#1C6A38"/>
<path d="M13.6686 163.759C11.6718 163.315 9.89676 163.759 8.12176 164.425C7.89989 164.425 7.89989 164.203 7.89989 164.203C9.67489 163.093 11.6718 163.093 13.6686 163.537C13.8905 163.537 13.8905 163.759 13.6686 163.759Z" fill="#1C6A38"/>
<path d="M25.2063 157.324C28.3125 159.543 33.4157 163.315 31.6407 167.753C31.6407 167.975 31.1969 167.975 31.1969 167.531C31.1969 163.093 28.5344 160.209 25.2063 157.324C25.2063 157.324 24.9844 157.324 25.2063 157.324Z" fill="#1C6A38"/>
<path d="M82.8937 188.168C78.9 189.277 73.575 186.17 71.5781 182.842C71.5781 182.62 71.5781 182.62 71.8 182.62C73.3531 184.173 74.9062 185.727 77.125 186.614C78.9 187.502 80.8969 187.502 82.8937 188.168C83.1156 188.168 83.1156 188.168 82.8937 188.168Z" fill="#1C6A38"/>
<path d="M77.3467 185.505C72.9092 181.954 67.8061 180.179 62.0374 179.957V179.736C67.8061 179.514 73.353 181.511 77.3467 185.505C77.5686 185.727 77.5686 185.505 77.3467 185.505Z" fill="#1C6A38"/>
<path d="M80.4531 189.499C76.9031 187.502 73.5749 185.283 70.2468 182.842V182.62C73.7968 184.617 77.1249 186.836 80.4531 189.055C80.8968 189.499 80.6749 189.721 80.4531 189.499Z" fill="#1C6A38"/>
<path d="M78.2344 187.502C81.1187 187.28 82.6719 183.952 81.3406 181.511C81.3406 181.511 81.3406 181.289 81.5625 181.511C83.5594 183.952 81.3406 188.168 78.2344 187.946V187.502Z" fill="#1C6A38"/>
<path d="M65.1437 181.733C62.4812 180.179 58.7094 181.511 58.0437 184.617C57.6 187.058 59.375 189.277 60.4844 191.274C61.5937 193.493 62.4812 196.378 60.4844 198.375C60.4844 198.375 60.2625 198.375 60.2625 198.153C63.3687 192.605 55.3812 188.611 57.8219 183.508C59.375 180.623 62.925 179.736 65.1437 181.733C65.3656 181.733 65.5875 181.511 65.1437 181.733Z" fill="#1C6A38"/>
<path d="M61.1499 197.709C60.0405 200.15 57.5999 200.594 55.1593 199.928C50.4999 198.819 45.6187 196.156 41.4031 193.937C41.1812 193.937 41.4031 193.715 41.4031 193.715C44.5093 194.824 47.3937 196.156 50.4999 197.487C53.828 199.262 58.2655 201.259 61.1499 197.709Z" fill="#1C6A38"/>
<path d="M50.9437 195.934C48.7249 194.824 46.728 193.937 44.2874 193.271C41.8468 192.605 39.628 192.605 37.1874 192.162C36.9655 192.162 36.9655 191.94 37.1874 191.718C41.6249 191.052 47.3937 193.049 50.9437 195.49C51.1655 195.712 50.9437 195.934 50.9437 195.934Z" fill="#1C6A38"/>
<path d="M50.0562 193.271C48.0593 192.384 45.8406 191.718 43.8437 191.274C42.0687 190.83 40.2937 190.608 38.5187 189.943C38.2968 189.943 38.2968 189.499 38.5187 189.499C42.5124 189.499 46.7281 191.274 50.2781 192.827C50.4999 193.049 50.2781 193.493 50.0562 193.271Z" fill="#1C6A38"/>
<path d="M47.6156 189.721C46.0625 189.277 44.5094 188.833 42.9563 188.611C41.625 188.389 40.0719 188.611 38.7406 188.389C38.5187 188.389 38.5187 188.168 38.7406 187.946C40.0719 187.502 41.8469 187.724 43.1781 187.946C44.7313 188.168 46.2844 188.611 47.8375 189.055C48.0594 189.499 47.8375 189.721 47.6156 189.721Z" fill="#1C6A38"/>
<path d="M48.0593 187.724C45.3968 187.502 42.7343 187.28 40.0718 186.614V186.392C42.7343 186.392 45.3968 186.836 48.0593 187.28C48.2811 187.28 48.2811 187.724 48.0593 187.724Z" fill="#1C6A38"/>
<path d="M47.8375 185.061C45.8406 185.061 43.6218 185.061 41.8468 184.395C41.625 184.395 41.625 184.173 41.8468 184.173C43.8437 183.952 46.0625 184.395 47.8375 184.839C48.0593 184.839 48.0593 185.061 47.8375 185.061Z" fill="#1C6A38"/>
<path d="M44.0655 183.73C43.178 183.73 42.2905 183.951 41.403 183.951C41.1811 183.951 41.1811 183.508 41.403 183.508C42.2905 183.286 43.178 183.286 43.8436 183.286C44.2874 183.064 44.5092 183.73 44.0655 183.73Z" fill="#1C6A38"/>
<path d="M106.412 170.86C101.531 171.747 96.428 173.301 91.3249 173.744C91.103 173.744 91.103 173.522 91.3249 173.301C96.2061 171.747 101.531 171.303 106.412 170.86C106.634 170.638 106.634 170.638 106.412 170.86Z" fill="#1C6A38"/>
<path d="M107.3 169.306C101.531 172.191 94.4311 174.188 87.9967 173.522C87.7749 173.522 87.7749 173.3 87.9967 173.3C94.653 172.413 100.866 171.747 107.3 169.084C107.3 168.863 107.522 169.306 107.3 169.306Z" fill="#1C6A38"/>
<path d="M105.969 168.641C101.309 170.194 96.2061 171.747 91.3249 171.747C91.103 171.747 91.103 171.525 91.3249 171.303C96.2061 169.972 101.087 169.528 105.969 167.975C105.969 168.197 106.19 168.641 105.969 168.641Z" fill="#1C6A38"/>
<path d="M102.863 167.975C99.0907 169.084 94.8751 170.416 91.1032 170.416C90.8813 170.416 90.8813 170.194 91.1032 169.972C94.6532 168.419 99.0907 167.975 102.863 167.309C102.863 167.531 103.084 167.753 102.863 167.975Z" fill="#1C6A38"/>
<path d="M99.978 166.644C98.203 166.866 96.6499 167.087 94.8749 167.531C93.3217 167.975 91.7686 168.641 89.9936 169.084C89.7717 169.084 89.7717 168.863 89.7717 168.641C92.4342 166.644 96.6498 166.2 99.7561 166.2C100.2 166.422 100.2 166.644 99.978 166.644Z" fill="#1C6A38"/>
<path d="M97.7593 165.09C95.5405 165.756 93.3218 166.422 90.8811 166.644C90.6593 166.644 90.4374 166.2 90.6593 166.2C92.878 165.534 95.3187 165.09 97.5374 164.425C97.9812 164.425 97.9812 164.868 97.7593 165.09Z" fill="#1C6A38"/>
<path d="M109.741 158.434C105.525 157.99 101.309 157.99 97.0937 158.212C96.8718 158.212 96.8718 157.99 97.0937 157.768C101.087 156.436 105.747 156.658 109.741 158.434C109.741 158.434 109.741 158.212 109.741 158.434Z" fill="#1C6A38"/>
<path d="M100.644 157.102C96.8719 158.212 92.8782 159.765 88.8844 160.431C88.6625 160.431 88.6625 160.209 88.8844 160.209C92.6563 158.877 96.8719 157.99 100.644 157.102C100.866 157.102 100.866 157.102 100.644 157.102Z" fill="#1C6A38"/>
<path d="M35.6342 192.827C33.1936 192.827 29.4217 192.383 27.6467 194.602C25.6498 197.265 28.3123 199.706 30.0873 201.481C31.8624 203.256 34.5248 205.253 34.303 207.916C34.303 208.138 33.8592 208.138 33.8592 207.916C32.9717 205.032 31.1967 203.478 29.1998 201.481C27.8686 200.372 26.5373 198.818 26.3155 197.043C25.6498 191.94 32.3061 191.274 35.8561 191.94C36.078 192.162 36.078 192.827 35.6342 192.827Z" fill="#1C6A38"/>
<path d="M24.9844 193.493C20.5469 193.493 15.6657 193.937 11.2282 193.049C11.0063 193.049 11.0063 192.827 11.2282 192.827C15.6657 192.162 20.5469 193.049 24.9844 193.271V193.493Z" fill="#1C6A38"/>
<path d="M28.978 190.83C25.8718 191.052 22.7655 191.052 19.8811 191.274C17.2186 191.274 14.3343 191.718 11.6718 191.274C11.4499 191.274 11.4499 190.83 11.6718 190.83C14.5561 190.165 17.4405 190.386 20.3249 190.386C23.2093 190.386 26.0936 190.386 28.978 190.386C29.1999 190.386 29.1999 190.83 28.978 190.83Z" fill="#1C6A38"/>
<path d="M28.5343 189.277C25.8718 189.055 23.4312 188.833 20.7687 188.833C18.328 188.833 16.1093 189.499 13.8905 189.499C13.6687 189.499 13.6687 189.277 13.8905 189.055C18.328 187.502 24.0968 187.946 28.7562 188.611C28.7562 188.833 28.7562 189.277 28.5343 189.277Z" fill="#1C6A38"/>
<path d="M23.875 182.62C17.8844 183.508 11.8938 185.061 5.68129 185.727C5.45941 185.727 5.45941 185.505 5.68129 185.505C11.45 183.951 17.6625 183.286 23.875 182.62Z" fill="#1C6A38"/>
<path d="M19.4374 181.289C13.6686 182.62 7.678 184.395 1.68738 184.839C1.46551 184.839 1.46551 184.617 1.68738 184.617C7.23425 183.064 13.4468 182.398 19.4374 181.289Z" fill="#1C6A38"/>
<path d="M15.2219 179.514C9.89686 181.067 4.34998 182.842 -1.19689 183.73C-1.41877 183.73 -1.41877 183.508 -1.19689 183.508C4.12811 181.733 9.67499 180.623 15.2219 179.07C15.2219 179.07 15.4438 179.514 15.2219 179.514Z" fill="#1C6A38"/>
<path d="M18.9937 177.517C11.8937 178.404 5.01555 180.179 -1.86258 181.954C-1.86258 181.954 -2.08446 181.733 -1.86258 181.733C4.79367 179.07 11.8937 177.96 18.9937 177.295C19.2156 177.073 19.2156 177.295 18.9937 177.517Z" fill="#1C6A38"/>
<path d="M20.1031 174.41C16.5531 175.076 13.0031 175.741 9.67499 176.407C7.67812 176.851 5.45937 177.516 3.4625 177.96C2.35312 178.182 -1.41876 178.848 2.13124 178.404C2.13124 178.404 2.35311 178.626 2.13124 178.626C1.24374 178.848 0.134368 179.07 -0.753132 179.292C-0.975007 179.292 -1.19688 178.848 -0.975003 178.848C5.68125 176.407 12.7812 174.854 19.8812 173.966C20.325 173.966 20.325 174.41 20.1031 174.41Z" fill="#1C6A38"/>
<path d="M19.6594 173.744C11.8937 173.966 5.01559 176.185 -2.30628 178.848C-2.52816 179.07 -2.97191 178.404 -2.52816 178.404C3.90622 174.41 12.3375 173.079 19.6594 173.079C20.1031 173.079 20.1031 173.744 19.6594 173.744Z" fill="#1C6A38"/>
<path d="M16.5531 173.079C9.89678 173.522 4.12805 175.519 -2.08445 177.96C-2.5282 177.96 -2.75009 177.517 -2.52821 177.517C3.01866 173.744 9.89678 172.191 16.5531 172.413C16.9968 172.413 16.9968 173.079 16.5531 173.079Z" fill="#1C6A38"/>
<path d="M14.5561 172.635C8.7873 173.522 3.90604 175.741 -1.64082 177.517C-1.8627 177.517 -2.08457 177.295 -1.8627 177.073C2.5748 173.744 9.00916 172.191 14.3342 171.969C14.7779 171.969 14.9998 172.635 14.5561 172.635Z" fill="#1C6A38"/>
<path d="M17.2187 171.525C9.67488 171.525 4.34988 174.188 -1.64075 178.404C-1.86262 178.626 -2.08449 178.182 -2.08449 177.96C2.35301 172.413 10.3405 170.194 17.2187 170.86C17.6624 171.082 17.6624 171.525 17.2187 171.525Z" fill="#1C6A38"/>
<path d="M4.1279 174.632C1.68728 175.076 -0.309592 176.185 -2.30647 177.517C-2.52834 177.517 -2.52834 177.517 -2.52834 177.295C-0.753339 175.519 1.68728 174.632 4.1279 174.188C4.34977 174.41 4.34977 174.632 4.1279 174.632Z" fill="#1C6A38"/>
<path d="M27.6467 172.857C22.3217 171.969 17.2186 172.413 11.8936 173.301C11.6717 173.301 11.4499 172.857 11.6717 172.857C16.553 170.638 22.5436 170.638 27.6467 172.191C28.3123 172.191 28.0905 172.857 27.6467 172.857Z" fill="#1C6A38"/>
<path d="M148.125 57.6929C144.353 66.3468 138.362 73.8913 131.041 79.6605C131.041 79.6605 130.819 79.6605 131.041 79.4386C137.697 73.0037 143.244 65.903 148.125 57.6929Z" fill="#1C6A38"/>
<path d="M146.572 57.9148C143.022 63.906 139.028 69.6753 134.147 74.557C134.147 74.557 133.925 74.557 133.925 74.3351C138.363 69.0096 142.578 63.6841 146.572 57.9148C146.572 57.9148 146.35 57.6929 146.572 57.9148Z" fill="#1C6A38"/>
<path d="M144.575 57.6929C141.025 62.5746 137.475 67.6782 133.259 72.1161C133.037 72.338 132.816 72.1161 133.037 71.8942C136.366 66.7906 140.581 62.1308 144.575 57.6929C144.575 57.6929 144.575 57.471 144.575 57.6929Z" fill="#1C6A38"/>
<path d="M142.8 55.474C139.694 60.7995 136.366 67.0126 132.15 71.4505C131.928 71.6724 131.706 71.4505 131.706 71.2286C134.147 65.4593 138.806 60.1338 142.356 55.0302C142.578 54.8083 143.022 55.2521 142.8 55.474Z" fill="#1C6A38"/>
<path d="M153.894 35.7252C154.559 45.9324 150.122 59.0242 142.8 65.903C142.578 66.1249 142.134 65.6811 142.356 65.4592C145.241 60.7994 148.347 56.5834 150.122 51.4798C152.119 46.3762 152.562 41.0507 153.45 35.7252C153.45 35.2814 153.894 35.2814 153.894 35.7252Z" fill="#1C6A38"/>
<path d="M156.556 40.1632C155.447 50.3704 149.9 63.6841 141.247 69.8972C141.025 70.1191 140.803 69.6753 140.803 69.4534C143.909 64.7936 147.681 60.7995 150.344 55.6959C153.006 50.5923 154.559 45.2668 155.89 39.9413C156.112 39.7194 156.556 39.7194 156.556 40.1632Z" fill="#1C6A38"/>
<path d="M134.591 77.4416C128.156 82.7671 122.831 88.5364 117.506 94.9714C117.284 95.1933 117.062 94.9714 117.284 94.7495C121.5 87.8707 127.712 81.6577 134.591 77.4416C134.591 77.2198 134.591 76.9979 134.591 77.4416Z" fill="#1C6A38"/>
<path d="M126.603 82.3233C121.944 85.6518 119.281 89.6459 116.397 94.5276C116.175 94.7495 115.953 94.5276 116.175 94.3057C117.728 88.9802 122.166 84.9861 126.603 82.1014C126.603 81.8795 126.825 82.1014 126.603 82.3233Z" fill="#1C6A38"/>
<path d="M122.166 89.2021C120.834 90.7554 120.169 92.5306 119.725 94.3057C119.503 96.0809 119.725 97.8561 120.169 99.6312C120.169 99.8531 119.947 99.8531 119.947 99.8531C117.95 96.5247 119.281 91.8649 121.944 88.9802C122.166 88.9802 122.387 88.9802 122.166 89.2021Z" fill="#1C6A38"/>
<path d="M120.834 98.9655C121.056 102.516 117.728 107.397 113.512 106.066C113.29 106.066 113.29 105.844 113.512 105.622C115.287 105.179 116.84 104.957 118.172 103.847C119.947 102.738 120.834 100.963 120.834 98.9655Z" fill="#1C6A38"/>
<path d="M118.394 104.069C110.628 107.176 102.197 104.957 94.8748 109.838C94.6529 109.838 94.4311 109.838 94.6529 109.616C100.2 103.625 111.072 105.4 118.394 104.069Z" fill="#1C6A38"/>
<path d="M109.075 102.516C106.856 102.738 104.416 102.96 102.197 103.625C100.2 104.291 98.425 105.179 96.4282 106.066C96.2063 106.066 96.2063 105.844 96.2063 105.844C99.5344 102.96 104.638 102.072 108.853 102.294C109.297 102.294 109.297 102.516 109.075 102.516Z" fill="#1C6A38"/>
<path d="M107.3 101.406C105.303 101.406 103.306 101.85 101.531 102.516C99.978 103.181 98.4249 104.291 96.8718 105.179C96.6499 105.179 96.6499 104.957 96.6499 104.957C98.8687 101.85 103.528 100.741 107.3 100.963C107.522 101.184 107.522 101.406 107.3 101.406Z" fill="#1C6A38"/>
<path d="M104.859 100.741C101.753 101.406 99.7562 102.96 97.3155 104.735C97.0937 104.957 96.6499 104.513 96.8717 104.291C98.6468 101.85 101.753 100.519 104.637 100.075C105.303 99.853 105.303 100.741 104.859 100.741Z" fill="#1C6A38"/>
<path d="M103.972 98.9655C101.531 100.519 98.6469 102.96 95.7625 103.625C95.5406 103.625 95.3188 103.403 95.5406 103.182C97.7594 101.185 101.088 99.8531 103.75 98.7437C103.972 98.7437 103.972 98.9655 103.972 98.9655Z" fill="#1C6A38"/>
<path d="M103.972 97.1903C101.087 98.5217 98.6468 100.075 96.2062 102.072C95.9843 102.294 95.5406 101.85 95.9843 101.628C98.203 99.4093 100.866 97.856 103.75 96.5246C104.194 96.0809 104.416 96.9684 103.972 97.1903Z" fill="#1C6A38"/>
<path d="M116.397 81.6576C110.184 88.0926 103.75 94.5275 96.428 99.853C96.428 99.853 96.2061 99.853 96.428 99.6311C102.862 93.64 109.962 87.8707 116.397 81.6576C116.397 81.6576 116.397 81.4357 116.397 81.6576Z" fill="#1C6A38"/>
<path d="M115.065 80.9919C109.297 86.5393 103.528 92.5305 97.0936 97.4122C96.8717 97.4122 96.6498 97.4122 96.8717 97.1903C102.197 91.1991 108.631 85.8736 114.622 80.77C114.844 80.5481 115.287 80.77 115.065 80.9919Z" fill="#1C6A38"/>
<path d="M113.069 80.7701C108.409 85.8737 103.306 91.643 97.5374 95.6371C97.3155 95.859 97.0937 95.6371 97.3155 95.4152C101.531 89.8678 107.3 84.7642 112.625 80.5482C113.069 80.3263 113.291 80.5482 113.069 80.7701Z" fill="#1C6A38"/>
<path d="M111.072 79.2168C107.3 83.6547 103.084 88.5364 98.4249 92.0867C98.203 92.3086 97.9811 92.0867 98.203 91.8648C101.753 87.205 106.634 82.989 110.85 78.9949C110.85 78.773 111.294 78.9949 111.072 79.2168Z" fill="#1C6A38"/>
<path d="M108.631 85.4299C103.75 90.5335 98.6468 96.0809 93.0999 100.297C92.878 100.519 92.6562 100.075 92.878 100.075C97.3155 94.5276 103.084 89.6459 108.187 85.208C108.409 84.5423 108.853 84.9861 108.631 85.4299Z" fill="#1C6A38"/>
<path d="M56.9343 151.111C56.2687 151.333 55.6031 151.777 54.7156 151.777C54.7156 151.777 54.4937 151.777 54.7156 151.555C55.3812 151.333 56.2687 151.333 56.9343 151.111Z" fill="#1C6A38"/>
<path d="M62.0374 148.448C59.3749 150.223 56.0468 152.22 52.7187 152.664C52.4968 152.664 52.4968 152.442 52.7187 152.442C55.8249 150.889 58.9311 150.001 62.0374 148.226C62.0374 148.226 62.2593 148.448 62.0374 148.448Z" fill="#1C6A38"/>
<path d="M61.3719 145.342C58.4875 147.783 54.7156 150.002 50.9438 150.667C50.7219 150.667 50.7219 150.445 50.9438 150.223C52.4969 149.336 54.2719 148.892 55.825 148.004C57.6 147.117 59.375 146.007 61.15 144.898C61.3719 144.898 61.5938 145.12 61.3719 145.342Z" fill="#1C6A38"/>
<path d="M60.4843 141.569C57.3781 143.567 53.8281 145.785 50.4999 147.117C50.2781 147.117 50.2781 146.895 50.2781 146.895C53.1625 144.676 56.9343 143.123 60.4843 141.569C60.4843 141.569 60.4843 141.348 60.4843 141.569Z" fill="#1C6A38"/>
<path d="M60.4844 138.241C57.6 140.016 54.4937 142.457 51.1656 143.788C50.9437 143.788 50.7218 143.566 50.9437 143.345C53.6062 141.126 57.1562 139.35 60.2625 137.797C60.4844 137.575 60.7062 138.019 60.4844 138.241Z" fill="#1C6A38"/>
<path d="M60.7061 136.022C57.8217 137.797 54.9374 139.572 51.8311 140.904C51.6092 140.904 51.3874 140.682 51.6092 140.682C54.2717 138.685 57.378 137.132 60.2624 135.578C60.7061 135.356 60.928 135.8 60.7061 136.022Z" fill="#1C6A38"/>
<path d="M58.9311 135.135C57.8217 135.8 56.7123 136.244 55.8248 136.91C54.9373 137.353 54.2717 138.019 53.1623 138.241C52.9404 138.241 52.9404 138.019 52.9404 138.019C53.3842 137.132 54.2717 136.688 55.1592 136.244C56.2686 135.578 57.3779 135.135 58.4873 134.691C58.9311 134.469 59.3748 134.913 58.9311 135.135Z" fill="#1C6A38"/>
<path d="M58.9313 134.025C57.8219 134.691 56.7125 135.578 55.3813 135.8C54.2719 136.022 54.05 134.913 54.9375 134.469C55.1594 134.469 55.1594 134.469 55.1594 134.691C55.1594 134.913 55.1594 135.135 54.9375 135.135C54.7156 135.135 54.4938 135.135 54.4938 134.913H54.7157C55.1594 134.691 55.3813 134.691 55.825 134.469C56.7125 134.025 57.6 133.581 58.2657 133.359C59.1532 133.137 59.375 133.803 58.9313 134.025Z" fill="#1C6A38"/>
<path d="M57.1563 134.469C55.3813 134.247 53.8281 134.913 52.4969 136.244C52.275 136.466 52.0531 136.244 52.275 136.022C53.1625 134.247 55.3812 133.359 57.3781 133.581C57.8219 133.581 57.8219 134.469 57.1563 134.469Z" fill="#1C6A38"/>
<path d="M29.8649 164.647C29.6443 164.647 29.8649 164.647 29.8649 164.647C29.8649 164.647 29.8649 164.867 29.8649 164.647Z" fill="#1C6A38"/>
<path d="M30.3094 165.312C28.5344 167.309 25.8719 169.084 23.2094 169.306C22.7657 169.306 22.7657 168.863 22.9875 168.641C24.0969 168.197 25.2063 167.753 26.3157 167.087C27.6469 166.644 28.9782 165.978 30.3094 165.312C30.3094 165.312 30.3094 165.09 30.3094 165.312Z" fill="#1C6A38"/>
<path d="M30.9749 163.759C27.203 165.756 23.2092 167.975 18.9936 169.306C18.7717 169.306 18.7717 169.085 18.7717 169.085C22.5436 166.866 26.7592 165.312 30.753 163.537C30.9749 163.537 30.9749 163.759 30.9749 163.759Z" fill="#1C6A38"/>
<path d="M29.1999 161.54C25.6499 163.315 21.878 165.534 17.8842 166.866C17.6624 166.866 17.6624 166.644 17.6624 166.644C21.2124 164.425 25.428 163.093 29.1999 161.54C29.1999 161.54 29.1999 161.318 29.1999 161.54Z" fill="#1C6A38"/>
<path d="M26.9811 158.877C22.9874 161.096 18.9936 163.537 14.778 165.09C14.5561 165.09 14.5561 164.869 14.778 164.869C18.5499 162.428 22.7655 160.431 26.9811 158.877C27.203 158.655 27.203 158.655 26.9811 158.877Z" fill="#1C6A38"/>
<path d="M26.0936 155.105C21.8779 157.102 17.6623 159.099 13.2248 160.652C13.0029 160.652 13.0029 160.431 13.0029 160.431C16.9967 158.212 21.4342 156.436 25.6498 154.661C26.0936 154.661 26.3154 155.105 26.0936 155.105Z" fill="#1C6A38"/>
<path d="M25.6499 151.111C21.6561 154.217 16.7749 157.546 11.8936 158.877C11.6717 158.877 11.4499 158.655 11.6717 158.433C16.1092 155.771 20.9905 153.774 25.428 150.667C25.6499 150.667 25.8717 150.889 25.6499 151.111Z" fill="#1C6A38"/>
<path d="M24.3188 149.114C20.7688 151.111 17.2188 153.552 13.6688 155.105C13.4469 155.105 13.225 154.883 13.4469 154.883C16.5531 152.442 20.7688 150.889 24.3188 148.892C24.3188 148.892 24.5406 149.114 24.3188 149.114Z" fill="#1C6A38"/>
<path d="M21.8779 148.448C18.5498 149.336 15.6654 151.111 12.7811 152.886C12.5592 152.886 12.3373 152.664 12.5592 152.664C14.9998 150.445 18.5498 149.114 21.8779 148.226C22.0998 148.226 22.0998 148.448 21.8779 148.448Z" fill="#1C6A38"/>
<path d="M45.175 72.1161C42.0688 76.3321 39.4063 80.9919 35.8563 84.7641C35.6344 84.986 35.4125 84.7641 35.6344 84.5422C38.075 80.1043 41.8469 76.3321 45.175 72.1161C45.175 72.1161 44.9531 72.1161 45.175 72.1161Z" fill="#1C6A38"/>
<path d="M47.1718 66.7906C42.7343 71.6723 38.9625 76.9978 34.9687 82.3233C34.9687 82.3233 34.7468 82.3233 34.7468 82.1014C38.075 76.3321 42.2906 71.0066 46.95 66.3468C46.95 66.3468 47.3937 66.5687 47.1718 66.7906Z" fill="#1C6A38"/>
<path d="M44.2875 65.2373C41.625 69.4534 38.9625 73.8913 35.8563 77.8854C35.6344 78.1073 35.4125 77.8854 35.6344 77.6635C38.075 73.2256 41.1813 69.0096 44.0656 65.0154C44.2875 64.5717 44.5094 65.0155 44.2875 65.2373Z" fill="#1C6A38"/>
<path d="M58.4874 35.5033C55.603 42.8258 50.4999 50.1484 45.1749 55.6958C44.953 55.9177 44.7311 55.6958 44.953 55.4739C49.3905 48.817 53.828 41.9382 58.2655 35.2814L58.4874 35.5033Z" fill="#1C6A38"/>
<path d="M56.4905 34.172C53.6062 40.1631 50.0562 46.5981 45.3968 51.4798C45.1749 51.7017 44.953 51.4798 45.1749 51.2579C48.7249 45.4886 52.7187 39.9413 56.2687 33.9501C56.2687 33.7282 56.4905 33.9501 56.4905 34.172Z" fill="#1C6A38"/>
<path d="M55.1593 30.3998C51.8311 37.2785 48.0593 44.3792 43.6218 50.5923C43.6218 50.8141 43.3999 50.5923 43.3999 50.3704C46.5061 43.4916 50.7218 36.6128 54.9374 30.1779C55.1593 30.1779 55.3811 30.3998 55.1593 30.3998Z" fill="#1C6A38"/>
<path d="M52.2749 32.1749C49.8343 37.0566 47.3937 42.8259 44.0656 47.2638C43.8437 47.4857 43.6218 47.2638 43.6218 47.0419C45.6187 41.7164 49.1687 36.8347 51.8312 31.953C52.053 31.7311 52.2749 31.953 52.2749 32.1749Z" fill="#1C6A38"/>
<path d="M49.8344 31.7311C47.6156 35.9471 45.3969 40.8288 42.5125 44.3792C42.2906 44.6011 42.0688 44.3792 42.2906 44.1573C44.0656 39.7194 47.1719 35.5033 49.8344 31.7311C50.0562 31.5092 49.8344 31.5092 49.8344 31.7311Z" fill="#1C6A38"/>
<path d="M47.3935 33.0625C45.8404 35.7252 44.7311 38.8317 42.7342 41.0507C42.5123 41.2726 42.2904 41.0507 42.5123 40.8288C43.6217 37.9442 45.6186 35.2814 46.9498 32.6187C47.1717 32.3968 47.6154 32.6187 47.3935 33.0625Z" fill="#1C6A38"/>
<path d="M76.0156 9.98527C72.4656 15.9765 69.3593 22.8552 64.9218 28.1807C64.9218 28.1807 64.7 28.1807 64.7 27.9588C67.8062 21.7457 72.2437 15.7546 76.0156 9.98527C76.0156 9.76337 76.0156 9.76337 76.0156 9.98527Z" fill="#1C6A38"/>
<path d="M74.0186 8.432C70.2468 13.5356 67.3624 19.083 64.0342 24.6304C64.0342 24.8523 63.5905 24.6304 63.8124 24.4085C66.253 18.4173 70.0249 13.0918 73.7968 7.98821C74.0186 7.76631 74.2405 8.21011 74.0186 8.432Z" fill="#1C6A38"/>
<path d="M79.1219 3.10653C73.3531 9.54151 65.8093 15.3108 62.0374 23.299C61.8156 23.5209 61.3718 23.5209 61.3718 23.0771C62.2593 19.083 64.9218 16.4203 67.5843 13.5356C71.1343 9.7634 74.9062 6.21307 78.6781 2.88464C79.1218 2.66274 79.3437 2.88464 79.1219 3.10653Z" fill="#1C6A38"/>
<path d="M64.7 18.1954C61.5937 21.7458 59.5968 25.7399 57.3781 29.734C57.1562 29.9559 56.9343 29.734 56.9343 29.5121C58.2656 25.0742 61.3718 21.302 64.7 18.1954C64.7 18.1954 64.4781 17.9735 64.7 18.1954Z" fill="#1C6A38"/>
<path d="M85.7781 58.8024C84.225 59.69 82.45 60.3557 81.1187 61.2433C79.5656 62.1308 78.2344 63.4622 76.6812 64.5717C76.4594 64.7936 76.0156 64.5717 76.2375 64.1279C77.7906 61.0214 82.2281 58.1367 85.5562 58.1367C85.7781 58.1367 86 58.5805 85.7781 58.8024Z" fill="#1C6A38"/>
<path d="M82.4499 58.1367C80.2311 60.1338 77.7905 62.3528 74.9061 63.6841C74.6843 63.906 74.4624 63.4622 74.4624 63.2403C76.4593 61.0214 79.3436 59.2462 81.7843 57.4711C82.4499 57.2492 82.8936 57.9148 82.4499 58.1367Z" fill="#1C6A38"/>
<path d="M85.1124 60.5776C82.6718 60.7995 81.1186 61.909 79.3436 63.2403C79.1218 63.4622 78.8999 63.2403 78.8999 63.0184C79.7874 60.7995 82.6718 59.69 85.1124 59.9119C85.3342 59.9119 85.3342 60.5776 85.1124 60.5776Z" fill="#1C6A38"/>
<path d="M85.778 62.5747C82.228 62.3528 79.3437 63.4622 76.4593 65.4593C76.2374 65.6812 76.0155 65.4593 76.2374 65.2374C78.2343 62.3528 82.4499 61.2433 85.9999 62.1309C85.9999 62.1309 85.9999 62.5747 85.778 62.5747Z" fill="#1C6A38"/>
<path d="M79.3436 62.1308C70.2467 69.4534 63.1467 77.4416 56.2686 86.7613C56.0467 86.9831 55.8249 86.7613 56.0467 86.5394C60.928 76.776 70.0249 67.9001 79.3436 62.1308C79.3436 62.1308 79.3436 61.909 79.3436 62.1308Z" fill="#1C6A38"/>
<path d="M61.3719 82.1014C58.4875 84.3204 57.1562 88.7583 53.1625 89.6459C47.6156 90.9772 43.1781 85.2079 37.8531 89.6459C37.6312 89.8678 37.1875 89.424 37.4093 89.2021C39.6281 86.5393 42.7344 86.7612 45.8406 87.6488C49.6125 88.5364 52.7187 90.0897 56.2687 86.9831C58.2656 85.2079 59.1531 83.4328 61.3719 81.8795C61.3719 81.6576 61.5937 81.8795 61.3719 82.1014Z" fill="#1C6A38"/>
<path d="M38.7405 89.6459C28.3124 98.5217 30.0874 116.273 17.4405 123.152C16.9968 123.374 16.553 122.486 16.9968 122.265C28.7562 114.276 26.7593 96.9684 38.7405 89.6459C38.9624 89.424 38.7405 89.2021 38.7405 89.6459Z" fill="#1C6A38"/>
<path d="M48.725 89.8678C44.0656 96.0809 39.4062 102.516 33.8593 108.063C33.6374 108.285 33.6375 108.063 33.6375 107.841C38.075 101.406 43.3999 95.6371 48.725 89.8678C48.9468 89.8678 48.725 89.6459 48.725 89.8678Z" fill="#1C6A38"/>
<path d="M47.1719 89.202C42.5125 94.7494 37.4094 100.519 31.8625 105.4C31.8625 105.4 31.6406 105.4 31.6406 105.179C36.5219 99.4092 41.625 94.0837 47.1719 89.202C47.3938 88.9801 47.1719 88.7582 47.1719 89.202Z" fill="#1C6A38"/>
<path d="M43.3999 89.8678C39.628 93.64 36.7437 98.0779 33.1937 102.072C32.9718 102.294 32.7499 102.072 32.9718 101.85C35.4124 97.1903 39.4062 93.1962 43.178 89.424C43.178 89.2021 43.6218 89.424 43.3999 89.8678Z" fill="#1C6A38"/>
<path d="M40.5156 88.3144C38.9625 90.5334 37.4093 92.9743 35.6343 94.9713C35.4125 95.1932 35.1906 94.9713 35.4125 94.7494C36.9656 92.3086 38.5187 90.0896 40.0719 87.8707C40.2937 87.6488 40.7375 88.0926 40.5156 88.3144Z" fill="#1C6A38"/>
<path d="M66.6968 100.741C65.8093 103.403 64.2562 105.844 62.703 108.285C61.1499 111.17 59.3749 113.832 57.5999 116.495C57.378 116.717 57.1562 116.495 57.378 116.273C58.4874 113.611 60.0405 111.17 61.3718 108.729C62.9249 106.066 64.2562 102.96 66.6968 100.741C66.6968 100.519 66.4749 100.519 66.6968 100.741Z" fill="#1C6A38"/>
<path d="M66.6968 102.516C65.8093 107.619 62.2593 115.608 57.5999 118.048C57.378 118.048 57.1562 117.827 57.378 117.827C58.4874 115.386 60.4843 113.611 62.0374 111.392C63.8124 108.507 65.1437 105.622 66.6968 102.516C66.6968 102.294 66.4749 102.294 66.6968 102.516Z" fill="#1C6A38"/>
<path d="M66.9187 104.513C65.1437 108.951 62.4812 114.276 58.9312 117.605C58.7094 117.827 58.0437 117.383 58.2656 117.161C59.375 114.942 60.9281 113.167 62.2594 111.17C63.5906 108.951 65.1437 106.732 66.475 104.291C66.6969 103.847 67.1406 104.069 66.9187 104.513Z" fill="#1C6A38"/>
<path d="M66.4749 100.297C64.6999 102.96 62.9249 105.4 61.3718 108.063C60.0406 110.504 58.9312 112.945 57.5999 115.386C57.378 115.608 56.7124 115.386 56.9343 115.164C58.2656 109.838 62.0374 103.847 66.0312 100.075C66.2531 99.853 66.4749 100.075 66.4749 100.297Z" fill="#1C6A38"/>
<path d="M64.6998 98.9655C63.5904 101.184 62.4811 103.403 61.1498 105.4C60.0405 107.398 58.9311 109.838 57.1561 111.614C56.9342 111.835 56.4905 111.614 56.7123 111.392C57.378 109.173 58.7092 107.176 59.8186 105.179C61.1498 102.96 62.4811 100.741 64.0342 98.5217C64.2561 98.5217 64.9217 98.7436 64.6998 98.9655Z" fill="#1C6A38"/>
<path d="M61.8156 101.184C59.8187 103.625 58.4874 106.288 57.3781 109.173C57.3781 109.395 56.9343 109.395 56.9343 109.173C57.3781 105.844 59.3749 103.181 61.8156 101.184C61.8156 101.184 61.8156 100.963 61.8156 101.184Z" fill="#1C6A38"/>
<path d="M78.2344 89.2021C71.1344 93.1962 67.1406 98.2998 63.1469 105.4C62.925 105.622 62.7031 105.622 62.7031 105.179C64.2563 97.6341 70.9125 91.1991 78.0125 88.5364C78.4563 88.7583 78.4563 89.2021 78.2344 89.2021Z" fill="#1C6A38"/>
<path d="M10.1187 138.907C8.56556 140.904 6.79056 142.457 4.79369 143.566C6.79056 142.235 8.56556 140.682 10.1187 138.907C10.3406 138.685 10.1187 138.685 10.1187 138.907Z" fill="#1C6A38"/>
<path d="M17.6623 126.481C13.4467 134.025 8.34355 140.904 1.6873 146.451C1.46543 146.673 1.24355 146.451 1.46543 146.229C7.45606 140.016 13.0029 133.803 17.6623 126.481Z" fill="#1C6A38"/>
<path d="M14.1125 126.259C10.1188 131.362 5.90313 136.688 1.46562 141.348C1.24375 141.569 1.02187 141.348 1.24375 141.126C5.01563 135.8 9.45313 130.918 13.6688 126.037C13.8906 125.815 14.1125 126.037 14.1125 126.259Z" fill="#1C6A38"/>
<path d="M12.3374 122.93C9.00926 128.256 5.0155 133.581 0.356134 137.797C0.134259 138.019 0.134262 137.797 0.134262 137.575C4.12801 132.694 8.34364 127.812 12.3374 122.93C12.5593 122.93 12.3374 122.708 12.3374 122.93Z" fill="#1C6A38"/>
<path d="M11.45 119.38C8.3437 124.04 5.01559 128.921 1.24371 132.915C1.02184 133.137 0.799942 132.915 1.02182 132.694C3.9062 127.812 7.67807 123.374 11.2281 118.936C11.45 118.936 11.6718 119.158 11.45 119.38Z" fill="#1C6A38"/>
<path d="M12.1155 114.276C9.23113 118.27 6.56863 122.708 3.24051 126.259C3.01864 126.481 2.79677 126.259 3.01864 126.037C5.45926 121.821 8.78738 118.049 11.8936 114.054C11.8936 113.833 12.3374 114.054 12.1155 114.276Z" fill="#1C6A38"/>
<path d="M8.56548 115.83C7.23424 117.605 6.12487 119.602 4.79363 121.377C4.79363 121.377 4.57176 121.377 4.57176 121.155C5.68113 119.158 7.01236 117.383 8.34361 115.608C8.34361 115.386 8.78735 115.608 8.56548 115.83Z" fill="#1C6A38"/>
<path d="M-23.6064 177.738C-23.1626 177.295 -20.2782 174.188 -19.1689 173.079C-16.2845 170.416 -13.622 167.753 -10.7376 165.09C-5.41263 159.987 -0.309523 154.439 5.45923 150.223C5.90298 150.001 6.34673 150.445 6.12486 150.889C1.90924 155.993 -3.41576 160.431 -8.29701 165.09C-13.622 170.194 -18.947 175.298 -24.4939 179.957C-24.9376 180.401 -25.3814 179.735 -25.1595 179.292C-24.4939 177.96 -24.9376 178.404 -23.6064 177.738Z" fill="#1C6A38"/>
</g>
<defs>
<clipPath id="clip0_328_2805">
<rect width="157" height="219" fill="white"/>
</clipPath>
</defs>
</svg>
